G04 #@! TF.GenerationSoftware,KiCad,Pcbnew,(5.1.4-0)*
G04 #@! TF.CreationDate,2021-06-22T22:46:31+02:00*
G04 #@! TF.ProjectId,accumulator_HV_distribution_board,61636375-6d75-46c6-9174-6f725f48565f,rev?*
G04 #@! TF.SameCoordinates,Original*
G04 #@! TF.FileFunction,Copper,L1,Top*
G04 #@! TF.FilePolarity,Positive*
%FSLAX46Y46*%
G04 Gerber Fmt 4.6, Leading zero omitted, Abs format (unit mm)*
G04 Created by KiCad (PCBNEW (5.1.4-0)) date 2021-06-22 22:46:31*
%MOMM*%
%LPD*%
G04 APERTURE LIST*
%ADD10C,2.000000*%
%ADD11C,2.500000*%
%ADD12C,2.400000*%
%ADD13C,1.000000*%
G04 APERTURE END LIST*
D10*
X165600000Y-108000000D03*
X165600000Y-105000000D03*
X165600000Y-95000000D03*
X165600000Y-98000000D03*
D11*
X141900000Y-106300000D03*
X146100000Y-106300000D03*
X160000000Y-75400000D03*
X160000000Y-71200000D03*
X160000000Y-67000000D03*
X160000000Y-52000000D03*
X160000000Y-56200000D03*
X160000000Y-60400000D03*
D10*
X151000000Y-119500000D03*
X151000000Y-115300000D03*
D11*
X159700000Y-83900000D03*
X159700000Y-88100000D03*
D10*
X157000000Y-106500000D03*
X152800000Y-106500000D03*
D12*
X132000000Y-121000000D03*
X132000000Y-84000000D03*
D13*
X161669125Y-111930875D02*
X165600000Y-108000000D01*
X165600000Y-108000000D02*
X165600000Y-105000000D01*
X156930875Y-110527165D02*
X156930875Y-111930875D01*
X157000000Y-110458040D02*
X156930875Y-110527165D01*
X157000000Y-106500000D02*
X157000000Y-110458040D01*
X156930875Y-111930875D02*
X161669125Y-111930875D01*
X154330875Y-111969125D02*
X154330875Y-111930875D01*
X151000000Y-115300000D02*
X154330875Y-111969125D01*
X154330875Y-111930875D02*
X156930875Y-111930875D01*
X157000000Y-82541468D02*
X154573622Y-80115090D01*
X157000000Y-106500000D02*
X157000000Y-82541468D01*
X154573622Y-72426378D02*
X154573622Y-80115090D01*
X160000000Y-67000000D02*
X154573622Y-72426378D01*
X150688712Y-84000000D02*
X154573622Y-80115090D01*
X132000000Y-84000000D02*
X150688712Y-84000000D01*
X172540445Y-95092447D02*
X172540445Y-107431557D01*
X164599999Y-87152001D02*
X172540445Y-95092447D01*
X160472002Y-119500000D02*
X151000000Y-119500000D01*
X164599999Y-84847999D02*
X164599999Y-87152001D01*
X165426377Y-84021621D02*
X164599999Y-84847999D01*
X165426377Y-76626377D02*
X165426377Y-84021621D01*
X172540445Y-107431557D02*
X160472002Y-119500000D01*
X160000000Y-71200000D02*
X165426377Y-76626377D01*
X132000000Y-116200000D02*
X141900000Y-106300000D01*
X132000000Y-121000000D02*
X132000000Y-116200000D01*
M02*
