G04 #@! TF.GenerationSoftware,KiCad,Pcbnew,(5.1.4-0)*
G04 #@! TF.CreationDate,2021-06-22T22:46:32+02:00*
G04 #@! TF.ProjectId,accumulator_HV_distribution_board,61636375-6d75-46c6-9174-6f725f48565f,rev?*
G04 #@! TF.SameCoordinates,Original*
G04 #@! TF.FileFunction,Profile,NP*
%FSLAX46Y46*%
G04 Gerber Fmt 4.6, Leading zero omitted, Abs format (unit mm)*
G04 Created by KiCad (PCBNEW (5.1.4-0)) date 2021-06-22 22:46:32*
%MOMM*%
%LPD*%
G04 APERTURE LIST*
%ADD10C,0.050000*%
G04 APERTURE END LIST*
D10*
X163700000Y-78600000D02*
X156300000Y-78600000D01*
X156300000Y-80200000D02*
G75*
G02X156300000Y-78600000I0J800000D01*
G01*
X163700000Y-78600000D02*
G75*
G02X163700000Y-80200000I0J-800000D01*
G01*
X163700000Y-80200000D02*
X156300000Y-80200000D01*
X170000000Y-123000000D02*
X120000000Y-123000000D01*
X154600000Y-116600000D02*
G75*
G02X154600000Y-118200000I0J-800000D01*
G01*
X147200000Y-116600000D02*
X154600000Y-116600000D01*
X147200000Y-118200000D02*
G75*
G02X147200000Y-116600000I0J800000D01*
G01*
X147200000Y-118200000D02*
X154600000Y-118200000D01*
X155700000Y-110100000D02*
G75*
G02X154100000Y-110100000I-800000J0D01*
G01*
X155700000Y-102700000D02*
X155700000Y-110100000D01*
X154100000Y-102700000D02*
G75*
G02X155700000Y-102700000I800000J0D01*
G01*
X154100000Y-102700000D02*
X154100000Y-110100000D01*
X144800000Y-102400000D02*
X144800000Y-109800000D01*
X143200000Y-102400000D02*
X143200000Y-109800000D01*
X143200000Y-102400000D02*
G75*
G02X144800000Y-102400000I800000J0D01*
G01*
X144800000Y-109800000D02*
G75*
G02X143200000Y-109800000I-800000J0D01*
G01*
X160600000Y-103500000D02*
X169600000Y-103500000D01*
X169600000Y-99500000D02*
X160600000Y-99500000D01*
X169600000Y-99500000D02*
G75*
G02X169600000Y-103500000I0J-2000000D01*
G01*
X160600000Y-103500000D02*
G75*
G02X160600000Y-99500000I0J2000000D01*
G01*
X175000000Y-118000000D02*
G75*
G02X170000000Y-123000000I-5000000J0D01*
G01*
X120000000Y-123000000D02*
G75*
G02X115000000Y-118000000I0J5000000D01*
G01*
X115000000Y-45000000D02*
G75*
G02X120000000Y-40000000I5000000J0D01*
G01*
X170000000Y-40000000D02*
G75*
G02X175000000Y-45000000I0J-5000000D01*
G01*
X115000000Y-118000000D02*
X115000000Y-45000000D01*
X175000000Y-45000000D02*
X175000000Y-118000000D01*
X120000000Y-40000000D02*
X170000000Y-40000000D01*
M02*
