G04 #@! TF.GenerationSoftware,KiCad,Pcbnew,(5.1.4-0)*
G04 #@! TF.CreationDate,2021-06-22T22:46:31+02:00*
G04 #@! TF.ProjectId,accumulator_HV_distribution_board,61636375-6d75-46c6-9174-6f725f48565f,rev?*
G04 #@! TF.SameCoordinates,Original*
G04 #@! TF.FileFunction,Soldermask,Top*
G04 #@! TF.FilePolarity,Negative*
%FSLAX46Y46*%
G04 Gerber Fmt 4.6, Leading zero omitted, Abs format (unit mm)*
G04 Created by KiCad (PCBNEW (5.1.4-0)) date 2021-06-22 22:46:31*
%MOMM*%
%LPD*%
G04 APERTURE LIST*
%ADD10C,0.100000*%
G04 APERTURE END LIST*
D10*
G36*
X132364903Y-119797075D02*
G01*
X132592571Y-119891378D01*
X132797466Y-120028285D01*
X132971715Y-120202534D01*
X133108622Y-120407429D01*
X133108623Y-120407431D01*
X133118545Y-120431385D01*
X133202925Y-120635097D01*
X133251000Y-120876787D01*
X133251000Y-121123213D01*
X133202925Y-121364903D01*
X133108622Y-121592571D01*
X132971715Y-121797466D01*
X132797466Y-121971715D01*
X132592571Y-122108622D01*
X132592570Y-122108623D01*
X132592569Y-122108623D01*
X132364903Y-122202925D01*
X132123214Y-122251000D01*
X131876786Y-122251000D01*
X131635097Y-122202925D01*
X131407431Y-122108623D01*
X131407430Y-122108623D01*
X131407429Y-122108622D01*
X131202534Y-121971715D01*
X131028285Y-121797466D01*
X130891378Y-121592571D01*
X130797075Y-121364903D01*
X130749000Y-121123213D01*
X130749000Y-120876787D01*
X130797075Y-120635097D01*
X130881455Y-120431385D01*
X130891377Y-120407431D01*
X130891378Y-120407429D01*
X131028285Y-120202534D01*
X131202534Y-120028285D01*
X131407429Y-119891378D01*
X131635097Y-119797075D01*
X131876786Y-119749000D01*
X132123214Y-119749000D01*
X132364903Y-119797075D01*
X132364903Y-119797075D01*
G37*
G36*
X151306564Y-118489389D02*
G01*
X151497833Y-118568615D01*
X151497835Y-118568616D01*
X151669973Y-118683635D01*
X151816365Y-118830027D01*
X151931385Y-119002167D01*
X152010611Y-119193436D01*
X152051000Y-119396484D01*
X152051000Y-119603516D01*
X152010611Y-119806564D01*
X151975480Y-119891377D01*
X151931384Y-119997835D01*
X151816365Y-120169973D01*
X151669973Y-120316365D01*
X151497835Y-120431384D01*
X151497834Y-120431385D01*
X151497833Y-120431385D01*
X151306564Y-120510611D01*
X151103516Y-120551000D01*
X150896484Y-120551000D01*
X150693436Y-120510611D01*
X150502167Y-120431385D01*
X150502166Y-120431385D01*
X150502165Y-120431384D01*
X150330027Y-120316365D01*
X150183635Y-120169973D01*
X150068616Y-119997835D01*
X150024520Y-119891377D01*
X149989389Y-119806564D01*
X149949000Y-119603516D01*
X149949000Y-119396484D01*
X149989389Y-119193436D01*
X150068615Y-119002167D01*
X150183635Y-118830027D01*
X150330027Y-118683635D01*
X150502165Y-118568616D01*
X150502167Y-118568615D01*
X150693436Y-118489389D01*
X150896484Y-118449000D01*
X151103516Y-118449000D01*
X151306564Y-118489389D01*
X151306564Y-118489389D01*
G37*
G36*
X170375256Y-116391298D02*
G01*
X170481579Y-116412447D01*
X170782042Y-116536903D01*
X171052451Y-116717585D01*
X171282415Y-116947549D01*
X171463097Y-117217958D01*
X171587553Y-117518421D01*
X171651000Y-117837391D01*
X171651000Y-118162609D01*
X171587553Y-118481579D01*
X171463097Y-118782042D01*
X171282415Y-119052451D01*
X171052451Y-119282415D01*
X170782042Y-119463097D01*
X170481579Y-119587553D01*
X170401327Y-119603516D01*
X170162611Y-119651000D01*
X169837389Y-119651000D01*
X169598673Y-119603516D01*
X169518421Y-119587553D01*
X169217958Y-119463097D01*
X168947549Y-119282415D01*
X168717585Y-119052451D01*
X168536903Y-118782042D01*
X168412447Y-118481579D01*
X168349000Y-118162609D01*
X168349000Y-117837391D01*
X168412447Y-117518421D01*
X168536903Y-117217958D01*
X168717585Y-116947549D01*
X168947549Y-116717585D01*
X169217958Y-116536903D01*
X169518421Y-116412447D01*
X169624744Y-116391298D01*
X169837389Y-116349000D01*
X170162611Y-116349000D01*
X170375256Y-116391298D01*
X170375256Y-116391298D01*
G37*
G36*
X120375256Y-116391298D02*
G01*
X120481579Y-116412447D01*
X120782042Y-116536903D01*
X121052451Y-116717585D01*
X121282415Y-116947549D01*
X121463097Y-117217958D01*
X121587553Y-117518421D01*
X121651000Y-117837391D01*
X121651000Y-118162609D01*
X121587553Y-118481579D01*
X121463097Y-118782042D01*
X121282415Y-119052451D01*
X121052451Y-119282415D01*
X120782042Y-119463097D01*
X120481579Y-119587553D01*
X120401327Y-119603516D01*
X120162611Y-119651000D01*
X119837389Y-119651000D01*
X119598673Y-119603516D01*
X119518421Y-119587553D01*
X119217958Y-119463097D01*
X118947549Y-119282415D01*
X118717585Y-119052451D01*
X118536903Y-118782042D01*
X118412447Y-118481579D01*
X118349000Y-118162609D01*
X118349000Y-117837391D01*
X118412447Y-117518421D01*
X118536903Y-117217958D01*
X118717585Y-116947549D01*
X118947549Y-116717585D01*
X119217958Y-116536903D01*
X119518421Y-116412447D01*
X119624744Y-116391298D01*
X119837389Y-116349000D01*
X120162611Y-116349000D01*
X120375256Y-116391298D01*
X120375256Y-116391298D01*
G37*
G36*
X151306564Y-114289389D02*
G01*
X151497833Y-114368615D01*
X151497835Y-114368616D01*
X151669973Y-114483635D01*
X151816365Y-114630027D01*
X151931385Y-114802167D01*
X152010611Y-114993436D01*
X152051000Y-115196484D01*
X152051000Y-115403516D01*
X152010611Y-115606564D01*
X151931385Y-115797833D01*
X151931384Y-115797835D01*
X151816365Y-115969973D01*
X151669973Y-116116365D01*
X151497835Y-116231384D01*
X151497834Y-116231385D01*
X151497833Y-116231385D01*
X151306564Y-116310611D01*
X151103516Y-116351000D01*
X150896484Y-116351000D01*
X150693436Y-116310611D01*
X150502167Y-116231385D01*
X150502166Y-116231385D01*
X150502165Y-116231384D01*
X150330027Y-116116365D01*
X150183635Y-115969973D01*
X150068616Y-115797835D01*
X150068615Y-115797833D01*
X149989389Y-115606564D01*
X149949000Y-115403516D01*
X149949000Y-115196484D01*
X149989389Y-114993436D01*
X150068615Y-114802167D01*
X150183635Y-114630027D01*
X150330027Y-114483635D01*
X150502165Y-114368616D01*
X150502167Y-114368615D01*
X150693436Y-114289389D01*
X150896484Y-114249000D01*
X151103516Y-114249000D01*
X151306564Y-114289389D01*
X151306564Y-114289389D01*
G37*
G36*
X165906564Y-106989389D02*
G01*
X166097833Y-107068615D01*
X166097835Y-107068616D01*
X166269973Y-107183635D01*
X166416365Y-107330027D01*
X166522390Y-107488704D01*
X166531385Y-107502167D01*
X166610611Y-107693436D01*
X166651000Y-107896484D01*
X166651000Y-108103516D01*
X166610611Y-108306564D01*
X166531385Y-108497833D01*
X166531384Y-108497835D01*
X166416365Y-108669973D01*
X166269973Y-108816365D01*
X166097835Y-108931384D01*
X166097834Y-108931385D01*
X166097833Y-108931385D01*
X165906564Y-109010611D01*
X165703516Y-109051000D01*
X165496484Y-109051000D01*
X165293436Y-109010611D01*
X165102167Y-108931385D01*
X165102166Y-108931385D01*
X165102165Y-108931384D01*
X164930027Y-108816365D01*
X164783635Y-108669973D01*
X164668616Y-108497835D01*
X164668615Y-108497833D01*
X164589389Y-108306564D01*
X164549000Y-108103516D01*
X164549000Y-107896484D01*
X164589389Y-107693436D01*
X164668615Y-107502167D01*
X164677611Y-107488704D01*
X164783635Y-107330027D01*
X164930027Y-107183635D01*
X165102165Y-107068616D01*
X165102167Y-107068615D01*
X165293436Y-106989389D01*
X165496484Y-106949000D01*
X165703516Y-106949000D01*
X165906564Y-106989389D01*
X165906564Y-106989389D01*
G37*
G36*
X170222585Y-104978802D02*
G01*
X170372410Y-105008604D01*
X170654674Y-105125521D01*
X170908705Y-105295259D01*
X171124741Y-105511295D01*
X171294479Y-105765326D01*
X171411396Y-106047590D01*
X171411396Y-106047591D01*
X171471000Y-106347239D01*
X171471000Y-106652761D01*
X171441198Y-106802585D01*
X171411396Y-106952410D01*
X171294479Y-107234674D01*
X171124741Y-107488705D01*
X170908705Y-107704741D01*
X170654674Y-107874479D01*
X170372410Y-107991396D01*
X170222585Y-108021198D01*
X170072761Y-108051000D01*
X169767239Y-108051000D01*
X169617415Y-108021198D01*
X169467590Y-107991396D01*
X169185326Y-107874479D01*
X168931295Y-107704741D01*
X168715259Y-107488705D01*
X168545521Y-107234674D01*
X168428604Y-106952410D01*
X168398802Y-106802585D01*
X168369000Y-106652761D01*
X168369000Y-106347239D01*
X168428604Y-106047591D01*
X168428604Y-106047590D01*
X168545521Y-105765326D01*
X168715259Y-105511295D01*
X168931295Y-105295259D01*
X169185326Y-105125521D01*
X169467590Y-105008604D01*
X169617415Y-104978802D01*
X169767239Y-104949000D01*
X170072761Y-104949000D01*
X170222585Y-104978802D01*
X170222585Y-104978802D01*
G37*
G36*
X146479487Y-105048996D02*
G01*
X146716253Y-105147068D01*
X146716255Y-105147069D01*
X146929339Y-105289447D01*
X147110553Y-105470661D01*
X147252858Y-105683635D01*
X147252932Y-105683747D01*
X147351004Y-105920513D01*
X147401000Y-106171861D01*
X147401000Y-106428139D01*
X147351004Y-106679487D01*
X147298366Y-106806565D01*
X147252931Y-106916255D01*
X147110553Y-107129339D01*
X146929339Y-107310553D01*
X146716255Y-107452931D01*
X146716254Y-107452932D01*
X146716253Y-107452932D01*
X146479487Y-107551004D01*
X146228139Y-107601000D01*
X145971861Y-107601000D01*
X145720513Y-107551004D01*
X145483747Y-107452932D01*
X145483746Y-107452932D01*
X145483745Y-107452931D01*
X145270661Y-107310553D01*
X145089447Y-107129339D01*
X144947069Y-106916255D01*
X144901634Y-106806565D01*
X144848996Y-106679487D01*
X144799000Y-106428139D01*
X144799000Y-106171861D01*
X144848996Y-105920513D01*
X144947068Y-105683747D01*
X144947143Y-105683635D01*
X145089447Y-105470661D01*
X145270661Y-105289447D01*
X145483745Y-105147069D01*
X145483747Y-105147068D01*
X145720513Y-105048996D01*
X145971861Y-104999000D01*
X146228139Y-104999000D01*
X146479487Y-105048996D01*
X146479487Y-105048996D01*
G37*
G36*
X142279487Y-105048996D02*
G01*
X142516253Y-105147068D01*
X142516255Y-105147069D01*
X142729339Y-105289447D01*
X142910553Y-105470661D01*
X143052858Y-105683635D01*
X143052932Y-105683747D01*
X143151004Y-105920513D01*
X143201000Y-106171861D01*
X143201000Y-106428139D01*
X143151004Y-106679487D01*
X143098366Y-106806565D01*
X143052931Y-106916255D01*
X142910553Y-107129339D01*
X142729339Y-107310553D01*
X142516255Y-107452931D01*
X142516254Y-107452932D01*
X142516253Y-107452932D01*
X142279487Y-107551004D01*
X142028139Y-107601000D01*
X141771861Y-107601000D01*
X141520513Y-107551004D01*
X141283747Y-107452932D01*
X141283746Y-107452932D01*
X141283745Y-107452931D01*
X141070661Y-107310553D01*
X140889447Y-107129339D01*
X140747069Y-106916255D01*
X140701634Y-106806565D01*
X140648996Y-106679487D01*
X140599000Y-106428139D01*
X140599000Y-106171861D01*
X140648996Y-105920513D01*
X140747068Y-105683747D01*
X140747143Y-105683635D01*
X140889447Y-105470661D01*
X141070661Y-105289447D01*
X141283745Y-105147069D01*
X141283747Y-105147068D01*
X141520513Y-105048996D01*
X141771861Y-104999000D01*
X142028139Y-104999000D01*
X142279487Y-105048996D01*
X142279487Y-105048996D01*
G37*
G36*
X157306564Y-105489389D02*
G01*
X157497833Y-105568615D01*
X157497835Y-105568616D01*
X157669973Y-105683635D01*
X157816365Y-105830027D01*
X157884090Y-105931384D01*
X157931385Y-106002167D01*
X158010611Y-106193436D01*
X158051000Y-106396484D01*
X158051000Y-106603516D01*
X158010611Y-106806564D01*
X157934882Y-106989390D01*
X157931384Y-106997835D01*
X157816365Y-107169973D01*
X157669973Y-107316365D01*
X157497835Y-107431384D01*
X157497834Y-107431385D01*
X157497833Y-107431385D01*
X157306564Y-107510611D01*
X157103516Y-107551000D01*
X156896484Y-107551000D01*
X156693436Y-107510611D01*
X156502167Y-107431385D01*
X156502166Y-107431385D01*
X156502165Y-107431384D01*
X156330027Y-107316365D01*
X156183635Y-107169973D01*
X156068616Y-106997835D01*
X156065118Y-106989390D01*
X155989389Y-106806564D01*
X155949000Y-106603516D01*
X155949000Y-106396484D01*
X155989389Y-106193436D01*
X156068615Y-106002167D01*
X156115911Y-105931384D01*
X156183635Y-105830027D01*
X156330027Y-105683635D01*
X156502165Y-105568616D01*
X156502167Y-105568615D01*
X156693436Y-105489389D01*
X156896484Y-105449000D01*
X157103516Y-105449000D01*
X157306564Y-105489389D01*
X157306564Y-105489389D01*
G37*
G36*
X153106564Y-105489389D02*
G01*
X153297833Y-105568615D01*
X153297835Y-105568616D01*
X153469973Y-105683635D01*
X153616365Y-105830027D01*
X153684090Y-105931384D01*
X153731385Y-106002167D01*
X153810611Y-106193436D01*
X153851000Y-106396484D01*
X153851000Y-106603516D01*
X153810611Y-106806564D01*
X153734882Y-106989390D01*
X153731384Y-106997835D01*
X153616365Y-107169973D01*
X153469973Y-107316365D01*
X153297835Y-107431384D01*
X153297834Y-107431385D01*
X153297833Y-107431385D01*
X153106564Y-107510611D01*
X152903516Y-107551000D01*
X152696484Y-107551000D01*
X152493436Y-107510611D01*
X152302167Y-107431385D01*
X152302166Y-107431385D01*
X152302165Y-107431384D01*
X152130027Y-107316365D01*
X151983635Y-107169973D01*
X151868616Y-106997835D01*
X151865118Y-106989390D01*
X151789389Y-106806564D01*
X151749000Y-106603516D01*
X151749000Y-106396484D01*
X151789389Y-106193436D01*
X151868615Y-106002167D01*
X151915911Y-105931384D01*
X151983635Y-105830027D01*
X152130027Y-105683635D01*
X152302165Y-105568616D01*
X152302167Y-105568615D01*
X152493436Y-105489389D01*
X152696484Y-105449000D01*
X152903516Y-105449000D01*
X153106564Y-105489389D01*
X153106564Y-105489389D01*
G37*
G36*
X165906564Y-103989389D02*
G01*
X166097833Y-104068615D01*
X166097835Y-104068616D01*
X166269973Y-104183635D01*
X166416365Y-104330027D01*
X166531385Y-104502167D01*
X166610611Y-104693436D01*
X166651000Y-104896484D01*
X166651000Y-105103516D01*
X166610611Y-105306564D01*
X166534882Y-105489390D01*
X166531384Y-105497835D01*
X166416365Y-105669973D01*
X166269973Y-105816365D01*
X166097835Y-105931384D01*
X166097834Y-105931385D01*
X166097833Y-105931385D01*
X165906564Y-106010611D01*
X165703516Y-106051000D01*
X165496484Y-106051000D01*
X165293436Y-106010611D01*
X165102167Y-105931385D01*
X165102166Y-105931385D01*
X165102165Y-105931384D01*
X164930027Y-105816365D01*
X164783635Y-105669973D01*
X164668616Y-105497835D01*
X164665118Y-105489390D01*
X164589389Y-105306564D01*
X164549000Y-105103516D01*
X164549000Y-104896484D01*
X164589389Y-104693436D01*
X164668615Y-104502167D01*
X164783635Y-104330027D01*
X164930027Y-104183635D01*
X165102165Y-104068616D01*
X165102167Y-104068615D01*
X165293436Y-103989389D01*
X165496484Y-103949000D01*
X165703516Y-103949000D01*
X165906564Y-103989389D01*
X165906564Y-103989389D01*
G37*
G36*
X144302585Y-97478802D02*
G01*
X144452410Y-97508604D01*
X144734674Y-97625521D01*
X144988705Y-97795259D01*
X145204741Y-98011295D01*
X145374479Y-98265326D01*
X145491396Y-98547590D01*
X145551000Y-98847240D01*
X145551000Y-99152760D01*
X145491396Y-99452410D01*
X145374479Y-99734674D01*
X145204741Y-99988705D01*
X144988705Y-100204741D01*
X144734674Y-100374479D01*
X144452410Y-100491396D01*
X144302585Y-100521198D01*
X144152761Y-100551000D01*
X143847239Y-100551000D01*
X143697415Y-100521198D01*
X143547590Y-100491396D01*
X143265326Y-100374479D01*
X143011295Y-100204741D01*
X142795259Y-99988705D01*
X142625521Y-99734674D01*
X142508604Y-99452410D01*
X142449000Y-99152760D01*
X142449000Y-98847240D01*
X142508604Y-98547590D01*
X142625521Y-98265326D01*
X142795259Y-98011295D01*
X143011295Y-97795259D01*
X143265326Y-97625521D01*
X143547590Y-97508604D01*
X143697415Y-97478802D01*
X143847239Y-97449000D01*
X144152761Y-97449000D01*
X144302585Y-97478802D01*
X144302585Y-97478802D01*
G37*
G36*
X165906564Y-96989389D02*
G01*
X166097833Y-97068615D01*
X166097835Y-97068616D01*
X166269973Y-97183635D01*
X166416365Y-97330027D01*
X166522390Y-97488704D01*
X166531385Y-97502167D01*
X166610611Y-97693436D01*
X166651000Y-97896484D01*
X166651000Y-98103516D01*
X166610611Y-98306564D01*
X166531385Y-98497833D01*
X166531384Y-98497835D01*
X166416365Y-98669973D01*
X166269973Y-98816365D01*
X166097835Y-98931384D01*
X166097834Y-98931385D01*
X166097833Y-98931385D01*
X165906564Y-99010611D01*
X165703516Y-99051000D01*
X165496484Y-99051000D01*
X165293436Y-99010611D01*
X165102167Y-98931385D01*
X165102166Y-98931385D01*
X165102165Y-98931384D01*
X164930027Y-98816365D01*
X164783635Y-98669973D01*
X164668616Y-98497835D01*
X164668615Y-98497833D01*
X164589389Y-98306564D01*
X164549000Y-98103516D01*
X164549000Y-97896484D01*
X164589389Y-97693436D01*
X164668615Y-97502167D01*
X164677611Y-97488704D01*
X164783635Y-97330027D01*
X164930027Y-97183635D01*
X165102165Y-97068616D01*
X165102167Y-97068615D01*
X165293436Y-96989389D01*
X165496484Y-96949000D01*
X165703516Y-96949000D01*
X165906564Y-96989389D01*
X165906564Y-96989389D01*
G37*
G36*
X170222585Y-94978802D02*
G01*
X170372410Y-95008604D01*
X170654674Y-95125521D01*
X170908705Y-95295259D01*
X171124741Y-95511295D01*
X171294479Y-95765326D01*
X171411396Y-96047590D01*
X171471000Y-96347240D01*
X171471000Y-96652760D01*
X171411396Y-96952410D01*
X171294479Y-97234674D01*
X171124741Y-97488705D01*
X170908705Y-97704741D01*
X170654674Y-97874479D01*
X170372410Y-97991396D01*
X170222585Y-98021198D01*
X170072761Y-98051000D01*
X169767239Y-98051000D01*
X169617415Y-98021198D01*
X169467590Y-97991396D01*
X169185326Y-97874479D01*
X168931295Y-97704741D01*
X168715259Y-97488705D01*
X168545521Y-97234674D01*
X168428604Y-96952410D01*
X168369000Y-96652760D01*
X168369000Y-96347240D01*
X168428604Y-96047590D01*
X168545521Y-95765326D01*
X168715259Y-95511295D01*
X168931295Y-95295259D01*
X169185326Y-95125521D01*
X169467590Y-95008604D01*
X169617415Y-94978802D01*
X169767239Y-94949000D01*
X170072761Y-94949000D01*
X170222585Y-94978802D01*
X170222585Y-94978802D01*
G37*
G36*
X165906564Y-93989389D02*
G01*
X166097833Y-94068615D01*
X166097835Y-94068616D01*
X166269973Y-94183635D01*
X166416365Y-94330027D01*
X166531385Y-94502167D01*
X166610611Y-94693436D01*
X166651000Y-94896484D01*
X166651000Y-95103516D01*
X166610611Y-95306564D01*
X166531385Y-95497833D01*
X166531384Y-95497835D01*
X166416365Y-95669973D01*
X166269973Y-95816365D01*
X166097835Y-95931384D01*
X166097834Y-95931385D01*
X166097833Y-95931385D01*
X165906564Y-96010611D01*
X165703516Y-96051000D01*
X165496484Y-96051000D01*
X165293436Y-96010611D01*
X165102167Y-95931385D01*
X165102166Y-95931385D01*
X165102165Y-95931384D01*
X164930027Y-95816365D01*
X164783635Y-95669973D01*
X164668616Y-95497835D01*
X164668615Y-95497833D01*
X164589389Y-95306564D01*
X164549000Y-95103516D01*
X164549000Y-94896484D01*
X164589389Y-94693436D01*
X164668615Y-94502167D01*
X164783635Y-94330027D01*
X164930027Y-94183635D01*
X165102165Y-94068616D01*
X165102167Y-94068615D01*
X165293436Y-93989389D01*
X165496484Y-93949000D01*
X165703516Y-93949000D01*
X165906564Y-93989389D01*
X165906564Y-93989389D01*
G37*
G36*
X120375256Y-90391298D02*
G01*
X120481579Y-90412447D01*
X120782042Y-90536903D01*
X121052451Y-90717585D01*
X121282415Y-90947549D01*
X121463097Y-91217958D01*
X121587553Y-91518421D01*
X121651000Y-91837391D01*
X121651000Y-92162609D01*
X121587553Y-92481579D01*
X121463097Y-92782042D01*
X121282415Y-93052451D01*
X121052451Y-93282415D01*
X120782042Y-93463097D01*
X120481579Y-93587553D01*
X120375256Y-93608702D01*
X120162611Y-93651000D01*
X119837389Y-93651000D01*
X119624744Y-93608702D01*
X119518421Y-93587553D01*
X119217958Y-93463097D01*
X118947549Y-93282415D01*
X118717585Y-93052451D01*
X118536903Y-92782042D01*
X118412447Y-92481579D01*
X118349000Y-92162609D01*
X118349000Y-91837391D01*
X118412447Y-91518421D01*
X118536903Y-91217958D01*
X118717585Y-90947549D01*
X118947549Y-90717585D01*
X119217958Y-90536903D01*
X119518421Y-90412447D01*
X119624744Y-90391298D01*
X119837389Y-90349000D01*
X120162611Y-90349000D01*
X120375256Y-90391298D01*
X120375256Y-90391298D01*
G37*
G36*
X160079487Y-86848996D02*
G01*
X160316253Y-86947068D01*
X160316255Y-86947069D01*
X160529339Y-87089447D01*
X160710553Y-87270661D01*
X160852932Y-87483747D01*
X160951004Y-87720513D01*
X161001000Y-87971861D01*
X161001000Y-88228139D01*
X160951004Y-88479487D01*
X160852932Y-88716253D01*
X160852931Y-88716255D01*
X160710553Y-88929339D01*
X160529339Y-89110553D01*
X160316255Y-89252931D01*
X160316254Y-89252932D01*
X160316253Y-89252932D01*
X160079487Y-89351004D01*
X159828139Y-89401000D01*
X159571861Y-89401000D01*
X159320513Y-89351004D01*
X159083747Y-89252932D01*
X159083746Y-89252932D01*
X159083745Y-89252931D01*
X158870661Y-89110553D01*
X158689447Y-88929339D01*
X158547069Y-88716255D01*
X158547068Y-88716253D01*
X158448996Y-88479487D01*
X158399000Y-88228139D01*
X158399000Y-87971861D01*
X158448996Y-87720513D01*
X158547068Y-87483747D01*
X158689447Y-87270661D01*
X158870661Y-87089447D01*
X159083745Y-86947069D01*
X159083747Y-86947068D01*
X159320513Y-86848996D01*
X159571861Y-86799000D01*
X159828139Y-86799000D01*
X160079487Y-86848996D01*
X160079487Y-86848996D01*
G37*
G36*
X167302585Y-84478802D02*
G01*
X167452410Y-84508604D01*
X167734674Y-84625521D01*
X167988705Y-84795259D01*
X168204741Y-85011295D01*
X168374479Y-85265326D01*
X168491396Y-85547590D01*
X168551000Y-85847240D01*
X168551000Y-86152760D01*
X168491396Y-86452410D01*
X168374479Y-86734674D01*
X168204741Y-86988705D01*
X167988705Y-87204741D01*
X167734674Y-87374479D01*
X167452410Y-87491396D01*
X167302585Y-87521198D01*
X167152761Y-87551000D01*
X166847239Y-87551000D01*
X166697415Y-87521198D01*
X166547590Y-87491396D01*
X166265326Y-87374479D01*
X166011295Y-87204741D01*
X165795259Y-86988705D01*
X165625521Y-86734674D01*
X165508604Y-86452410D01*
X165449000Y-86152760D01*
X165449000Y-85847240D01*
X165508604Y-85547590D01*
X165625521Y-85265326D01*
X165795259Y-85011295D01*
X166011295Y-84795259D01*
X166265326Y-84625521D01*
X166547590Y-84508604D01*
X166697415Y-84478802D01*
X166847239Y-84449000D01*
X167152761Y-84449000D01*
X167302585Y-84478802D01*
X167302585Y-84478802D01*
G37*
G36*
X132364903Y-82797075D02*
G01*
X132587910Y-82889447D01*
X132592571Y-82891378D01*
X132797466Y-83028285D01*
X132971715Y-83202534D01*
X133025980Y-83283747D01*
X133108623Y-83407431D01*
X133155463Y-83520513D01*
X133202925Y-83635097D01*
X133251000Y-83876787D01*
X133251000Y-84123213D01*
X133202925Y-84364903D01*
X133108622Y-84592571D01*
X132971715Y-84797466D01*
X132797466Y-84971715D01*
X132592571Y-85108622D01*
X132592570Y-85108623D01*
X132592569Y-85108623D01*
X132364903Y-85202925D01*
X132123214Y-85251000D01*
X131876786Y-85251000D01*
X131635097Y-85202925D01*
X131407431Y-85108623D01*
X131407430Y-85108623D01*
X131407429Y-85108622D01*
X131202534Y-84971715D01*
X131028285Y-84797466D01*
X130891378Y-84592571D01*
X130797075Y-84364903D01*
X130749000Y-84123213D01*
X130749000Y-83876787D01*
X130797075Y-83635097D01*
X130844537Y-83520513D01*
X130891377Y-83407431D01*
X130974020Y-83283747D01*
X131028285Y-83202534D01*
X131202534Y-83028285D01*
X131407429Y-82891378D01*
X131412091Y-82889447D01*
X131635097Y-82797075D01*
X131876786Y-82749000D01*
X132123214Y-82749000D01*
X132364903Y-82797075D01*
X132364903Y-82797075D01*
G37*
G36*
X160079487Y-82648996D02*
G01*
X160316253Y-82747068D01*
X160316255Y-82747069D01*
X160529339Y-82889447D01*
X160710553Y-83070661D01*
X160798668Y-83202534D01*
X160852932Y-83283747D01*
X160951004Y-83520513D01*
X161001000Y-83771861D01*
X161001000Y-84028139D01*
X160951004Y-84279487D01*
X160915623Y-84364903D01*
X160852931Y-84516255D01*
X160710553Y-84729339D01*
X160529339Y-84910553D01*
X160316255Y-85052931D01*
X160316254Y-85052932D01*
X160316253Y-85052932D01*
X160079487Y-85151004D01*
X159828139Y-85201000D01*
X159571861Y-85201000D01*
X159320513Y-85151004D01*
X159083747Y-85052932D01*
X159083746Y-85052932D01*
X159083745Y-85052931D01*
X158870661Y-84910553D01*
X158689447Y-84729339D01*
X158547069Y-84516255D01*
X158484377Y-84364903D01*
X158448996Y-84279487D01*
X158399000Y-84028139D01*
X158399000Y-83771861D01*
X158448996Y-83520513D01*
X158547068Y-83283747D01*
X158601333Y-83202534D01*
X158689447Y-83070661D01*
X158870661Y-82889447D01*
X159083745Y-82747069D01*
X159083747Y-82747068D01*
X159320513Y-82648996D01*
X159571861Y-82599000D01*
X159828139Y-82599000D01*
X160079487Y-82648996D01*
X160079487Y-82648996D01*
G37*
G36*
X160379487Y-74148996D02*
G01*
X160616253Y-74247068D01*
X160616255Y-74247069D01*
X160829339Y-74389447D01*
X161010553Y-74570661D01*
X161152932Y-74783747D01*
X161251004Y-75020513D01*
X161301000Y-75271861D01*
X161301000Y-75528139D01*
X161251004Y-75779487D01*
X161152932Y-76016253D01*
X161152931Y-76016255D01*
X161010553Y-76229339D01*
X160829339Y-76410553D01*
X160616255Y-76552931D01*
X160616254Y-76552932D01*
X160616253Y-76552932D01*
X160379487Y-76651004D01*
X160128139Y-76701000D01*
X159871861Y-76701000D01*
X159620513Y-76651004D01*
X159383747Y-76552932D01*
X159383746Y-76552932D01*
X159383745Y-76552931D01*
X159170661Y-76410553D01*
X158989447Y-76229339D01*
X158847069Y-76016255D01*
X158847068Y-76016253D01*
X158748996Y-75779487D01*
X158699000Y-75528139D01*
X158699000Y-75271861D01*
X158748996Y-75020513D01*
X158847068Y-74783747D01*
X158989447Y-74570661D01*
X159170661Y-74389447D01*
X159383745Y-74247069D01*
X159383747Y-74247068D01*
X159620513Y-74148996D01*
X159871861Y-74099000D01*
X160128139Y-74099000D01*
X160379487Y-74148996D01*
X160379487Y-74148996D01*
G37*
G36*
X167602585Y-69678802D02*
G01*
X167752410Y-69708604D01*
X168034674Y-69825521D01*
X168288705Y-69995259D01*
X168504741Y-70211295D01*
X168674479Y-70465326D01*
X168791396Y-70747590D01*
X168851000Y-71047240D01*
X168851000Y-71352760D01*
X168791396Y-71652410D01*
X168674479Y-71934674D01*
X168504741Y-72188705D01*
X168288705Y-72404741D01*
X168034674Y-72574479D01*
X167752410Y-72691396D01*
X167602585Y-72721198D01*
X167452761Y-72751000D01*
X167147239Y-72751000D01*
X166997415Y-72721198D01*
X166847590Y-72691396D01*
X166565326Y-72574479D01*
X166311295Y-72404741D01*
X166095259Y-72188705D01*
X165925521Y-71934674D01*
X165808604Y-71652410D01*
X165749000Y-71352760D01*
X165749000Y-71047240D01*
X165808604Y-70747590D01*
X165925521Y-70465326D01*
X166095259Y-70211295D01*
X166311295Y-69995259D01*
X166565326Y-69825521D01*
X166847590Y-69708604D01*
X166997415Y-69678802D01*
X167147239Y-69649000D01*
X167452761Y-69649000D01*
X167602585Y-69678802D01*
X167602585Y-69678802D01*
G37*
G36*
X133375256Y-69391298D02*
G01*
X133481579Y-69412447D01*
X133782042Y-69536903D01*
X134052451Y-69717585D01*
X134282415Y-69947549D01*
X134463097Y-70217958D01*
X134463098Y-70217960D01*
X134587553Y-70518422D01*
X134651000Y-70837389D01*
X134651000Y-71162611D01*
X134608702Y-71375256D01*
X134587553Y-71481579D01*
X134463097Y-71782042D01*
X134282415Y-72052451D01*
X134052451Y-72282415D01*
X133782042Y-72463097D01*
X133481579Y-72587553D01*
X133375256Y-72608702D01*
X133162611Y-72651000D01*
X132837389Y-72651000D01*
X132624744Y-72608702D01*
X132518421Y-72587553D01*
X132217958Y-72463097D01*
X131947549Y-72282415D01*
X131717585Y-72052451D01*
X131536903Y-71782042D01*
X131412447Y-71481579D01*
X131391298Y-71375256D01*
X131349000Y-71162611D01*
X131349000Y-70837389D01*
X131412447Y-70518422D01*
X131536902Y-70217960D01*
X131536903Y-70217958D01*
X131717585Y-69947549D01*
X131947549Y-69717585D01*
X132217958Y-69536903D01*
X132518421Y-69412447D01*
X132624744Y-69391298D01*
X132837389Y-69349000D01*
X133162611Y-69349000D01*
X133375256Y-69391298D01*
X133375256Y-69391298D01*
G37*
G36*
X160379487Y-69948996D02*
G01*
X160616253Y-70047068D01*
X160616255Y-70047069D01*
X160829339Y-70189447D01*
X161010553Y-70370661D01*
X161109284Y-70518422D01*
X161152932Y-70583747D01*
X161251004Y-70820513D01*
X161301000Y-71071861D01*
X161301000Y-71328139D01*
X161251004Y-71579487D01*
X161152932Y-71816253D01*
X161152931Y-71816255D01*
X161010553Y-72029339D01*
X160829339Y-72210553D01*
X160616255Y-72352931D01*
X160616254Y-72352932D01*
X160616253Y-72352932D01*
X160379487Y-72451004D01*
X160128139Y-72501000D01*
X159871861Y-72501000D01*
X159620513Y-72451004D01*
X159383747Y-72352932D01*
X159383746Y-72352932D01*
X159383745Y-72352931D01*
X159170661Y-72210553D01*
X158989447Y-72029339D01*
X158847069Y-71816255D01*
X158847068Y-71816253D01*
X158748996Y-71579487D01*
X158699000Y-71328139D01*
X158699000Y-71071861D01*
X158748996Y-70820513D01*
X158847068Y-70583747D01*
X158890717Y-70518422D01*
X158989447Y-70370661D01*
X159170661Y-70189447D01*
X159383745Y-70047069D01*
X159383747Y-70047068D01*
X159620513Y-69948996D01*
X159871861Y-69899000D01*
X160128139Y-69899000D01*
X160379487Y-69948996D01*
X160379487Y-69948996D01*
G37*
G36*
X160379487Y-65748996D02*
G01*
X160616253Y-65847068D01*
X160616255Y-65847069D01*
X160829339Y-65989447D01*
X161010553Y-66170661D01*
X161152932Y-66383747D01*
X161251004Y-66620513D01*
X161301000Y-66871861D01*
X161301000Y-67128139D01*
X161251004Y-67379487D01*
X161152932Y-67616253D01*
X161152931Y-67616255D01*
X161010553Y-67829339D01*
X160829339Y-68010553D01*
X160616255Y-68152931D01*
X160616254Y-68152932D01*
X160616253Y-68152932D01*
X160379487Y-68251004D01*
X160128139Y-68301000D01*
X159871861Y-68301000D01*
X159620513Y-68251004D01*
X159383747Y-68152932D01*
X159383746Y-68152932D01*
X159383745Y-68152931D01*
X159170661Y-68010553D01*
X158989447Y-67829339D01*
X158847069Y-67616255D01*
X158847068Y-67616253D01*
X158748996Y-67379487D01*
X158699000Y-67128139D01*
X158699000Y-66871861D01*
X158748996Y-66620513D01*
X158847068Y-66383747D01*
X158989447Y-66170661D01*
X159170661Y-65989447D01*
X159383745Y-65847069D01*
X159383747Y-65847068D01*
X159620513Y-65748996D01*
X159871861Y-65699000D01*
X160128139Y-65699000D01*
X160379487Y-65748996D01*
X160379487Y-65748996D01*
G37*
G36*
X160379487Y-59148996D02*
G01*
X160616253Y-59247068D01*
X160616255Y-59247069D01*
X160829339Y-59389447D01*
X161010553Y-59570661D01*
X161152932Y-59783747D01*
X161251004Y-60020513D01*
X161301000Y-60271861D01*
X161301000Y-60528139D01*
X161251004Y-60779487D01*
X161152932Y-61016253D01*
X161152931Y-61016255D01*
X161010553Y-61229339D01*
X160829339Y-61410553D01*
X160616255Y-61552931D01*
X160616254Y-61552932D01*
X160616253Y-61552932D01*
X160379487Y-61651004D01*
X160128139Y-61701000D01*
X159871861Y-61701000D01*
X159620513Y-61651004D01*
X159383747Y-61552932D01*
X159383746Y-61552932D01*
X159383745Y-61552931D01*
X159170661Y-61410553D01*
X158989447Y-61229339D01*
X158847069Y-61016255D01*
X158847068Y-61016253D01*
X158748996Y-60779487D01*
X158699000Y-60528139D01*
X158699000Y-60271861D01*
X158748996Y-60020513D01*
X158847068Y-59783747D01*
X158989447Y-59570661D01*
X159170661Y-59389447D01*
X159383745Y-59247069D01*
X159383747Y-59247068D01*
X159620513Y-59148996D01*
X159871861Y-59099000D01*
X160128139Y-59099000D01*
X160379487Y-59148996D01*
X160379487Y-59148996D01*
G37*
G36*
X167602585Y-54678802D02*
G01*
X167752410Y-54708604D01*
X168034674Y-54825521D01*
X168288705Y-54995259D01*
X168504741Y-55211295D01*
X168674479Y-55465326D01*
X168791396Y-55747590D01*
X168851000Y-56047240D01*
X168851000Y-56352760D01*
X168791396Y-56652410D01*
X168674479Y-56934674D01*
X168504741Y-57188705D01*
X168288705Y-57404741D01*
X168034674Y-57574479D01*
X167752410Y-57691396D01*
X167602585Y-57721198D01*
X167452761Y-57751000D01*
X167147239Y-57751000D01*
X166997415Y-57721198D01*
X166847590Y-57691396D01*
X166565326Y-57574479D01*
X166311295Y-57404741D01*
X166095259Y-57188705D01*
X165925521Y-56934674D01*
X165808604Y-56652410D01*
X165749000Y-56352760D01*
X165749000Y-56047240D01*
X165808604Y-55747590D01*
X165925521Y-55465326D01*
X166095259Y-55211295D01*
X166311295Y-54995259D01*
X166565326Y-54825521D01*
X166847590Y-54708604D01*
X166997415Y-54678802D01*
X167147239Y-54649000D01*
X167452761Y-54649000D01*
X167602585Y-54678802D01*
X167602585Y-54678802D01*
G37*
G36*
X160379487Y-54948996D02*
G01*
X160616253Y-55047068D01*
X160616255Y-55047069D01*
X160829339Y-55189447D01*
X161010553Y-55370661D01*
X161152932Y-55583747D01*
X161251004Y-55820513D01*
X161301000Y-56071861D01*
X161301000Y-56328139D01*
X161251004Y-56579487D01*
X161220798Y-56652410D01*
X161152931Y-56816255D01*
X161010553Y-57029339D01*
X160829339Y-57210553D01*
X160616255Y-57352931D01*
X160616254Y-57352932D01*
X160616253Y-57352932D01*
X160379487Y-57451004D01*
X160128139Y-57501000D01*
X159871861Y-57501000D01*
X159620513Y-57451004D01*
X159383747Y-57352932D01*
X159383746Y-57352932D01*
X159383745Y-57352931D01*
X159170661Y-57210553D01*
X158989447Y-57029339D01*
X158847069Y-56816255D01*
X158779202Y-56652410D01*
X158748996Y-56579487D01*
X158699000Y-56328139D01*
X158699000Y-56071861D01*
X158748996Y-55820513D01*
X158847068Y-55583747D01*
X158989447Y-55370661D01*
X159170661Y-55189447D01*
X159383745Y-55047069D01*
X159383747Y-55047068D01*
X159620513Y-54948996D01*
X159871861Y-54899000D01*
X160128139Y-54899000D01*
X160379487Y-54948996D01*
X160379487Y-54948996D01*
G37*
G36*
X160379487Y-50748996D02*
G01*
X160616253Y-50847068D01*
X160616255Y-50847069D01*
X160829339Y-50989447D01*
X161010553Y-51170661D01*
X161152932Y-51383747D01*
X161251004Y-51620513D01*
X161301000Y-51871861D01*
X161301000Y-52128139D01*
X161251004Y-52379487D01*
X161152932Y-52616253D01*
X161152931Y-52616255D01*
X161010553Y-52829339D01*
X160829339Y-53010553D01*
X160616255Y-53152931D01*
X160616254Y-53152932D01*
X160616253Y-53152932D01*
X160379487Y-53251004D01*
X160128139Y-53301000D01*
X159871861Y-53301000D01*
X159620513Y-53251004D01*
X159383747Y-53152932D01*
X159383746Y-53152932D01*
X159383745Y-53152931D01*
X159170661Y-53010553D01*
X158989447Y-52829339D01*
X158847069Y-52616255D01*
X158847068Y-52616253D01*
X158748996Y-52379487D01*
X158699000Y-52128139D01*
X158699000Y-51871861D01*
X158748996Y-51620513D01*
X158847068Y-51383747D01*
X158989447Y-51170661D01*
X159170661Y-50989447D01*
X159383745Y-50847069D01*
X159383747Y-50847068D01*
X159620513Y-50748996D01*
X159871861Y-50699000D01*
X160128139Y-50699000D01*
X160379487Y-50748996D01*
X160379487Y-50748996D01*
G37*
G36*
X120375256Y-43391298D02*
G01*
X120481579Y-43412447D01*
X120782042Y-43536903D01*
X121052451Y-43717585D01*
X121282415Y-43947549D01*
X121463097Y-44217958D01*
X121587553Y-44518421D01*
X121651000Y-44837391D01*
X121651000Y-45162609D01*
X121587553Y-45481579D01*
X121463097Y-45782042D01*
X121282415Y-46052451D01*
X121052451Y-46282415D01*
X120782042Y-46463097D01*
X120481579Y-46587553D01*
X120375256Y-46608702D01*
X120162611Y-46651000D01*
X119837389Y-46651000D01*
X119624744Y-46608702D01*
X119518421Y-46587553D01*
X119217958Y-46463097D01*
X118947549Y-46282415D01*
X118717585Y-46052451D01*
X118536903Y-45782042D01*
X118412447Y-45481579D01*
X118349000Y-45162609D01*
X118349000Y-44837391D01*
X118412447Y-44518421D01*
X118536903Y-44217958D01*
X118717585Y-43947549D01*
X118947549Y-43717585D01*
X119217958Y-43536903D01*
X119518421Y-43412447D01*
X119624744Y-43391298D01*
X119837389Y-43349000D01*
X120162611Y-43349000D01*
X120375256Y-43391298D01*
X120375256Y-43391298D01*
G37*
G36*
X170375256Y-43391298D02*
G01*
X170481579Y-43412447D01*
X170782042Y-43536903D01*
X171052451Y-43717585D01*
X171282415Y-43947549D01*
X171463097Y-44217958D01*
X171587553Y-44518421D01*
X171651000Y-44837391D01*
X171651000Y-45162609D01*
X171587553Y-45481579D01*
X171463097Y-45782042D01*
X171282415Y-46052451D01*
X171052451Y-46282415D01*
X170782042Y-46463097D01*
X170481579Y-46587553D01*
X170375256Y-46608702D01*
X170162611Y-46651000D01*
X169837389Y-46651000D01*
X169624744Y-46608702D01*
X169518421Y-46587553D01*
X169217958Y-46463097D01*
X168947549Y-46282415D01*
X168717585Y-46052451D01*
X168536903Y-45782042D01*
X168412447Y-45481579D01*
X168349000Y-45162609D01*
X168349000Y-44837391D01*
X168412447Y-44518421D01*
X168536903Y-44217958D01*
X168717585Y-43947549D01*
X168947549Y-43717585D01*
X169217958Y-43536903D01*
X169518421Y-43412447D01*
X169624744Y-43391298D01*
X169837389Y-43349000D01*
X170162611Y-43349000D01*
X170375256Y-43391298D01*
X170375256Y-43391298D01*
G37*
G36*
X146375256Y-43391298D02*
G01*
X146481579Y-43412447D01*
X146782042Y-43536903D01*
X147052451Y-43717585D01*
X147282415Y-43947549D01*
X147463097Y-44217958D01*
X147587553Y-44518421D01*
X147651000Y-44837391D01*
X147651000Y-45162609D01*
X147587553Y-45481579D01*
X147463097Y-45782042D01*
X147282415Y-46052451D01*
X147052451Y-46282415D01*
X146782042Y-46463097D01*
X146481579Y-46587553D01*
X146375256Y-46608702D01*
X146162611Y-46651000D01*
X145837389Y-46651000D01*
X145624744Y-46608702D01*
X145518421Y-46587553D01*
X145217958Y-46463097D01*
X144947549Y-46282415D01*
X144717585Y-46052451D01*
X144536903Y-45782042D01*
X144412447Y-45481579D01*
X144349000Y-45162609D01*
X144349000Y-44837391D01*
X144412447Y-44518421D01*
X144536903Y-44217958D01*
X144717585Y-43947549D01*
X144947549Y-43717585D01*
X145217958Y-43536903D01*
X145518421Y-43412447D01*
X145624744Y-43391298D01*
X145837389Y-43349000D01*
X146162611Y-43349000D01*
X146375256Y-43391298D01*
X146375256Y-43391298D01*
G37*
M02*
