G04 #@! TF.GenerationSoftware,KiCad,Pcbnew,(5.1.4-0)*
G04 #@! TF.CreationDate,2021-06-22T22:46:31+02:00*
G04 #@! TF.ProjectId,accumulator_HV_distribution_board,61636375-6d75-46c6-9174-6f725f48565f,rev?*
G04 #@! TF.SameCoordinates,Original*
G04 #@! TF.FileFunction,Paste,Bot*
G04 #@! TF.FilePolarity,Positive*
%FSLAX46Y46*%
G04 Gerber Fmt 4.6, Leading zero omitted, Abs format (unit mm)*
G04 Created by KiCad (PCBNEW (5.1.4-0)) date 2021-06-22 22:46:31*
%MOMM*%
%LPD*%
G04 APERTURE LIST*
%ADD10C,0.100000*%
%ADD11C,1.350000*%
G04 APERTURE END LIST*
D10*
G36*
X126349505Y-50326204D02*
G01*
X126373773Y-50329804D01*
X126397572Y-50335765D01*
X126420671Y-50344030D01*
X126442850Y-50354520D01*
X126463893Y-50367132D01*
X126483599Y-50381747D01*
X126501777Y-50398223D01*
X126518253Y-50416401D01*
X126532868Y-50436107D01*
X126545480Y-50457150D01*
X126555970Y-50479329D01*
X126564235Y-50502428D01*
X126570196Y-50526227D01*
X126573796Y-50550495D01*
X126575000Y-50574999D01*
X126575000Y-53425001D01*
X126573796Y-53449505D01*
X126570196Y-53473773D01*
X126564235Y-53497572D01*
X126555970Y-53520671D01*
X126545480Y-53542850D01*
X126532868Y-53563893D01*
X126518253Y-53583599D01*
X126501777Y-53601777D01*
X126483599Y-53618253D01*
X126463893Y-53632868D01*
X126442850Y-53645480D01*
X126420671Y-53655970D01*
X126397572Y-53664235D01*
X126373773Y-53670196D01*
X126349505Y-53673796D01*
X126325001Y-53675000D01*
X125474999Y-53675000D01*
X125450495Y-53673796D01*
X125426227Y-53670196D01*
X125402428Y-53664235D01*
X125379329Y-53655970D01*
X125357150Y-53645480D01*
X125336107Y-53632868D01*
X125316401Y-53618253D01*
X125298223Y-53601777D01*
X125281747Y-53583599D01*
X125267132Y-53563893D01*
X125254520Y-53542850D01*
X125244030Y-53520671D01*
X125235765Y-53497572D01*
X125229804Y-53473773D01*
X125226204Y-53449505D01*
X125225000Y-53425001D01*
X125225000Y-50574999D01*
X125226204Y-50550495D01*
X125229804Y-50526227D01*
X125235765Y-50502428D01*
X125244030Y-50479329D01*
X125254520Y-50457150D01*
X125267132Y-50436107D01*
X125281747Y-50416401D01*
X125298223Y-50398223D01*
X125316401Y-50381747D01*
X125336107Y-50367132D01*
X125357150Y-50354520D01*
X125379329Y-50344030D01*
X125402428Y-50335765D01*
X125426227Y-50329804D01*
X125450495Y-50326204D01*
X125474999Y-50325000D01*
X126325001Y-50325000D01*
X126349505Y-50326204D01*
X126349505Y-50326204D01*
G37*
D11*
X125900000Y-52000000D03*
D10*
G36*
X132149505Y-50326204D02*
G01*
X132173773Y-50329804D01*
X132197572Y-50335765D01*
X132220671Y-50344030D01*
X132242850Y-50354520D01*
X132263893Y-50367132D01*
X132283599Y-50381747D01*
X132301777Y-50398223D01*
X132318253Y-50416401D01*
X132332868Y-50436107D01*
X132345480Y-50457150D01*
X132355970Y-50479329D01*
X132364235Y-50502428D01*
X132370196Y-50526227D01*
X132373796Y-50550495D01*
X132375000Y-50574999D01*
X132375000Y-53425001D01*
X132373796Y-53449505D01*
X132370196Y-53473773D01*
X132364235Y-53497572D01*
X132355970Y-53520671D01*
X132345480Y-53542850D01*
X132332868Y-53563893D01*
X132318253Y-53583599D01*
X132301777Y-53601777D01*
X132283599Y-53618253D01*
X132263893Y-53632868D01*
X132242850Y-53645480D01*
X132220671Y-53655970D01*
X132197572Y-53664235D01*
X132173773Y-53670196D01*
X132149505Y-53673796D01*
X132125001Y-53675000D01*
X131274999Y-53675000D01*
X131250495Y-53673796D01*
X131226227Y-53670196D01*
X131202428Y-53664235D01*
X131179329Y-53655970D01*
X131157150Y-53645480D01*
X131136107Y-53632868D01*
X131116401Y-53618253D01*
X131098223Y-53601777D01*
X131081747Y-53583599D01*
X131067132Y-53563893D01*
X131054520Y-53542850D01*
X131044030Y-53520671D01*
X131035765Y-53497572D01*
X131029804Y-53473773D01*
X131026204Y-53449505D01*
X131025000Y-53425001D01*
X131025000Y-50574999D01*
X131026204Y-50550495D01*
X131029804Y-50526227D01*
X131035765Y-50502428D01*
X131044030Y-50479329D01*
X131054520Y-50457150D01*
X131067132Y-50436107D01*
X131081747Y-50416401D01*
X131098223Y-50398223D01*
X131116401Y-50381747D01*
X131136107Y-50367132D01*
X131157150Y-50354520D01*
X131179329Y-50344030D01*
X131202428Y-50335765D01*
X131226227Y-50329804D01*
X131250495Y-50326204D01*
X131274999Y-50325000D01*
X132125001Y-50325000D01*
X132149505Y-50326204D01*
X132149505Y-50326204D01*
G37*
D11*
X131700000Y-52000000D03*
D10*
G36*
X132149505Y-58726204D02*
G01*
X132173773Y-58729804D01*
X132197572Y-58735765D01*
X132220671Y-58744030D01*
X132242850Y-58754520D01*
X132263893Y-58767132D01*
X132283599Y-58781747D01*
X132301777Y-58798223D01*
X132318253Y-58816401D01*
X132332868Y-58836107D01*
X132345480Y-58857150D01*
X132355970Y-58879329D01*
X132364235Y-58902428D01*
X132370196Y-58926227D01*
X132373796Y-58950495D01*
X132375000Y-58974999D01*
X132375000Y-61825001D01*
X132373796Y-61849505D01*
X132370196Y-61873773D01*
X132364235Y-61897572D01*
X132355970Y-61920671D01*
X132345480Y-61942850D01*
X132332868Y-61963893D01*
X132318253Y-61983599D01*
X132301777Y-62001777D01*
X132283599Y-62018253D01*
X132263893Y-62032868D01*
X132242850Y-62045480D01*
X132220671Y-62055970D01*
X132197572Y-62064235D01*
X132173773Y-62070196D01*
X132149505Y-62073796D01*
X132125001Y-62075000D01*
X131274999Y-62075000D01*
X131250495Y-62073796D01*
X131226227Y-62070196D01*
X131202428Y-62064235D01*
X131179329Y-62055970D01*
X131157150Y-62045480D01*
X131136107Y-62032868D01*
X131116401Y-62018253D01*
X131098223Y-62001777D01*
X131081747Y-61983599D01*
X131067132Y-61963893D01*
X131054520Y-61942850D01*
X131044030Y-61920671D01*
X131035765Y-61897572D01*
X131029804Y-61873773D01*
X131026204Y-61849505D01*
X131025000Y-61825001D01*
X131025000Y-58974999D01*
X131026204Y-58950495D01*
X131029804Y-58926227D01*
X131035765Y-58902428D01*
X131044030Y-58879329D01*
X131054520Y-58857150D01*
X131067132Y-58836107D01*
X131081747Y-58816401D01*
X131098223Y-58798223D01*
X131116401Y-58781747D01*
X131136107Y-58767132D01*
X131157150Y-58754520D01*
X131179329Y-58744030D01*
X131202428Y-58735765D01*
X131226227Y-58729804D01*
X131250495Y-58726204D01*
X131274999Y-58725000D01*
X132125001Y-58725000D01*
X132149505Y-58726204D01*
X132149505Y-58726204D01*
G37*
D11*
X131700000Y-60400000D03*
D10*
G36*
X126349505Y-58726204D02*
G01*
X126373773Y-58729804D01*
X126397572Y-58735765D01*
X126420671Y-58744030D01*
X126442850Y-58754520D01*
X126463893Y-58767132D01*
X126483599Y-58781747D01*
X126501777Y-58798223D01*
X126518253Y-58816401D01*
X126532868Y-58836107D01*
X126545480Y-58857150D01*
X126555970Y-58879329D01*
X126564235Y-58902428D01*
X126570196Y-58926227D01*
X126573796Y-58950495D01*
X126575000Y-58974999D01*
X126575000Y-61825001D01*
X126573796Y-61849505D01*
X126570196Y-61873773D01*
X126564235Y-61897572D01*
X126555970Y-61920671D01*
X126545480Y-61942850D01*
X126532868Y-61963893D01*
X126518253Y-61983599D01*
X126501777Y-62001777D01*
X126483599Y-62018253D01*
X126463893Y-62032868D01*
X126442850Y-62045480D01*
X126420671Y-62055970D01*
X126397572Y-62064235D01*
X126373773Y-62070196D01*
X126349505Y-62073796D01*
X126325001Y-62075000D01*
X125474999Y-62075000D01*
X125450495Y-62073796D01*
X125426227Y-62070196D01*
X125402428Y-62064235D01*
X125379329Y-62055970D01*
X125357150Y-62045480D01*
X125336107Y-62032868D01*
X125316401Y-62018253D01*
X125298223Y-62001777D01*
X125281747Y-61983599D01*
X125267132Y-61963893D01*
X125254520Y-61942850D01*
X125244030Y-61920671D01*
X125235765Y-61897572D01*
X125229804Y-61873773D01*
X125226204Y-61849505D01*
X125225000Y-61825001D01*
X125225000Y-58974999D01*
X125226204Y-58950495D01*
X125229804Y-58926227D01*
X125235765Y-58902428D01*
X125244030Y-58879329D01*
X125254520Y-58857150D01*
X125267132Y-58836107D01*
X125281747Y-58816401D01*
X125298223Y-58798223D01*
X125316401Y-58781747D01*
X125336107Y-58767132D01*
X125357150Y-58754520D01*
X125379329Y-58744030D01*
X125402428Y-58735765D01*
X125426227Y-58729804D01*
X125450495Y-58726204D01*
X125474999Y-58725000D01*
X126325001Y-58725000D01*
X126349505Y-58726204D01*
X126349505Y-58726204D01*
G37*
D11*
X125900000Y-60400000D03*
D10*
G36*
X126349505Y-54526204D02*
G01*
X126373773Y-54529804D01*
X126397572Y-54535765D01*
X126420671Y-54544030D01*
X126442850Y-54554520D01*
X126463893Y-54567132D01*
X126483599Y-54581747D01*
X126501777Y-54598223D01*
X126518253Y-54616401D01*
X126532868Y-54636107D01*
X126545480Y-54657150D01*
X126555970Y-54679329D01*
X126564235Y-54702428D01*
X126570196Y-54726227D01*
X126573796Y-54750495D01*
X126575000Y-54774999D01*
X126575000Y-57625001D01*
X126573796Y-57649505D01*
X126570196Y-57673773D01*
X126564235Y-57697572D01*
X126555970Y-57720671D01*
X126545480Y-57742850D01*
X126532868Y-57763893D01*
X126518253Y-57783599D01*
X126501777Y-57801777D01*
X126483599Y-57818253D01*
X126463893Y-57832868D01*
X126442850Y-57845480D01*
X126420671Y-57855970D01*
X126397572Y-57864235D01*
X126373773Y-57870196D01*
X126349505Y-57873796D01*
X126325001Y-57875000D01*
X125474999Y-57875000D01*
X125450495Y-57873796D01*
X125426227Y-57870196D01*
X125402428Y-57864235D01*
X125379329Y-57855970D01*
X125357150Y-57845480D01*
X125336107Y-57832868D01*
X125316401Y-57818253D01*
X125298223Y-57801777D01*
X125281747Y-57783599D01*
X125267132Y-57763893D01*
X125254520Y-57742850D01*
X125244030Y-57720671D01*
X125235765Y-57697572D01*
X125229804Y-57673773D01*
X125226204Y-57649505D01*
X125225000Y-57625001D01*
X125225000Y-54774999D01*
X125226204Y-54750495D01*
X125229804Y-54726227D01*
X125235765Y-54702428D01*
X125244030Y-54679329D01*
X125254520Y-54657150D01*
X125267132Y-54636107D01*
X125281747Y-54616401D01*
X125298223Y-54598223D01*
X125316401Y-54581747D01*
X125336107Y-54567132D01*
X125357150Y-54554520D01*
X125379329Y-54544030D01*
X125402428Y-54535765D01*
X125426227Y-54529804D01*
X125450495Y-54526204D01*
X125474999Y-54525000D01*
X126325001Y-54525000D01*
X126349505Y-54526204D01*
X126349505Y-54526204D01*
G37*
D11*
X125900000Y-56200000D03*
D10*
G36*
X132149505Y-54526204D02*
G01*
X132173773Y-54529804D01*
X132197572Y-54535765D01*
X132220671Y-54544030D01*
X132242850Y-54554520D01*
X132263893Y-54567132D01*
X132283599Y-54581747D01*
X132301777Y-54598223D01*
X132318253Y-54616401D01*
X132332868Y-54636107D01*
X132345480Y-54657150D01*
X132355970Y-54679329D01*
X132364235Y-54702428D01*
X132370196Y-54726227D01*
X132373796Y-54750495D01*
X132375000Y-54774999D01*
X132375000Y-57625001D01*
X132373796Y-57649505D01*
X132370196Y-57673773D01*
X132364235Y-57697572D01*
X132355970Y-57720671D01*
X132345480Y-57742850D01*
X132332868Y-57763893D01*
X132318253Y-57783599D01*
X132301777Y-57801777D01*
X132283599Y-57818253D01*
X132263893Y-57832868D01*
X132242850Y-57845480D01*
X132220671Y-57855970D01*
X132197572Y-57864235D01*
X132173773Y-57870196D01*
X132149505Y-57873796D01*
X132125001Y-57875000D01*
X131274999Y-57875000D01*
X131250495Y-57873796D01*
X131226227Y-57870196D01*
X131202428Y-57864235D01*
X131179329Y-57855970D01*
X131157150Y-57845480D01*
X131136107Y-57832868D01*
X131116401Y-57818253D01*
X131098223Y-57801777D01*
X131081747Y-57783599D01*
X131067132Y-57763893D01*
X131054520Y-57742850D01*
X131044030Y-57720671D01*
X131035765Y-57697572D01*
X131029804Y-57673773D01*
X131026204Y-57649505D01*
X131025000Y-57625001D01*
X131025000Y-54774999D01*
X131026204Y-54750495D01*
X131029804Y-54726227D01*
X131035765Y-54702428D01*
X131044030Y-54679329D01*
X131054520Y-54657150D01*
X131067132Y-54636107D01*
X131081747Y-54616401D01*
X131098223Y-54598223D01*
X131116401Y-54581747D01*
X131136107Y-54567132D01*
X131157150Y-54554520D01*
X131179329Y-54544030D01*
X131202428Y-54535765D01*
X131226227Y-54529804D01*
X131250495Y-54526204D01*
X131274999Y-54525000D01*
X132125001Y-54525000D01*
X132149505Y-54526204D01*
X132149505Y-54526204D01*
G37*
D11*
X131700000Y-56200000D03*
D10*
G36*
X142349505Y-50326204D02*
G01*
X142373773Y-50329804D01*
X142397572Y-50335765D01*
X142420671Y-50344030D01*
X142442850Y-50354520D01*
X142463893Y-50367132D01*
X142483599Y-50381747D01*
X142501777Y-50398223D01*
X142518253Y-50416401D01*
X142532868Y-50436107D01*
X142545480Y-50457150D01*
X142555970Y-50479329D01*
X142564235Y-50502428D01*
X142570196Y-50526227D01*
X142573796Y-50550495D01*
X142575000Y-50574999D01*
X142575000Y-53425001D01*
X142573796Y-53449505D01*
X142570196Y-53473773D01*
X142564235Y-53497572D01*
X142555970Y-53520671D01*
X142545480Y-53542850D01*
X142532868Y-53563893D01*
X142518253Y-53583599D01*
X142501777Y-53601777D01*
X142483599Y-53618253D01*
X142463893Y-53632868D01*
X142442850Y-53645480D01*
X142420671Y-53655970D01*
X142397572Y-53664235D01*
X142373773Y-53670196D01*
X142349505Y-53673796D01*
X142325001Y-53675000D01*
X141474999Y-53675000D01*
X141450495Y-53673796D01*
X141426227Y-53670196D01*
X141402428Y-53664235D01*
X141379329Y-53655970D01*
X141357150Y-53645480D01*
X141336107Y-53632868D01*
X141316401Y-53618253D01*
X141298223Y-53601777D01*
X141281747Y-53583599D01*
X141267132Y-53563893D01*
X141254520Y-53542850D01*
X141244030Y-53520671D01*
X141235765Y-53497572D01*
X141229804Y-53473773D01*
X141226204Y-53449505D01*
X141225000Y-53425001D01*
X141225000Y-50574999D01*
X141226204Y-50550495D01*
X141229804Y-50526227D01*
X141235765Y-50502428D01*
X141244030Y-50479329D01*
X141254520Y-50457150D01*
X141267132Y-50436107D01*
X141281747Y-50416401D01*
X141298223Y-50398223D01*
X141316401Y-50381747D01*
X141336107Y-50367132D01*
X141357150Y-50354520D01*
X141379329Y-50344030D01*
X141402428Y-50335765D01*
X141426227Y-50329804D01*
X141450495Y-50326204D01*
X141474999Y-50325000D01*
X142325001Y-50325000D01*
X142349505Y-50326204D01*
X142349505Y-50326204D01*
G37*
D11*
X141900000Y-52000000D03*
D10*
G36*
X136549505Y-50326204D02*
G01*
X136573773Y-50329804D01*
X136597572Y-50335765D01*
X136620671Y-50344030D01*
X136642850Y-50354520D01*
X136663893Y-50367132D01*
X136683599Y-50381747D01*
X136701777Y-50398223D01*
X136718253Y-50416401D01*
X136732868Y-50436107D01*
X136745480Y-50457150D01*
X136755970Y-50479329D01*
X136764235Y-50502428D01*
X136770196Y-50526227D01*
X136773796Y-50550495D01*
X136775000Y-50574999D01*
X136775000Y-53425001D01*
X136773796Y-53449505D01*
X136770196Y-53473773D01*
X136764235Y-53497572D01*
X136755970Y-53520671D01*
X136745480Y-53542850D01*
X136732868Y-53563893D01*
X136718253Y-53583599D01*
X136701777Y-53601777D01*
X136683599Y-53618253D01*
X136663893Y-53632868D01*
X136642850Y-53645480D01*
X136620671Y-53655970D01*
X136597572Y-53664235D01*
X136573773Y-53670196D01*
X136549505Y-53673796D01*
X136525001Y-53675000D01*
X135674999Y-53675000D01*
X135650495Y-53673796D01*
X135626227Y-53670196D01*
X135602428Y-53664235D01*
X135579329Y-53655970D01*
X135557150Y-53645480D01*
X135536107Y-53632868D01*
X135516401Y-53618253D01*
X135498223Y-53601777D01*
X135481747Y-53583599D01*
X135467132Y-53563893D01*
X135454520Y-53542850D01*
X135444030Y-53520671D01*
X135435765Y-53497572D01*
X135429804Y-53473773D01*
X135426204Y-53449505D01*
X135425000Y-53425001D01*
X135425000Y-50574999D01*
X135426204Y-50550495D01*
X135429804Y-50526227D01*
X135435765Y-50502428D01*
X135444030Y-50479329D01*
X135454520Y-50457150D01*
X135467132Y-50436107D01*
X135481747Y-50416401D01*
X135498223Y-50398223D01*
X135516401Y-50381747D01*
X135536107Y-50367132D01*
X135557150Y-50354520D01*
X135579329Y-50344030D01*
X135602428Y-50335765D01*
X135626227Y-50329804D01*
X135650495Y-50326204D01*
X135674999Y-50325000D01*
X136525001Y-50325000D01*
X136549505Y-50326204D01*
X136549505Y-50326204D01*
G37*
D11*
X136100000Y-52000000D03*
D10*
G36*
X142349505Y-58726204D02*
G01*
X142373773Y-58729804D01*
X142397572Y-58735765D01*
X142420671Y-58744030D01*
X142442850Y-58754520D01*
X142463893Y-58767132D01*
X142483599Y-58781747D01*
X142501777Y-58798223D01*
X142518253Y-58816401D01*
X142532868Y-58836107D01*
X142545480Y-58857150D01*
X142555970Y-58879329D01*
X142564235Y-58902428D01*
X142570196Y-58926227D01*
X142573796Y-58950495D01*
X142575000Y-58974999D01*
X142575000Y-61825001D01*
X142573796Y-61849505D01*
X142570196Y-61873773D01*
X142564235Y-61897572D01*
X142555970Y-61920671D01*
X142545480Y-61942850D01*
X142532868Y-61963893D01*
X142518253Y-61983599D01*
X142501777Y-62001777D01*
X142483599Y-62018253D01*
X142463893Y-62032868D01*
X142442850Y-62045480D01*
X142420671Y-62055970D01*
X142397572Y-62064235D01*
X142373773Y-62070196D01*
X142349505Y-62073796D01*
X142325001Y-62075000D01*
X141474999Y-62075000D01*
X141450495Y-62073796D01*
X141426227Y-62070196D01*
X141402428Y-62064235D01*
X141379329Y-62055970D01*
X141357150Y-62045480D01*
X141336107Y-62032868D01*
X141316401Y-62018253D01*
X141298223Y-62001777D01*
X141281747Y-61983599D01*
X141267132Y-61963893D01*
X141254520Y-61942850D01*
X141244030Y-61920671D01*
X141235765Y-61897572D01*
X141229804Y-61873773D01*
X141226204Y-61849505D01*
X141225000Y-61825001D01*
X141225000Y-58974999D01*
X141226204Y-58950495D01*
X141229804Y-58926227D01*
X141235765Y-58902428D01*
X141244030Y-58879329D01*
X141254520Y-58857150D01*
X141267132Y-58836107D01*
X141281747Y-58816401D01*
X141298223Y-58798223D01*
X141316401Y-58781747D01*
X141336107Y-58767132D01*
X141357150Y-58754520D01*
X141379329Y-58744030D01*
X141402428Y-58735765D01*
X141426227Y-58729804D01*
X141450495Y-58726204D01*
X141474999Y-58725000D01*
X142325001Y-58725000D01*
X142349505Y-58726204D01*
X142349505Y-58726204D01*
G37*
D11*
X141900000Y-60400000D03*
D10*
G36*
X136549505Y-58726204D02*
G01*
X136573773Y-58729804D01*
X136597572Y-58735765D01*
X136620671Y-58744030D01*
X136642850Y-58754520D01*
X136663893Y-58767132D01*
X136683599Y-58781747D01*
X136701777Y-58798223D01*
X136718253Y-58816401D01*
X136732868Y-58836107D01*
X136745480Y-58857150D01*
X136755970Y-58879329D01*
X136764235Y-58902428D01*
X136770196Y-58926227D01*
X136773796Y-58950495D01*
X136775000Y-58974999D01*
X136775000Y-61825001D01*
X136773796Y-61849505D01*
X136770196Y-61873773D01*
X136764235Y-61897572D01*
X136755970Y-61920671D01*
X136745480Y-61942850D01*
X136732868Y-61963893D01*
X136718253Y-61983599D01*
X136701777Y-62001777D01*
X136683599Y-62018253D01*
X136663893Y-62032868D01*
X136642850Y-62045480D01*
X136620671Y-62055970D01*
X136597572Y-62064235D01*
X136573773Y-62070196D01*
X136549505Y-62073796D01*
X136525001Y-62075000D01*
X135674999Y-62075000D01*
X135650495Y-62073796D01*
X135626227Y-62070196D01*
X135602428Y-62064235D01*
X135579329Y-62055970D01*
X135557150Y-62045480D01*
X135536107Y-62032868D01*
X135516401Y-62018253D01*
X135498223Y-62001777D01*
X135481747Y-61983599D01*
X135467132Y-61963893D01*
X135454520Y-61942850D01*
X135444030Y-61920671D01*
X135435765Y-61897572D01*
X135429804Y-61873773D01*
X135426204Y-61849505D01*
X135425000Y-61825001D01*
X135425000Y-58974999D01*
X135426204Y-58950495D01*
X135429804Y-58926227D01*
X135435765Y-58902428D01*
X135444030Y-58879329D01*
X135454520Y-58857150D01*
X135467132Y-58836107D01*
X135481747Y-58816401D01*
X135498223Y-58798223D01*
X135516401Y-58781747D01*
X135536107Y-58767132D01*
X135557150Y-58754520D01*
X135579329Y-58744030D01*
X135602428Y-58735765D01*
X135626227Y-58729804D01*
X135650495Y-58726204D01*
X135674999Y-58725000D01*
X136525001Y-58725000D01*
X136549505Y-58726204D01*
X136549505Y-58726204D01*
G37*
D11*
X136100000Y-60400000D03*
D10*
G36*
X136549505Y-54526204D02*
G01*
X136573773Y-54529804D01*
X136597572Y-54535765D01*
X136620671Y-54544030D01*
X136642850Y-54554520D01*
X136663893Y-54567132D01*
X136683599Y-54581747D01*
X136701777Y-54598223D01*
X136718253Y-54616401D01*
X136732868Y-54636107D01*
X136745480Y-54657150D01*
X136755970Y-54679329D01*
X136764235Y-54702428D01*
X136770196Y-54726227D01*
X136773796Y-54750495D01*
X136775000Y-54774999D01*
X136775000Y-57625001D01*
X136773796Y-57649505D01*
X136770196Y-57673773D01*
X136764235Y-57697572D01*
X136755970Y-57720671D01*
X136745480Y-57742850D01*
X136732868Y-57763893D01*
X136718253Y-57783599D01*
X136701777Y-57801777D01*
X136683599Y-57818253D01*
X136663893Y-57832868D01*
X136642850Y-57845480D01*
X136620671Y-57855970D01*
X136597572Y-57864235D01*
X136573773Y-57870196D01*
X136549505Y-57873796D01*
X136525001Y-57875000D01*
X135674999Y-57875000D01*
X135650495Y-57873796D01*
X135626227Y-57870196D01*
X135602428Y-57864235D01*
X135579329Y-57855970D01*
X135557150Y-57845480D01*
X135536107Y-57832868D01*
X135516401Y-57818253D01*
X135498223Y-57801777D01*
X135481747Y-57783599D01*
X135467132Y-57763893D01*
X135454520Y-57742850D01*
X135444030Y-57720671D01*
X135435765Y-57697572D01*
X135429804Y-57673773D01*
X135426204Y-57649505D01*
X135425000Y-57625001D01*
X135425000Y-54774999D01*
X135426204Y-54750495D01*
X135429804Y-54726227D01*
X135435765Y-54702428D01*
X135444030Y-54679329D01*
X135454520Y-54657150D01*
X135467132Y-54636107D01*
X135481747Y-54616401D01*
X135498223Y-54598223D01*
X135516401Y-54581747D01*
X135536107Y-54567132D01*
X135557150Y-54554520D01*
X135579329Y-54544030D01*
X135602428Y-54535765D01*
X135626227Y-54529804D01*
X135650495Y-54526204D01*
X135674999Y-54525000D01*
X136525001Y-54525000D01*
X136549505Y-54526204D01*
X136549505Y-54526204D01*
G37*
D11*
X136100000Y-56200000D03*
D10*
G36*
X142349505Y-54526204D02*
G01*
X142373773Y-54529804D01*
X142397572Y-54535765D01*
X142420671Y-54544030D01*
X142442850Y-54554520D01*
X142463893Y-54567132D01*
X142483599Y-54581747D01*
X142501777Y-54598223D01*
X142518253Y-54616401D01*
X142532868Y-54636107D01*
X142545480Y-54657150D01*
X142555970Y-54679329D01*
X142564235Y-54702428D01*
X142570196Y-54726227D01*
X142573796Y-54750495D01*
X142575000Y-54774999D01*
X142575000Y-57625001D01*
X142573796Y-57649505D01*
X142570196Y-57673773D01*
X142564235Y-57697572D01*
X142555970Y-57720671D01*
X142545480Y-57742850D01*
X142532868Y-57763893D01*
X142518253Y-57783599D01*
X142501777Y-57801777D01*
X142483599Y-57818253D01*
X142463893Y-57832868D01*
X142442850Y-57845480D01*
X142420671Y-57855970D01*
X142397572Y-57864235D01*
X142373773Y-57870196D01*
X142349505Y-57873796D01*
X142325001Y-57875000D01*
X141474999Y-57875000D01*
X141450495Y-57873796D01*
X141426227Y-57870196D01*
X141402428Y-57864235D01*
X141379329Y-57855970D01*
X141357150Y-57845480D01*
X141336107Y-57832868D01*
X141316401Y-57818253D01*
X141298223Y-57801777D01*
X141281747Y-57783599D01*
X141267132Y-57763893D01*
X141254520Y-57742850D01*
X141244030Y-57720671D01*
X141235765Y-57697572D01*
X141229804Y-57673773D01*
X141226204Y-57649505D01*
X141225000Y-57625001D01*
X141225000Y-54774999D01*
X141226204Y-54750495D01*
X141229804Y-54726227D01*
X141235765Y-54702428D01*
X141244030Y-54679329D01*
X141254520Y-54657150D01*
X141267132Y-54636107D01*
X141281747Y-54616401D01*
X141298223Y-54598223D01*
X141316401Y-54581747D01*
X141336107Y-54567132D01*
X141357150Y-54554520D01*
X141379329Y-54544030D01*
X141402428Y-54535765D01*
X141426227Y-54529804D01*
X141450495Y-54526204D01*
X141474999Y-54525000D01*
X142325001Y-54525000D01*
X142349505Y-54526204D01*
X142349505Y-54526204D01*
G37*
D11*
X141900000Y-56200000D03*
M02*
