G04 #@! TF.GenerationSoftware,KiCad,Pcbnew,(5.1.4-0)*
G04 #@! TF.CreationDate,2021-02-17T16:02:49+01:00*
G04 #@! TF.ProjectId,cooling control unit,636f6f6c-696e-4672-9063-6f6e74726f6c,rev?*
G04 #@! TF.SameCoordinates,Original*
G04 #@! TF.FileFunction,Soldermask,Bot*
G04 #@! TF.FilePolarity,Negative*
%FSLAX46Y46*%
G04 Gerber Fmt 4.6, Leading zero omitted, Abs format (unit mm)*
G04 Created by KiCad (PCBNEW (5.1.4-0)) date 2021-02-17 16:02:49*
%MOMM*%
%LPD*%
G04 APERTURE LIST*
%ADD10C,0.100000*%
G04 APERTURE END LIST*
D10*
G36*
X121361468Y-124355565D02*
G01*
X121400138Y-124367296D01*
X121435777Y-124386346D01*
X121467017Y-124411983D01*
X121492654Y-124443223D01*
X121511704Y-124478862D01*
X121523435Y-124517532D01*
X121528000Y-124563888D01*
X121528000Y-125215112D01*
X121523435Y-125261468D01*
X121511704Y-125300138D01*
X121492654Y-125335777D01*
X121467017Y-125367017D01*
X121435777Y-125392654D01*
X121400138Y-125411704D01*
X121361468Y-125423435D01*
X121315112Y-125428000D01*
X120238888Y-125428000D01*
X120192532Y-125423435D01*
X120153862Y-125411704D01*
X120118223Y-125392654D01*
X120086983Y-125367017D01*
X120061346Y-125335777D01*
X120042296Y-125300138D01*
X120030565Y-125261468D01*
X120026000Y-125215112D01*
X120026000Y-124563888D01*
X120030565Y-124517532D01*
X120042296Y-124478862D01*
X120061346Y-124443223D01*
X120086983Y-124411983D01*
X120118223Y-124386346D01*
X120153862Y-124367296D01*
X120192532Y-124355565D01*
X120238888Y-124351000D01*
X121315112Y-124351000D01*
X121361468Y-124355565D01*
X121361468Y-124355565D01*
G37*
G36*
X119329468Y-124355565D02*
G01*
X119368138Y-124367296D01*
X119403777Y-124386346D01*
X119435017Y-124411983D01*
X119460654Y-124443223D01*
X119479704Y-124478862D01*
X119491435Y-124517532D01*
X119496000Y-124563888D01*
X119496000Y-125215112D01*
X119491435Y-125261468D01*
X119479704Y-125300138D01*
X119460654Y-125335777D01*
X119435017Y-125367017D01*
X119403777Y-125392654D01*
X119368138Y-125411704D01*
X119329468Y-125423435D01*
X119283112Y-125428000D01*
X118206888Y-125428000D01*
X118160532Y-125423435D01*
X118121862Y-125411704D01*
X118086223Y-125392654D01*
X118054983Y-125367017D01*
X118029346Y-125335777D01*
X118010296Y-125300138D01*
X117998565Y-125261468D01*
X117994000Y-125215112D01*
X117994000Y-124563888D01*
X117998565Y-124517532D01*
X118010296Y-124478862D01*
X118029346Y-124443223D01*
X118054983Y-124411983D01*
X118086223Y-124386346D01*
X118121862Y-124367296D01*
X118160532Y-124355565D01*
X118206888Y-124351000D01*
X119283112Y-124351000D01*
X119329468Y-124355565D01*
X119329468Y-124355565D01*
G37*
G36*
X117297468Y-124355565D02*
G01*
X117336138Y-124367296D01*
X117371777Y-124386346D01*
X117403017Y-124411983D01*
X117428654Y-124443223D01*
X117447704Y-124478862D01*
X117459435Y-124517532D01*
X117464000Y-124563888D01*
X117464000Y-125215112D01*
X117459435Y-125261468D01*
X117447704Y-125300138D01*
X117428654Y-125335777D01*
X117403017Y-125367017D01*
X117371777Y-125392654D01*
X117336138Y-125411704D01*
X117297468Y-125423435D01*
X117251112Y-125428000D01*
X116174888Y-125428000D01*
X116128532Y-125423435D01*
X116089862Y-125411704D01*
X116054223Y-125392654D01*
X116022983Y-125367017D01*
X115997346Y-125335777D01*
X115978296Y-125300138D01*
X115966565Y-125261468D01*
X115962000Y-125215112D01*
X115962000Y-124563888D01*
X115966565Y-124517532D01*
X115978296Y-124478862D01*
X115997346Y-124443223D01*
X116022983Y-124411983D01*
X116054223Y-124386346D01*
X116089862Y-124367296D01*
X116128532Y-124355565D01*
X116174888Y-124351000D01*
X117251112Y-124351000D01*
X117297468Y-124355565D01*
X117297468Y-124355565D01*
G37*
G36*
X115265468Y-124355565D02*
G01*
X115304138Y-124367296D01*
X115339777Y-124386346D01*
X115371017Y-124411983D01*
X115396654Y-124443223D01*
X115415704Y-124478862D01*
X115427435Y-124517532D01*
X115432000Y-124563888D01*
X115432000Y-125215112D01*
X115427435Y-125261468D01*
X115415704Y-125300138D01*
X115396654Y-125335777D01*
X115371017Y-125367017D01*
X115339777Y-125392654D01*
X115304138Y-125411704D01*
X115265468Y-125423435D01*
X115219112Y-125428000D01*
X114142888Y-125428000D01*
X114096532Y-125423435D01*
X114057862Y-125411704D01*
X114022223Y-125392654D01*
X113990983Y-125367017D01*
X113965346Y-125335777D01*
X113946296Y-125300138D01*
X113934565Y-125261468D01*
X113930000Y-125215112D01*
X113930000Y-124563888D01*
X113934565Y-124517532D01*
X113946296Y-124478862D01*
X113965346Y-124443223D01*
X113990983Y-124411983D01*
X114022223Y-124386346D01*
X114057862Y-124367296D01*
X114096532Y-124355565D01*
X114142888Y-124351000D01*
X115219112Y-124351000D01*
X115265468Y-124355565D01*
X115265468Y-124355565D01*
G37*
G36*
X113233468Y-124355565D02*
G01*
X113272138Y-124367296D01*
X113307777Y-124386346D01*
X113339017Y-124411983D01*
X113364654Y-124443223D01*
X113383704Y-124478862D01*
X113395435Y-124517532D01*
X113400000Y-124563888D01*
X113400000Y-125215112D01*
X113395435Y-125261468D01*
X113383704Y-125300138D01*
X113364654Y-125335777D01*
X113339017Y-125367017D01*
X113307777Y-125392654D01*
X113272138Y-125411704D01*
X113233468Y-125423435D01*
X113187112Y-125428000D01*
X112110888Y-125428000D01*
X112064532Y-125423435D01*
X112025862Y-125411704D01*
X111990223Y-125392654D01*
X111958983Y-125367017D01*
X111933346Y-125335777D01*
X111914296Y-125300138D01*
X111902565Y-125261468D01*
X111898000Y-125215112D01*
X111898000Y-124563888D01*
X111902565Y-124517532D01*
X111914296Y-124478862D01*
X111933346Y-124443223D01*
X111958983Y-124411983D01*
X111990223Y-124386346D01*
X112025862Y-124367296D01*
X112064532Y-124355565D01*
X112110888Y-124351000D01*
X113187112Y-124351000D01*
X113233468Y-124355565D01*
X113233468Y-124355565D01*
G37*
G36*
X111201468Y-124355565D02*
G01*
X111240138Y-124367296D01*
X111275777Y-124386346D01*
X111307017Y-124411983D01*
X111332654Y-124443223D01*
X111351704Y-124478862D01*
X111363435Y-124517532D01*
X111368000Y-124563888D01*
X111368000Y-125215112D01*
X111363435Y-125261468D01*
X111351704Y-125300138D01*
X111332654Y-125335777D01*
X111307017Y-125367017D01*
X111275777Y-125392654D01*
X111240138Y-125411704D01*
X111201468Y-125423435D01*
X111155112Y-125428000D01*
X110078888Y-125428000D01*
X110032532Y-125423435D01*
X109993862Y-125411704D01*
X109958223Y-125392654D01*
X109926983Y-125367017D01*
X109901346Y-125335777D01*
X109882296Y-125300138D01*
X109870565Y-125261468D01*
X109866000Y-125215112D01*
X109866000Y-124563888D01*
X109870565Y-124517532D01*
X109882296Y-124478862D01*
X109901346Y-124443223D01*
X109926983Y-124411983D01*
X109958223Y-124386346D01*
X109993862Y-124367296D01*
X110032532Y-124355565D01*
X110078888Y-124351000D01*
X111155112Y-124351000D01*
X111201468Y-124355565D01*
X111201468Y-124355565D01*
G37*
G36*
X121361468Y-122480565D02*
G01*
X121400138Y-122492296D01*
X121435777Y-122511346D01*
X121467017Y-122536983D01*
X121492654Y-122568223D01*
X121511704Y-122603862D01*
X121523435Y-122642532D01*
X121528000Y-122688888D01*
X121528000Y-123340112D01*
X121523435Y-123386468D01*
X121511704Y-123425138D01*
X121492654Y-123460777D01*
X121467017Y-123492017D01*
X121435777Y-123517654D01*
X121400138Y-123536704D01*
X121361468Y-123548435D01*
X121315112Y-123553000D01*
X120238888Y-123553000D01*
X120192532Y-123548435D01*
X120153862Y-123536704D01*
X120118223Y-123517654D01*
X120086983Y-123492017D01*
X120061346Y-123460777D01*
X120042296Y-123425138D01*
X120030565Y-123386468D01*
X120026000Y-123340112D01*
X120026000Y-122688888D01*
X120030565Y-122642532D01*
X120042296Y-122603862D01*
X120061346Y-122568223D01*
X120086983Y-122536983D01*
X120118223Y-122511346D01*
X120153862Y-122492296D01*
X120192532Y-122480565D01*
X120238888Y-122476000D01*
X121315112Y-122476000D01*
X121361468Y-122480565D01*
X121361468Y-122480565D01*
G37*
G36*
X119329468Y-122480565D02*
G01*
X119368138Y-122492296D01*
X119403777Y-122511346D01*
X119435017Y-122536983D01*
X119460654Y-122568223D01*
X119479704Y-122603862D01*
X119491435Y-122642532D01*
X119496000Y-122688888D01*
X119496000Y-123340112D01*
X119491435Y-123386468D01*
X119479704Y-123425138D01*
X119460654Y-123460777D01*
X119435017Y-123492017D01*
X119403777Y-123517654D01*
X119368138Y-123536704D01*
X119329468Y-123548435D01*
X119283112Y-123553000D01*
X118206888Y-123553000D01*
X118160532Y-123548435D01*
X118121862Y-123536704D01*
X118086223Y-123517654D01*
X118054983Y-123492017D01*
X118029346Y-123460777D01*
X118010296Y-123425138D01*
X117998565Y-123386468D01*
X117994000Y-123340112D01*
X117994000Y-122688888D01*
X117998565Y-122642532D01*
X118010296Y-122603862D01*
X118029346Y-122568223D01*
X118054983Y-122536983D01*
X118086223Y-122511346D01*
X118121862Y-122492296D01*
X118160532Y-122480565D01*
X118206888Y-122476000D01*
X119283112Y-122476000D01*
X119329468Y-122480565D01*
X119329468Y-122480565D01*
G37*
G36*
X117297468Y-122480565D02*
G01*
X117336138Y-122492296D01*
X117371777Y-122511346D01*
X117403017Y-122536983D01*
X117428654Y-122568223D01*
X117447704Y-122603862D01*
X117459435Y-122642532D01*
X117464000Y-122688888D01*
X117464000Y-123340112D01*
X117459435Y-123386468D01*
X117447704Y-123425138D01*
X117428654Y-123460777D01*
X117403017Y-123492017D01*
X117371777Y-123517654D01*
X117336138Y-123536704D01*
X117297468Y-123548435D01*
X117251112Y-123553000D01*
X116174888Y-123553000D01*
X116128532Y-123548435D01*
X116089862Y-123536704D01*
X116054223Y-123517654D01*
X116022983Y-123492017D01*
X115997346Y-123460777D01*
X115978296Y-123425138D01*
X115966565Y-123386468D01*
X115962000Y-123340112D01*
X115962000Y-122688888D01*
X115966565Y-122642532D01*
X115978296Y-122603862D01*
X115997346Y-122568223D01*
X116022983Y-122536983D01*
X116054223Y-122511346D01*
X116089862Y-122492296D01*
X116128532Y-122480565D01*
X116174888Y-122476000D01*
X117251112Y-122476000D01*
X117297468Y-122480565D01*
X117297468Y-122480565D01*
G37*
G36*
X115265468Y-122480565D02*
G01*
X115304138Y-122492296D01*
X115339777Y-122511346D01*
X115371017Y-122536983D01*
X115396654Y-122568223D01*
X115415704Y-122603862D01*
X115427435Y-122642532D01*
X115432000Y-122688888D01*
X115432000Y-123340112D01*
X115427435Y-123386468D01*
X115415704Y-123425138D01*
X115396654Y-123460777D01*
X115371017Y-123492017D01*
X115339777Y-123517654D01*
X115304138Y-123536704D01*
X115265468Y-123548435D01*
X115219112Y-123553000D01*
X114142888Y-123553000D01*
X114096532Y-123548435D01*
X114057862Y-123536704D01*
X114022223Y-123517654D01*
X113990983Y-123492017D01*
X113965346Y-123460777D01*
X113946296Y-123425138D01*
X113934565Y-123386468D01*
X113930000Y-123340112D01*
X113930000Y-122688888D01*
X113934565Y-122642532D01*
X113946296Y-122603862D01*
X113965346Y-122568223D01*
X113990983Y-122536983D01*
X114022223Y-122511346D01*
X114057862Y-122492296D01*
X114096532Y-122480565D01*
X114142888Y-122476000D01*
X115219112Y-122476000D01*
X115265468Y-122480565D01*
X115265468Y-122480565D01*
G37*
G36*
X113233468Y-122480565D02*
G01*
X113272138Y-122492296D01*
X113307777Y-122511346D01*
X113339017Y-122536983D01*
X113364654Y-122568223D01*
X113383704Y-122603862D01*
X113395435Y-122642532D01*
X113400000Y-122688888D01*
X113400000Y-123340112D01*
X113395435Y-123386468D01*
X113383704Y-123425138D01*
X113364654Y-123460777D01*
X113339017Y-123492017D01*
X113307777Y-123517654D01*
X113272138Y-123536704D01*
X113233468Y-123548435D01*
X113187112Y-123553000D01*
X112110888Y-123553000D01*
X112064532Y-123548435D01*
X112025862Y-123536704D01*
X111990223Y-123517654D01*
X111958983Y-123492017D01*
X111933346Y-123460777D01*
X111914296Y-123425138D01*
X111902565Y-123386468D01*
X111898000Y-123340112D01*
X111898000Y-122688888D01*
X111902565Y-122642532D01*
X111914296Y-122603862D01*
X111933346Y-122568223D01*
X111958983Y-122536983D01*
X111990223Y-122511346D01*
X112025862Y-122492296D01*
X112064532Y-122480565D01*
X112110888Y-122476000D01*
X113187112Y-122476000D01*
X113233468Y-122480565D01*
X113233468Y-122480565D01*
G37*
G36*
X111201468Y-122480565D02*
G01*
X111240138Y-122492296D01*
X111275777Y-122511346D01*
X111307017Y-122536983D01*
X111332654Y-122568223D01*
X111351704Y-122603862D01*
X111363435Y-122642532D01*
X111368000Y-122688888D01*
X111368000Y-123340112D01*
X111363435Y-123386468D01*
X111351704Y-123425138D01*
X111332654Y-123460777D01*
X111307017Y-123492017D01*
X111275777Y-123517654D01*
X111240138Y-123536704D01*
X111201468Y-123548435D01*
X111155112Y-123553000D01*
X110078888Y-123553000D01*
X110032532Y-123548435D01*
X109993862Y-123536704D01*
X109958223Y-123517654D01*
X109926983Y-123492017D01*
X109901346Y-123460777D01*
X109882296Y-123425138D01*
X109870565Y-123386468D01*
X109866000Y-123340112D01*
X109866000Y-122688888D01*
X109870565Y-122642532D01*
X109882296Y-122603862D01*
X109901346Y-122568223D01*
X109926983Y-122536983D01*
X109958223Y-122511346D01*
X109993862Y-122492296D01*
X110032532Y-122480565D01*
X110078888Y-122476000D01*
X111155112Y-122476000D01*
X111201468Y-122480565D01*
X111201468Y-122480565D01*
G37*
G36*
X120879890Y-120174017D02*
G01*
X120998364Y-120223091D01*
X121104988Y-120294335D01*
X121195665Y-120385012D01*
X121266909Y-120491636D01*
X121315983Y-120610110D01*
X121341000Y-120735882D01*
X121341000Y-120864118D01*
X121315983Y-120989890D01*
X121266909Y-121108364D01*
X121195665Y-121214988D01*
X121104988Y-121305665D01*
X120998364Y-121376909D01*
X120998363Y-121376910D01*
X120998362Y-121376910D01*
X120879890Y-121425983D01*
X120754119Y-121451000D01*
X120625881Y-121451000D01*
X120500110Y-121425983D01*
X120381638Y-121376910D01*
X120381637Y-121376910D01*
X120381636Y-121376909D01*
X120275012Y-121305665D01*
X120184335Y-121214988D01*
X120113091Y-121108364D01*
X120064017Y-120989890D01*
X120039000Y-120864118D01*
X120039000Y-120735882D01*
X120064017Y-120610110D01*
X120113091Y-120491636D01*
X120184335Y-120385012D01*
X120275012Y-120294335D01*
X120381636Y-120223091D01*
X120500110Y-120174017D01*
X120625881Y-120149000D01*
X120754119Y-120149000D01*
X120879890Y-120174017D01*
X120879890Y-120174017D01*
G37*
G36*
X118879890Y-120174017D02*
G01*
X118998364Y-120223091D01*
X119104988Y-120294335D01*
X119195665Y-120385012D01*
X119266909Y-120491636D01*
X119315983Y-120610110D01*
X119341000Y-120735882D01*
X119341000Y-120864118D01*
X119315983Y-120989890D01*
X119266909Y-121108364D01*
X119195665Y-121214988D01*
X119104988Y-121305665D01*
X118998364Y-121376909D01*
X118998363Y-121376910D01*
X118998362Y-121376910D01*
X118879890Y-121425983D01*
X118754119Y-121451000D01*
X118625881Y-121451000D01*
X118500110Y-121425983D01*
X118381638Y-121376910D01*
X118381637Y-121376910D01*
X118381636Y-121376909D01*
X118275012Y-121305665D01*
X118184335Y-121214988D01*
X118113091Y-121108364D01*
X118064017Y-120989890D01*
X118039000Y-120864118D01*
X118039000Y-120735882D01*
X118064017Y-120610110D01*
X118113091Y-120491636D01*
X118184335Y-120385012D01*
X118275012Y-120294335D01*
X118381636Y-120223091D01*
X118500110Y-120174017D01*
X118625881Y-120149000D01*
X118754119Y-120149000D01*
X118879890Y-120174017D01*
X118879890Y-120174017D01*
G37*
G36*
X116879890Y-120174017D02*
G01*
X116998364Y-120223091D01*
X117104988Y-120294335D01*
X117195665Y-120385012D01*
X117266909Y-120491636D01*
X117315983Y-120610110D01*
X117341000Y-120735882D01*
X117341000Y-120864118D01*
X117315983Y-120989890D01*
X117266909Y-121108364D01*
X117195665Y-121214988D01*
X117104988Y-121305665D01*
X116998364Y-121376909D01*
X116998363Y-121376910D01*
X116998362Y-121376910D01*
X116879890Y-121425983D01*
X116754119Y-121451000D01*
X116625881Y-121451000D01*
X116500110Y-121425983D01*
X116381638Y-121376910D01*
X116381637Y-121376910D01*
X116381636Y-121376909D01*
X116275012Y-121305665D01*
X116184335Y-121214988D01*
X116113091Y-121108364D01*
X116064017Y-120989890D01*
X116039000Y-120864118D01*
X116039000Y-120735882D01*
X116064017Y-120610110D01*
X116113091Y-120491636D01*
X116184335Y-120385012D01*
X116275012Y-120294335D01*
X116381636Y-120223091D01*
X116500110Y-120174017D01*
X116625881Y-120149000D01*
X116754119Y-120149000D01*
X116879890Y-120174017D01*
X116879890Y-120174017D01*
G37*
G36*
X114879890Y-120174017D02*
G01*
X114998364Y-120223091D01*
X115104988Y-120294335D01*
X115195665Y-120385012D01*
X115266909Y-120491636D01*
X115315983Y-120610110D01*
X115341000Y-120735882D01*
X115341000Y-120864118D01*
X115315983Y-120989890D01*
X115266909Y-121108364D01*
X115195665Y-121214988D01*
X115104988Y-121305665D01*
X114998364Y-121376909D01*
X114998363Y-121376910D01*
X114998362Y-121376910D01*
X114879890Y-121425983D01*
X114754119Y-121451000D01*
X114625881Y-121451000D01*
X114500110Y-121425983D01*
X114381638Y-121376910D01*
X114381637Y-121376910D01*
X114381636Y-121376909D01*
X114275012Y-121305665D01*
X114184335Y-121214988D01*
X114113091Y-121108364D01*
X114064017Y-120989890D01*
X114039000Y-120864118D01*
X114039000Y-120735882D01*
X114064017Y-120610110D01*
X114113091Y-120491636D01*
X114184335Y-120385012D01*
X114275012Y-120294335D01*
X114381636Y-120223091D01*
X114500110Y-120174017D01*
X114625881Y-120149000D01*
X114754119Y-120149000D01*
X114879890Y-120174017D01*
X114879890Y-120174017D01*
G37*
G36*
X112879890Y-120174017D02*
G01*
X112998364Y-120223091D01*
X113104988Y-120294335D01*
X113195665Y-120385012D01*
X113266909Y-120491636D01*
X113315983Y-120610110D01*
X113341000Y-120735882D01*
X113341000Y-120864118D01*
X113315983Y-120989890D01*
X113266909Y-121108364D01*
X113195665Y-121214988D01*
X113104988Y-121305665D01*
X112998364Y-121376909D01*
X112998363Y-121376910D01*
X112998362Y-121376910D01*
X112879890Y-121425983D01*
X112754119Y-121451000D01*
X112625881Y-121451000D01*
X112500110Y-121425983D01*
X112381638Y-121376910D01*
X112381637Y-121376910D01*
X112381636Y-121376909D01*
X112275012Y-121305665D01*
X112184335Y-121214988D01*
X112113091Y-121108364D01*
X112064017Y-120989890D01*
X112039000Y-120864118D01*
X112039000Y-120735882D01*
X112064017Y-120610110D01*
X112113091Y-120491636D01*
X112184335Y-120385012D01*
X112275012Y-120294335D01*
X112381636Y-120223091D01*
X112500110Y-120174017D01*
X112625881Y-120149000D01*
X112754119Y-120149000D01*
X112879890Y-120174017D01*
X112879890Y-120174017D01*
G37*
G36*
X110879890Y-120174017D02*
G01*
X110998364Y-120223091D01*
X111104988Y-120294335D01*
X111195665Y-120385012D01*
X111266909Y-120491636D01*
X111315983Y-120610110D01*
X111341000Y-120735882D01*
X111341000Y-120864118D01*
X111315983Y-120989890D01*
X111266909Y-121108364D01*
X111195665Y-121214988D01*
X111104988Y-121305665D01*
X110998364Y-121376909D01*
X110998363Y-121376910D01*
X110998362Y-121376910D01*
X110879890Y-121425983D01*
X110754119Y-121451000D01*
X110625881Y-121451000D01*
X110500110Y-121425983D01*
X110381638Y-121376910D01*
X110381637Y-121376910D01*
X110381636Y-121376909D01*
X110275012Y-121305665D01*
X110184335Y-121214988D01*
X110113091Y-121108364D01*
X110064017Y-120989890D01*
X110039000Y-120864118D01*
X110039000Y-120735882D01*
X110064017Y-120610110D01*
X110113091Y-120491636D01*
X110184335Y-120385012D01*
X110275012Y-120294335D01*
X110381636Y-120223091D01*
X110500110Y-120174017D01*
X110625881Y-120149000D01*
X110754119Y-120149000D01*
X110879890Y-120174017D01*
X110879890Y-120174017D01*
G37*
G36*
X131218433Y-116484893D02*
G01*
X131308657Y-116502839D01*
X131414267Y-116546585D01*
X131563621Y-116608449D01*
X131563622Y-116608450D01*
X131793086Y-116761772D01*
X131988228Y-116956914D01*
X132090675Y-117110237D01*
X132141551Y-117186379D01*
X132247161Y-117441344D01*
X132301000Y-117712012D01*
X132301000Y-117987988D01*
X132247161Y-118258656D01*
X132141551Y-118513621D01*
X132141550Y-118513622D01*
X131988228Y-118743086D01*
X131793086Y-118938228D01*
X131639763Y-119040675D01*
X131563621Y-119091551D01*
X131414267Y-119153415D01*
X131308657Y-119197161D01*
X131218433Y-119215107D01*
X131037988Y-119251000D01*
X130762012Y-119251000D01*
X130581567Y-119215107D01*
X130491343Y-119197161D01*
X130385733Y-119153415D01*
X130236379Y-119091551D01*
X130160237Y-119040675D01*
X130006914Y-118938228D01*
X129811772Y-118743086D01*
X129658450Y-118513622D01*
X129658449Y-118513621D01*
X129552839Y-118258656D01*
X129499000Y-117987988D01*
X129499000Y-117712012D01*
X129552839Y-117441344D01*
X129658449Y-117186379D01*
X129709325Y-117110237D01*
X129811772Y-116956914D01*
X130006914Y-116761772D01*
X130236378Y-116608450D01*
X130236379Y-116608449D01*
X130385733Y-116546585D01*
X130491343Y-116502839D01*
X130581567Y-116484893D01*
X130762012Y-116449000D01*
X131037988Y-116449000D01*
X131218433Y-116484893D01*
X131218433Y-116484893D01*
G37*
G36*
X127018433Y-116484893D02*
G01*
X127108657Y-116502839D01*
X127214267Y-116546585D01*
X127363621Y-116608449D01*
X127363622Y-116608450D01*
X127593086Y-116761772D01*
X127788228Y-116956914D01*
X127890675Y-117110237D01*
X127941551Y-117186379D01*
X128047161Y-117441344D01*
X128101000Y-117712012D01*
X128101000Y-117987988D01*
X128047161Y-118258656D01*
X127941551Y-118513621D01*
X127941550Y-118513622D01*
X127788228Y-118743086D01*
X127593086Y-118938228D01*
X127439763Y-119040675D01*
X127363621Y-119091551D01*
X127214267Y-119153415D01*
X127108657Y-119197161D01*
X127018433Y-119215107D01*
X126837988Y-119251000D01*
X126562012Y-119251000D01*
X126381567Y-119215107D01*
X126291343Y-119197161D01*
X126185733Y-119153415D01*
X126036379Y-119091551D01*
X125960237Y-119040675D01*
X125806914Y-118938228D01*
X125611772Y-118743086D01*
X125458450Y-118513622D01*
X125458449Y-118513621D01*
X125352839Y-118258656D01*
X125299000Y-117987988D01*
X125299000Y-117712012D01*
X125352839Y-117441344D01*
X125458449Y-117186379D01*
X125509325Y-117110237D01*
X125611772Y-116956914D01*
X125806914Y-116761772D01*
X126036378Y-116608450D01*
X126036379Y-116608449D01*
X126185733Y-116546585D01*
X126291343Y-116502839D01*
X126381567Y-116484893D01*
X126562012Y-116449000D01*
X126837988Y-116449000D01*
X127018433Y-116484893D01*
X127018433Y-116484893D01*
G37*
G36*
X116879890Y-117674017D02*
G01*
X116971618Y-117712012D01*
X116998364Y-117723091D01*
X117104988Y-117794335D01*
X117195665Y-117885012D01*
X117266909Y-117991636D01*
X117315983Y-118110110D01*
X117341000Y-118235882D01*
X117341000Y-118364118D01*
X117315983Y-118489890D01*
X117266909Y-118608364D01*
X117195665Y-118714988D01*
X117104988Y-118805665D01*
X116998364Y-118876909D01*
X116998363Y-118876910D01*
X116998362Y-118876910D01*
X116879890Y-118925983D01*
X116754119Y-118951000D01*
X116625881Y-118951000D01*
X116500110Y-118925983D01*
X116381638Y-118876910D01*
X116381637Y-118876910D01*
X116381636Y-118876909D01*
X116275012Y-118805665D01*
X116184335Y-118714988D01*
X116113091Y-118608364D01*
X116064017Y-118489890D01*
X116039000Y-118364118D01*
X116039000Y-118235882D01*
X116064017Y-118110110D01*
X116113091Y-117991636D01*
X116184335Y-117885012D01*
X116275012Y-117794335D01*
X116381636Y-117723091D01*
X116408383Y-117712012D01*
X116500110Y-117674017D01*
X116625881Y-117649000D01*
X116754119Y-117649000D01*
X116879890Y-117674017D01*
X116879890Y-117674017D01*
G37*
G36*
X110879890Y-117674017D02*
G01*
X110971618Y-117712012D01*
X110998364Y-117723091D01*
X111104988Y-117794335D01*
X111195665Y-117885012D01*
X111266909Y-117991636D01*
X111315983Y-118110110D01*
X111341000Y-118235882D01*
X111341000Y-118364118D01*
X111315983Y-118489890D01*
X111266909Y-118608364D01*
X111195665Y-118714988D01*
X111104988Y-118805665D01*
X110998364Y-118876909D01*
X110998363Y-118876910D01*
X110998362Y-118876910D01*
X110879890Y-118925983D01*
X110754119Y-118951000D01*
X110625881Y-118951000D01*
X110500110Y-118925983D01*
X110381638Y-118876910D01*
X110381637Y-118876910D01*
X110381636Y-118876909D01*
X110275012Y-118805665D01*
X110184335Y-118714988D01*
X110113091Y-118608364D01*
X110064017Y-118489890D01*
X110039000Y-118364118D01*
X110039000Y-118235882D01*
X110064017Y-118110110D01*
X110113091Y-117991636D01*
X110184335Y-117885012D01*
X110275012Y-117794335D01*
X110381636Y-117723091D01*
X110408383Y-117712012D01*
X110500110Y-117674017D01*
X110625881Y-117649000D01*
X110754119Y-117649000D01*
X110879890Y-117674017D01*
X110879890Y-117674017D01*
G37*
G36*
X120879890Y-117674017D02*
G01*
X120971618Y-117712012D01*
X120998364Y-117723091D01*
X121104988Y-117794335D01*
X121195665Y-117885012D01*
X121266909Y-117991636D01*
X121315983Y-118110110D01*
X121341000Y-118235882D01*
X121341000Y-118364118D01*
X121315983Y-118489890D01*
X121266909Y-118608364D01*
X121195665Y-118714988D01*
X121104988Y-118805665D01*
X120998364Y-118876909D01*
X120998363Y-118876910D01*
X120998362Y-118876910D01*
X120879890Y-118925983D01*
X120754119Y-118951000D01*
X120625881Y-118951000D01*
X120500110Y-118925983D01*
X120381638Y-118876910D01*
X120381637Y-118876910D01*
X120381636Y-118876909D01*
X120275012Y-118805665D01*
X120184335Y-118714988D01*
X120113091Y-118608364D01*
X120064017Y-118489890D01*
X120039000Y-118364118D01*
X120039000Y-118235882D01*
X120064017Y-118110110D01*
X120113091Y-117991636D01*
X120184335Y-117885012D01*
X120275012Y-117794335D01*
X120381636Y-117723091D01*
X120408383Y-117712012D01*
X120500110Y-117674017D01*
X120625881Y-117649000D01*
X120754119Y-117649000D01*
X120879890Y-117674017D01*
X120879890Y-117674017D01*
G37*
G36*
X118879890Y-117674017D02*
G01*
X118971618Y-117712012D01*
X118998364Y-117723091D01*
X119104988Y-117794335D01*
X119195665Y-117885012D01*
X119266909Y-117991636D01*
X119315983Y-118110110D01*
X119341000Y-118235882D01*
X119341000Y-118364118D01*
X119315983Y-118489890D01*
X119266909Y-118608364D01*
X119195665Y-118714988D01*
X119104988Y-118805665D01*
X118998364Y-118876909D01*
X118998363Y-118876910D01*
X118998362Y-118876910D01*
X118879890Y-118925983D01*
X118754119Y-118951000D01*
X118625881Y-118951000D01*
X118500110Y-118925983D01*
X118381638Y-118876910D01*
X118381637Y-118876910D01*
X118381636Y-118876909D01*
X118275012Y-118805665D01*
X118184335Y-118714988D01*
X118113091Y-118608364D01*
X118064017Y-118489890D01*
X118039000Y-118364118D01*
X118039000Y-118235882D01*
X118064017Y-118110110D01*
X118113091Y-117991636D01*
X118184335Y-117885012D01*
X118275012Y-117794335D01*
X118381636Y-117723091D01*
X118408383Y-117712012D01*
X118500110Y-117674017D01*
X118625881Y-117649000D01*
X118754119Y-117649000D01*
X118879890Y-117674017D01*
X118879890Y-117674017D01*
G37*
G36*
X114879890Y-117674017D02*
G01*
X114971618Y-117712012D01*
X114998364Y-117723091D01*
X115104988Y-117794335D01*
X115195665Y-117885012D01*
X115266909Y-117991636D01*
X115315983Y-118110110D01*
X115341000Y-118235882D01*
X115341000Y-118364118D01*
X115315983Y-118489890D01*
X115266909Y-118608364D01*
X115195665Y-118714988D01*
X115104988Y-118805665D01*
X114998364Y-118876909D01*
X114998363Y-118876910D01*
X114998362Y-118876910D01*
X114879890Y-118925983D01*
X114754119Y-118951000D01*
X114625881Y-118951000D01*
X114500110Y-118925983D01*
X114381638Y-118876910D01*
X114381637Y-118876910D01*
X114381636Y-118876909D01*
X114275012Y-118805665D01*
X114184335Y-118714988D01*
X114113091Y-118608364D01*
X114064017Y-118489890D01*
X114039000Y-118364118D01*
X114039000Y-118235882D01*
X114064017Y-118110110D01*
X114113091Y-117991636D01*
X114184335Y-117885012D01*
X114275012Y-117794335D01*
X114381636Y-117723091D01*
X114408383Y-117712012D01*
X114500110Y-117674017D01*
X114625881Y-117649000D01*
X114754119Y-117649000D01*
X114879890Y-117674017D01*
X114879890Y-117674017D01*
G37*
G36*
X112879890Y-117674017D02*
G01*
X112971618Y-117712012D01*
X112998364Y-117723091D01*
X113104988Y-117794335D01*
X113195665Y-117885012D01*
X113266909Y-117991636D01*
X113315983Y-118110110D01*
X113341000Y-118235882D01*
X113341000Y-118364118D01*
X113315983Y-118489890D01*
X113266909Y-118608364D01*
X113195665Y-118714988D01*
X113104988Y-118805665D01*
X112998364Y-118876909D01*
X112998363Y-118876910D01*
X112998362Y-118876910D01*
X112879890Y-118925983D01*
X112754119Y-118951000D01*
X112625881Y-118951000D01*
X112500110Y-118925983D01*
X112381638Y-118876910D01*
X112381637Y-118876910D01*
X112381636Y-118876909D01*
X112275012Y-118805665D01*
X112184335Y-118714988D01*
X112113091Y-118608364D01*
X112064017Y-118489890D01*
X112039000Y-118364118D01*
X112039000Y-118235882D01*
X112064017Y-118110110D01*
X112113091Y-117991636D01*
X112184335Y-117885012D01*
X112275012Y-117794335D01*
X112381636Y-117723091D01*
X112408383Y-117712012D01*
X112500110Y-117674017D01*
X112625881Y-117649000D01*
X112754119Y-117649000D01*
X112879890Y-117674017D01*
X112879890Y-117674017D01*
G37*
G36*
X114941760Y-116727160D02*
G01*
X114389760Y-116727160D01*
X114389760Y-116025160D01*
X114941760Y-116025160D01*
X114941760Y-116727160D01*
X114941760Y-116727160D01*
G37*
G36*
X120971720Y-116727160D02*
G01*
X120419720Y-116727160D01*
X120419720Y-116025160D01*
X120971720Y-116025160D01*
X120971720Y-116727160D01*
X120971720Y-116727160D01*
G37*
G36*
X118961056Y-116727160D02*
G01*
X118409056Y-116727160D01*
X118409056Y-116025160D01*
X118961056Y-116025160D01*
X118961056Y-116727160D01*
X118961056Y-116727160D01*
G37*
G36*
X116950392Y-116727160D02*
G01*
X116398392Y-116727160D01*
X116398392Y-116025160D01*
X116950392Y-116025160D01*
X116950392Y-116727160D01*
X116950392Y-116727160D01*
G37*
G36*
X112965640Y-116727160D02*
G01*
X112413640Y-116727160D01*
X112413640Y-116025160D01*
X112965640Y-116025160D01*
X112965640Y-116727160D01*
X112965640Y-116727160D01*
G37*
G36*
X110918400Y-116727160D02*
G01*
X110366400Y-116727160D01*
X110366400Y-116025160D01*
X110918400Y-116025160D01*
X110918400Y-116727160D01*
X110918400Y-116727160D01*
G37*
G36*
X114941760Y-114627160D02*
G01*
X114389760Y-114627160D01*
X114389760Y-113925160D01*
X114941760Y-113925160D01*
X114941760Y-114627160D01*
X114941760Y-114627160D01*
G37*
G36*
X112965640Y-114627160D02*
G01*
X112413640Y-114627160D01*
X112413640Y-113925160D01*
X112965640Y-113925160D01*
X112965640Y-114627160D01*
X112965640Y-114627160D01*
G37*
G36*
X116950392Y-114627160D02*
G01*
X116398392Y-114627160D01*
X116398392Y-113925160D01*
X116950392Y-113925160D01*
X116950392Y-114627160D01*
X116950392Y-114627160D01*
G37*
G36*
X110918400Y-114627160D02*
G01*
X110366400Y-114627160D01*
X110366400Y-113925160D01*
X110918400Y-113925160D01*
X110918400Y-114627160D01*
X110918400Y-114627160D01*
G37*
G36*
X118961056Y-114627160D02*
G01*
X118409056Y-114627160D01*
X118409056Y-113925160D01*
X118961056Y-113925160D01*
X118961056Y-114627160D01*
X118961056Y-114627160D01*
G37*
G36*
X120971720Y-114627160D02*
G01*
X120419720Y-114627160D01*
X120419720Y-113925160D01*
X120971720Y-113925160D01*
X120971720Y-114627160D01*
X120971720Y-114627160D01*
G37*
G36*
X131218433Y-110984893D02*
G01*
X131308657Y-111002839D01*
X131414267Y-111046585D01*
X131563621Y-111108449D01*
X131563622Y-111108450D01*
X131793086Y-111261772D01*
X131988228Y-111456914D01*
X132090675Y-111610237D01*
X132141551Y-111686379D01*
X132247161Y-111941344D01*
X132301000Y-112212012D01*
X132301000Y-112487988D01*
X132247161Y-112758656D01*
X132141551Y-113013621D01*
X132141550Y-113013622D01*
X131988228Y-113243086D01*
X131793086Y-113438228D01*
X131639763Y-113540675D01*
X131563621Y-113591551D01*
X131414267Y-113653415D01*
X131308657Y-113697161D01*
X131218433Y-113715107D01*
X131037988Y-113751000D01*
X130762012Y-113751000D01*
X130581567Y-113715107D01*
X130491343Y-113697161D01*
X130385733Y-113653415D01*
X130236379Y-113591551D01*
X130160237Y-113540675D01*
X130006914Y-113438228D01*
X129811772Y-113243086D01*
X129658450Y-113013622D01*
X129658449Y-113013621D01*
X129552839Y-112758656D01*
X129499000Y-112487988D01*
X129499000Y-112212012D01*
X129552839Y-111941344D01*
X129658449Y-111686379D01*
X129709325Y-111610237D01*
X129811772Y-111456914D01*
X130006914Y-111261772D01*
X130236378Y-111108450D01*
X130236379Y-111108449D01*
X130385733Y-111046585D01*
X130491343Y-111002839D01*
X130581567Y-110984893D01*
X130762012Y-110949000D01*
X131037988Y-110949000D01*
X131218433Y-110984893D01*
X131218433Y-110984893D01*
G37*
G36*
X127018433Y-110984893D02*
G01*
X127108657Y-111002839D01*
X127214267Y-111046585D01*
X127363621Y-111108449D01*
X127363622Y-111108450D01*
X127593086Y-111261772D01*
X127788228Y-111456914D01*
X127890675Y-111610237D01*
X127941551Y-111686379D01*
X128047161Y-111941344D01*
X128101000Y-112212012D01*
X128101000Y-112487988D01*
X128047161Y-112758656D01*
X127941551Y-113013621D01*
X127941550Y-113013622D01*
X127788228Y-113243086D01*
X127593086Y-113438228D01*
X127439763Y-113540675D01*
X127363621Y-113591551D01*
X127214267Y-113653415D01*
X127108657Y-113697161D01*
X127018433Y-113715107D01*
X126837988Y-113751000D01*
X126562012Y-113751000D01*
X126381567Y-113715107D01*
X126291343Y-113697161D01*
X126185733Y-113653415D01*
X126036379Y-113591551D01*
X125960237Y-113540675D01*
X125806914Y-113438228D01*
X125611772Y-113243086D01*
X125458450Y-113013622D01*
X125458449Y-113013621D01*
X125352839Y-112758656D01*
X125299000Y-112487988D01*
X125299000Y-112212012D01*
X125352839Y-111941344D01*
X125458449Y-111686379D01*
X125509325Y-111610237D01*
X125611772Y-111456914D01*
X125806914Y-111261772D01*
X126036378Y-111108450D01*
X126036379Y-111108449D01*
X126185733Y-111046585D01*
X126291343Y-111002839D01*
X126381567Y-110984893D01*
X126562012Y-110949000D01*
X126837988Y-110949000D01*
X127018433Y-110984893D01*
X127018433Y-110984893D01*
G37*
G36*
X105127142Y-102763242D02*
G01*
X105275101Y-102824529D01*
X105408255Y-102913499D01*
X105521501Y-103026745D01*
X105610471Y-103159899D01*
X105671758Y-103307858D01*
X105703000Y-103464925D01*
X105703000Y-103625075D01*
X105671758Y-103782142D01*
X105610471Y-103930101D01*
X105521501Y-104063255D01*
X105408255Y-104176501D01*
X105275101Y-104265471D01*
X105127142Y-104326758D01*
X104970075Y-104358000D01*
X104809925Y-104358000D01*
X104652858Y-104326758D01*
X104504899Y-104265471D01*
X104371745Y-104176501D01*
X104258499Y-104063255D01*
X104169529Y-103930101D01*
X104108242Y-103782142D01*
X104077000Y-103625075D01*
X104077000Y-103464925D01*
X104108242Y-103307858D01*
X104169529Y-103159899D01*
X104258499Y-103026745D01*
X104371745Y-102913499D01*
X104504899Y-102824529D01*
X104652858Y-102763242D01*
X104809925Y-102732000D01*
X104970075Y-102732000D01*
X105127142Y-102763242D01*
X105127142Y-102763242D01*
G37*
G36*
X102587142Y-101493242D02*
G01*
X102735101Y-101554529D01*
X102868255Y-101643499D01*
X102981501Y-101756745D01*
X103070471Y-101889899D01*
X103131758Y-102037858D01*
X103163000Y-102194925D01*
X103163000Y-102355075D01*
X103131758Y-102512142D01*
X103070471Y-102660101D01*
X102981501Y-102793255D01*
X102868255Y-102906501D01*
X102735101Y-102995471D01*
X102587142Y-103056758D01*
X102430075Y-103088000D01*
X102269925Y-103088000D01*
X102112858Y-103056758D01*
X101964899Y-102995471D01*
X101831745Y-102906501D01*
X101718499Y-102793255D01*
X101629529Y-102660101D01*
X101568242Y-102512142D01*
X101537000Y-102355075D01*
X101537000Y-102194925D01*
X101568242Y-102037858D01*
X101629529Y-101889899D01*
X101718499Y-101756745D01*
X101831745Y-101643499D01*
X101964899Y-101554529D01*
X102112858Y-101493242D01*
X102269925Y-101462000D01*
X102430075Y-101462000D01*
X102587142Y-101493242D01*
X102587142Y-101493242D01*
G37*
G36*
X105127142Y-100223242D02*
G01*
X105275101Y-100284529D01*
X105408255Y-100373499D01*
X105521501Y-100486745D01*
X105610471Y-100619899D01*
X105671758Y-100767858D01*
X105703000Y-100924925D01*
X105703000Y-101085075D01*
X105671758Y-101242142D01*
X105610471Y-101390101D01*
X105521501Y-101523255D01*
X105408255Y-101636501D01*
X105275101Y-101725471D01*
X105127142Y-101786758D01*
X104970075Y-101818000D01*
X104809925Y-101818000D01*
X104652858Y-101786758D01*
X104504899Y-101725471D01*
X104371745Y-101636501D01*
X104258499Y-101523255D01*
X104169529Y-101390101D01*
X104108242Y-101242142D01*
X104077000Y-101085075D01*
X104077000Y-100924925D01*
X104108242Y-100767858D01*
X104169529Y-100619899D01*
X104258499Y-100486745D01*
X104371745Y-100373499D01*
X104504899Y-100284529D01*
X104652858Y-100223242D01*
X104809925Y-100192000D01*
X104970075Y-100192000D01*
X105127142Y-100223242D01*
X105127142Y-100223242D01*
G37*
G36*
X102587142Y-98953242D02*
G01*
X102735101Y-99014529D01*
X102868255Y-99103499D01*
X102981501Y-99216745D01*
X103070471Y-99349899D01*
X103131758Y-99497858D01*
X103163000Y-99654925D01*
X103163000Y-99815075D01*
X103131758Y-99972142D01*
X103070471Y-100120101D01*
X102981501Y-100253255D01*
X102868255Y-100366501D01*
X102735101Y-100455471D01*
X102587142Y-100516758D01*
X102430075Y-100548000D01*
X102269925Y-100548000D01*
X102112858Y-100516758D01*
X101964899Y-100455471D01*
X101831745Y-100366501D01*
X101718499Y-100253255D01*
X101629529Y-100120101D01*
X101568242Y-99972142D01*
X101537000Y-99815075D01*
X101537000Y-99654925D01*
X101568242Y-99497858D01*
X101629529Y-99349899D01*
X101718499Y-99216745D01*
X101831745Y-99103499D01*
X101964899Y-99014529D01*
X102112858Y-98953242D01*
X102269925Y-98922000D01*
X102430075Y-98922000D01*
X102587142Y-98953242D01*
X102587142Y-98953242D01*
G37*
G36*
X166184642Y-98969781D02*
G01*
X166330414Y-99030162D01*
X166330416Y-99030163D01*
X166461608Y-99117822D01*
X166573178Y-99229392D01*
X166653698Y-99349900D01*
X166660838Y-99360586D01*
X166721219Y-99506358D01*
X166752000Y-99661107D01*
X166752000Y-99818893D01*
X166721219Y-99973642D01*
X166660838Y-100119414D01*
X166660837Y-100119416D01*
X166573178Y-100250608D01*
X166461608Y-100362178D01*
X166330416Y-100449837D01*
X166330415Y-100449838D01*
X166330414Y-100449838D01*
X166184642Y-100510219D01*
X166029893Y-100541000D01*
X165872107Y-100541000D01*
X165717358Y-100510219D01*
X165571586Y-100449838D01*
X165571585Y-100449838D01*
X165571584Y-100449837D01*
X165440392Y-100362178D01*
X165328822Y-100250608D01*
X165241163Y-100119416D01*
X165241162Y-100119414D01*
X165180781Y-99973642D01*
X165150000Y-99818893D01*
X165150000Y-99661107D01*
X165180781Y-99506358D01*
X165241162Y-99360586D01*
X165248302Y-99349900D01*
X165328822Y-99229392D01*
X165440392Y-99117822D01*
X165571584Y-99030163D01*
X165571586Y-99030162D01*
X165717358Y-98969781D01*
X165872107Y-98939000D01*
X166029893Y-98939000D01*
X166184642Y-98969781D01*
X166184642Y-98969781D01*
G37*
G36*
X105127142Y-97683242D02*
G01*
X105275101Y-97744529D01*
X105408255Y-97833499D01*
X105521501Y-97946745D01*
X105610471Y-98079899D01*
X105671758Y-98227858D01*
X105703000Y-98384925D01*
X105703000Y-98545075D01*
X105671758Y-98702142D01*
X105610471Y-98850101D01*
X105521501Y-98983255D01*
X105408255Y-99096501D01*
X105275101Y-99185471D01*
X105127142Y-99246758D01*
X104970075Y-99278000D01*
X104809925Y-99278000D01*
X104652858Y-99246758D01*
X104504899Y-99185471D01*
X104371745Y-99096501D01*
X104258499Y-98983255D01*
X104169529Y-98850101D01*
X104108242Y-98702142D01*
X104077000Y-98545075D01*
X104077000Y-98384925D01*
X104108242Y-98227858D01*
X104169529Y-98079899D01*
X104258499Y-97946745D01*
X104371745Y-97833499D01*
X104504899Y-97744529D01*
X104652858Y-97683242D01*
X104809925Y-97652000D01*
X104970075Y-97652000D01*
X105127142Y-97683242D01*
X105127142Y-97683242D01*
G37*
G36*
X167988142Y-97558242D02*
G01*
X168136101Y-97619529D01*
X168269255Y-97708499D01*
X168382501Y-97821745D01*
X168471471Y-97954899D01*
X168532758Y-98102858D01*
X168564000Y-98259925D01*
X168564000Y-98420075D01*
X168532758Y-98577142D01*
X168471471Y-98725101D01*
X168382501Y-98858255D01*
X168269255Y-98971501D01*
X168136101Y-99060471D01*
X167988142Y-99121758D01*
X167831075Y-99153000D01*
X167670925Y-99153000D01*
X167513858Y-99121758D01*
X167365899Y-99060471D01*
X167232745Y-98971501D01*
X167119499Y-98858255D01*
X167030529Y-98725101D01*
X166969242Y-98577142D01*
X166938000Y-98420075D01*
X166938000Y-98259925D01*
X166969242Y-98102858D01*
X167030529Y-97954899D01*
X167119499Y-97821745D01*
X167232745Y-97708499D01*
X167365899Y-97619529D01*
X167513858Y-97558242D01*
X167670925Y-97527000D01*
X167831075Y-97527000D01*
X167988142Y-97558242D01*
X167988142Y-97558242D01*
G37*
G36*
X156337142Y-96958242D02*
G01*
X156485101Y-97019529D01*
X156618255Y-97108499D01*
X156731501Y-97221745D01*
X156820471Y-97354899D01*
X156881758Y-97502858D01*
X156913000Y-97659925D01*
X156913000Y-97820075D01*
X156881758Y-97977142D01*
X156820471Y-98125101D01*
X156731501Y-98258255D01*
X156618255Y-98371501D01*
X156485101Y-98460471D01*
X156337142Y-98521758D01*
X156180075Y-98553000D01*
X156019925Y-98553000D01*
X155862858Y-98521758D01*
X155714899Y-98460471D01*
X155581745Y-98371501D01*
X155468499Y-98258255D01*
X155379529Y-98125101D01*
X155318242Y-97977142D01*
X155287000Y-97820075D01*
X155287000Y-97659925D01*
X155318242Y-97502858D01*
X155379529Y-97354899D01*
X155468499Y-97221745D01*
X155581745Y-97108499D01*
X155714899Y-97019529D01*
X155862858Y-96958242D01*
X156019925Y-96927000D01*
X156180075Y-96927000D01*
X156337142Y-96958242D01*
X156337142Y-96958242D01*
G37*
G36*
X102587142Y-96413242D02*
G01*
X102735101Y-96474529D01*
X102868255Y-96563499D01*
X102981501Y-96676745D01*
X103070471Y-96809899D01*
X103131758Y-96957858D01*
X103163000Y-97114925D01*
X103163000Y-97275075D01*
X103131758Y-97432142D01*
X103070471Y-97580101D01*
X102981501Y-97713255D01*
X102868255Y-97826501D01*
X102735101Y-97915471D01*
X102587142Y-97976758D01*
X102430075Y-98008000D01*
X102269925Y-98008000D01*
X102112858Y-97976758D01*
X101964899Y-97915471D01*
X101831745Y-97826501D01*
X101718499Y-97713255D01*
X101629529Y-97580101D01*
X101568242Y-97432142D01*
X101537000Y-97275075D01*
X101537000Y-97114925D01*
X101568242Y-96957858D01*
X101629529Y-96809899D01*
X101718499Y-96676745D01*
X101831745Y-96563499D01*
X101964899Y-96474529D01*
X102112858Y-96413242D01*
X102269925Y-96382000D01*
X102430075Y-96382000D01*
X102587142Y-96413242D01*
X102587142Y-96413242D01*
G37*
G36*
X165448142Y-96288242D02*
G01*
X165596101Y-96349529D01*
X165729255Y-96438499D01*
X165842501Y-96551745D01*
X165931471Y-96684899D01*
X165992758Y-96832858D01*
X166024000Y-96989925D01*
X166024000Y-97150075D01*
X165992758Y-97307142D01*
X165931471Y-97455101D01*
X165842501Y-97588255D01*
X165729255Y-97701501D01*
X165596101Y-97790471D01*
X165448142Y-97851758D01*
X165291075Y-97883000D01*
X165130925Y-97883000D01*
X164973858Y-97851758D01*
X164825899Y-97790471D01*
X164692745Y-97701501D01*
X164579499Y-97588255D01*
X164490529Y-97455101D01*
X164429242Y-97307142D01*
X164398000Y-97150075D01*
X164398000Y-96989925D01*
X164429242Y-96832858D01*
X164490529Y-96684899D01*
X164579499Y-96551745D01*
X164692745Y-96438499D01*
X164825899Y-96349529D01*
X164973858Y-96288242D01*
X165130925Y-96257000D01*
X165291075Y-96257000D01*
X165448142Y-96288242D01*
X165448142Y-96288242D01*
G37*
G36*
X105127142Y-95143242D02*
G01*
X105275101Y-95204529D01*
X105408255Y-95293499D01*
X105521501Y-95406745D01*
X105610471Y-95539899D01*
X105671758Y-95687858D01*
X105703000Y-95844925D01*
X105703000Y-96005075D01*
X105671758Y-96162142D01*
X105610471Y-96310101D01*
X105521501Y-96443255D01*
X105408255Y-96556501D01*
X105275101Y-96645471D01*
X105127142Y-96706758D01*
X104970075Y-96738000D01*
X104809925Y-96738000D01*
X104652858Y-96706758D01*
X104504899Y-96645471D01*
X104371745Y-96556501D01*
X104258499Y-96443255D01*
X104169529Y-96310101D01*
X104108242Y-96162142D01*
X104077000Y-96005075D01*
X104077000Y-95844925D01*
X104108242Y-95687858D01*
X104169529Y-95539899D01*
X104258499Y-95406745D01*
X104371745Y-95293499D01*
X104504899Y-95204529D01*
X104652858Y-95143242D01*
X104809925Y-95112000D01*
X104970075Y-95112000D01*
X105127142Y-95143242D01*
X105127142Y-95143242D01*
G37*
G36*
X167988142Y-95018242D02*
G01*
X168136101Y-95079529D01*
X168269255Y-95168499D01*
X168382501Y-95281745D01*
X168471471Y-95414899D01*
X168532758Y-95562858D01*
X168564000Y-95719925D01*
X168564000Y-95880075D01*
X168532758Y-96037142D01*
X168471471Y-96185101D01*
X168382501Y-96318255D01*
X168269255Y-96431501D01*
X168136101Y-96520471D01*
X167988142Y-96581758D01*
X167831075Y-96613000D01*
X167670925Y-96613000D01*
X167513858Y-96581758D01*
X167365899Y-96520471D01*
X167232745Y-96431501D01*
X167119499Y-96318255D01*
X167030529Y-96185101D01*
X166969242Y-96037142D01*
X166938000Y-95880075D01*
X166938000Y-95719925D01*
X166969242Y-95562858D01*
X167030529Y-95414899D01*
X167119499Y-95281745D01*
X167232745Y-95168499D01*
X167365899Y-95079529D01*
X167513858Y-95018242D01*
X167670925Y-94987000D01*
X167831075Y-94987000D01*
X167988142Y-95018242D01*
X167988142Y-95018242D01*
G37*
G36*
X156337142Y-94418242D02*
G01*
X156485101Y-94479529D01*
X156618255Y-94568499D01*
X156731501Y-94681745D01*
X156820471Y-94814899D01*
X156881758Y-94962858D01*
X156913000Y-95119925D01*
X156913000Y-95280075D01*
X156881758Y-95437142D01*
X156820471Y-95585101D01*
X156731501Y-95718255D01*
X156618255Y-95831501D01*
X156485101Y-95920471D01*
X156337142Y-95981758D01*
X156180075Y-96013000D01*
X156019925Y-96013000D01*
X155862858Y-95981758D01*
X155714899Y-95920471D01*
X155581745Y-95831501D01*
X155468499Y-95718255D01*
X155379529Y-95585101D01*
X155318242Y-95437142D01*
X155287000Y-95280075D01*
X155287000Y-95119925D01*
X155318242Y-94962858D01*
X155379529Y-94814899D01*
X155468499Y-94681745D01*
X155581745Y-94568499D01*
X155714899Y-94479529D01*
X155862858Y-94418242D01*
X156019925Y-94387000D01*
X156180075Y-94387000D01*
X156337142Y-94418242D01*
X156337142Y-94418242D01*
G37*
G36*
X102587142Y-93873242D02*
G01*
X102735101Y-93934529D01*
X102868255Y-94023499D01*
X102981501Y-94136745D01*
X103070471Y-94269899D01*
X103131758Y-94417858D01*
X103163000Y-94574925D01*
X103163000Y-94735075D01*
X103131758Y-94892142D01*
X103070471Y-95040101D01*
X102981501Y-95173255D01*
X102868255Y-95286501D01*
X102735101Y-95375471D01*
X102587142Y-95436758D01*
X102430075Y-95468000D01*
X102269925Y-95468000D01*
X102112858Y-95436758D01*
X101964899Y-95375471D01*
X101831745Y-95286501D01*
X101718499Y-95173255D01*
X101629529Y-95040101D01*
X101568242Y-94892142D01*
X101537000Y-94735075D01*
X101537000Y-94574925D01*
X101568242Y-94417858D01*
X101629529Y-94269899D01*
X101718499Y-94136745D01*
X101831745Y-94023499D01*
X101964899Y-93934529D01*
X102112858Y-93873242D01*
X102269925Y-93842000D01*
X102430075Y-93842000D01*
X102587142Y-93873242D01*
X102587142Y-93873242D01*
G37*
G36*
X165448142Y-93748242D02*
G01*
X165596101Y-93809529D01*
X165729255Y-93898499D01*
X165842501Y-94011745D01*
X165931471Y-94144899D01*
X165992758Y-94292858D01*
X166024000Y-94449925D01*
X166024000Y-94610075D01*
X165992758Y-94767142D01*
X165931471Y-94915101D01*
X165842501Y-95048255D01*
X165729255Y-95161501D01*
X165596101Y-95250471D01*
X165448142Y-95311758D01*
X165291075Y-95343000D01*
X165130925Y-95343000D01*
X164973858Y-95311758D01*
X164825899Y-95250471D01*
X164692745Y-95161501D01*
X164579499Y-95048255D01*
X164490529Y-94915101D01*
X164429242Y-94767142D01*
X164398000Y-94610075D01*
X164398000Y-94449925D01*
X164429242Y-94292858D01*
X164490529Y-94144899D01*
X164579499Y-94011745D01*
X164692745Y-93898499D01*
X164825899Y-93809529D01*
X164973858Y-93748242D01*
X165130925Y-93717000D01*
X165291075Y-93717000D01*
X165448142Y-93748242D01*
X165448142Y-93748242D01*
G37*
G36*
X105127142Y-92603242D02*
G01*
X105275101Y-92664529D01*
X105408255Y-92753499D01*
X105521501Y-92866745D01*
X105610471Y-92999899D01*
X105671758Y-93147858D01*
X105703000Y-93304925D01*
X105703000Y-93465075D01*
X105671758Y-93622142D01*
X105610471Y-93770101D01*
X105521501Y-93903255D01*
X105408255Y-94016501D01*
X105275101Y-94105471D01*
X105127142Y-94166758D01*
X104970075Y-94198000D01*
X104809925Y-94198000D01*
X104652858Y-94166758D01*
X104504899Y-94105471D01*
X104371745Y-94016501D01*
X104258499Y-93903255D01*
X104169529Y-93770101D01*
X104108242Y-93622142D01*
X104077000Y-93465075D01*
X104077000Y-93304925D01*
X104108242Y-93147858D01*
X104169529Y-92999899D01*
X104258499Y-92866745D01*
X104371745Y-92753499D01*
X104504899Y-92664529D01*
X104652858Y-92603242D01*
X104809925Y-92572000D01*
X104970075Y-92572000D01*
X105127142Y-92603242D01*
X105127142Y-92603242D01*
G37*
G36*
X167988142Y-92478242D02*
G01*
X168136101Y-92539529D01*
X168269255Y-92628499D01*
X168382501Y-92741745D01*
X168471471Y-92874899D01*
X168532758Y-93022858D01*
X168564000Y-93179925D01*
X168564000Y-93340075D01*
X168532758Y-93497142D01*
X168471471Y-93645101D01*
X168382501Y-93778255D01*
X168269255Y-93891501D01*
X168136101Y-93980471D01*
X167988142Y-94041758D01*
X167831075Y-94073000D01*
X167670925Y-94073000D01*
X167513858Y-94041758D01*
X167365899Y-93980471D01*
X167232745Y-93891501D01*
X167119499Y-93778255D01*
X167030529Y-93645101D01*
X166969242Y-93497142D01*
X166938000Y-93340075D01*
X166938000Y-93179925D01*
X166969242Y-93022858D01*
X167030529Y-92874899D01*
X167119499Y-92741745D01*
X167232745Y-92628499D01*
X167365899Y-92539529D01*
X167513858Y-92478242D01*
X167670925Y-92447000D01*
X167831075Y-92447000D01*
X167988142Y-92478242D01*
X167988142Y-92478242D01*
G37*
G36*
X156337142Y-91878242D02*
G01*
X156485101Y-91939529D01*
X156618255Y-92028499D01*
X156731501Y-92141745D01*
X156820471Y-92274899D01*
X156881758Y-92422858D01*
X156913000Y-92579925D01*
X156913000Y-92740075D01*
X156881758Y-92897142D01*
X156820471Y-93045101D01*
X156731501Y-93178255D01*
X156618255Y-93291501D01*
X156485101Y-93380471D01*
X156337142Y-93441758D01*
X156180075Y-93473000D01*
X156019925Y-93473000D01*
X155862858Y-93441758D01*
X155714899Y-93380471D01*
X155581745Y-93291501D01*
X155468499Y-93178255D01*
X155379529Y-93045101D01*
X155318242Y-92897142D01*
X155287000Y-92740075D01*
X155287000Y-92579925D01*
X155318242Y-92422858D01*
X155379529Y-92274899D01*
X155468499Y-92141745D01*
X155581745Y-92028499D01*
X155714899Y-91939529D01*
X155862858Y-91878242D01*
X156019925Y-91847000D01*
X156180075Y-91847000D01*
X156337142Y-91878242D01*
X156337142Y-91878242D01*
G37*
G36*
X102587142Y-91333242D02*
G01*
X102735101Y-91394529D01*
X102868255Y-91483499D01*
X102981501Y-91596745D01*
X103070471Y-91729899D01*
X103131758Y-91877858D01*
X103163000Y-92034925D01*
X103163000Y-92195075D01*
X103131758Y-92352142D01*
X103070471Y-92500101D01*
X102981501Y-92633255D01*
X102868255Y-92746501D01*
X102735101Y-92835471D01*
X102587142Y-92896758D01*
X102430075Y-92928000D01*
X102269925Y-92928000D01*
X102112858Y-92896758D01*
X101964899Y-92835471D01*
X101831745Y-92746501D01*
X101718499Y-92633255D01*
X101629529Y-92500101D01*
X101568242Y-92352142D01*
X101537000Y-92195075D01*
X101537000Y-92034925D01*
X101568242Y-91877858D01*
X101629529Y-91729899D01*
X101718499Y-91596745D01*
X101831745Y-91483499D01*
X101964899Y-91394529D01*
X102112858Y-91333242D01*
X102269925Y-91302000D01*
X102430075Y-91302000D01*
X102587142Y-91333242D01*
X102587142Y-91333242D01*
G37*
G36*
X165448142Y-91208242D02*
G01*
X165596101Y-91269529D01*
X165729255Y-91358499D01*
X165842501Y-91471745D01*
X165931471Y-91604899D01*
X165992758Y-91752858D01*
X166024000Y-91909925D01*
X166024000Y-92070075D01*
X165992758Y-92227142D01*
X165931471Y-92375101D01*
X165842501Y-92508255D01*
X165729255Y-92621501D01*
X165596101Y-92710471D01*
X165448142Y-92771758D01*
X165291075Y-92803000D01*
X165130925Y-92803000D01*
X164973858Y-92771758D01*
X164825899Y-92710471D01*
X164692745Y-92621501D01*
X164579499Y-92508255D01*
X164490529Y-92375101D01*
X164429242Y-92227142D01*
X164398000Y-92070075D01*
X164398000Y-91909925D01*
X164429242Y-91752858D01*
X164490529Y-91604899D01*
X164579499Y-91471745D01*
X164692745Y-91358499D01*
X164825899Y-91269529D01*
X164973858Y-91208242D01*
X165130925Y-91177000D01*
X165291075Y-91177000D01*
X165448142Y-91208242D01*
X165448142Y-91208242D01*
G37*
G36*
X105127142Y-90063242D02*
G01*
X105275101Y-90124529D01*
X105408255Y-90213499D01*
X105521501Y-90326745D01*
X105610471Y-90459899D01*
X105671758Y-90607858D01*
X105703000Y-90764925D01*
X105703000Y-90925075D01*
X105671758Y-91082142D01*
X105610471Y-91230101D01*
X105521501Y-91363255D01*
X105408255Y-91476501D01*
X105275101Y-91565471D01*
X105127142Y-91626758D01*
X104970075Y-91658000D01*
X104809925Y-91658000D01*
X104652858Y-91626758D01*
X104504899Y-91565471D01*
X104371745Y-91476501D01*
X104258499Y-91363255D01*
X104169529Y-91230101D01*
X104108242Y-91082142D01*
X104077000Y-90925075D01*
X104077000Y-90764925D01*
X104108242Y-90607858D01*
X104169529Y-90459899D01*
X104258499Y-90326745D01*
X104371745Y-90213499D01*
X104504899Y-90124529D01*
X104652858Y-90063242D01*
X104809925Y-90032000D01*
X104970075Y-90032000D01*
X105127142Y-90063242D01*
X105127142Y-90063242D01*
G37*
G36*
X102587142Y-88793242D02*
G01*
X102735101Y-88854529D01*
X102868255Y-88943499D01*
X102981501Y-89056745D01*
X103070471Y-89189899D01*
X103131758Y-89337858D01*
X103163000Y-89494925D01*
X103163000Y-89655075D01*
X103131758Y-89812142D01*
X103070471Y-89960101D01*
X102981501Y-90093255D01*
X102868255Y-90206501D01*
X102735101Y-90295471D01*
X102587142Y-90356758D01*
X102430075Y-90388000D01*
X102269925Y-90388000D01*
X102112858Y-90356758D01*
X101964899Y-90295471D01*
X101831745Y-90206501D01*
X101718499Y-90093255D01*
X101629529Y-89960101D01*
X101568242Y-89812142D01*
X101537000Y-89655075D01*
X101537000Y-89494925D01*
X101568242Y-89337858D01*
X101629529Y-89189899D01*
X101718499Y-89056745D01*
X101831745Y-88943499D01*
X101964899Y-88854529D01*
X102112858Y-88793242D01*
X102269925Y-88762000D01*
X102430075Y-88762000D01*
X102587142Y-88793242D01*
X102587142Y-88793242D01*
G37*
G36*
X104383642Y-87404781D02*
G01*
X104529414Y-87465162D01*
X104529416Y-87465163D01*
X104660608Y-87552822D01*
X104772178Y-87664392D01*
X104859837Y-87795584D01*
X104859838Y-87795586D01*
X104920219Y-87941358D01*
X104951000Y-88096107D01*
X104951000Y-88253893D01*
X104920219Y-88408642D01*
X104859838Y-88554414D01*
X104859837Y-88554416D01*
X104772178Y-88685608D01*
X104660608Y-88797178D01*
X104529416Y-88884837D01*
X104529415Y-88884838D01*
X104529414Y-88884838D01*
X104383642Y-88945219D01*
X104228893Y-88976000D01*
X104071107Y-88976000D01*
X103916358Y-88945219D01*
X103770586Y-88884838D01*
X103770585Y-88884838D01*
X103770584Y-88884837D01*
X103639392Y-88797178D01*
X103527822Y-88685608D01*
X103440163Y-88554416D01*
X103440162Y-88554414D01*
X103379781Y-88408642D01*
X103349000Y-88253893D01*
X103349000Y-88096107D01*
X103379781Y-87941358D01*
X103440162Y-87795586D01*
X103440163Y-87795584D01*
X103527822Y-87664392D01*
X103639392Y-87552822D01*
X103770584Y-87465163D01*
X103770586Y-87465162D01*
X103916358Y-87404781D01*
X104071107Y-87374000D01*
X104228893Y-87374000D01*
X104383642Y-87404781D01*
X104383642Y-87404781D01*
G37*
G36*
X139620721Y-57335174D02*
G01*
X139720995Y-57376709D01*
X139720996Y-57376710D01*
X139811242Y-57437010D01*
X139887990Y-57513758D01*
X139887991Y-57513760D01*
X139948291Y-57604005D01*
X139979516Y-57679389D01*
X139991067Y-57701000D01*
X140006612Y-57719941D01*
X140025554Y-57735487D01*
X140047165Y-57747038D01*
X140070614Y-57754151D01*
X140095000Y-57756553D01*
X140119386Y-57754151D01*
X140142835Y-57747038D01*
X140164446Y-57735487D01*
X140183387Y-57719942D01*
X140198933Y-57701000D01*
X140210484Y-57679389D01*
X140241709Y-57604005D01*
X140302009Y-57513760D01*
X140302010Y-57513758D01*
X140378758Y-57437010D01*
X140469004Y-57376710D01*
X140469005Y-57376709D01*
X140569279Y-57335174D01*
X140675730Y-57314000D01*
X140784270Y-57314000D01*
X140890721Y-57335174D01*
X140990995Y-57376709D01*
X140990996Y-57376710D01*
X141081242Y-57437010D01*
X141157990Y-57513758D01*
X141157991Y-57513760D01*
X141218291Y-57604005D01*
X141249516Y-57679389D01*
X141261067Y-57701000D01*
X141276612Y-57719941D01*
X141295554Y-57735487D01*
X141317165Y-57747038D01*
X141340614Y-57754151D01*
X141365000Y-57756553D01*
X141389386Y-57754151D01*
X141412835Y-57747038D01*
X141434446Y-57735487D01*
X141453387Y-57719942D01*
X141468933Y-57701000D01*
X141480484Y-57679389D01*
X141511709Y-57604005D01*
X141572009Y-57513760D01*
X141572010Y-57513758D01*
X141648758Y-57437010D01*
X141739004Y-57376710D01*
X141739005Y-57376709D01*
X141839279Y-57335174D01*
X141945730Y-57314000D01*
X142054270Y-57314000D01*
X142160721Y-57335174D01*
X142260995Y-57376709D01*
X142260996Y-57376710D01*
X142351242Y-57437010D01*
X142427990Y-57513758D01*
X142427991Y-57513760D01*
X142488291Y-57604005D01*
X142519516Y-57679389D01*
X142531067Y-57701000D01*
X142546612Y-57719941D01*
X142565554Y-57735487D01*
X142587165Y-57747038D01*
X142610614Y-57754151D01*
X142635000Y-57756553D01*
X142659386Y-57754151D01*
X142682835Y-57747038D01*
X142704446Y-57735487D01*
X142723387Y-57719942D01*
X142738933Y-57701000D01*
X142750484Y-57679389D01*
X142781709Y-57604005D01*
X142842009Y-57513760D01*
X142842010Y-57513758D01*
X142918758Y-57437010D01*
X143009004Y-57376710D01*
X143009005Y-57376709D01*
X143109279Y-57335174D01*
X143215730Y-57314000D01*
X143324270Y-57314000D01*
X143430721Y-57335174D01*
X143530995Y-57376709D01*
X143530996Y-57376710D01*
X143621242Y-57437010D01*
X143697990Y-57513758D01*
X143697991Y-57513760D01*
X143758291Y-57604005D01*
X143789516Y-57679389D01*
X143801067Y-57701000D01*
X143816612Y-57719941D01*
X143835554Y-57735487D01*
X143857165Y-57747038D01*
X143880614Y-57754151D01*
X143905000Y-57756553D01*
X143929386Y-57754151D01*
X143952835Y-57747038D01*
X143974446Y-57735487D01*
X143993387Y-57719942D01*
X144008933Y-57701000D01*
X144020484Y-57679389D01*
X144051709Y-57604005D01*
X144112009Y-57513760D01*
X144112010Y-57513758D01*
X144188758Y-57437010D01*
X144279004Y-57376710D01*
X144279005Y-57376709D01*
X144379279Y-57335174D01*
X144485730Y-57314000D01*
X144594270Y-57314000D01*
X144700721Y-57335174D01*
X144800995Y-57376709D01*
X144800996Y-57376710D01*
X144891242Y-57437010D01*
X144967990Y-57513758D01*
X144967991Y-57513760D01*
X145028291Y-57604005D01*
X145069826Y-57704279D01*
X145091000Y-57810730D01*
X145091000Y-57919270D01*
X145069826Y-58025721D01*
X145028291Y-58125995D01*
X145028290Y-58125996D01*
X144967990Y-58216242D01*
X144891242Y-58292990D01*
X144845812Y-58323345D01*
X144800995Y-58353291D01*
X144725611Y-58384516D01*
X144704000Y-58396067D01*
X144685059Y-58411612D01*
X144669513Y-58430554D01*
X144657962Y-58452165D01*
X144650849Y-58475614D01*
X144648447Y-58500000D01*
X144650849Y-58524386D01*
X144657962Y-58547835D01*
X144669513Y-58569446D01*
X144685058Y-58588387D01*
X144704000Y-58603933D01*
X144725611Y-58615484D01*
X144800995Y-58646709D01*
X144800996Y-58646710D01*
X144891242Y-58707010D01*
X144967990Y-58783758D01*
X144967991Y-58783760D01*
X145028291Y-58874005D01*
X145069826Y-58974279D01*
X145091000Y-59080730D01*
X145091000Y-59189270D01*
X145069826Y-59295721D01*
X145028291Y-59395995D01*
X145028290Y-59395996D01*
X144967990Y-59486242D01*
X144891242Y-59562990D01*
X144845812Y-59593345D01*
X144800995Y-59623291D01*
X144700721Y-59664826D01*
X144594270Y-59686000D01*
X144485730Y-59686000D01*
X144379279Y-59664826D01*
X144279005Y-59623291D01*
X144234188Y-59593345D01*
X144188758Y-59562990D01*
X144112010Y-59486242D01*
X144051710Y-59395996D01*
X144051709Y-59395995D01*
X144020484Y-59320611D01*
X144008933Y-59299000D01*
X143993388Y-59280059D01*
X143974446Y-59264513D01*
X143952835Y-59252962D01*
X143929386Y-59245849D01*
X143905000Y-59243447D01*
X143880614Y-59245849D01*
X143857165Y-59252962D01*
X143835554Y-59264513D01*
X143816613Y-59280058D01*
X143801067Y-59299000D01*
X143789516Y-59320611D01*
X143758291Y-59395995D01*
X143758290Y-59395996D01*
X143697990Y-59486242D01*
X143621242Y-59562990D01*
X143575812Y-59593345D01*
X143530995Y-59623291D01*
X143430721Y-59664826D01*
X143324270Y-59686000D01*
X143215730Y-59686000D01*
X143109279Y-59664826D01*
X143009005Y-59623291D01*
X142964188Y-59593345D01*
X142918758Y-59562990D01*
X142842010Y-59486242D01*
X142781710Y-59395996D01*
X142781709Y-59395995D01*
X142750484Y-59320611D01*
X142738933Y-59299000D01*
X142723388Y-59280059D01*
X142704446Y-59264513D01*
X142682835Y-59252962D01*
X142659386Y-59245849D01*
X142635000Y-59243447D01*
X142610614Y-59245849D01*
X142587165Y-59252962D01*
X142565554Y-59264513D01*
X142546613Y-59280058D01*
X142531067Y-59299000D01*
X142519516Y-59320611D01*
X142488291Y-59395995D01*
X142488290Y-59395996D01*
X142427990Y-59486242D01*
X142351242Y-59562990D01*
X142305812Y-59593345D01*
X142260995Y-59623291D01*
X142160721Y-59664826D01*
X142054270Y-59686000D01*
X141945730Y-59686000D01*
X141839279Y-59664826D01*
X141739005Y-59623291D01*
X141694188Y-59593345D01*
X141648758Y-59562990D01*
X141572010Y-59486242D01*
X141511710Y-59395996D01*
X141511709Y-59395995D01*
X141480484Y-59320611D01*
X141468933Y-59299000D01*
X141453388Y-59280059D01*
X141434446Y-59264513D01*
X141412835Y-59252962D01*
X141389386Y-59245849D01*
X141365000Y-59243447D01*
X141340614Y-59245849D01*
X141317165Y-59252962D01*
X141295554Y-59264513D01*
X141276613Y-59280058D01*
X141261067Y-59299000D01*
X141249516Y-59320611D01*
X141218291Y-59395995D01*
X141218290Y-59395996D01*
X141157990Y-59486242D01*
X141081242Y-59562990D01*
X141035812Y-59593345D01*
X140990995Y-59623291D01*
X140890721Y-59664826D01*
X140784270Y-59686000D01*
X140675730Y-59686000D01*
X140569279Y-59664826D01*
X140469005Y-59623291D01*
X140424188Y-59593345D01*
X140378758Y-59562990D01*
X140302010Y-59486242D01*
X140241710Y-59395996D01*
X140241709Y-59395995D01*
X140210484Y-59320611D01*
X140198933Y-59299000D01*
X140183388Y-59280059D01*
X140164446Y-59264513D01*
X140142835Y-59252962D01*
X140119386Y-59245849D01*
X140095000Y-59243447D01*
X140070614Y-59245849D01*
X140047165Y-59252962D01*
X140025554Y-59264513D01*
X140006613Y-59280058D01*
X139991067Y-59299000D01*
X139979516Y-59320611D01*
X139948291Y-59395995D01*
X139948290Y-59395996D01*
X139887990Y-59486242D01*
X139811242Y-59562990D01*
X139765812Y-59593345D01*
X139720995Y-59623291D01*
X139620721Y-59664826D01*
X139514270Y-59686000D01*
X139405730Y-59686000D01*
X139299279Y-59664826D01*
X139199005Y-59623291D01*
X139154188Y-59593345D01*
X139108758Y-59562990D01*
X139032010Y-59486242D01*
X138971710Y-59395996D01*
X138971709Y-59395995D01*
X138930174Y-59295721D01*
X138909000Y-59189270D01*
X138909000Y-59080730D01*
X138930174Y-58974279D01*
X138971709Y-58874005D01*
X139032009Y-58783760D01*
X139032010Y-58783758D01*
X139108758Y-58707010D01*
X139199004Y-58646710D01*
X139199005Y-58646709D01*
X139274389Y-58615484D01*
X139296000Y-58603933D01*
X139314941Y-58588388D01*
X139330487Y-58569446D01*
X139342038Y-58547835D01*
X139349151Y-58524386D01*
X139351553Y-58500000D01*
X139568447Y-58500000D01*
X139570849Y-58524386D01*
X139577962Y-58547835D01*
X139589513Y-58569446D01*
X139605058Y-58588387D01*
X139624000Y-58603933D01*
X139645611Y-58615484D01*
X139720995Y-58646709D01*
X139720996Y-58646710D01*
X139811242Y-58707010D01*
X139887990Y-58783758D01*
X139887991Y-58783760D01*
X139948291Y-58874005D01*
X139979516Y-58949389D01*
X139991067Y-58971000D01*
X140006612Y-58989941D01*
X140025554Y-59005487D01*
X140047165Y-59017038D01*
X140070614Y-59024151D01*
X140095000Y-59026553D01*
X140119386Y-59024151D01*
X140142835Y-59017038D01*
X140164446Y-59005487D01*
X140183387Y-58989942D01*
X140198933Y-58971000D01*
X140210484Y-58949389D01*
X140241709Y-58874005D01*
X140302009Y-58783760D01*
X140302010Y-58783758D01*
X140378758Y-58707010D01*
X140469004Y-58646710D01*
X140469005Y-58646709D01*
X140544389Y-58615484D01*
X140566000Y-58603933D01*
X140584941Y-58588388D01*
X140600487Y-58569446D01*
X140612038Y-58547835D01*
X140619151Y-58524386D01*
X140621553Y-58500000D01*
X140838447Y-58500000D01*
X140840849Y-58524386D01*
X140847962Y-58547835D01*
X140859513Y-58569446D01*
X140875058Y-58588387D01*
X140894000Y-58603933D01*
X140915611Y-58615484D01*
X140990995Y-58646709D01*
X140990996Y-58646710D01*
X141081242Y-58707010D01*
X141157990Y-58783758D01*
X141157991Y-58783760D01*
X141218291Y-58874005D01*
X141249516Y-58949389D01*
X141261067Y-58971000D01*
X141276612Y-58989941D01*
X141295554Y-59005487D01*
X141317165Y-59017038D01*
X141340614Y-59024151D01*
X141365000Y-59026553D01*
X141389386Y-59024151D01*
X141412835Y-59017038D01*
X141434446Y-59005487D01*
X141453387Y-58989942D01*
X141468933Y-58971000D01*
X141480484Y-58949389D01*
X141511709Y-58874005D01*
X141572009Y-58783760D01*
X141572010Y-58783758D01*
X141648758Y-58707010D01*
X141739004Y-58646710D01*
X141739005Y-58646709D01*
X141814389Y-58615484D01*
X141836000Y-58603933D01*
X141854941Y-58588388D01*
X141870487Y-58569446D01*
X141882038Y-58547835D01*
X141889151Y-58524386D01*
X141891553Y-58500000D01*
X142108447Y-58500000D01*
X142110849Y-58524386D01*
X142117962Y-58547835D01*
X142129513Y-58569446D01*
X142145058Y-58588387D01*
X142164000Y-58603933D01*
X142185611Y-58615484D01*
X142260995Y-58646709D01*
X142260996Y-58646710D01*
X142351242Y-58707010D01*
X142427990Y-58783758D01*
X142427991Y-58783760D01*
X142488291Y-58874005D01*
X142519516Y-58949389D01*
X142531067Y-58971000D01*
X142546612Y-58989941D01*
X142565554Y-59005487D01*
X142587165Y-59017038D01*
X142610614Y-59024151D01*
X142635000Y-59026553D01*
X142659386Y-59024151D01*
X142682835Y-59017038D01*
X142704446Y-59005487D01*
X142723387Y-58989942D01*
X142738933Y-58971000D01*
X142750484Y-58949389D01*
X142781709Y-58874005D01*
X142842009Y-58783760D01*
X142842010Y-58783758D01*
X142918758Y-58707010D01*
X143009004Y-58646710D01*
X143009005Y-58646709D01*
X143084389Y-58615484D01*
X143106000Y-58603933D01*
X143124941Y-58588388D01*
X143140487Y-58569446D01*
X143152038Y-58547835D01*
X143159151Y-58524386D01*
X143161553Y-58500000D01*
X143378447Y-58500000D01*
X143380849Y-58524386D01*
X143387962Y-58547835D01*
X143399513Y-58569446D01*
X143415058Y-58588387D01*
X143434000Y-58603933D01*
X143455611Y-58615484D01*
X143530995Y-58646709D01*
X143530996Y-58646710D01*
X143621242Y-58707010D01*
X143697990Y-58783758D01*
X143697991Y-58783760D01*
X143758291Y-58874005D01*
X143789516Y-58949389D01*
X143801067Y-58971000D01*
X143816612Y-58989941D01*
X143835554Y-59005487D01*
X143857165Y-59017038D01*
X143880614Y-59024151D01*
X143905000Y-59026553D01*
X143929386Y-59024151D01*
X143952835Y-59017038D01*
X143974446Y-59005487D01*
X143993387Y-58989942D01*
X144008933Y-58971000D01*
X144020484Y-58949389D01*
X144051709Y-58874005D01*
X144112009Y-58783760D01*
X144112010Y-58783758D01*
X144188758Y-58707010D01*
X144279004Y-58646710D01*
X144279005Y-58646709D01*
X144354389Y-58615484D01*
X144376000Y-58603933D01*
X144394941Y-58588388D01*
X144410487Y-58569446D01*
X144422038Y-58547835D01*
X144429151Y-58524386D01*
X144431553Y-58500000D01*
X144429151Y-58475614D01*
X144422038Y-58452165D01*
X144410487Y-58430554D01*
X144394942Y-58411613D01*
X144376000Y-58396067D01*
X144354389Y-58384516D01*
X144279005Y-58353291D01*
X144234188Y-58323345D01*
X144188758Y-58292990D01*
X144112010Y-58216242D01*
X144051710Y-58125996D01*
X144051709Y-58125995D01*
X144020484Y-58050611D01*
X144008933Y-58029000D01*
X143993388Y-58010059D01*
X143974446Y-57994513D01*
X143952835Y-57982962D01*
X143929386Y-57975849D01*
X143905000Y-57973447D01*
X143880614Y-57975849D01*
X143857165Y-57982962D01*
X143835554Y-57994513D01*
X143816613Y-58010058D01*
X143801067Y-58029000D01*
X143789516Y-58050611D01*
X143758291Y-58125995D01*
X143758290Y-58125996D01*
X143697990Y-58216242D01*
X143621242Y-58292990D01*
X143575812Y-58323345D01*
X143530995Y-58353291D01*
X143455611Y-58384516D01*
X143434000Y-58396067D01*
X143415059Y-58411612D01*
X143399513Y-58430554D01*
X143387962Y-58452165D01*
X143380849Y-58475614D01*
X143378447Y-58500000D01*
X143161553Y-58500000D01*
X143159151Y-58475614D01*
X143152038Y-58452165D01*
X143140487Y-58430554D01*
X143124942Y-58411613D01*
X143106000Y-58396067D01*
X143084389Y-58384516D01*
X143009005Y-58353291D01*
X142964188Y-58323345D01*
X142918758Y-58292990D01*
X142842010Y-58216242D01*
X142781710Y-58125996D01*
X142781709Y-58125995D01*
X142750484Y-58050611D01*
X142738933Y-58029000D01*
X142723388Y-58010059D01*
X142704446Y-57994513D01*
X142682835Y-57982962D01*
X142659386Y-57975849D01*
X142635000Y-57973447D01*
X142610614Y-57975849D01*
X142587165Y-57982962D01*
X142565554Y-57994513D01*
X142546613Y-58010058D01*
X142531067Y-58029000D01*
X142519516Y-58050611D01*
X142488291Y-58125995D01*
X142488290Y-58125996D01*
X142427990Y-58216242D01*
X142351242Y-58292990D01*
X142305812Y-58323345D01*
X142260995Y-58353291D01*
X142185611Y-58384516D01*
X142164000Y-58396067D01*
X142145059Y-58411612D01*
X142129513Y-58430554D01*
X142117962Y-58452165D01*
X142110849Y-58475614D01*
X142108447Y-58500000D01*
X141891553Y-58500000D01*
X141889151Y-58475614D01*
X141882038Y-58452165D01*
X141870487Y-58430554D01*
X141854942Y-58411613D01*
X141836000Y-58396067D01*
X141814389Y-58384516D01*
X141739005Y-58353291D01*
X141694188Y-58323345D01*
X141648758Y-58292990D01*
X141572010Y-58216242D01*
X141511710Y-58125996D01*
X141511709Y-58125995D01*
X141480484Y-58050611D01*
X141468933Y-58029000D01*
X141453388Y-58010059D01*
X141434446Y-57994513D01*
X141412835Y-57982962D01*
X141389386Y-57975849D01*
X141365000Y-57973447D01*
X141340614Y-57975849D01*
X141317165Y-57982962D01*
X141295554Y-57994513D01*
X141276613Y-58010058D01*
X141261067Y-58029000D01*
X141249516Y-58050611D01*
X141218291Y-58125995D01*
X141218290Y-58125996D01*
X141157990Y-58216242D01*
X141081242Y-58292990D01*
X141035812Y-58323345D01*
X140990995Y-58353291D01*
X140915611Y-58384516D01*
X140894000Y-58396067D01*
X140875059Y-58411612D01*
X140859513Y-58430554D01*
X140847962Y-58452165D01*
X140840849Y-58475614D01*
X140838447Y-58500000D01*
X140621553Y-58500000D01*
X140619151Y-58475614D01*
X140612038Y-58452165D01*
X140600487Y-58430554D01*
X140584942Y-58411613D01*
X140566000Y-58396067D01*
X140544389Y-58384516D01*
X140469005Y-58353291D01*
X140424188Y-58323345D01*
X140378758Y-58292990D01*
X140302010Y-58216242D01*
X140241710Y-58125996D01*
X140241709Y-58125995D01*
X140210484Y-58050611D01*
X140198933Y-58029000D01*
X140183388Y-58010059D01*
X140164446Y-57994513D01*
X140142835Y-57982962D01*
X140119386Y-57975849D01*
X140095000Y-57973447D01*
X140070614Y-57975849D01*
X140047165Y-57982962D01*
X140025554Y-57994513D01*
X140006613Y-58010058D01*
X139991067Y-58029000D01*
X139979516Y-58050611D01*
X139948291Y-58125995D01*
X139948290Y-58125996D01*
X139887990Y-58216242D01*
X139811242Y-58292990D01*
X139765812Y-58323345D01*
X139720995Y-58353291D01*
X139645611Y-58384516D01*
X139624000Y-58396067D01*
X139605059Y-58411612D01*
X139589513Y-58430554D01*
X139577962Y-58452165D01*
X139570849Y-58475614D01*
X139568447Y-58500000D01*
X139351553Y-58500000D01*
X139349151Y-58475614D01*
X139342038Y-58452165D01*
X139330487Y-58430554D01*
X139314942Y-58411613D01*
X139296000Y-58396067D01*
X139274389Y-58384516D01*
X139199005Y-58353291D01*
X139154188Y-58323345D01*
X139108758Y-58292990D01*
X139032010Y-58216242D01*
X138971710Y-58125996D01*
X138971709Y-58125995D01*
X138930174Y-58025721D01*
X138909000Y-57919270D01*
X138909000Y-57810730D01*
X138930174Y-57704279D01*
X138971709Y-57604005D01*
X139032009Y-57513760D01*
X139032010Y-57513758D01*
X139108758Y-57437010D01*
X139199004Y-57376710D01*
X139199005Y-57376709D01*
X139299279Y-57335174D01*
X139405730Y-57314000D01*
X139514270Y-57314000D01*
X139620721Y-57335174D01*
X139620721Y-57335174D01*
G37*
M02*
