G04 #@! TF.GenerationSoftware,KiCad,Pcbnew,(5.1.4-0)*
G04 #@! TF.CreationDate,2021-02-17T16:02:49+01:00*
G04 #@! TF.ProjectId,cooling control unit,636f6f6c-696e-4672-9063-6f6e74726f6c,rev?*
G04 #@! TF.SameCoordinates,Original*
G04 #@! TF.FileFunction,Legend,Bot*
G04 #@! TF.FilePolarity,Positive*
%FSLAX46Y46*%
G04 Gerber Fmt 4.6, Leading zero omitted, Abs format (unit mm)*
G04 Created by KiCad (PCBNEW (5.1.4-0)) date 2021-02-17 16:02:49*
%MOMM*%
%LPD*%
G04 APERTURE LIST*
%ADD10C,0.300000*%
%ADD11C,0.120000*%
%ADD12C,0.150000*%
%ADD13C,0.254000*%
G04 APERTURE END LIST*
D10*
X151519971Y-114698029D02*
X151519971Y-115555171D01*
X153019971Y-115126600D02*
X151519971Y-115126600D01*
X152948542Y-116626600D02*
X153019971Y-116483743D01*
X153019971Y-116198029D01*
X152948542Y-116055171D01*
X152805685Y-115983743D01*
X152234257Y-115983743D01*
X152091400Y-116055171D01*
X152019971Y-116198029D01*
X152019971Y-116483743D01*
X152091400Y-116626600D01*
X152234257Y-116698029D01*
X152377114Y-116698029D01*
X152519971Y-115983743D01*
X152948542Y-117269457D02*
X153019971Y-117412314D01*
X153019971Y-117698029D01*
X152948542Y-117840886D01*
X152805685Y-117912314D01*
X152734257Y-117912314D01*
X152591400Y-117840886D01*
X152519971Y-117698029D01*
X152519971Y-117483743D01*
X152448542Y-117340886D01*
X152305685Y-117269457D01*
X152234257Y-117269457D01*
X152091400Y-117340886D01*
X152019971Y-117483743D01*
X152019971Y-117698029D01*
X152091400Y-117840886D01*
X152019971Y-118340886D02*
X152019971Y-118912314D01*
X151519971Y-118555171D02*
X152805685Y-118555171D01*
X152948542Y-118626600D01*
X153019971Y-118769457D01*
X153019971Y-118912314D01*
X152948542Y-119983743D02*
X153019971Y-119840886D01*
X153019971Y-119555171D01*
X152948542Y-119412314D01*
X152805685Y-119340886D01*
X152234257Y-119340886D01*
X152091400Y-119412314D01*
X152019971Y-119555171D01*
X152019971Y-119840886D01*
X152091400Y-119983743D01*
X152234257Y-120055171D01*
X152377114Y-120055171D01*
X152519971Y-119340886D01*
X153019971Y-121340886D02*
X151519971Y-121340886D01*
X152948542Y-121340886D02*
X153019971Y-121198029D01*
X153019971Y-120912314D01*
X152948542Y-120769457D01*
X152877114Y-120698029D01*
X152734257Y-120626600D01*
X152305685Y-120626600D01*
X152162828Y-120698029D01*
X152091400Y-120769457D01*
X152019971Y-120912314D01*
X152019971Y-121198029D01*
X152091400Y-121340886D01*
X154784257Y-103983743D02*
X154855685Y-104198029D01*
X154927114Y-104269457D01*
X155069971Y-104340886D01*
X155284257Y-104340886D01*
X155427114Y-104269457D01*
X155498542Y-104198029D01*
X155569971Y-104055171D01*
X155569971Y-103483743D01*
X154069971Y-103483743D01*
X154069971Y-103983743D01*
X154141400Y-104126600D01*
X154212828Y-104198029D01*
X154355685Y-104269457D01*
X154498542Y-104269457D01*
X154641400Y-104198029D01*
X154712828Y-104126600D01*
X154784257Y-103983743D01*
X154784257Y-103483743D01*
X155569971Y-105198029D02*
X155498542Y-105055171D01*
X155427114Y-104983743D01*
X155284257Y-104912314D01*
X154855685Y-104912314D01*
X154712828Y-104983743D01*
X154641400Y-105055171D01*
X154569971Y-105198029D01*
X154569971Y-105412314D01*
X154641400Y-105555171D01*
X154712828Y-105626600D01*
X154855685Y-105698029D01*
X155284257Y-105698029D01*
X155427114Y-105626600D01*
X155498542Y-105555171D01*
X155569971Y-105412314D01*
X155569971Y-105198029D01*
X155569971Y-106983743D02*
X154784257Y-106983743D01*
X154641400Y-106912314D01*
X154569971Y-106769457D01*
X154569971Y-106483743D01*
X154641400Y-106340886D01*
X155498542Y-106983743D02*
X155569971Y-106840886D01*
X155569971Y-106483743D01*
X155498542Y-106340886D01*
X155355685Y-106269457D01*
X155212828Y-106269457D01*
X155069971Y-106340886D01*
X154998542Y-106483743D01*
X154998542Y-106840886D01*
X154927114Y-106983743D01*
X155569971Y-107698029D02*
X154569971Y-107698029D01*
X154855685Y-107698029D02*
X154712828Y-107769457D01*
X154641400Y-107840886D01*
X154569971Y-107983743D01*
X154569971Y-108126600D01*
X155569971Y-109269457D02*
X154069971Y-109269457D01*
X155498542Y-109269457D02*
X155569971Y-109126600D01*
X155569971Y-108840886D01*
X155498542Y-108698029D01*
X155427114Y-108626600D01*
X155284257Y-108555171D01*
X154855685Y-108555171D01*
X154712828Y-108626600D01*
X154641400Y-108698029D01*
X154569971Y-108840886D01*
X154569971Y-109126600D01*
X154641400Y-109269457D01*
X154569971Y-111126600D02*
X155569971Y-111126600D01*
X154712828Y-111126600D02*
X154641400Y-111198029D01*
X154569971Y-111340886D01*
X154569971Y-111555171D01*
X154641400Y-111698029D01*
X154784257Y-111769457D01*
X155569971Y-111769457D01*
X154569971Y-113126600D02*
X155569971Y-113126600D01*
X154569971Y-112483743D02*
X155355685Y-112483743D01*
X155498542Y-112555171D01*
X155569971Y-112698029D01*
X155569971Y-112912314D01*
X155498542Y-113055171D01*
X155427114Y-113126600D01*
X155569971Y-113840886D02*
X154569971Y-113840886D01*
X154712828Y-113840886D02*
X154641400Y-113912314D01*
X154569971Y-114055171D01*
X154569971Y-114269457D01*
X154641400Y-114412314D01*
X154784257Y-114483743D01*
X155569971Y-114483743D01*
X154784257Y-114483743D02*
X154641400Y-114555171D01*
X154569971Y-114698029D01*
X154569971Y-114912314D01*
X154641400Y-115055171D01*
X154784257Y-115126600D01*
X155569971Y-115126600D01*
X155569971Y-115840886D02*
X154069971Y-115840886D01*
X154641400Y-115840886D02*
X154569971Y-115983743D01*
X154569971Y-116269457D01*
X154641400Y-116412314D01*
X154712828Y-116483743D01*
X154855685Y-116555171D01*
X155284257Y-116555171D01*
X155427114Y-116483743D01*
X155498542Y-116412314D01*
X155569971Y-116269457D01*
X155569971Y-115983743D01*
X155498542Y-115840886D01*
X155498542Y-117769457D02*
X155569971Y-117626600D01*
X155569971Y-117340886D01*
X155498542Y-117198029D01*
X155355685Y-117126600D01*
X154784257Y-117126600D01*
X154641400Y-117198029D01*
X154569971Y-117340886D01*
X154569971Y-117626600D01*
X154641400Y-117769457D01*
X154784257Y-117840886D01*
X154927114Y-117840886D01*
X155069971Y-117126600D01*
X155569971Y-118483743D02*
X154569971Y-118483743D01*
X154855685Y-118483743D02*
X154712828Y-118555171D01*
X154641400Y-118626600D01*
X154569971Y-118769457D01*
X154569971Y-118912314D01*
X154569971Y-120483743D02*
X154569971Y-121555171D01*
X153927114Y-120912314D02*
X155855685Y-120483743D01*
X155212828Y-121412314D02*
X155212828Y-120340886D01*
X155855685Y-120983743D02*
X153927114Y-121412314D01*
X158119971Y-105769457D02*
X157405685Y-105269457D01*
X158119971Y-104912314D02*
X156619971Y-104912314D01*
X156619971Y-105483743D01*
X156691400Y-105626600D01*
X156762828Y-105698029D01*
X156905685Y-105769457D01*
X157119971Y-105769457D01*
X157262828Y-105698029D01*
X157334257Y-105626600D01*
X157405685Y-105483743D01*
X157405685Y-104912314D01*
X157119971Y-107055171D02*
X158119971Y-107055171D01*
X157119971Y-106412314D02*
X157905685Y-106412314D01*
X158048542Y-106483743D01*
X158119971Y-106626600D01*
X158119971Y-106840886D01*
X158048542Y-106983743D01*
X157977114Y-107055171D01*
X158119971Y-107983743D02*
X158048542Y-107840886D01*
X157905685Y-107769457D01*
X156619971Y-107769457D01*
X158048542Y-109126600D02*
X158119971Y-108983743D01*
X158119971Y-108698029D01*
X158048542Y-108555171D01*
X157905685Y-108483743D01*
X157334257Y-108483743D01*
X157191400Y-108555171D01*
X157119971Y-108698029D01*
X157119971Y-108983743D01*
X157191400Y-109126600D01*
X157334257Y-109198029D01*
X157477114Y-109198029D01*
X157619971Y-108483743D01*
X158048542Y-111626600D02*
X158119971Y-111483743D01*
X158119971Y-111198029D01*
X158048542Y-111055171D01*
X157977114Y-110983743D01*
X157834257Y-110912314D01*
X157405685Y-110912314D01*
X157262828Y-110983743D01*
X157191400Y-111055171D01*
X157119971Y-111198029D01*
X157119971Y-111483743D01*
X157191400Y-111626600D01*
X158119971Y-112483743D02*
X158048542Y-112340886D01*
X157977114Y-112269457D01*
X157834257Y-112198029D01*
X157405685Y-112198029D01*
X157262828Y-112269457D01*
X157191400Y-112340886D01*
X157119971Y-112483743D01*
X157119971Y-112698029D01*
X157191400Y-112840886D01*
X157262828Y-112912314D01*
X157405685Y-112983743D01*
X157834257Y-112983743D01*
X157977114Y-112912314D01*
X158048542Y-112840886D01*
X158119971Y-112698029D01*
X158119971Y-112483743D01*
X158119971Y-113626600D02*
X157119971Y-113626600D01*
X157262828Y-113626600D02*
X157191400Y-113698029D01*
X157119971Y-113840886D01*
X157119971Y-114055171D01*
X157191400Y-114198029D01*
X157334257Y-114269457D01*
X158119971Y-114269457D01*
X157334257Y-114269457D02*
X157191400Y-114340886D01*
X157119971Y-114483743D01*
X157119971Y-114698029D01*
X157191400Y-114840886D01*
X157334257Y-114912314D01*
X158119971Y-114912314D01*
X157119971Y-115626600D02*
X158619971Y-115626600D01*
X157191400Y-115626600D02*
X157119971Y-115769457D01*
X157119971Y-116055171D01*
X157191400Y-116198029D01*
X157262828Y-116269457D01*
X157405685Y-116340886D01*
X157834257Y-116340886D01*
X157977114Y-116269457D01*
X158048542Y-116198029D01*
X158119971Y-116055171D01*
X158119971Y-115769457D01*
X158048542Y-115626600D01*
X158119971Y-117198029D02*
X158048542Y-117055171D01*
X157905685Y-116983743D01*
X156619971Y-116983743D01*
X158119971Y-117769457D02*
X157119971Y-117769457D01*
X156619971Y-117769457D02*
X156691400Y-117698029D01*
X156762828Y-117769457D01*
X156691400Y-117840886D01*
X156619971Y-117769457D01*
X156762828Y-117769457D01*
X158119971Y-119126600D02*
X157334257Y-119126600D01*
X157191400Y-119055171D01*
X157119971Y-118912314D01*
X157119971Y-118626600D01*
X157191400Y-118483743D01*
X158048542Y-119126600D02*
X158119971Y-118983743D01*
X158119971Y-118626600D01*
X158048542Y-118483743D01*
X157905685Y-118412314D01*
X157762828Y-118412314D01*
X157619971Y-118483743D01*
X157548542Y-118626600D01*
X157548542Y-118983743D01*
X157477114Y-119126600D01*
X157119971Y-119840886D02*
X158119971Y-119840886D01*
X157262828Y-119840886D02*
X157191400Y-119912314D01*
X157119971Y-120055171D01*
X157119971Y-120269457D01*
X157191400Y-120412314D01*
X157334257Y-120483743D01*
X158119971Y-120483743D01*
X157119971Y-120983743D02*
X157119971Y-121555171D01*
X156619971Y-121198029D02*
X157905685Y-121198029D01*
X158048542Y-121269457D01*
X158119971Y-121412314D01*
X158119971Y-121555171D01*
D11*
X109907000Y-124210578D02*
X109907000Y-123693422D01*
X111327000Y-124210578D02*
X111327000Y-123693422D01*
X111939000Y-124210578D02*
X111939000Y-123693422D01*
X113359000Y-124210578D02*
X113359000Y-123693422D01*
X113971000Y-124210578D02*
X113971000Y-123693422D01*
X115391000Y-124210578D02*
X115391000Y-123693422D01*
X116003000Y-124210578D02*
X116003000Y-123693422D01*
X117423000Y-124210578D02*
X117423000Y-123693422D01*
X118035000Y-124210578D02*
X118035000Y-123693422D01*
X119455000Y-124210578D02*
X119455000Y-123693422D01*
X120067000Y-124210578D02*
X120067000Y-123693422D01*
X121487000Y-124210578D02*
X121487000Y-123693422D01*
X113815760Y-113826160D02*
X113815760Y-116376160D01*
X115515760Y-113826160D02*
X115515760Y-116376160D01*
X113815760Y-113826160D02*
X115515760Y-113826160D01*
X109792400Y-113826160D02*
X109792400Y-116376160D01*
X111492400Y-113826160D02*
X111492400Y-116376160D01*
X109792400Y-113826160D02*
X111492400Y-113826160D01*
X111839640Y-113826160D02*
X111839640Y-116376160D01*
X113539640Y-113826160D02*
X113539640Y-116376160D01*
X111839640Y-113826160D02*
X113539640Y-113826160D01*
X115824392Y-113826160D02*
X115824392Y-116376160D01*
X117524392Y-113826160D02*
X117524392Y-116376160D01*
X115824392Y-113826160D02*
X117524392Y-113826160D01*
X117835056Y-113826160D02*
X117835056Y-116376160D01*
X119535056Y-113826160D02*
X119535056Y-116376160D01*
X117835056Y-113826160D02*
X119535056Y-113826160D01*
X119845720Y-113826160D02*
X119845720Y-116376160D01*
X121545720Y-113826160D02*
X121545720Y-116376160D01*
X119845720Y-113826160D02*
X121545720Y-113826160D01*
D12*
X110545571Y-126158666D02*
X110545571Y-125825333D01*
X111069380Y-125825333D02*
X110069380Y-125825333D01*
X110069380Y-126301523D01*
X110497952Y-126825333D02*
X110450333Y-126730095D01*
X110402714Y-126682476D01*
X110307476Y-126634857D01*
X110259857Y-126634857D01*
X110164619Y-126682476D01*
X110117000Y-126730095D01*
X110069380Y-126825333D01*
X110069380Y-127015809D01*
X110117000Y-127111047D01*
X110164619Y-127158666D01*
X110259857Y-127206285D01*
X110307476Y-127206285D01*
X110402714Y-127158666D01*
X110450333Y-127111047D01*
X110497952Y-127015809D01*
X110497952Y-126825333D01*
X110545571Y-126730095D01*
X110593190Y-126682476D01*
X110688428Y-126634857D01*
X110878904Y-126634857D01*
X110974142Y-126682476D01*
X111021761Y-126730095D01*
X111069380Y-126825333D01*
X111069380Y-127015809D01*
X111021761Y-127111047D01*
X110974142Y-127158666D01*
X110878904Y-127206285D01*
X110688428Y-127206285D01*
X110593190Y-127158666D01*
X110545571Y-127111047D01*
X110497952Y-127015809D01*
X112577571Y-126158666D02*
X112577571Y-125825333D01*
X113101380Y-125825333D02*
X112101380Y-125825333D01*
X112101380Y-126301523D01*
X112101380Y-126587238D02*
X112101380Y-127253904D01*
X113101380Y-126825333D01*
X114609571Y-126158666D02*
X114609571Y-125825333D01*
X115133380Y-125825333D02*
X114133380Y-125825333D01*
X114133380Y-126301523D01*
X114133380Y-127111047D02*
X114133380Y-126920571D01*
X114181000Y-126825333D01*
X114228619Y-126777714D01*
X114371476Y-126682476D01*
X114561952Y-126634857D01*
X114942904Y-126634857D01*
X115038142Y-126682476D01*
X115085761Y-126730095D01*
X115133380Y-126825333D01*
X115133380Y-127015809D01*
X115085761Y-127111047D01*
X115038142Y-127158666D01*
X114942904Y-127206285D01*
X114704809Y-127206285D01*
X114609571Y-127158666D01*
X114561952Y-127111047D01*
X114514333Y-127015809D01*
X114514333Y-126825333D01*
X114561952Y-126730095D01*
X114609571Y-126682476D01*
X114704809Y-126634857D01*
X116641571Y-126158666D02*
X116641571Y-125825333D01*
X117165380Y-125825333D02*
X116165380Y-125825333D01*
X116165380Y-126301523D01*
X116165380Y-127158666D02*
X116165380Y-126682476D01*
X116641571Y-126634857D01*
X116593952Y-126682476D01*
X116546333Y-126777714D01*
X116546333Y-127015809D01*
X116593952Y-127111047D01*
X116641571Y-127158666D01*
X116736809Y-127206285D01*
X116974904Y-127206285D01*
X117070142Y-127158666D01*
X117117761Y-127111047D01*
X117165380Y-127015809D01*
X117165380Y-126777714D01*
X117117761Y-126682476D01*
X117070142Y-126634857D01*
X118673571Y-126158666D02*
X118673571Y-125825333D01*
X119197380Y-125825333D02*
X118197380Y-125825333D01*
X118197380Y-126301523D01*
X118530714Y-127111047D02*
X119197380Y-127111047D01*
X118149761Y-126872952D02*
X118864047Y-126634857D01*
X118864047Y-127253904D01*
X120705571Y-126158666D02*
X120705571Y-125825333D01*
X121229380Y-125825333D02*
X120229380Y-125825333D01*
X120229380Y-126301523D01*
X120229380Y-126587238D02*
X120229380Y-127206285D01*
X120610333Y-126872952D01*
X120610333Y-127015809D01*
X120657952Y-127111047D01*
X120705571Y-127158666D01*
X120800809Y-127206285D01*
X121038904Y-127206285D01*
X121134142Y-127158666D01*
X121181761Y-127111047D01*
X121229380Y-127015809D01*
X121229380Y-126730095D01*
X121181761Y-126634857D01*
X121134142Y-126587238D01*
X115173140Y-110936874D02*
X114173140Y-110936874D01*
X114173140Y-111174969D01*
X114220760Y-111317826D01*
X114315998Y-111413064D01*
X114411236Y-111460683D01*
X114601712Y-111508302D01*
X114744569Y-111508302D01*
X114935045Y-111460683D01*
X115030283Y-111413064D01*
X115125521Y-111317826D01*
X115173140Y-111174969D01*
X115173140Y-110936874D01*
X115173140Y-112460683D02*
X115173140Y-111889255D01*
X115173140Y-112174969D02*
X114173140Y-112174969D01*
X114315998Y-112079731D01*
X114411236Y-111984493D01*
X114458855Y-111889255D01*
X114173140Y-112794017D02*
X114173140Y-113413064D01*
X114554093Y-113079731D01*
X114554093Y-113222588D01*
X114601712Y-113317826D01*
X114649331Y-113365445D01*
X114744569Y-113413064D01*
X114982664Y-113413064D01*
X115077902Y-113365445D01*
X115125521Y-113317826D01*
X115173140Y-113222588D01*
X115173140Y-112936874D01*
X115125521Y-112841636D01*
X115077902Y-112794017D01*
X111149780Y-110936874D02*
X110149780Y-110936874D01*
X110149780Y-111174969D01*
X110197400Y-111317826D01*
X110292638Y-111413064D01*
X110387876Y-111460683D01*
X110578352Y-111508302D01*
X110721209Y-111508302D01*
X110911685Y-111460683D01*
X111006923Y-111413064D01*
X111102161Y-111317826D01*
X111149780Y-111174969D01*
X111149780Y-110936874D01*
X111149780Y-112460683D02*
X111149780Y-111889255D01*
X111149780Y-112174969D02*
X110149780Y-112174969D01*
X110292638Y-112079731D01*
X110387876Y-111984493D01*
X110435495Y-111889255D01*
X110245019Y-112841636D02*
X110197400Y-112889255D01*
X110149780Y-112984493D01*
X110149780Y-113222588D01*
X110197400Y-113317826D01*
X110245019Y-113365445D01*
X110340257Y-113413064D01*
X110435495Y-113413064D01*
X110578352Y-113365445D01*
X111149780Y-112794017D01*
X111149780Y-113413064D01*
X113197020Y-110936874D02*
X112197020Y-110936874D01*
X112197020Y-111174969D01*
X112244640Y-111317826D01*
X112339878Y-111413064D01*
X112435116Y-111460683D01*
X112625592Y-111508302D01*
X112768449Y-111508302D01*
X112958925Y-111460683D01*
X113054163Y-111413064D01*
X113149401Y-111317826D01*
X113197020Y-111174969D01*
X113197020Y-110936874D01*
X113197020Y-112460683D02*
X113197020Y-111889255D01*
X113197020Y-112174969D02*
X112197020Y-112174969D01*
X112339878Y-112079731D01*
X112435116Y-111984493D01*
X112482735Y-111889255D01*
X113197020Y-113413064D02*
X113197020Y-112841636D01*
X113197020Y-113127350D02*
X112197020Y-113127350D01*
X112339878Y-113032112D01*
X112435116Y-112936874D01*
X112482735Y-112841636D01*
X117181772Y-110936874D02*
X116181772Y-110936874D01*
X116181772Y-111174969D01*
X116229392Y-111317826D01*
X116324630Y-111413064D01*
X116419868Y-111460683D01*
X116610344Y-111508302D01*
X116753201Y-111508302D01*
X116943677Y-111460683D01*
X117038915Y-111413064D01*
X117134153Y-111317826D01*
X117181772Y-111174969D01*
X117181772Y-110936874D01*
X117181772Y-112460683D02*
X117181772Y-111889255D01*
X117181772Y-112174969D02*
X116181772Y-112174969D01*
X116324630Y-112079731D01*
X116419868Y-111984493D01*
X116467487Y-111889255D01*
X116181772Y-113079731D02*
X116181772Y-113174969D01*
X116229392Y-113270207D01*
X116277011Y-113317826D01*
X116372249Y-113365445D01*
X116562725Y-113413064D01*
X116800820Y-113413064D01*
X116991296Y-113365445D01*
X117086534Y-113317826D01*
X117134153Y-113270207D01*
X117181772Y-113174969D01*
X117181772Y-113079731D01*
X117134153Y-112984493D01*
X117086534Y-112936874D01*
X116991296Y-112889255D01*
X116800820Y-112841636D01*
X116562725Y-112841636D01*
X116372249Y-112889255D01*
X116277011Y-112936874D01*
X116229392Y-112984493D01*
X116181772Y-113079731D01*
X119192436Y-111413064D02*
X118192436Y-111413064D01*
X118192436Y-111651160D01*
X118240056Y-111794017D01*
X118335294Y-111889255D01*
X118430532Y-111936874D01*
X118621008Y-111984493D01*
X118763865Y-111984493D01*
X118954341Y-111936874D01*
X119049579Y-111889255D01*
X119144817Y-111794017D01*
X119192436Y-111651160D01*
X119192436Y-111413064D01*
X119192436Y-112460683D02*
X119192436Y-112651160D01*
X119144817Y-112746398D01*
X119097198Y-112794017D01*
X118954341Y-112889255D01*
X118763865Y-112936874D01*
X118382913Y-112936874D01*
X118287675Y-112889255D01*
X118240056Y-112841636D01*
X118192436Y-112746398D01*
X118192436Y-112555921D01*
X118240056Y-112460683D01*
X118287675Y-112413064D01*
X118382913Y-112365445D01*
X118621008Y-112365445D01*
X118716246Y-112413064D01*
X118763865Y-112460683D01*
X118811484Y-112555921D01*
X118811484Y-112746398D01*
X118763865Y-112841636D01*
X118716246Y-112889255D01*
X118621008Y-112936874D01*
X121203100Y-111413064D02*
X120203100Y-111413064D01*
X120203100Y-111651160D01*
X120250720Y-111794017D01*
X120345958Y-111889255D01*
X120441196Y-111936874D01*
X120631672Y-111984493D01*
X120774529Y-111984493D01*
X120965005Y-111936874D01*
X121060243Y-111889255D01*
X121155481Y-111794017D01*
X121203100Y-111651160D01*
X121203100Y-111413064D01*
X120631672Y-112555921D02*
X120584053Y-112460683D01*
X120536434Y-112413064D01*
X120441196Y-112365445D01*
X120393577Y-112365445D01*
X120298339Y-112413064D01*
X120250720Y-112460683D01*
X120203100Y-112555921D01*
X120203100Y-112746398D01*
X120250720Y-112841636D01*
X120298339Y-112889255D01*
X120393577Y-112936874D01*
X120441196Y-112936874D01*
X120536434Y-112889255D01*
X120584053Y-112841636D01*
X120631672Y-112746398D01*
X120631672Y-112555921D01*
X120679291Y-112460683D01*
X120726910Y-112413064D01*
X120822148Y-112365445D01*
X121012624Y-112365445D01*
X121107862Y-112413064D01*
X121155481Y-112460683D01*
X121203100Y-112555921D01*
X121203100Y-112746398D01*
X121155481Y-112841636D01*
X121107862Y-112889255D01*
X121012624Y-112936874D01*
X120822148Y-112936874D01*
X120726910Y-112889255D01*
X120679291Y-112841636D01*
X120631672Y-112746398D01*
D13*
G36*
X158414400Y-124844600D02*
G01*
X156668400Y-124844600D01*
X156668400Y-122098600D01*
X158414400Y-122098600D01*
X158414400Y-124844600D01*
X158414400Y-124844600D01*
G37*
X158414400Y-124844600D02*
X156668400Y-124844600D01*
X156668400Y-122098600D01*
X158414400Y-122098600D01*
X158414400Y-124844600D01*
G36*
X155664400Y-124844600D02*
G01*
X153918400Y-124844600D01*
X153918400Y-122098600D01*
X155664400Y-122098600D01*
X155664400Y-124844600D01*
X155664400Y-124844600D01*
G37*
X155664400Y-124844600D02*
X153918400Y-124844600D01*
X153918400Y-122098600D01*
X155664400Y-122098600D01*
X155664400Y-124844600D01*
G36*
X152914400Y-124844600D02*
G01*
X151168400Y-124844600D01*
X151168400Y-122098600D01*
X152914400Y-122098600D01*
X152914400Y-124844600D01*
X152914400Y-124844600D01*
G37*
X152914400Y-124844600D02*
X151168400Y-124844600D01*
X151168400Y-122098600D01*
X152914400Y-122098600D01*
X152914400Y-124844600D01*
M02*
