G04 #@! TF.GenerationSoftware,KiCad,Pcbnew,(5.1.4-0)*
G04 #@! TF.CreationDate,2021-02-17T16:02:49+01:00*
G04 #@! TF.ProjectId,cooling control unit,636f6f6c-696e-4672-9063-6f6e74726f6c,rev?*
G04 #@! TF.SameCoordinates,Original*
G04 #@! TF.FileFunction,Copper,L2,Bot*
G04 #@! TF.FilePolarity,Positive*
%FSLAX46Y46*%
G04 Gerber Fmt 4.6, Leading zero omitted, Abs format (unit mm)*
G04 Created by KiCad (PCBNEW (5.1.4-0)) date 2021-02-17 16:02:49*
%MOMM*%
%LPD*%
G04 APERTURE LIST*
%ADD10C,2.700000*%
%ADD11C,0.100000*%
%ADD12C,0.975000*%
%ADD13R,0.450000X0.600000*%
%ADD14C,1.000000*%
%ADD15C,1.524000*%
%ADD16C,1.200000*%
%ADD17C,0.800000*%
%ADD18C,0.250000*%
%ADD19C,1.350000*%
%ADD20C,0.450000*%
%ADD21C,2.000000*%
%ADD22C,0.254000*%
G04 APERTURE END LIST*
D10*
X130900000Y-117850000D03*
X130900000Y-112350000D03*
X126700000Y-117850000D03*
X126700000Y-112350000D03*
D11*
G36*
X111097142Y-122528174D02*
G01*
X111120803Y-122531684D01*
X111144007Y-122537496D01*
X111166529Y-122545554D01*
X111188153Y-122555782D01*
X111208670Y-122568079D01*
X111227883Y-122582329D01*
X111245607Y-122598393D01*
X111261671Y-122616117D01*
X111275921Y-122635330D01*
X111288218Y-122655847D01*
X111298446Y-122677471D01*
X111306504Y-122699993D01*
X111312316Y-122723197D01*
X111315826Y-122746858D01*
X111317000Y-122770750D01*
X111317000Y-123258250D01*
X111315826Y-123282142D01*
X111312316Y-123305803D01*
X111306504Y-123329007D01*
X111298446Y-123351529D01*
X111288218Y-123373153D01*
X111275921Y-123393670D01*
X111261671Y-123412883D01*
X111245607Y-123430607D01*
X111227883Y-123446671D01*
X111208670Y-123460921D01*
X111188153Y-123473218D01*
X111166529Y-123483446D01*
X111144007Y-123491504D01*
X111120803Y-123497316D01*
X111097142Y-123500826D01*
X111073250Y-123502000D01*
X110160750Y-123502000D01*
X110136858Y-123500826D01*
X110113197Y-123497316D01*
X110089993Y-123491504D01*
X110067471Y-123483446D01*
X110045847Y-123473218D01*
X110025330Y-123460921D01*
X110006117Y-123446671D01*
X109988393Y-123430607D01*
X109972329Y-123412883D01*
X109958079Y-123393670D01*
X109945782Y-123373153D01*
X109935554Y-123351529D01*
X109927496Y-123329007D01*
X109921684Y-123305803D01*
X109918174Y-123282142D01*
X109917000Y-123258250D01*
X109917000Y-122770750D01*
X109918174Y-122746858D01*
X109921684Y-122723197D01*
X109927496Y-122699993D01*
X109935554Y-122677471D01*
X109945782Y-122655847D01*
X109958079Y-122635330D01*
X109972329Y-122616117D01*
X109988393Y-122598393D01*
X110006117Y-122582329D01*
X110025330Y-122568079D01*
X110045847Y-122555782D01*
X110067471Y-122545554D01*
X110089993Y-122537496D01*
X110113197Y-122531684D01*
X110136858Y-122528174D01*
X110160750Y-122527000D01*
X111073250Y-122527000D01*
X111097142Y-122528174D01*
X111097142Y-122528174D01*
G37*
D12*
X110617000Y-123014500D03*
D11*
G36*
X111097142Y-124403174D02*
G01*
X111120803Y-124406684D01*
X111144007Y-124412496D01*
X111166529Y-124420554D01*
X111188153Y-124430782D01*
X111208670Y-124443079D01*
X111227883Y-124457329D01*
X111245607Y-124473393D01*
X111261671Y-124491117D01*
X111275921Y-124510330D01*
X111288218Y-124530847D01*
X111298446Y-124552471D01*
X111306504Y-124574993D01*
X111312316Y-124598197D01*
X111315826Y-124621858D01*
X111317000Y-124645750D01*
X111317000Y-125133250D01*
X111315826Y-125157142D01*
X111312316Y-125180803D01*
X111306504Y-125204007D01*
X111298446Y-125226529D01*
X111288218Y-125248153D01*
X111275921Y-125268670D01*
X111261671Y-125287883D01*
X111245607Y-125305607D01*
X111227883Y-125321671D01*
X111208670Y-125335921D01*
X111188153Y-125348218D01*
X111166529Y-125358446D01*
X111144007Y-125366504D01*
X111120803Y-125372316D01*
X111097142Y-125375826D01*
X111073250Y-125377000D01*
X110160750Y-125377000D01*
X110136858Y-125375826D01*
X110113197Y-125372316D01*
X110089993Y-125366504D01*
X110067471Y-125358446D01*
X110045847Y-125348218D01*
X110025330Y-125335921D01*
X110006117Y-125321671D01*
X109988393Y-125305607D01*
X109972329Y-125287883D01*
X109958079Y-125268670D01*
X109945782Y-125248153D01*
X109935554Y-125226529D01*
X109927496Y-125204007D01*
X109921684Y-125180803D01*
X109918174Y-125157142D01*
X109917000Y-125133250D01*
X109917000Y-124645750D01*
X109918174Y-124621858D01*
X109921684Y-124598197D01*
X109927496Y-124574993D01*
X109935554Y-124552471D01*
X109945782Y-124530847D01*
X109958079Y-124510330D01*
X109972329Y-124491117D01*
X109988393Y-124473393D01*
X110006117Y-124457329D01*
X110025330Y-124443079D01*
X110045847Y-124430782D01*
X110067471Y-124420554D01*
X110089993Y-124412496D01*
X110113197Y-124406684D01*
X110136858Y-124403174D01*
X110160750Y-124402000D01*
X111073250Y-124402000D01*
X111097142Y-124403174D01*
X111097142Y-124403174D01*
G37*
D12*
X110617000Y-124889500D03*
D11*
G36*
X113129142Y-122528174D02*
G01*
X113152803Y-122531684D01*
X113176007Y-122537496D01*
X113198529Y-122545554D01*
X113220153Y-122555782D01*
X113240670Y-122568079D01*
X113259883Y-122582329D01*
X113277607Y-122598393D01*
X113293671Y-122616117D01*
X113307921Y-122635330D01*
X113320218Y-122655847D01*
X113330446Y-122677471D01*
X113338504Y-122699993D01*
X113344316Y-122723197D01*
X113347826Y-122746858D01*
X113349000Y-122770750D01*
X113349000Y-123258250D01*
X113347826Y-123282142D01*
X113344316Y-123305803D01*
X113338504Y-123329007D01*
X113330446Y-123351529D01*
X113320218Y-123373153D01*
X113307921Y-123393670D01*
X113293671Y-123412883D01*
X113277607Y-123430607D01*
X113259883Y-123446671D01*
X113240670Y-123460921D01*
X113220153Y-123473218D01*
X113198529Y-123483446D01*
X113176007Y-123491504D01*
X113152803Y-123497316D01*
X113129142Y-123500826D01*
X113105250Y-123502000D01*
X112192750Y-123502000D01*
X112168858Y-123500826D01*
X112145197Y-123497316D01*
X112121993Y-123491504D01*
X112099471Y-123483446D01*
X112077847Y-123473218D01*
X112057330Y-123460921D01*
X112038117Y-123446671D01*
X112020393Y-123430607D01*
X112004329Y-123412883D01*
X111990079Y-123393670D01*
X111977782Y-123373153D01*
X111967554Y-123351529D01*
X111959496Y-123329007D01*
X111953684Y-123305803D01*
X111950174Y-123282142D01*
X111949000Y-123258250D01*
X111949000Y-122770750D01*
X111950174Y-122746858D01*
X111953684Y-122723197D01*
X111959496Y-122699993D01*
X111967554Y-122677471D01*
X111977782Y-122655847D01*
X111990079Y-122635330D01*
X112004329Y-122616117D01*
X112020393Y-122598393D01*
X112038117Y-122582329D01*
X112057330Y-122568079D01*
X112077847Y-122555782D01*
X112099471Y-122545554D01*
X112121993Y-122537496D01*
X112145197Y-122531684D01*
X112168858Y-122528174D01*
X112192750Y-122527000D01*
X113105250Y-122527000D01*
X113129142Y-122528174D01*
X113129142Y-122528174D01*
G37*
D12*
X112649000Y-123014500D03*
D11*
G36*
X113129142Y-124403174D02*
G01*
X113152803Y-124406684D01*
X113176007Y-124412496D01*
X113198529Y-124420554D01*
X113220153Y-124430782D01*
X113240670Y-124443079D01*
X113259883Y-124457329D01*
X113277607Y-124473393D01*
X113293671Y-124491117D01*
X113307921Y-124510330D01*
X113320218Y-124530847D01*
X113330446Y-124552471D01*
X113338504Y-124574993D01*
X113344316Y-124598197D01*
X113347826Y-124621858D01*
X113349000Y-124645750D01*
X113349000Y-125133250D01*
X113347826Y-125157142D01*
X113344316Y-125180803D01*
X113338504Y-125204007D01*
X113330446Y-125226529D01*
X113320218Y-125248153D01*
X113307921Y-125268670D01*
X113293671Y-125287883D01*
X113277607Y-125305607D01*
X113259883Y-125321671D01*
X113240670Y-125335921D01*
X113220153Y-125348218D01*
X113198529Y-125358446D01*
X113176007Y-125366504D01*
X113152803Y-125372316D01*
X113129142Y-125375826D01*
X113105250Y-125377000D01*
X112192750Y-125377000D01*
X112168858Y-125375826D01*
X112145197Y-125372316D01*
X112121993Y-125366504D01*
X112099471Y-125358446D01*
X112077847Y-125348218D01*
X112057330Y-125335921D01*
X112038117Y-125321671D01*
X112020393Y-125305607D01*
X112004329Y-125287883D01*
X111990079Y-125268670D01*
X111977782Y-125248153D01*
X111967554Y-125226529D01*
X111959496Y-125204007D01*
X111953684Y-125180803D01*
X111950174Y-125157142D01*
X111949000Y-125133250D01*
X111949000Y-124645750D01*
X111950174Y-124621858D01*
X111953684Y-124598197D01*
X111959496Y-124574993D01*
X111967554Y-124552471D01*
X111977782Y-124530847D01*
X111990079Y-124510330D01*
X112004329Y-124491117D01*
X112020393Y-124473393D01*
X112038117Y-124457329D01*
X112057330Y-124443079D01*
X112077847Y-124430782D01*
X112099471Y-124420554D01*
X112121993Y-124412496D01*
X112145197Y-124406684D01*
X112168858Y-124403174D01*
X112192750Y-124402000D01*
X113105250Y-124402000D01*
X113129142Y-124403174D01*
X113129142Y-124403174D01*
G37*
D12*
X112649000Y-124889500D03*
D11*
G36*
X115161142Y-122528174D02*
G01*
X115184803Y-122531684D01*
X115208007Y-122537496D01*
X115230529Y-122545554D01*
X115252153Y-122555782D01*
X115272670Y-122568079D01*
X115291883Y-122582329D01*
X115309607Y-122598393D01*
X115325671Y-122616117D01*
X115339921Y-122635330D01*
X115352218Y-122655847D01*
X115362446Y-122677471D01*
X115370504Y-122699993D01*
X115376316Y-122723197D01*
X115379826Y-122746858D01*
X115381000Y-122770750D01*
X115381000Y-123258250D01*
X115379826Y-123282142D01*
X115376316Y-123305803D01*
X115370504Y-123329007D01*
X115362446Y-123351529D01*
X115352218Y-123373153D01*
X115339921Y-123393670D01*
X115325671Y-123412883D01*
X115309607Y-123430607D01*
X115291883Y-123446671D01*
X115272670Y-123460921D01*
X115252153Y-123473218D01*
X115230529Y-123483446D01*
X115208007Y-123491504D01*
X115184803Y-123497316D01*
X115161142Y-123500826D01*
X115137250Y-123502000D01*
X114224750Y-123502000D01*
X114200858Y-123500826D01*
X114177197Y-123497316D01*
X114153993Y-123491504D01*
X114131471Y-123483446D01*
X114109847Y-123473218D01*
X114089330Y-123460921D01*
X114070117Y-123446671D01*
X114052393Y-123430607D01*
X114036329Y-123412883D01*
X114022079Y-123393670D01*
X114009782Y-123373153D01*
X113999554Y-123351529D01*
X113991496Y-123329007D01*
X113985684Y-123305803D01*
X113982174Y-123282142D01*
X113981000Y-123258250D01*
X113981000Y-122770750D01*
X113982174Y-122746858D01*
X113985684Y-122723197D01*
X113991496Y-122699993D01*
X113999554Y-122677471D01*
X114009782Y-122655847D01*
X114022079Y-122635330D01*
X114036329Y-122616117D01*
X114052393Y-122598393D01*
X114070117Y-122582329D01*
X114089330Y-122568079D01*
X114109847Y-122555782D01*
X114131471Y-122545554D01*
X114153993Y-122537496D01*
X114177197Y-122531684D01*
X114200858Y-122528174D01*
X114224750Y-122527000D01*
X115137250Y-122527000D01*
X115161142Y-122528174D01*
X115161142Y-122528174D01*
G37*
D12*
X114681000Y-123014500D03*
D11*
G36*
X115161142Y-124403174D02*
G01*
X115184803Y-124406684D01*
X115208007Y-124412496D01*
X115230529Y-124420554D01*
X115252153Y-124430782D01*
X115272670Y-124443079D01*
X115291883Y-124457329D01*
X115309607Y-124473393D01*
X115325671Y-124491117D01*
X115339921Y-124510330D01*
X115352218Y-124530847D01*
X115362446Y-124552471D01*
X115370504Y-124574993D01*
X115376316Y-124598197D01*
X115379826Y-124621858D01*
X115381000Y-124645750D01*
X115381000Y-125133250D01*
X115379826Y-125157142D01*
X115376316Y-125180803D01*
X115370504Y-125204007D01*
X115362446Y-125226529D01*
X115352218Y-125248153D01*
X115339921Y-125268670D01*
X115325671Y-125287883D01*
X115309607Y-125305607D01*
X115291883Y-125321671D01*
X115272670Y-125335921D01*
X115252153Y-125348218D01*
X115230529Y-125358446D01*
X115208007Y-125366504D01*
X115184803Y-125372316D01*
X115161142Y-125375826D01*
X115137250Y-125377000D01*
X114224750Y-125377000D01*
X114200858Y-125375826D01*
X114177197Y-125372316D01*
X114153993Y-125366504D01*
X114131471Y-125358446D01*
X114109847Y-125348218D01*
X114089330Y-125335921D01*
X114070117Y-125321671D01*
X114052393Y-125305607D01*
X114036329Y-125287883D01*
X114022079Y-125268670D01*
X114009782Y-125248153D01*
X113999554Y-125226529D01*
X113991496Y-125204007D01*
X113985684Y-125180803D01*
X113982174Y-125157142D01*
X113981000Y-125133250D01*
X113981000Y-124645750D01*
X113982174Y-124621858D01*
X113985684Y-124598197D01*
X113991496Y-124574993D01*
X113999554Y-124552471D01*
X114009782Y-124530847D01*
X114022079Y-124510330D01*
X114036329Y-124491117D01*
X114052393Y-124473393D01*
X114070117Y-124457329D01*
X114089330Y-124443079D01*
X114109847Y-124430782D01*
X114131471Y-124420554D01*
X114153993Y-124412496D01*
X114177197Y-124406684D01*
X114200858Y-124403174D01*
X114224750Y-124402000D01*
X115137250Y-124402000D01*
X115161142Y-124403174D01*
X115161142Y-124403174D01*
G37*
D12*
X114681000Y-124889500D03*
D11*
G36*
X117193142Y-122528174D02*
G01*
X117216803Y-122531684D01*
X117240007Y-122537496D01*
X117262529Y-122545554D01*
X117284153Y-122555782D01*
X117304670Y-122568079D01*
X117323883Y-122582329D01*
X117341607Y-122598393D01*
X117357671Y-122616117D01*
X117371921Y-122635330D01*
X117384218Y-122655847D01*
X117394446Y-122677471D01*
X117402504Y-122699993D01*
X117408316Y-122723197D01*
X117411826Y-122746858D01*
X117413000Y-122770750D01*
X117413000Y-123258250D01*
X117411826Y-123282142D01*
X117408316Y-123305803D01*
X117402504Y-123329007D01*
X117394446Y-123351529D01*
X117384218Y-123373153D01*
X117371921Y-123393670D01*
X117357671Y-123412883D01*
X117341607Y-123430607D01*
X117323883Y-123446671D01*
X117304670Y-123460921D01*
X117284153Y-123473218D01*
X117262529Y-123483446D01*
X117240007Y-123491504D01*
X117216803Y-123497316D01*
X117193142Y-123500826D01*
X117169250Y-123502000D01*
X116256750Y-123502000D01*
X116232858Y-123500826D01*
X116209197Y-123497316D01*
X116185993Y-123491504D01*
X116163471Y-123483446D01*
X116141847Y-123473218D01*
X116121330Y-123460921D01*
X116102117Y-123446671D01*
X116084393Y-123430607D01*
X116068329Y-123412883D01*
X116054079Y-123393670D01*
X116041782Y-123373153D01*
X116031554Y-123351529D01*
X116023496Y-123329007D01*
X116017684Y-123305803D01*
X116014174Y-123282142D01*
X116013000Y-123258250D01*
X116013000Y-122770750D01*
X116014174Y-122746858D01*
X116017684Y-122723197D01*
X116023496Y-122699993D01*
X116031554Y-122677471D01*
X116041782Y-122655847D01*
X116054079Y-122635330D01*
X116068329Y-122616117D01*
X116084393Y-122598393D01*
X116102117Y-122582329D01*
X116121330Y-122568079D01*
X116141847Y-122555782D01*
X116163471Y-122545554D01*
X116185993Y-122537496D01*
X116209197Y-122531684D01*
X116232858Y-122528174D01*
X116256750Y-122527000D01*
X117169250Y-122527000D01*
X117193142Y-122528174D01*
X117193142Y-122528174D01*
G37*
D12*
X116713000Y-123014500D03*
D11*
G36*
X117193142Y-124403174D02*
G01*
X117216803Y-124406684D01*
X117240007Y-124412496D01*
X117262529Y-124420554D01*
X117284153Y-124430782D01*
X117304670Y-124443079D01*
X117323883Y-124457329D01*
X117341607Y-124473393D01*
X117357671Y-124491117D01*
X117371921Y-124510330D01*
X117384218Y-124530847D01*
X117394446Y-124552471D01*
X117402504Y-124574993D01*
X117408316Y-124598197D01*
X117411826Y-124621858D01*
X117413000Y-124645750D01*
X117413000Y-125133250D01*
X117411826Y-125157142D01*
X117408316Y-125180803D01*
X117402504Y-125204007D01*
X117394446Y-125226529D01*
X117384218Y-125248153D01*
X117371921Y-125268670D01*
X117357671Y-125287883D01*
X117341607Y-125305607D01*
X117323883Y-125321671D01*
X117304670Y-125335921D01*
X117284153Y-125348218D01*
X117262529Y-125358446D01*
X117240007Y-125366504D01*
X117216803Y-125372316D01*
X117193142Y-125375826D01*
X117169250Y-125377000D01*
X116256750Y-125377000D01*
X116232858Y-125375826D01*
X116209197Y-125372316D01*
X116185993Y-125366504D01*
X116163471Y-125358446D01*
X116141847Y-125348218D01*
X116121330Y-125335921D01*
X116102117Y-125321671D01*
X116084393Y-125305607D01*
X116068329Y-125287883D01*
X116054079Y-125268670D01*
X116041782Y-125248153D01*
X116031554Y-125226529D01*
X116023496Y-125204007D01*
X116017684Y-125180803D01*
X116014174Y-125157142D01*
X116013000Y-125133250D01*
X116013000Y-124645750D01*
X116014174Y-124621858D01*
X116017684Y-124598197D01*
X116023496Y-124574993D01*
X116031554Y-124552471D01*
X116041782Y-124530847D01*
X116054079Y-124510330D01*
X116068329Y-124491117D01*
X116084393Y-124473393D01*
X116102117Y-124457329D01*
X116121330Y-124443079D01*
X116141847Y-124430782D01*
X116163471Y-124420554D01*
X116185993Y-124412496D01*
X116209197Y-124406684D01*
X116232858Y-124403174D01*
X116256750Y-124402000D01*
X117169250Y-124402000D01*
X117193142Y-124403174D01*
X117193142Y-124403174D01*
G37*
D12*
X116713000Y-124889500D03*
D11*
G36*
X119225142Y-122528174D02*
G01*
X119248803Y-122531684D01*
X119272007Y-122537496D01*
X119294529Y-122545554D01*
X119316153Y-122555782D01*
X119336670Y-122568079D01*
X119355883Y-122582329D01*
X119373607Y-122598393D01*
X119389671Y-122616117D01*
X119403921Y-122635330D01*
X119416218Y-122655847D01*
X119426446Y-122677471D01*
X119434504Y-122699993D01*
X119440316Y-122723197D01*
X119443826Y-122746858D01*
X119445000Y-122770750D01*
X119445000Y-123258250D01*
X119443826Y-123282142D01*
X119440316Y-123305803D01*
X119434504Y-123329007D01*
X119426446Y-123351529D01*
X119416218Y-123373153D01*
X119403921Y-123393670D01*
X119389671Y-123412883D01*
X119373607Y-123430607D01*
X119355883Y-123446671D01*
X119336670Y-123460921D01*
X119316153Y-123473218D01*
X119294529Y-123483446D01*
X119272007Y-123491504D01*
X119248803Y-123497316D01*
X119225142Y-123500826D01*
X119201250Y-123502000D01*
X118288750Y-123502000D01*
X118264858Y-123500826D01*
X118241197Y-123497316D01*
X118217993Y-123491504D01*
X118195471Y-123483446D01*
X118173847Y-123473218D01*
X118153330Y-123460921D01*
X118134117Y-123446671D01*
X118116393Y-123430607D01*
X118100329Y-123412883D01*
X118086079Y-123393670D01*
X118073782Y-123373153D01*
X118063554Y-123351529D01*
X118055496Y-123329007D01*
X118049684Y-123305803D01*
X118046174Y-123282142D01*
X118045000Y-123258250D01*
X118045000Y-122770750D01*
X118046174Y-122746858D01*
X118049684Y-122723197D01*
X118055496Y-122699993D01*
X118063554Y-122677471D01*
X118073782Y-122655847D01*
X118086079Y-122635330D01*
X118100329Y-122616117D01*
X118116393Y-122598393D01*
X118134117Y-122582329D01*
X118153330Y-122568079D01*
X118173847Y-122555782D01*
X118195471Y-122545554D01*
X118217993Y-122537496D01*
X118241197Y-122531684D01*
X118264858Y-122528174D01*
X118288750Y-122527000D01*
X119201250Y-122527000D01*
X119225142Y-122528174D01*
X119225142Y-122528174D01*
G37*
D12*
X118745000Y-123014500D03*
D11*
G36*
X119225142Y-124403174D02*
G01*
X119248803Y-124406684D01*
X119272007Y-124412496D01*
X119294529Y-124420554D01*
X119316153Y-124430782D01*
X119336670Y-124443079D01*
X119355883Y-124457329D01*
X119373607Y-124473393D01*
X119389671Y-124491117D01*
X119403921Y-124510330D01*
X119416218Y-124530847D01*
X119426446Y-124552471D01*
X119434504Y-124574993D01*
X119440316Y-124598197D01*
X119443826Y-124621858D01*
X119445000Y-124645750D01*
X119445000Y-125133250D01*
X119443826Y-125157142D01*
X119440316Y-125180803D01*
X119434504Y-125204007D01*
X119426446Y-125226529D01*
X119416218Y-125248153D01*
X119403921Y-125268670D01*
X119389671Y-125287883D01*
X119373607Y-125305607D01*
X119355883Y-125321671D01*
X119336670Y-125335921D01*
X119316153Y-125348218D01*
X119294529Y-125358446D01*
X119272007Y-125366504D01*
X119248803Y-125372316D01*
X119225142Y-125375826D01*
X119201250Y-125377000D01*
X118288750Y-125377000D01*
X118264858Y-125375826D01*
X118241197Y-125372316D01*
X118217993Y-125366504D01*
X118195471Y-125358446D01*
X118173847Y-125348218D01*
X118153330Y-125335921D01*
X118134117Y-125321671D01*
X118116393Y-125305607D01*
X118100329Y-125287883D01*
X118086079Y-125268670D01*
X118073782Y-125248153D01*
X118063554Y-125226529D01*
X118055496Y-125204007D01*
X118049684Y-125180803D01*
X118046174Y-125157142D01*
X118045000Y-125133250D01*
X118045000Y-124645750D01*
X118046174Y-124621858D01*
X118049684Y-124598197D01*
X118055496Y-124574993D01*
X118063554Y-124552471D01*
X118073782Y-124530847D01*
X118086079Y-124510330D01*
X118100329Y-124491117D01*
X118116393Y-124473393D01*
X118134117Y-124457329D01*
X118153330Y-124443079D01*
X118173847Y-124430782D01*
X118195471Y-124420554D01*
X118217993Y-124412496D01*
X118241197Y-124406684D01*
X118264858Y-124403174D01*
X118288750Y-124402000D01*
X119201250Y-124402000D01*
X119225142Y-124403174D01*
X119225142Y-124403174D01*
G37*
D12*
X118745000Y-124889500D03*
D11*
G36*
X121257142Y-122528174D02*
G01*
X121280803Y-122531684D01*
X121304007Y-122537496D01*
X121326529Y-122545554D01*
X121348153Y-122555782D01*
X121368670Y-122568079D01*
X121387883Y-122582329D01*
X121405607Y-122598393D01*
X121421671Y-122616117D01*
X121435921Y-122635330D01*
X121448218Y-122655847D01*
X121458446Y-122677471D01*
X121466504Y-122699993D01*
X121472316Y-122723197D01*
X121475826Y-122746858D01*
X121477000Y-122770750D01*
X121477000Y-123258250D01*
X121475826Y-123282142D01*
X121472316Y-123305803D01*
X121466504Y-123329007D01*
X121458446Y-123351529D01*
X121448218Y-123373153D01*
X121435921Y-123393670D01*
X121421671Y-123412883D01*
X121405607Y-123430607D01*
X121387883Y-123446671D01*
X121368670Y-123460921D01*
X121348153Y-123473218D01*
X121326529Y-123483446D01*
X121304007Y-123491504D01*
X121280803Y-123497316D01*
X121257142Y-123500826D01*
X121233250Y-123502000D01*
X120320750Y-123502000D01*
X120296858Y-123500826D01*
X120273197Y-123497316D01*
X120249993Y-123491504D01*
X120227471Y-123483446D01*
X120205847Y-123473218D01*
X120185330Y-123460921D01*
X120166117Y-123446671D01*
X120148393Y-123430607D01*
X120132329Y-123412883D01*
X120118079Y-123393670D01*
X120105782Y-123373153D01*
X120095554Y-123351529D01*
X120087496Y-123329007D01*
X120081684Y-123305803D01*
X120078174Y-123282142D01*
X120077000Y-123258250D01*
X120077000Y-122770750D01*
X120078174Y-122746858D01*
X120081684Y-122723197D01*
X120087496Y-122699993D01*
X120095554Y-122677471D01*
X120105782Y-122655847D01*
X120118079Y-122635330D01*
X120132329Y-122616117D01*
X120148393Y-122598393D01*
X120166117Y-122582329D01*
X120185330Y-122568079D01*
X120205847Y-122555782D01*
X120227471Y-122545554D01*
X120249993Y-122537496D01*
X120273197Y-122531684D01*
X120296858Y-122528174D01*
X120320750Y-122527000D01*
X121233250Y-122527000D01*
X121257142Y-122528174D01*
X121257142Y-122528174D01*
G37*
D12*
X120777000Y-123014500D03*
D11*
G36*
X121257142Y-124403174D02*
G01*
X121280803Y-124406684D01*
X121304007Y-124412496D01*
X121326529Y-124420554D01*
X121348153Y-124430782D01*
X121368670Y-124443079D01*
X121387883Y-124457329D01*
X121405607Y-124473393D01*
X121421671Y-124491117D01*
X121435921Y-124510330D01*
X121448218Y-124530847D01*
X121458446Y-124552471D01*
X121466504Y-124574993D01*
X121472316Y-124598197D01*
X121475826Y-124621858D01*
X121477000Y-124645750D01*
X121477000Y-125133250D01*
X121475826Y-125157142D01*
X121472316Y-125180803D01*
X121466504Y-125204007D01*
X121458446Y-125226529D01*
X121448218Y-125248153D01*
X121435921Y-125268670D01*
X121421671Y-125287883D01*
X121405607Y-125305607D01*
X121387883Y-125321671D01*
X121368670Y-125335921D01*
X121348153Y-125348218D01*
X121326529Y-125358446D01*
X121304007Y-125366504D01*
X121280803Y-125372316D01*
X121257142Y-125375826D01*
X121233250Y-125377000D01*
X120320750Y-125377000D01*
X120296858Y-125375826D01*
X120273197Y-125372316D01*
X120249993Y-125366504D01*
X120227471Y-125358446D01*
X120205847Y-125348218D01*
X120185330Y-125335921D01*
X120166117Y-125321671D01*
X120148393Y-125305607D01*
X120132329Y-125287883D01*
X120118079Y-125268670D01*
X120105782Y-125248153D01*
X120095554Y-125226529D01*
X120087496Y-125204007D01*
X120081684Y-125180803D01*
X120078174Y-125157142D01*
X120077000Y-125133250D01*
X120077000Y-124645750D01*
X120078174Y-124621858D01*
X120081684Y-124598197D01*
X120087496Y-124574993D01*
X120095554Y-124552471D01*
X120105782Y-124530847D01*
X120118079Y-124510330D01*
X120132329Y-124491117D01*
X120148393Y-124473393D01*
X120166117Y-124457329D01*
X120185330Y-124443079D01*
X120205847Y-124430782D01*
X120227471Y-124420554D01*
X120249993Y-124412496D01*
X120273197Y-124406684D01*
X120296858Y-124403174D01*
X120320750Y-124402000D01*
X121233250Y-124402000D01*
X121257142Y-124403174D01*
X121257142Y-124403174D01*
G37*
D12*
X120777000Y-124889500D03*
D13*
X114665760Y-116376160D03*
X114665760Y-114276160D03*
X110642400Y-116376160D03*
X110642400Y-114276160D03*
X112689640Y-116376160D03*
X112689640Y-114276160D03*
X116674392Y-116376160D03*
X116674392Y-114276160D03*
X118685056Y-116376160D03*
X118685056Y-114276160D03*
X120695720Y-116376160D03*
X120695720Y-114276160D03*
D14*
X139460000Y-59135000D03*
X139460000Y-57865000D03*
X140730000Y-59135000D03*
X140730000Y-57865000D03*
X142000000Y-59135000D03*
X142000000Y-57865000D03*
X143270000Y-59135000D03*
X143270000Y-57865000D03*
X144540000Y-59135000D03*
X144540000Y-57865000D03*
D15*
X104890000Y-103545000D03*
X102350000Y-102275000D03*
X104890000Y-101005000D03*
X102350000Y-99735000D03*
X104890000Y-98465000D03*
X102350000Y-97195000D03*
X104890000Y-95925000D03*
X102350000Y-94655000D03*
X104890000Y-93385000D03*
X102350000Y-92115000D03*
X104890000Y-90845000D03*
X102350000Y-89575000D03*
D16*
X110690000Y-118300000D03*
X110690000Y-120800000D03*
X112690000Y-118300000D03*
X112690000Y-120800000D03*
X114690000Y-118300000D03*
X114690000Y-120800000D03*
X116690000Y-118300000D03*
X116690000Y-120800000D03*
X118690000Y-118300000D03*
X118690000Y-120800000D03*
X120690000Y-118300000D03*
X120690000Y-120800000D03*
D15*
X156100000Y-92660000D03*
X156100000Y-95200000D03*
X156100000Y-97740000D03*
X165211000Y-91990000D03*
X167751000Y-93260000D03*
X165211000Y-94530000D03*
X167751000Y-95800000D03*
X165211000Y-97070000D03*
X167751000Y-98340000D03*
D17*
X135300000Y-66100000D03*
X148700000Y-64200000D03*
X146700000Y-69300000D03*
X152800000Y-69400000D03*
X159100000Y-72400000D03*
X150100000Y-85700000D03*
X135255000Y-75552300D03*
X135100000Y-79600000D03*
X118100000Y-69100000D03*
X118006200Y-63303000D03*
X118006200Y-57803000D03*
X113900000Y-60900000D03*
X113900000Y-66400000D03*
X109700000Y-67500000D03*
X109600000Y-61800000D03*
X109700000Y-73000000D03*
X108900000Y-78000000D03*
X109700000Y-83900000D03*
X113900000Y-82900000D03*
X119200000Y-81300000D03*
X162400000Y-93100000D03*
X163700000Y-96300000D03*
X150418800Y-78727300D03*
X149200000Y-76700000D03*
X145900000Y-76200000D03*
X131100000Y-68200000D03*
X138125010Y-67425010D03*
X113900000Y-77400000D03*
X113800000Y-72000000D03*
X149860000Y-88138000D03*
X153924000Y-87376000D03*
X159766000Y-87630000D03*
X148590000Y-91186000D03*
X159004000Y-79502000D03*
X113792000Y-90170000D03*
X118491000Y-90297000D03*
X123190000Y-90297000D03*
X128016000Y-90297000D03*
X132715000Y-90297000D03*
X137414000Y-90297000D03*
X129540000Y-82423000D03*
X151180800Y-117576600D03*
X155244800Y-117602000D03*
X137909300Y-63258700D03*
X141580870Y-67798950D03*
X139791440Y-62260480D03*
X145050000Y-61775000D03*
X148200000Y-81100000D03*
X107900000Y-82100000D03*
X104900000Y-83100000D03*
X146900000Y-82200000D03*
X143360140Y-61544200D03*
X142600000Y-69000000D03*
X142600000Y-64500000D03*
X147100000Y-67500000D03*
X144900000Y-76200000D03*
X128310000Y-75829800D03*
X124383800Y-75692000D03*
X123800000Y-105400000D03*
X117602000Y-94869000D03*
X112776000Y-94869000D03*
X122301000Y-94869000D03*
X127000000Y-94869000D03*
X131699000Y-94869000D03*
X136398000Y-94869000D03*
X125603000Y-102362000D03*
X126619000Y-102362000D03*
X124587000Y-99949000D03*
X124587000Y-101092000D03*
X117602000Y-102489000D03*
X116586000Y-102489000D03*
X115697000Y-101092000D03*
X109601000Y-102362000D03*
X108458000Y-102362000D03*
X140716000Y-106553000D03*
X140716000Y-105537000D03*
X141859000Y-104648000D03*
X143002000Y-104648000D03*
X141732000Y-112522000D03*
X142875000Y-112522000D03*
X140589000Y-113411000D03*
X140589000Y-114427000D03*
X141859000Y-120650000D03*
X142875000Y-120650000D03*
X140589000Y-121412000D03*
X140589000Y-122428000D03*
X129565400Y-122224800D03*
D18*
X105900000Y-82100000D02*
X107900000Y-82100000D01*
X104900000Y-83100000D02*
X105900000Y-82100000D01*
X147100000Y-82200000D02*
X148200000Y-81100000D01*
X146900000Y-82200000D02*
X147100000Y-82200000D01*
X141874280Y-61549280D02*
X139460000Y-59135000D01*
X143238220Y-61549280D02*
X141874280Y-61549280D01*
D19*
X110690000Y-116423760D02*
X110642400Y-116376160D01*
X110690000Y-118300000D02*
X110690000Y-116423760D01*
X112689640Y-118299640D02*
X112690000Y-118300000D01*
X112689640Y-116376160D02*
X112689640Y-118299640D01*
X114690000Y-116400400D02*
X114665760Y-116376160D01*
X114690000Y-118300000D02*
X114690000Y-116400400D01*
X116674392Y-118284392D02*
X116690000Y-118300000D01*
X116674392Y-116376160D02*
X116674392Y-118284392D01*
X118690000Y-116381104D02*
X118685056Y-116376160D01*
X118690000Y-118300000D02*
X118690000Y-116381104D01*
X120695720Y-118294280D02*
X120690000Y-118300000D01*
X120695720Y-116376160D02*
X120695720Y-118294280D01*
D18*
X142600000Y-69000000D02*
X142600000Y-64500000D01*
X142600000Y-64500000D02*
X142600000Y-64500000D01*
X142600000Y-64500000D02*
X142600000Y-64500000D01*
X144900000Y-69700000D02*
X147100000Y-67500000D01*
X144900000Y-76200000D02*
X144900000Y-69700000D01*
X128143000Y-75819000D02*
X124968000Y-75819000D01*
X124968000Y-75819000D02*
X124637800Y-75819000D01*
X124637800Y-75819000D02*
X124510800Y-75819000D01*
X124510800Y-75819000D02*
X124383800Y-75692000D01*
X124383800Y-75692000D02*
X124383800Y-75692000D01*
D20*
X123800000Y-114950000D02*
X126700000Y-117850000D01*
X123800000Y-105400000D02*
X123800000Y-114950000D01*
D21*
X126700000Y-117850000D02*
X126700000Y-121458000D01*
X123268500Y-124889500D02*
X123217700Y-124889500D01*
X126700000Y-121458000D02*
X123268500Y-124889500D01*
X123217700Y-124889500D02*
X122758200Y-125349000D01*
X122758200Y-125349000D02*
X110007400Y-125349000D01*
X126700000Y-117850000D02*
X130900000Y-117850000D01*
X126700000Y-117850000D02*
X122743600Y-113893600D01*
X122743600Y-113893600D02*
X110540800Y-113893600D01*
D19*
X120777000Y-120887000D02*
X120690000Y-120800000D01*
X120777000Y-123014500D02*
X120777000Y-120887000D01*
X118745000Y-120855000D02*
X118690000Y-120800000D01*
X118745000Y-123014500D02*
X118745000Y-120855000D01*
X116690000Y-122991500D02*
X116713000Y-123014500D01*
X116690000Y-120800000D02*
X116690000Y-122991500D01*
X114681000Y-120809000D02*
X114690000Y-120800000D01*
X114681000Y-123014500D02*
X114681000Y-120809000D01*
X112690000Y-122973500D02*
X112649000Y-123014500D01*
X112690000Y-120800000D02*
X112690000Y-122973500D01*
X110690000Y-122941500D02*
X110617000Y-123014500D01*
X110690000Y-120800000D02*
X110690000Y-122941500D01*
D22*
G36*
X165754747Y-50805281D02*
G01*
X166485643Y-51005231D01*
X167169575Y-51331450D01*
X167784928Y-51773626D01*
X168312259Y-52317789D01*
X168734886Y-52946726D01*
X169039463Y-53640570D01*
X169217715Y-54383039D01*
X169265000Y-55026949D01*
X169265001Y-124967258D01*
X169194719Y-125754748D01*
X168994769Y-126485643D01*
X168668550Y-127169575D01*
X168226374Y-127784928D01*
X167682211Y-128312259D01*
X167053274Y-128734886D01*
X166359429Y-129039464D01*
X165616961Y-129217714D01*
X164973051Y-129265000D01*
X146727000Y-129265000D01*
X146727000Y-124729963D01*
X162258266Y-124729963D01*
X162258266Y-125270037D01*
X162363629Y-125799734D01*
X162570307Y-126298698D01*
X162870356Y-126747753D01*
X163252247Y-127129644D01*
X163701302Y-127429693D01*
X164200266Y-127636371D01*
X164729963Y-127741734D01*
X165270037Y-127741734D01*
X165799734Y-127636371D01*
X166298698Y-127429693D01*
X166747753Y-127129644D01*
X167129644Y-126747753D01*
X167429693Y-126298698D01*
X167636371Y-125799734D01*
X167741734Y-125270037D01*
X167741734Y-124729963D01*
X167636371Y-124200266D01*
X167429693Y-123701302D01*
X167129644Y-123252247D01*
X166747753Y-122870356D01*
X166298698Y-122570307D01*
X165799734Y-122363629D01*
X165270037Y-122258266D01*
X164729963Y-122258266D01*
X164200266Y-122363629D01*
X163701302Y-122570307D01*
X163252247Y-122870356D01*
X162870356Y-123252247D01*
X162570307Y-123701302D01*
X162363629Y-124200266D01*
X162258266Y-124729963D01*
X146727000Y-124729963D01*
X146727000Y-114729963D01*
X162258266Y-114729963D01*
X162258266Y-115270037D01*
X162363629Y-115799734D01*
X162570307Y-116298698D01*
X162870356Y-116747753D01*
X163252247Y-117129644D01*
X163701302Y-117429693D01*
X164200266Y-117636371D01*
X164729963Y-117741734D01*
X165270037Y-117741734D01*
X165799734Y-117636371D01*
X166298698Y-117429693D01*
X166747753Y-117129644D01*
X167129644Y-116747753D01*
X167429693Y-116298698D01*
X167636371Y-115799734D01*
X167741734Y-115270037D01*
X167741734Y-114729963D01*
X167636371Y-114200266D01*
X167429693Y-113701302D01*
X167129644Y-113252247D01*
X166747753Y-112870356D01*
X166298698Y-112570307D01*
X165799734Y-112363629D01*
X165270037Y-112258266D01*
X164729963Y-112258266D01*
X164200266Y-112363629D01*
X163701302Y-112570307D01*
X163252247Y-112870356D01*
X162870356Y-113252247D01*
X162570307Y-113701302D01*
X162363629Y-114200266D01*
X162258266Y-114729963D01*
X146727000Y-114729963D01*
X146727000Y-97602408D01*
X154703000Y-97602408D01*
X154703000Y-97877592D01*
X154756686Y-98147490D01*
X154861995Y-98401727D01*
X155014880Y-98630535D01*
X155209465Y-98825120D01*
X155438273Y-98978005D01*
X155692510Y-99083314D01*
X155962408Y-99137000D01*
X156237592Y-99137000D01*
X156507490Y-99083314D01*
X156761727Y-98978005D01*
X156990535Y-98825120D01*
X157185120Y-98630535D01*
X157338005Y-98401727D01*
X157443314Y-98147490D01*
X157497000Y-97877592D01*
X157497000Y-97602408D01*
X157443314Y-97332510D01*
X157338005Y-97078273D01*
X157185120Y-96849465D01*
X156990535Y-96654880D01*
X156761727Y-96501995D01*
X156690057Y-96472308D01*
X156703023Y-96467636D01*
X156818980Y-96405656D01*
X156885960Y-96165565D01*
X156100000Y-95379605D01*
X155314040Y-96165565D01*
X155381020Y-96405656D01*
X155516760Y-96469485D01*
X155438273Y-96501995D01*
X155209465Y-96654880D01*
X155014880Y-96849465D01*
X154861995Y-97078273D01*
X154756686Y-97332510D01*
X154703000Y-97602408D01*
X146727000Y-97602408D01*
X146727000Y-95272017D01*
X154698090Y-95272017D01*
X154739078Y-95544133D01*
X154832364Y-95803023D01*
X154894344Y-95918980D01*
X155134435Y-95985960D01*
X155920395Y-95200000D01*
X156279605Y-95200000D01*
X157065565Y-95985960D01*
X157305656Y-95918980D01*
X157422756Y-95669952D01*
X157489023Y-95402865D01*
X157501910Y-95127983D01*
X157460922Y-94855867D01*
X157367636Y-94596977D01*
X157305656Y-94481020D01*
X157065565Y-94414040D01*
X156279605Y-95200000D01*
X155920395Y-95200000D01*
X155134435Y-94414040D01*
X154894344Y-94481020D01*
X154777244Y-94730048D01*
X154710977Y-94997135D01*
X154698090Y-95272017D01*
X146727000Y-95272017D01*
X146727000Y-92522408D01*
X154703000Y-92522408D01*
X154703000Y-92797592D01*
X154756686Y-93067490D01*
X154861995Y-93321727D01*
X155014880Y-93550535D01*
X155209465Y-93745120D01*
X155438273Y-93898005D01*
X155509943Y-93927692D01*
X155496977Y-93932364D01*
X155381020Y-93994344D01*
X155314040Y-94234435D01*
X156100000Y-95020395D01*
X156885960Y-94234435D01*
X156818980Y-93994344D01*
X156683240Y-93930515D01*
X156761727Y-93898005D01*
X156990535Y-93745120D01*
X157185120Y-93550535D01*
X157338005Y-93321727D01*
X157443314Y-93067490D01*
X157497000Y-92797592D01*
X157497000Y-92522408D01*
X157443314Y-92252510D01*
X157338005Y-91998273D01*
X157240541Y-91852408D01*
X163814000Y-91852408D01*
X163814000Y-92127592D01*
X163867686Y-92397490D01*
X163972995Y-92651727D01*
X164125880Y-92880535D01*
X164320465Y-93075120D01*
X164549273Y-93228005D01*
X164626515Y-93260000D01*
X164549273Y-93291995D01*
X164320465Y-93444880D01*
X164125880Y-93639465D01*
X163972995Y-93868273D01*
X163867686Y-94122510D01*
X163814000Y-94392408D01*
X163814000Y-94667592D01*
X163867686Y-94937490D01*
X163972995Y-95191727D01*
X164125880Y-95420535D01*
X164320465Y-95615120D01*
X164549273Y-95768005D01*
X164626515Y-95800000D01*
X164549273Y-95831995D01*
X164320465Y-95984880D01*
X164125880Y-96179465D01*
X163972995Y-96408273D01*
X163867686Y-96662510D01*
X163814000Y-96932408D01*
X163814000Y-97207592D01*
X163867686Y-97477490D01*
X163972995Y-97731727D01*
X164125880Y-97960535D01*
X164320465Y-98155120D01*
X164549273Y-98308005D01*
X164803510Y-98413314D01*
X165073408Y-98467000D01*
X165348592Y-98467000D01*
X165457336Y-98445369D01*
X165294957Y-98512629D01*
X165068114Y-98664201D01*
X164875201Y-98857114D01*
X164723629Y-99083957D01*
X164619225Y-99336011D01*
X164566000Y-99603589D01*
X164566000Y-99876411D01*
X164619225Y-100143989D01*
X164723629Y-100396043D01*
X164875201Y-100622886D01*
X165068114Y-100815799D01*
X165294957Y-100967371D01*
X165547011Y-101071775D01*
X165814589Y-101125000D01*
X166087411Y-101125000D01*
X166354989Y-101071775D01*
X166607043Y-100967371D01*
X166833886Y-100815799D01*
X167026799Y-100622886D01*
X167178371Y-100396043D01*
X167282775Y-100143989D01*
X167336000Y-99876411D01*
X167336000Y-99680203D01*
X167343510Y-99683314D01*
X167613408Y-99737000D01*
X167888592Y-99737000D01*
X168158490Y-99683314D01*
X168412727Y-99578005D01*
X168641535Y-99425120D01*
X168836120Y-99230535D01*
X168989005Y-99001727D01*
X169094314Y-98747490D01*
X169148000Y-98477592D01*
X169148000Y-98202408D01*
X169094314Y-97932510D01*
X168989005Y-97678273D01*
X168836120Y-97449465D01*
X168641535Y-97254880D01*
X168412727Y-97101995D01*
X168335485Y-97070000D01*
X168412727Y-97038005D01*
X168641535Y-96885120D01*
X168836120Y-96690535D01*
X168989005Y-96461727D01*
X169094314Y-96207490D01*
X169148000Y-95937592D01*
X169148000Y-95662408D01*
X169094314Y-95392510D01*
X168989005Y-95138273D01*
X168836120Y-94909465D01*
X168641535Y-94714880D01*
X168412727Y-94561995D01*
X168341057Y-94532308D01*
X168354023Y-94527636D01*
X168469980Y-94465656D01*
X168536960Y-94225565D01*
X167751000Y-93439605D01*
X166965040Y-94225565D01*
X167032020Y-94465656D01*
X167167760Y-94529485D01*
X167089273Y-94561995D01*
X166860465Y-94714880D01*
X166665880Y-94909465D01*
X166512995Y-95138273D01*
X166407686Y-95392510D01*
X166354000Y-95662408D01*
X166354000Y-95937592D01*
X166407686Y-96207490D01*
X166512995Y-96461727D01*
X166665880Y-96690535D01*
X166860465Y-96885120D01*
X167089273Y-97038005D01*
X167166515Y-97070000D01*
X167089273Y-97101995D01*
X166860465Y-97254880D01*
X166665880Y-97449465D01*
X166512995Y-97678273D01*
X166407686Y-97932510D01*
X166354000Y-98202408D01*
X166354000Y-98408028D01*
X166087411Y-98355000D01*
X165814589Y-98355000D01*
X165708165Y-98376169D01*
X165872727Y-98308005D01*
X166101535Y-98155120D01*
X166296120Y-97960535D01*
X166449005Y-97731727D01*
X166554314Y-97477490D01*
X166608000Y-97207592D01*
X166608000Y-96932408D01*
X166554314Y-96662510D01*
X166449005Y-96408273D01*
X166296120Y-96179465D01*
X166101535Y-95984880D01*
X165872727Y-95831995D01*
X165795485Y-95800000D01*
X165872727Y-95768005D01*
X166101535Y-95615120D01*
X166296120Y-95420535D01*
X166449005Y-95191727D01*
X166554314Y-94937490D01*
X166608000Y-94667592D01*
X166608000Y-94392408D01*
X166554314Y-94122510D01*
X166449005Y-93868273D01*
X166296120Y-93639465D01*
X166101535Y-93444880D01*
X165932625Y-93332017D01*
X166349090Y-93332017D01*
X166390078Y-93604133D01*
X166483364Y-93863023D01*
X166545344Y-93978980D01*
X166785435Y-94045960D01*
X167571395Y-93260000D01*
X167930605Y-93260000D01*
X168716565Y-94045960D01*
X168956656Y-93978980D01*
X169073756Y-93729952D01*
X169140023Y-93462865D01*
X169152910Y-93187983D01*
X169111922Y-92915867D01*
X169018636Y-92656977D01*
X168956656Y-92541020D01*
X168716565Y-92474040D01*
X167930605Y-93260000D01*
X167571395Y-93260000D01*
X166785435Y-92474040D01*
X166545344Y-92541020D01*
X166428244Y-92790048D01*
X166361977Y-93057135D01*
X166349090Y-93332017D01*
X165932625Y-93332017D01*
X165872727Y-93291995D01*
X165795485Y-93260000D01*
X165872727Y-93228005D01*
X166101535Y-93075120D01*
X166296120Y-92880535D01*
X166449005Y-92651727D01*
X166554314Y-92397490D01*
X166574812Y-92294435D01*
X166965040Y-92294435D01*
X167751000Y-93080395D01*
X168536960Y-92294435D01*
X168469980Y-92054344D01*
X168220952Y-91937244D01*
X167953865Y-91870977D01*
X167678983Y-91858090D01*
X167406867Y-91899078D01*
X167147977Y-91992364D01*
X167032020Y-92054344D01*
X166965040Y-92294435D01*
X166574812Y-92294435D01*
X166608000Y-92127592D01*
X166608000Y-91852408D01*
X166554314Y-91582510D01*
X166449005Y-91328273D01*
X166296120Y-91099465D01*
X166101535Y-90904880D01*
X165872727Y-90751995D01*
X165618490Y-90646686D01*
X165348592Y-90593000D01*
X165073408Y-90593000D01*
X164803510Y-90646686D01*
X164549273Y-90751995D01*
X164320465Y-90904880D01*
X164125880Y-91099465D01*
X163972995Y-91328273D01*
X163867686Y-91582510D01*
X163814000Y-91852408D01*
X157240541Y-91852408D01*
X157185120Y-91769465D01*
X156990535Y-91574880D01*
X156761727Y-91421995D01*
X156507490Y-91316686D01*
X156237592Y-91263000D01*
X155962408Y-91263000D01*
X155692510Y-91316686D01*
X155438273Y-91421995D01*
X155209465Y-91574880D01*
X155014880Y-91769465D01*
X154861995Y-91998273D01*
X154756686Y-92252510D01*
X154703000Y-92522408D01*
X146727000Y-92522408D01*
X146727000Y-92000000D01*
X146724560Y-91975224D01*
X146717333Y-91951399D01*
X146705597Y-91929443D01*
X146689803Y-91910197D01*
X146670557Y-91894403D01*
X146648601Y-91882667D01*
X146624776Y-91875440D01*
X146600000Y-91873000D01*
X107000000Y-91873000D01*
X106975224Y-91875440D01*
X106951399Y-91882667D01*
X106929443Y-91894403D01*
X106910197Y-91910197D01*
X106894403Y-91929443D01*
X106882667Y-91951399D01*
X106875440Y-91975224D01*
X106873000Y-92000000D01*
X106873000Y-112995603D01*
X106747753Y-112870356D01*
X106298698Y-112570307D01*
X105799734Y-112363629D01*
X105270037Y-112258266D01*
X104729963Y-112258266D01*
X104200266Y-112363629D01*
X103701302Y-112570307D01*
X103252247Y-112870356D01*
X102870356Y-113252247D01*
X102570307Y-113701302D01*
X102363629Y-114200266D01*
X102258266Y-114729963D01*
X102258266Y-115270037D01*
X102363629Y-115799734D01*
X102570307Y-116298698D01*
X102870356Y-116747753D01*
X103252247Y-117129644D01*
X103701302Y-117429693D01*
X104200266Y-117636371D01*
X104729963Y-117741734D01*
X105270037Y-117741734D01*
X105799734Y-117636371D01*
X106298698Y-117429693D01*
X106747753Y-117129644D01*
X106873000Y-117004397D01*
X106873000Y-122995603D01*
X106747753Y-122870356D01*
X106298698Y-122570307D01*
X105799734Y-122363629D01*
X105270037Y-122258266D01*
X104729963Y-122258266D01*
X104200266Y-122363629D01*
X103701302Y-122570307D01*
X103252247Y-122870356D01*
X102870356Y-123252247D01*
X102570307Y-123701302D01*
X102363629Y-124200266D01*
X102258266Y-124729963D01*
X102258266Y-125270037D01*
X102363629Y-125799734D01*
X102570307Y-126298698D01*
X102870356Y-126747753D01*
X103252247Y-127129644D01*
X103701302Y-127429693D01*
X104200266Y-127636371D01*
X104729963Y-127741734D01*
X105270037Y-127741734D01*
X105799734Y-127636371D01*
X106298698Y-127429693D01*
X106747753Y-127129644D01*
X106873000Y-127004397D01*
X106873000Y-129265000D01*
X105032719Y-129265000D01*
X104245251Y-129194720D01*
X103514356Y-128994770D01*
X102830424Y-128668551D01*
X102215068Y-128226373D01*
X101687743Y-127682214D01*
X101265110Y-127053270D01*
X100960537Y-126359432D01*
X100782286Y-125616961D01*
X100735000Y-124973051D01*
X100735000Y-104510565D01*
X104104040Y-104510565D01*
X104171020Y-104750656D01*
X104420048Y-104867756D01*
X104687135Y-104934023D01*
X104962017Y-104946910D01*
X105234133Y-104905922D01*
X105493023Y-104812636D01*
X105608980Y-104750656D01*
X105675960Y-104510565D01*
X104890000Y-103724605D01*
X104104040Y-104510565D01*
X100735000Y-104510565D01*
X100735000Y-89437408D01*
X100953000Y-89437408D01*
X100953000Y-89712592D01*
X101006686Y-89982490D01*
X101111995Y-90236727D01*
X101264880Y-90465535D01*
X101459465Y-90660120D01*
X101688273Y-90813005D01*
X101765515Y-90845000D01*
X101688273Y-90876995D01*
X101459465Y-91029880D01*
X101264880Y-91224465D01*
X101111995Y-91453273D01*
X101006686Y-91707510D01*
X100953000Y-91977408D01*
X100953000Y-92252592D01*
X101006686Y-92522490D01*
X101111995Y-92776727D01*
X101264880Y-93005535D01*
X101459465Y-93200120D01*
X101688273Y-93353005D01*
X101765515Y-93385000D01*
X101688273Y-93416995D01*
X101459465Y-93569880D01*
X101264880Y-93764465D01*
X101111995Y-93993273D01*
X101006686Y-94247510D01*
X100953000Y-94517408D01*
X100953000Y-94792592D01*
X101006686Y-95062490D01*
X101111995Y-95316727D01*
X101264880Y-95545535D01*
X101459465Y-95740120D01*
X101688273Y-95893005D01*
X101765515Y-95925000D01*
X101688273Y-95956995D01*
X101459465Y-96109880D01*
X101264880Y-96304465D01*
X101111995Y-96533273D01*
X101006686Y-96787510D01*
X100953000Y-97057408D01*
X100953000Y-97332592D01*
X101006686Y-97602490D01*
X101111995Y-97856727D01*
X101264880Y-98085535D01*
X101459465Y-98280120D01*
X101688273Y-98433005D01*
X101765515Y-98465000D01*
X101688273Y-98496995D01*
X101459465Y-98649880D01*
X101264880Y-98844465D01*
X101111995Y-99073273D01*
X101006686Y-99327510D01*
X100953000Y-99597408D01*
X100953000Y-99872592D01*
X101006686Y-100142490D01*
X101111995Y-100396727D01*
X101264880Y-100625535D01*
X101459465Y-100820120D01*
X101688273Y-100973005D01*
X101765515Y-101005000D01*
X101688273Y-101036995D01*
X101459465Y-101189880D01*
X101264880Y-101384465D01*
X101111995Y-101613273D01*
X101006686Y-101867510D01*
X100953000Y-102137408D01*
X100953000Y-102412592D01*
X101006686Y-102682490D01*
X101111995Y-102936727D01*
X101264880Y-103165535D01*
X101459465Y-103360120D01*
X101688273Y-103513005D01*
X101942510Y-103618314D01*
X102212408Y-103672000D01*
X102487592Y-103672000D01*
X102757490Y-103618314D01*
X102760621Y-103617017D01*
X103488090Y-103617017D01*
X103529078Y-103889133D01*
X103622364Y-104148023D01*
X103684344Y-104263980D01*
X103924435Y-104330960D01*
X104710395Y-103545000D01*
X105069605Y-103545000D01*
X105855565Y-104330960D01*
X106095656Y-104263980D01*
X106212756Y-104014952D01*
X106279023Y-103747865D01*
X106291910Y-103472983D01*
X106250922Y-103200867D01*
X106157636Y-102941977D01*
X106095656Y-102826020D01*
X105855565Y-102759040D01*
X105069605Y-103545000D01*
X104710395Y-103545000D01*
X103924435Y-102759040D01*
X103684344Y-102826020D01*
X103567244Y-103075048D01*
X103500977Y-103342135D01*
X103488090Y-103617017D01*
X102760621Y-103617017D01*
X103011727Y-103513005D01*
X103240535Y-103360120D01*
X103435120Y-103165535D01*
X103588005Y-102936727D01*
X103693314Y-102682490D01*
X103747000Y-102412592D01*
X103747000Y-102137408D01*
X103693314Y-101867510D01*
X103588005Y-101613273D01*
X103435120Y-101384465D01*
X103240535Y-101189880D01*
X103011727Y-101036995D01*
X102934485Y-101005000D01*
X103011727Y-100973005D01*
X103240535Y-100820120D01*
X103435120Y-100625535D01*
X103588005Y-100396727D01*
X103693314Y-100142490D01*
X103747000Y-99872592D01*
X103747000Y-99597408D01*
X103693314Y-99327510D01*
X103588005Y-99073273D01*
X103435120Y-98844465D01*
X103240535Y-98649880D01*
X103011727Y-98496995D01*
X102934485Y-98465000D01*
X103011727Y-98433005D01*
X103240535Y-98280120D01*
X103435120Y-98085535D01*
X103588005Y-97856727D01*
X103693314Y-97602490D01*
X103747000Y-97332592D01*
X103747000Y-97057408D01*
X103693314Y-96787510D01*
X103588005Y-96533273D01*
X103435120Y-96304465D01*
X103240535Y-96109880D01*
X103011727Y-95956995D01*
X102934485Y-95925000D01*
X103011727Y-95893005D01*
X103240535Y-95740120D01*
X103435120Y-95545535D01*
X103588005Y-95316727D01*
X103693314Y-95062490D01*
X103747000Y-94792592D01*
X103747000Y-94517408D01*
X103693314Y-94247510D01*
X103588005Y-93993273D01*
X103435120Y-93764465D01*
X103240535Y-93569880D01*
X103011727Y-93416995D01*
X102934485Y-93385000D01*
X103011727Y-93353005D01*
X103240535Y-93200120D01*
X103435120Y-93005535D01*
X103588005Y-92776727D01*
X103693314Y-92522490D01*
X103747000Y-92252592D01*
X103747000Y-91977408D01*
X103693314Y-91707510D01*
X103588005Y-91453273D01*
X103435120Y-91224465D01*
X103240535Y-91029880D01*
X103011727Y-90876995D01*
X102934485Y-90845000D01*
X103011727Y-90813005D01*
X103240535Y-90660120D01*
X103435120Y-90465535D01*
X103588005Y-90236727D01*
X103693314Y-89982490D01*
X103747000Y-89712592D01*
X103747000Y-89506972D01*
X104013589Y-89560000D01*
X104286411Y-89560000D01*
X104392835Y-89538831D01*
X104228273Y-89606995D01*
X103999465Y-89759880D01*
X103804880Y-89954465D01*
X103651995Y-90183273D01*
X103546686Y-90437510D01*
X103493000Y-90707408D01*
X103493000Y-90982592D01*
X103546686Y-91252490D01*
X103651995Y-91506727D01*
X103804880Y-91735535D01*
X103999465Y-91930120D01*
X104228273Y-92083005D01*
X104305515Y-92115000D01*
X104228273Y-92146995D01*
X103999465Y-92299880D01*
X103804880Y-92494465D01*
X103651995Y-92723273D01*
X103546686Y-92977510D01*
X103493000Y-93247408D01*
X103493000Y-93522592D01*
X103546686Y-93792490D01*
X103651995Y-94046727D01*
X103804880Y-94275535D01*
X103999465Y-94470120D01*
X104228273Y-94623005D01*
X104305515Y-94655000D01*
X104228273Y-94686995D01*
X103999465Y-94839880D01*
X103804880Y-95034465D01*
X103651995Y-95263273D01*
X103546686Y-95517510D01*
X103493000Y-95787408D01*
X103493000Y-96062592D01*
X103546686Y-96332490D01*
X103651995Y-96586727D01*
X103804880Y-96815535D01*
X103999465Y-97010120D01*
X104228273Y-97163005D01*
X104305515Y-97195000D01*
X104228273Y-97226995D01*
X103999465Y-97379880D01*
X103804880Y-97574465D01*
X103651995Y-97803273D01*
X103546686Y-98057510D01*
X103493000Y-98327408D01*
X103493000Y-98602592D01*
X103546686Y-98872490D01*
X103651995Y-99126727D01*
X103804880Y-99355535D01*
X103999465Y-99550120D01*
X104228273Y-99703005D01*
X104305515Y-99735000D01*
X104228273Y-99766995D01*
X103999465Y-99919880D01*
X103804880Y-100114465D01*
X103651995Y-100343273D01*
X103546686Y-100597510D01*
X103493000Y-100867408D01*
X103493000Y-101142592D01*
X103546686Y-101412490D01*
X103651995Y-101666727D01*
X103804880Y-101895535D01*
X103999465Y-102090120D01*
X104228273Y-102243005D01*
X104299943Y-102272692D01*
X104286977Y-102277364D01*
X104171020Y-102339344D01*
X104104040Y-102579435D01*
X104890000Y-103365395D01*
X105675960Y-102579435D01*
X105608980Y-102339344D01*
X105473240Y-102275515D01*
X105551727Y-102243005D01*
X105780535Y-102090120D01*
X105975120Y-101895535D01*
X106128005Y-101666727D01*
X106233314Y-101412490D01*
X106287000Y-101142592D01*
X106287000Y-100867408D01*
X106233314Y-100597510D01*
X106128005Y-100343273D01*
X105975120Y-100114465D01*
X105780535Y-99919880D01*
X105551727Y-99766995D01*
X105474485Y-99735000D01*
X105551727Y-99703005D01*
X105780535Y-99550120D01*
X105975120Y-99355535D01*
X106128005Y-99126727D01*
X106233314Y-98872490D01*
X106287000Y-98602592D01*
X106287000Y-98327408D01*
X106233314Y-98057510D01*
X106128005Y-97803273D01*
X105975120Y-97574465D01*
X105780535Y-97379880D01*
X105551727Y-97226995D01*
X105474485Y-97195000D01*
X105551727Y-97163005D01*
X105780535Y-97010120D01*
X105975120Y-96815535D01*
X106128005Y-96586727D01*
X106233314Y-96332490D01*
X106287000Y-96062592D01*
X106287000Y-95787408D01*
X106233314Y-95517510D01*
X106128005Y-95263273D01*
X105975120Y-95034465D01*
X105780535Y-94839880D01*
X105551727Y-94686995D01*
X105474485Y-94655000D01*
X105551727Y-94623005D01*
X105780535Y-94470120D01*
X105975120Y-94275535D01*
X106128005Y-94046727D01*
X106233314Y-93792490D01*
X106287000Y-93522592D01*
X106287000Y-93247408D01*
X106233314Y-92977510D01*
X106128005Y-92723273D01*
X105975120Y-92494465D01*
X105780535Y-92299880D01*
X105551727Y-92146995D01*
X105474485Y-92115000D01*
X105551727Y-92083005D01*
X105780535Y-91930120D01*
X105975120Y-91735535D01*
X106128005Y-91506727D01*
X106233314Y-91252490D01*
X106287000Y-90982592D01*
X106287000Y-90707408D01*
X106233314Y-90437510D01*
X106128005Y-90183273D01*
X105975120Y-89954465D01*
X105780535Y-89759880D01*
X105551727Y-89606995D01*
X105297490Y-89501686D01*
X105027592Y-89448000D01*
X104752408Y-89448000D01*
X104643664Y-89469631D01*
X104806043Y-89402371D01*
X105032886Y-89250799D01*
X105225799Y-89057886D01*
X105377371Y-88831043D01*
X105481775Y-88578989D01*
X105535000Y-88311411D01*
X105535000Y-88038589D01*
X105481775Y-87771011D01*
X105377371Y-87518957D01*
X105225799Y-87292114D01*
X105032886Y-87099201D01*
X104806043Y-86947629D01*
X104553989Y-86843225D01*
X104286411Y-86790000D01*
X104013589Y-86790000D01*
X103746011Y-86843225D01*
X103493957Y-86947629D01*
X103267114Y-87099201D01*
X103074201Y-87292114D01*
X102922629Y-87518957D01*
X102818225Y-87771011D01*
X102765000Y-88038589D01*
X102765000Y-88234797D01*
X102757490Y-88231686D01*
X102487592Y-88178000D01*
X102212408Y-88178000D01*
X101942510Y-88231686D01*
X101688273Y-88336995D01*
X101459465Y-88489880D01*
X101264880Y-88684465D01*
X101111995Y-88913273D01*
X101006686Y-89167510D01*
X100953000Y-89437408D01*
X100735000Y-89437408D01*
X100735000Y-82998061D01*
X103865000Y-82998061D01*
X103865000Y-83201939D01*
X103904774Y-83401898D01*
X103982795Y-83590256D01*
X104096063Y-83759774D01*
X104240226Y-83903937D01*
X104409744Y-84017205D01*
X104598102Y-84095226D01*
X104798061Y-84135000D01*
X105001939Y-84135000D01*
X105201898Y-84095226D01*
X105390256Y-84017205D01*
X105559774Y-83903937D01*
X105703937Y-83759774D01*
X105817205Y-83590256D01*
X105895226Y-83401898D01*
X105935000Y-83201939D01*
X105935000Y-83139801D01*
X106214802Y-82860000D01*
X107196289Y-82860000D01*
X107240226Y-82903937D01*
X107409744Y-83017205D01*
X107598102Y-83095226D01*
X107798061Y-83135000D01*
X108001939Y-83135000D01*
X108201898Y-83095226D01*
X108390256Y-83017205D01*
X108559774Y-82903937D01*
X108703937Y-82759774D01*
X108817205Y-82590256D01*
X108895226Y-82401898D01*
X108935000Y-82201939D01*
X108935000Y-82098061D01*
X145865000Y-82098061D01*
X145865000Y-82301939D01*
X145904774Y-82501898D01*
X145982795Y-82690256D01*
X146096063Y-82859774D01*
X146240226Y-83003937D01*
X146409744Y-83117205D01*
X146598102Y-83195226D01*
X146798061Y-83235000D01*
X147001939Y-83235000D01*
X147201898Y-83195226D01*
X147390256Y-83117205D01*
X147559774Y-83003937D01*
X147703937Y-82859774D01*
X147817205Y-82690256D01*
X147895226Y-82501898D01*
X147900769Y-82474033D01*
X148239802Y-82135000D01*
X148301939Y-82135000D01*
X148501898Y-82095226D01*
X148690256Y-82017205D01*
X148859774Y-81903937D01*
X149003937Y-81759774D01*
X149117205Y-81590256D01*
X149195226Y-81401898D01*
X149235000Y-81201939D01*
X149235000Y-80998061D01*
X149195226Y-80798102D01*
X149117205Y-80609744D01*
X149003937Y-80440226D01*
X148859774Y-80296063D01*
X148690256Y-80182795D01*
X148501898Y-80104774D01*
X148301939Y-80065000D01*
X148098061Y-80065000D01*
X147898102Y-80104774D01*
X147709744Y-80182795D01*
X147540226Y-80296063D01*
X147396063Y-80440226D01*
X147282795Y-80609744D01*
X147204774Y-80798102D01*
X147165000Y-80998061D01*
X147165000Y-81060198D01*
X147050533Y-81174666D01*
X147001939Y-81165000D01*
X146798061Y-81165000D01*
X146598102Y-81204774D01*
X146409744Y-81282795D01*
X146240226Y-81396063D01*
X146096063Y-81540226D01*
X145982795Y-81709744D01*
X145904774Y-81898102D01*
X145865000Y-82098061D01*
X108935000Y-82098061D01*
X108935000Y-81998061D01*
X108895226Y-81798102D01*
X108817205Y-81609744D01*
X108703937Y-81440226D01*
X108559774Y-81296063D01*
X108390256Y-81182795D01*
X108201898Y-81104774D01*
X108001939Y-81065000D01*
X107798061Y-81065000D01*
X107598102Y-81104774D01*
X107409744Y-81182795D01*
X107240226Y-81296063D01*
X107196289Y-81340000D01*
X105937333Y-81340000D01*
X105900000Y-81336323D01*
X105862667Y-81340000D01*
X105751014Y-81350997D01*
X105607753Y-81394454D01*
X105475724Y-81465026D01*
X105359999Y-81559999D01*
X105336201Y-81588997D01*
X104860199Y-82065000D01*
X104798061Y-82065000D01*
X104598102Y-82104774D01*
X104409744Y-82182795D01*
X104240226Y-82296063D01*
X104096063Y-82440226D01*
X103982795Y-82609744D01*
X103904774Y-82798102D01*
X103865000Y-82998061D01*
X100735000Y-82998061D01*
X100735000Y-75590061D01*
X123348800Y-75590061D01*
X123348800Y-75793939D01*
X123388574Y-75993898D01*
X123466595Y-76182256D01*
X123579863Y-76351774D01*
X123724026Y-76495937D01*
X123893544Y-76609205D01*
X124081902Y-76687226D01*
X124281861Y-76727000D01*
X124485739Y-76727000D01*
X124685698Y-76687226D01*
X124874056Y-76609205D01*
X124919261Y-76579000D01*
X127595489Y-76579000D01*
X127650226Y-76633737D01*
X127819744Y-76747005D01*
X128008102Y-76825026D01*
X128208061Y-76864800D01*
X128411939Y-76864800D01*
X128611898Y-76825026D01*
X128800256Y-76747005D01*
X128969774Y-76633737D01*
X129113937Y-76489574D01*
X129227205Y-76320056D01*
X129305226Y-76131698D01*
X129311916Y-76098061D01*
X143865000Y-76098061D01*
X143865000Y-76301939D01*
X143904774Y-76501898D01*
X143982795Y-76690256D01*
X144096063Y-76859774D01*
X144240226Y-77003937D01*
X144409744Y-77117205D01*
X144598102Y-77195226D01*
X144798061Y-77235000D01*
X145001939Y-77235000D01*
X145201898Y-77195226D01*
X145390256Y-77117205D01*
X145559774Y-77003937D01*
X145703937Y-76859774D01*
X145817205Y-76690256D01*
X145895226Y-76501898D01*
X145935000Y-76301939D01*
X145935000Y-76098061D01*
X145895226Y-75898102D01*
X145817205Y-75709744D01*
X145703937Y-75540226D01*
X145660000Y-75496289D01*
X145660000Y-70014801D01*
X147139802Y-68535000D01*
X147201939Y-68535000D01*
X147401898Y-68495226D01*
X147590256Y-68417205D01*
X147759774Y-68303937D01*
X147903937Y-68159774D01*
X148017205Y-67990256D01*
X148095226Y-67801898D01*
X148135000Y-67601939D01*
X148135000Y-67398061D01*
X148095226Y-67198102D01*
X148017205Y-67009744D01*
X147903937Y-66840226D01*
X147759774Y-66696063D01*
X147590256Y-66582795D01*
X147401898Y-66504774D01*
X147201939Y-66465000D01*
X146998061Y-66465000D01*
X146798102Y-66504774D01*
X146609744Y-66582795D01*
X146440226Y-66696063D01*
X146296063Y-66840226D01*
X146182795Y-67009744D01*
X146104774Y-67198102D01*
X146065000Y-67398061D01*
X146065000Y-67460198D01*
X144388998Y-69136201D01*
X144360000Y-69159999D01*
X144336202Y-69188997D01*
X144336201Y-69188998D01*
X144265026Y-69275724D01*
X144194454Y-69407754D01*
X144150998Y-69551015D01*
X144136324Y-69700000D01*
X144140001Y-69737332D01*
X144140000Y-75496289D01*
X144096063Y-75540226D01*
X143982795Y-75709744D01*
X143904774Y-75898102D01*
X143865000Y-76098061D01*
X129311916Y-76098061D01*
X129345000Y-75931739D01*
X129345000Y-75727861D01*
X129305226Y-75527902D01*
X129227205Y-75339544D01*
X129113937Y-75170026D01*
X128969774Y-75025863D01*
X128800256Y-74912595D01*
X128611898Y-74834574D01*
X128411939Y-74794800D01*
X128208061Y-74794800D01*
X128008102Y-74834574D01*
X127819744Y-74912595D01*
X127650226Y-75025863D01*
X127617089Y-75059000D01*
X125205627Y-75059000D01*
X125187737Y-75032226D01*
X125043574Y-74888063D01*
X124874056Y-74774795D01*
X124685698Y-74696774D01*
X124485739Y-74657000D01*
X124281861Y-74657000D01*
X124081902Y-74696774D01*
X123893544Y-74774795D01*
X123724026Y-74888063D01*
X123579863Y-75032226D01*
X123466595Y-75201744D01*
X123388574Y-75390102D01*
X123348800Y-75590061D01*
X100735000Y-75590061D01*
X100735000Y-64398061D01*
X141565000Y-64398061D01*
X141565000Y-64601939D01*
X141604774Y-64801898D01*
X141682795Y-64990256D01*
X141796063Y-65159774D01*
X141840001Y-65203712D01*
X141840000Y-68296289D01*
X141796063Y-68340226D01*
X141682795Y-68509744D01*
X141604774Y-68698102D01*
X141565000Y-68898061D01*
X141565000Y-69101939D01*
X141604774Y-69301898D01*
X141682795Y-69490256D01*
X141796063Y-69659774D01*
X141940226Y-69803937D01*
X142109744Y-69917205D01*
X142298102Y-69995226D01*
X142498061Y-70035000D01*
X142701939Y-70035000D01*
X142901898Y-69995226D01*
X143090256Y-69917205D01*
X143259774Y-69803937D01*
X143403937Y-69659774D01*
X143517205Y-69490256D01*
X143595226Y-69301898D01*
X143635000Y-69101939D01*
X143635000Y-68898061D01*
X143595226Y-68698102D01*
X143517205Y-68509744D01*
X143403937Y-68340226D01*
X143360000Y-68296289D01*
X143360000Y-65203711D01*
X143403937Y-65159774D01*
X143517205Y-64990256D01*
X143595226Y-64801898D01*
X143635000Y-64601939D01*
X143635000Y-64398061D01*
X143595226Y-64198102D01*
X143517205Y-64009744D01*
X143403937Y-63840226D01*
X143259774Y-63696063D01*
X143090256Y-63582795D01*
X142901898Y-63504774D01*
X142701939Y-63465000D01*
X142498061Y-63465000D01*
X142298102Y-63504774D01*
X142109744Y-63582795D01*
X141940226Y-63696063D01*
X141796063Y-63840226D01*
X141682795Y-64009744D01*
X141604774Y-64198102D01*
X141565000Y-64398061D01*
X100735000Y-64398061D01*
X100735000Y-57947406D01*
X138322489Y-57947406D01*
X138360423Y-58167740D01*
X138440613Y-58376440D01*
X138468412Y-58428450D01*
X138557280Y-58443070D01*
X138454176Y-58597376D01*
X138368617Y-58803933D01*
X138325000Y-59023212D01*
X138325000Y-59246788D01*
X138368617Y-59466067D01*
X138454176Y-59672624D01*
X138578388Y-59858520D01*
X138736480Y-60016612D01*
X138922376Y-60140824D01*
X139128933Y-60226383D01*
X139348212Y-60270000D01*
X139520199Y-60270000D01*
X141310481Y-62060283D01*
X141334279Y-62089281D01*
X141363277Y-62113079D01*
X141450004Y-62184254D01*
X141582033Y-62254826D01*
X141725294Y-62298283D01*
X141874280Y-62312957D01*
X141911613Y-62309280D01*
X142661509Y-62309280D01*
X142700366Y-62348137D01*
X142869884Y-62461405D01*
X143058242Y-62539426D01*
X143258201Y-62579200D01*
X143462079Y-62579200D01*
X143662038Y-62539426D01*
X143850396Y-62461405D01*
X144019914Y-62348137D01*
X144164077Y-62203974D01*
X144277345Y-62034456D01*
X144355366Y-61846098D01*
X144395140Y-61646139D01*
X144395140Y-61442261D01*
X144355366Y-61242302D01*
X144277345Y-61053944D01*
X144164077Y-60884426D01*
X144019914Y-60740263D01*
X143850396Y-60626995D01*
X143662038Y-60548974D01*
X143462079Y-60509200D01*
X143258201Y-60509200D01*
X143058242Y-60548974D01*
X142869884Y-60626995D01*
X142700366Y-60740263D01*
X142651349Y-60789280D01*
X142189082Y-60789280D01*
X141595957Y-60196155D01*
X141668933Y-60226383D01*
X141888212Y-60270000D01*
X142111788Y-60270000D01*
X142331067Y-60226383D01*
X142537624Y-60140824D01*
X142635000Y-60075759D01*
X142732376Y-60140824D01*
X142938933Y-60226383D01*
X143158212Y-60270000D01*
X143381788Y-60270000D01*
X143601067Y-60226383D01*
X143807624Y-60140824D01*
X143905000Y-60075759D01*
X144002376Y-60140824D01*
X144208933Y-60226383D01*
X144428212Y-60270000D01*
X144651788Y-60270000D01*
X144871067Y-60226383D01*
X145077624Y-60140824D01*
X145263520Y-60016612D01*
X145421612Y-59858520D01*
X145545824Y-59672624D01*
X145631383Y-59466067D01*
X145675000Y-59246788D01*
X145675000Y-59023212D01*
X145631383Y-58803933D01*
X145545824Y-58597376D01*
X145480759Y-58500000D01*
X145545824Y-58402624D01*
X145631383Y-58196067D01*
X145675000Y-57976788D01*
X145675000Y-57753212D01*
X145631383Y-57533933D01*
X145545824Y-57327376D01*
X145421612Y-57141480D01*
X145263520Y-56983388D01*
X145077624Y-56859176D01*
X144871067Y-56773617D01*
X144651788Y-56730000D01*
X144428212Y-56730000D01*
X144208933Y-56773617D01*
X144002376Y-56859176D01*
X143848070Y-56962280D01*
X143833450Y-56873412D01*
X143629174Y-56782542D01*
X143411095Y-56733269D01*
X143187594Y-56727489D01*
X142967260Y-56765423D01*
X142758560Y-56845613D01*
X142706550Y-56873412D01*
X142685790Y-56999602D01*
X142635000Y-57050392D01*
X142584210Y-56999602D01*
X142563450Y-56873412D01*
X142359174Y-56782542D01*
X142141095Y-56733269D01*
X141917594Y-56727489D01*
X141697260Y-56765423D01*
X141488560Y-56845613D01*
X141436550Y-56873412D01*
X141421930Y-56962280D01*
X141267624Y-56859176D01*
X141061067Y-56773617D01*
X140841788Y-56730000D01*
X140618212Y-56730000D01*
X140398933Y-56773617D01*
X140192376Y-56859176D01*
X140038070Y-56962280D01*
X140023450Y-56873412D01*
X139819174Y-56782542D01*
X139601095Y-56733269D01*
X139377594Y-56727489D01*
X139157260Y-56765423D01*
X138948560Y-56845613D01*
X138896550Y-56873412D01*
X138861439Y-57086834D01*
X139460000Y-57685395D01*
X139474143Y-57671253D01*
X139595000Y-57792110D01*
X139595000Y-57937890D01*
X139532890Y-58000000D01*
X139387110Y-58000000D01*
X139266253Y-57879143D01*
X139280395Y-57865000D01*
X138681834Y-57266439D01*
X138468412Y-57301550D01*
X138377542Y-57505826D01*
X138328269Y-57723905D01*
X138322489Y-57947406D01*
X100735000Y-57947406D01*
X100735000Y-55032731D01*
X100762021Y-54729963D01*
X102258266Y-54729963D01*
X102258266Y-55270037D01*
X102363629Y-55799734D01*
X102570307Y-56298698D01*
X102870356Y-56747753D01*
X103252247Y-57129644D01*
X103701302Y-57429693D01*
X104200266Y-57636371D01*
X104729963Y-57741734D01*
X105270037Y-57741734D01*
X105799734Y-57636371D01*
X106298698Y-57429693D01*
X106747753Y-57129644D01*
X107129644Y-56747753D01*
X107429693Y-56298698D01*
X107636371Y-55799734D01*
X107741734Y-55270037D01*
X107741734Y-54729963D01*
X109258266Y-54729963D01*
X109258266Y-55270037D01*
X109363629Y-55799734D01*
X109570307Y-56298698D01*
X109870356Y-56747753D01*
X110252247Y-57129644D01*
X110701302Y-57429693D01*
X111200266Y-57636371D01*
X111729963Y-57741734D01*
X112270037Y-57741734D01*
X112799734Y-57636371D01*
X113298698Y-57429693D01*
X113747753Y-57129644D01*
X114129644Y-56747753D01*
X114429693Y-56298698D01*
X114636371Y-55799734D01*
X114741734Y-55270037D01*
X114741734Y-54729963D01*
X155258266Y-54729963D01*
X155258266Y-55270037D01*
X155363629Y-55799734D01*
X155570307Y-56298698D01*
X155870356Y-56747753D01*
X156252247Y-57129644D01*
X156701302Y-57429693D01*
X157200266Y-57636371D01*
X157729963Y-57741734D01*
X158270037Y-57741734D01*
X158799734Y-57636371D01*
X159298698Y-57429693D01*
X159747753Y-57129644D01*
X160129644Y-56747753D01*
X160429693Y-56298698D01*
X160636371Y-55799734D01*
X160741734Y-55270037D01*
X160741734Y-54729963D01*
X162258266Y-54729963D01*
X162258266Y-55270037D01*
X162363629Y-55799734D01*
X162570307Y-56298698D01*
X162870356Y-56747753D01*
X163252247Y-57129644D01*
X163701302Y-57429693D01*
X164200266Y-57636371D01*
X164729963Y-57741734D01*
X165270037Y-57741734D01*
X165799734Y-57636371D01*
X166298698Y-57429693D01*
X166747753Y-57129644D01*
X167129644Y-56747753D01*
X167429693Y-56298698D01*
X167636371Y-55799734D01*
X167741734Y-55270037D01*
X167741734Y-54729963D01*
X167636371Y-54200266D01*
X167429693Y-53701302D01*
X167129644Y-53252247D01*
X166747753Y-52870356D01*
X166298698Y-52570307D01*
X165799734Y-52363629D01*
X165270037Y-52258266D01*
X164729963Y-52258266D01*
X164200266Y-52363629D01*
X163701302Y-52570307D01*
X163252247Y-52870356D01*
X162870356Y-53252247D01*
X162570307Y-53701302D01*
X162363629Y-54200266D01*
X162258266Y-54729963D01*
X160741734Y-54729963D01*
X160636371Y-54200266D01*
X160429693Y-53701302D01*
X160129644Y-53252247D01*
X159747753Y-52870356D01*
X159298698Y-52570307D01*
X158799734Y-52363629D01*
X158270037Y-52258266D01*
X157729963Y-52258266D01*
X157200266Y-52363629D01*
X156701302Y-52570307D01*
X156252247Y-52870356D01*
X155870356Y-53252247D01*
X155570307Y-53701302D01*
X155363629Y-54200266D01*
X155258266Y-54729963D01*
X114741734Y-54729963D01*
X114636371Y-54200266D01*
X114429693Y-53701302D01*
X114129644Y-53252247D01*
X113747753Y-52870356D01*
X113298698Y-52570307D01*
X112799734Y-52363629D01*
X112270037Y-52258266D01*
X111729963Y-52258266D01*
X111200266Y-52363629D01*
X110701302Y-52570307D01*
X110252247Y-52870356D01*
X109870356Y-53252247D01*
X109570307Y-53701302D01*
X109363629Y-54200266D01*
X109258266Y-54729963D01*
X107741734Y-54729963D01*
X107636371Y-54200266D01*
X107429693Y-53701302D01*
X107129644Y-53252247D01*
X106747753Y-52870356D01*
X106298698Y-52570307D01*
X105799734Y-52363629D01*
X105270037Y-52258266D01*
X104729963Y-52258266D01*
X104200266Y-52363629D01*
X103701302Y-52570307D01*
X103252247Y-52870356D01*
X102870356Y-53252247D01*
X102570307Y-53701302D01*
X102363629Y-54200266D01*
X102258266Y-54729963D01*
X100762021Y-54729963D01*
X100805281Y-54245253D01*
X101005231Y-53514357D01*
X101331450Y-52830425D01*
X101773626Y-52215072D01*
X102317789Y-51687741D01*
X102946726Y-51265114D01*
X103640570Y-50960537D01*
X104383039Y-50782285D01*
X105026949Y-50735000D01*
X164967269Y-50735000D01*
X165754747Y-50805281D01*
X165754747Y-50805281D01*
G37*
X165754747Y-50805281D02*
X166485643Y-51005231D01*
X167169575Y-51331450D01*
X167784928Y-51773626D01*
X168312259Y-52317789D01*
X168734886Y-52946726D01*
X169039463Y-53640570D01*
X169217715Y-54383039D01*
X169265000Y-55026949D01*
X169265001Y-124967258D01*
X169194719Y-125754748D01*
X168994769Y-126485643D01*
X168668550Y-127169575D01*
X168226374Y-127784928D01*
X167682211Y-128312259D01*
X167053274Y-128734886D01*
X166359429Y-129039464D01*
X165616961Y-129217714D01*
X164973051Y-129265000D01*
X146727000Y-129265000D01*
X146727000Y-124729963D01*
X162258266Y-124729963D01*
X162258266Y-125270037D01*
X162363629Y-125799734D01*
X162570307Y-126298698D01*
X162870356Y-126747753D01*
X163252247Y-127129644D01*
X163701302Y-127429693D01*
X164200266Y-127636371D01*
X164729963Y-127741734D01*
X165270037Y-127741734D01*
X165799734Y-127636371D01*
X166298698Y-127429693D01*
X166747753Y-127129644D01*
X167129644Y-126747753D01*
X167429693Y-126298698D01*
X167636371Y-125799734D01*
X167741734Y-125270037D01*
X167741734Y-124729963D01*
X167636371Y-124200266D01*
X167429693Y-123701302D01*
X167129644Y-123252247D01*
X166747753Y-122870356D01*
X166298698Y-122570307D01*
X165799734Y-122363629D01*
X165270037Y-122258266D01*
X164729963Y-122258266D01*
X164200266Y-122363629D01*
X163701302Y-122570307D01*
X163252247Y-122870356D01*
X162870356Y-123252247D01*
X162570307Y-123701302D01*
X162363629Y-124200266D01*
X162258266Y-124729963D01*
X146727000Y-124729963D01*
X146727000Y-114729963D01*
X162258266Y-114729963D01*
X162258266Y-115270037D01*
X162363629Y-115799734D01*
X162570307Y-116298698D01*
X162870356Y-116747753D01*
X163252247Y-117129644D01*
X163701302Y-117429693D01*
X164200266Y-117636371D01*
X164729963Y-117741734D01*
X165270037Y-117741734D01*
X165799734Y-117636371D01*
X166298698Y-117429693D01*
X166747753Y-117129644D01*
X167129644Y-116747753D01*
X167429693Y-116298698D01*
X167636371Y-115799734D01*
X167741734Y-115270037D01*
X167741734Y-114729963D01*
X167636371Y-114200266D01*
X167429693Y-113701302D01*
X167129644Y-113252247D01*
X166747753Y-112870356D01*
X166298698Y-112570307D01*
X165799734Y-112363629D01*
X165270037Y-112258266D01*
X164729963Y-112258266D01*
X164200266Y-112363629D01*
X163701302Y-112570307D01*
X163252247Y-112870356D01*
X162870356Y-113252247D01*
X162570307Y-113701302D01*
X162363629Y-114200266D01*
X162258266Y-114729963D01*
X146727000Y-114729963D01*
X146727000Y-97602408D01*
X154703000Y-97602408D01*
X154703000Y-97877592D01*
X154756686Y-98147490D01*
X154861995Y-98401727D01*
X155014880Y-98630535D01*
X155209465Y-98825120D01*
X155438273Y-98978005D01*
X155692510Y-99083314D01*
X155962408Y-99137000D01*
X156237592Y-99137000D01*
X156507490Y-99083314D01*
X156761727Y-98978005D01*
X156990535Y-98825120D01*
X157185120Y-98630535D01*
X157338005Y-98401727D01*
X157443314Y-98147490D01*
X157497000Y-97877592D01*
X157497000Y-97602408D01*
X157443314Y-97332510D01*
X157338005Y-97078273D01*
X157185120Y-96849465D01*
X156990535Y-96654880D01*
X156761727Y-96501995D01*
X156690057Y-96472308D01*
X156703023Y-96467636D01*
X156818980Y-96405656D01*
X156885960Y-96165565D01*
X156100000Y-95379605D01*
X155314040Y-96165565D01*
X155381020Y-96405656D01*
X155516760Y-96469485D01*
X155438273Y-96501995D01*
X155209465Y-96654880D01*
X155014880Y-96849465D01*
X154861995Y-97078273D01*
X154756686Y-97332510D01*
X154703000Y-97602408D01*
X146727000Y-97602408D01*
X146727000Y-95272017D01*
X154698090Y-95272017D01*
X154739078Y-95544133D01*
X154832364Y-95803023D01*
X154894344Y-95918980D01*
X155134435Y-95985960D01*
X155920395Y-95200000D01*
X156279605Y-95200000D01*
X157065565Y-95985960D01*
X157305656Y-95918980D01*
X157422756Y-95669952D01*
X157489023Y-95402865D01*
X157501910Y-95127983D01*
X157460922Y-94855867D01*
X157367636Y-94596977D01*
X157305656Y-94481020D01*
X157065565Y-94414040D01*
X156279605Y-95200000D01*
X155920395Y-95200000D01*
X155134435Y-94414040D01*
X154894344Y-94481020D01*
X154777244Y-94730048D01*
X154710977Y-94997135D01*
X154698090Y-95272017D01*
X146727000Y-95272017D01*
X146727000Y-92522408D01*
X154703000Y-92522408D01*
X154703000Y-92797592D01*
X154756686Y-93067490D01*
X154861995Y-93321727D01*
X155014880Y-93550535D01*
X155209465Y-93745120D01*
X155438273Y-93898005D01*
X155509943Y-93927692D01*
X155496977Y-93932364D01*
X155381020Y-93994344D01*
X155314040Y-94234435D01*
X156100000Y-95020395D01*
X156885960Y-94234435D01*
X156818980Y-93994344D01*
X156683240Y-93930515D01*
X156761727Y-93898005D01*
X156990535Y-93745120D01*
X157185120Y-93550535D01*
X157338005Y-93321727D01*
X157443314Y-93067490D01*
X157497000Y-92797592D01*
X157497000Y-92522408D01*
X157443314Y-92252510D01*
X157338005Y-91998273D01*
X157240541Y-91852408D01*
X163814000Y-91852408D01*
X163814000Y-92127592D01*
X163867686Y-92397490D01*
X163972995Y-92651727D01*
X164125880Y-92880535D01*
X164320465Y-93075120D01*
X164549273Y-93228005D01*
X164626515Y-93260000D01*
X164549273Y-93291995D01*
X164320465Y-93444880D01*
X164125880Y-93639465D01*
X163972995Y-93868273D01*
X163867686Y-94122510D01*
X163814000Y-94392408D01*
X163814000Y-94667592D01*
X163867686Y-94937490D01*
X163972995Y-95191727D01*
X164125880Y-95420535D01*
X164320465Y-95615120D01*
X164549273Y-95768005D01*
X164626515Y-95800000D01*
X164549273Y-95831995D01*
X164320465Y-95984880D01*
X164125880Y-96179465D01*
X163972995Y-96408273D01*
X163867686Y-96662510D01*
X163814000Y-96932408D01*
X163814000Y-97207592D01*
X163867686Y-97477490D01*
X163972995Y-97731727D01*
X164125880Y-97960535D01*
X164320465Y-98155120D01*
X164549273Y-98308005D01*
X164803510Y-98413314D01*
X165073408Y-98467000D01*
X165348592Y-98467000D01*
X165457336Y-98445369D01*
X165294957Y-98512629D01*
X165068114Y-98664201D01*
X164875201Y-98857114D01*
X164723629Y-99083957D01*
X164619225Y-99336011D01*
X164566000Y-99603589D01*
X164566000Y-99876411D01*
X164619225Y-100143989D01*
X164723629Y-100396043D01*
X164875201Y-100622886D01*
X165068114Y-100815799D01*
X165294957Y-100967371D01*
X165547011Y-101071775D01*
X165814589Y-101125000D01*
X166087411Y-101125000D01*
X166354989Y-101071775D01*
X166607043Y-100967371D01*
X166833886Y-100815799D01*
X167026799Y-100622886D01*
X167178371Y-100396043D01*
X167282775Y-100143989D01*
X167336000Y-99876411D01*
X167336000Y-99680203D01*
X167343510Y-99683314D01*
X167613408Y-99737000D01*
X167888592Y-99737000D01*
X168158490Y-99683314D01*
X168412727Y-99578005D01*
X168641535Y-99425120D01*
X168836120Y-99230535D01*
X168989005Y-99001727D01*
X169094314Y-98747490D01*
X169148000Y-98477592D01*
X169148000Y-98202408D01*
X169094314Y-97932510D01*
X168989005Y-97678273D01*
X168836120Y-97449465D01*
X168641535Y-97254880D01*
X168412727Y-97101995D01*
X168335485Y-97070000D01*
X168412727Y-97038005D01*
X168641535Y-96885120D01*
X168836120Y-96690535D01*
X168989005Y-96461727D01*
X169094314Y-96207490D01*
X169148000Y-95937592D01*
X169148000Y-95662408D01*
X169094314Y-95392510D01*
X168989005Y-95138273D01*
X168836120Y-94909465D01*
X168641535Y-94714880D01*
X168412727Y-94561995D01*
X168341057Y-94532308D01*
X168354023Y-94527636D01*
X168469980Y-94465656D01*
X168536960Y-94225565D01*
X167751000Y-93439605D01*
X166965040Y-94225565D01*
X167032020Y-94465656D01*
X167167760Y-94529485D01*
X167089273Y-94561995D01*
X166860465Y-94714880D01*
X166665880Y-94909465D01*
X166512995Y-95138273D01*
X166407686Y-95392510D01*
X166354000Y-95662408D01*
X166354000Y-95937592D01*
X166407686Y-96207490D01*
X166512995Y-96461727D01*
X166665880Y-96690535D01*
X166860465Y-96885120D01*
X167089273Y-97038005D01*
X167166515Y-97070000D01*
X167089273Y-97101995D01*
X166860465Y-97254880D01*
X166665880Y-97449465D01*
X166512995Y-97678273D01*
X166407686Y-97932510D01*
X166354000Y-98202408D01*
X166354000Y-98408028D01*
X166087411Y-98355000D01*
X165814589Y-98355000D01*
X165708165Y-98376169D01*
X165872727Y-98308005D01*
X166101535Y-98155120D01*
X166296120Y-97960535D01*
X166449005Y-97731727D01*
X166554314Y-97477490D01*
X166608000Y-97207592D01*
X166608000Y-96932408D01*
X166554314Y-96662510D01*
X166449005Y-96408273D01*
X166296120Y-96179465D01*
X166101535Y-95984880D01*
X165872727Y-95831995D01*
X165795485Y-95800000D01*
X165872727Y-95768005D01*
X166101535Y-95615120D01*
X166296120Y-95420535D01*
X166449005Y-95191727D01*
X166554314Y-94937490D01*
X166608000Y-94667592D01*
X166608000Y-94392408D01*
X166554314Y-94122510D01*
X166449005Y-93868273D01*
X166296120Y-93639465D01*
X166101535Y-93444880D01*
X165932625Y-93332017D01*
X166349090Y-93332017D01*
X166390078Y-93604133D01*
X166483364Y-93863023D01*
X166545344Y-93978980D01*
X166785435Y-94045960D01*
X167571395Y-93260000D01*
X167930605Y-93260000D01*
X168716565Y-94045960D01*
X168956656Y-93978980D01*
X169073756Y-93729952D01*
X169140023Y-93462865D01*
X169152910Y-93187983D01*
X169111922Y-92915867D01*
X169018636Y-92656977D01*
X168956656Y-92541020D01*
X168716565Y-92474040D01*
X167930605Y-93260000D01*
X167571395Y-93260000D01*
X166785435Y-92474040D01*
X166545344Y-92541020D01*
X166428244Y-92790048D01*
X166361977Y-93057135D01*
X166349090Y-93332017D01*
X165932625Y-93332017D01*
X165872727Y-93291995D01*
X165795485Y-93260000D01*
X165872727Y-93228005D01*
X166101535Y-93075120D01*
X166296120Y-92880535D01*
X166449005Y-92651727D01*
X166554314Y-92397490D01*
X166574812Y-92294435D01*
X166965040Y-92294435D01*
X167751000Y-93080395D01*
X168536960Y-92294435D01*
X168469980Y-92054344D01*
X168220952Y-91937244D01*
X167953865Y-91870977D01*
X167678983Y-91858090D01*
X167406867Y-91899078D01*
X167147977Y-91992364D01*
X167032020Y-92054344D01*
X166965040Y-92294435D01*
X166574812Y-92294435D01*
X166608000Y-92127592D01*
X166608000Y-91852408D01*
X166554314Y-91582510D01*
X166449005Y-91328273D01*
X166296120Y-91099465D01*
X166101535Y-90904880D01*
X165872727Y-90751995D01*
X165618490Y-90646686D01*
X165348592Y-90593000D01*
X165073408Y-90593000D01*
X164803510Y-90646686D01*
X164549273Y-90751995D01*
X164320465Y-90904880D01*
X164125880Y-91099465D01*
X163972995Y-91328273D01*
X163867686Y-91582510D01*
X163814000Y-91852408D01*
X157240541Y-91852408D01*
X157185120Y-91769465D01*
X156990535Y-91574880D01*
X156761727Y-91421995D01*
X156507490Y-91316686D01*
X156237592Y-91263000D01*
X155962408Y-91263000D01*
X155692510Y-91316686D01*
X155438273Y-91421995D01*
X155209465Y-91574880D01*
X155014880Y-91769465D01*
X154861995Y-91998273D01*
X154756686Y-92252510D01*
X154703000Y-92522408D01*
X146727000Y-92522408D01*
X146727000Y-92000000D01*
X146724560Y-91975224D01*
X146717333Y-91951399D01*
X146705597Y-91929443D01*
X146689803Y-91910197D01*
X146670557Y-91894403D01*
X146648601Y-91882667D01*
X146624776Y-91875440D01*
X146600000Y-91873000D01*
X107000000Y-91873000D01*
X106975224Y-91875440D01*
X106951399Y-91882667D01*
X106929443Y-91894403D01*
X106910197Y-91910197D01*
X106894403Y-91929443D01*
X106882667Y-91951399D01*
X106875440Y-91975224D01*
X106873000Y-92000000D01*
X106873000Y-112995603D01*
X106747753Y-112870356D01*
X106298698Y-112570307D01*
X105799734Y-112363629D01*
X105270037Y-112258266D01*
X104729963Y-112258266D01*
X104200266Y-112363629D01*
X103701302Y-112570307D01*
X103252247Y-112870356D01*
X102870356Y-113252247D01*
X102570307Y-113701302D01*
X102363629Y-114200266D01*
X102258266Y-114729963D01*
X102258266Y-115270037D01*
X102363629Y-115799734D01*
X102570307Y-116298698D01*
X102870356Y-116747753D01*
X103252247Y-117129644D01*
X103701302Y-117429693D01*
X104200266Y-117636371D01*
X104729963Y-117741734D01*
X105270037Y-117741734D01*
X105799734Y-117636371D01*
X106298698Y-117429693D01*
X106747753Y-117129644D01*
X106873000Y-117004397D01*
X106873000Y-122995603D01*
X106747753Y-122870356D01*
X106298698Y-122570307D01*
X105799734Y-122363629D01*
X105270037Y-122258266D01*
X104729963Y-122258266D01*
X104200266Y-122363629D01*
X103701302Y-122570307D01*
X103252247Y-122870356D01*
X102870356Y-123252247D01*
X102570307Y-123701302D01*
X102363629Y-124200266D01*
X102258266Y-124729963D01*
X102258266Y-125270037D01*
X102363629Y-125799734D01*
X102570307Y-126298698D01*
X102870356Y-126747753D01*
X103252247Y-127129644D01*
X103701302Y-127429693D01*
X104200266Y-127636371D01*
X104729963Y-127741734D01*
X105270037Y-127741734D01*
X105799734Y-127636371D01*
X106298698Y-127429693D01*
X106747753Y-127129644D01*
X106873000Y-127004397D01*
X106873000Y-129265000D01*
X105032719Y-129265000D01*
X104245251Y-129194720D01*
X103514356Y-128994770D01*
X102830424Y-128668551D01*
X102215068Y-128226373D01*
X101687743Y-127682214D01*
X101265110Y-127053270D01*
X100960537Y-126359432D01*
X100782286Y-125616961D01*
X100735000Y-124973051D01*
X100735000Y-104510565D01*
X104104040Y-104510565D01*
X104171020Y-104750656D01*
X104420048Y-104867756D01*
X104687135Y-104934023D01*
X104962017Y-104946910D01*
X105234133Y-104905922D01*
X105493023Y-104812636D01*
X105608980Y-104750656D01*
X105675960Y-104510565D01*
X104890000Y-103724605D01*
X104104040Y-104510565D01*
X100735000Y-104510565D01*
X100735000Y-89437408D01*
X100953000Y-89437408D01*
X100953000Y-89712592D01*
X101006686Y-89982490D01*
X101111995Y-90236727D01*
X101264880Y-90465535D01*
X101459465Y-90660120D01*
X101688273Y-90813005D01*
X101765515Y-90845000D01*
X101688273Y-90876995D01*
X101459465Y-91029880D01*
X101264880Y-91224465D01*
X101111995Y-91453273D01*
X101006686Y-91707510D01*
X100953000Y-91977408D01*
X100953000Y-92252592D01*
X101006686Y-92522490D01*
X101111995Y-92776727D01*
X101264880Y-93005535D01*
X101459465Y-93200120D01*
X101688273Y-93353005D01*
X101765515Y-93385000D01*
X101688273Y-93416995D01*
X101459465Y-93569880D01*
X101264880Y-93764465D01*
X101111995Y-93993273D01*
X101006686Y-94247510D01*
X100953000Y-94517408D01*
X100953000Y-94792592D01*
X101006686Y-95062490D01*
X101111995Y-95316727D01*
X101264880Y-95545535D01*
X101459465Y-95740120D01*
X101688273Y-95893005D01*
X101765515Y-95925000D01*
X101688273Y-95956995D01*
X101459465Y-96109880D01*
X101264880Y-96304465D01*
X101111995Y-96533273D01*
X101006686Y-96787510D01*
X100953000Y-97057408D01*
X100953000Y-97332592D01*
X101006686Y-97602490D01*
X101111995Y-97856727D01*
X101264880Y-98085535D01*
X101459465Y-98280120D01*
X101688273Y-98433005D01*
X101765515Y-98465000D01*
X101688273Y-98496995D01*
X101459465Y-98649880D01*
X101264880Y-98844465D01*
X101111995Y-99073273D01*
X101006686Y-99327510D01*
X100953000Y-99597408D01*
X100953000Y-99872592D01*
X101006686Y-100142490D01*
X101111995Y-100396727D01*
X101264880Y-100625535D01*
X101459465Y-100820120D01*
X101688273Y-100973005D01*
X101765515Y-101005000D01*
X101688273Y-101036995D01*
X101459465Y-101189880D01*
X101264880Y-101384465D01*
X101111995Y-101613273D01*
X101006686Y-101867510D01*
X100953000Y-102137408D01*
X100953000Y-102412592D01*
X101006686Y-102682490D01*
X101111995Y-102936727D01*
X101264880Y-103165535D01*
X101459465Y-103360120D01*
X101688273Y-103513005D01*
X101942510Y-103618314D01*
X102212408Y-103672000D01*
X102487592Y-103672000D01*
X102757490Y-103618314D01*
X102760621Y-103617017D01*
X103488090Y-103617017D01*
X103529078Y-103889133D01*
X103622364Y-104148023D01*
X103684344Y-104263980D01*
X103924435Y-104330960D01*
X104710395Y-103545000D01*
X105069605Y-103545000D01*
X105855565Y-104330960D01*
X106095656Y-104263980D01*
X106212756Y-104014952D01*
X106279023Y-103747865D01*
X106291910Y-103472983D01*
X106250922Y-103200867D01*
X106157636Y-102941977D01*
X106095656Y-102826020D01*
X105855565Y-102759040D01*
X105069605Y-103545000D01*
X104710395Y-103545000D01*
X103924435Y-102759040D01*
X103684344Y-102826020D01*
X103567244Y-103075048D01*
X103500977Y-103342135D01*
X103488090Y-103617017D01*
X102760621Y-103617017D01*
X103011727Y-103513005D01*
X103240535Y-103360120D01*
X103435120Y-103165535D01*
X103588005Y-102936727D01*
X103693314Y-102682490D01*
X103747000Y-102412592D01*
X103747000Y-102137408D01*
X103693314Y-101867510D01*
X103588005Y-101613273D01*
X103435120Y-101384465D01*
X103240535Y-101189880D01*
X103011727Y-101036995D01*
X102934485Y-101005000D01*
X103011727Y-100973005D01*
X103240535Y-100820120D01*
X103435120Y-100625535D01*
X103588005Y-100396727D01*
X103693314Y-100142490D01*
X103747000Y-99872592D01*
X103747000Y-99597408D01*
X103693314Y-99327510D01*
X103588005Y-99073273D01*
X103435120Y-98844465D01*
X103240535Y-98649880D01*
X103011727Y-98496995D01*
X102934485Y-98465000D01*
X103011727Y-98433005D01*
X103240535Y-98280120D01*
X103435120Y-98085535D01*
X103588005Y-97856727D01*
X103693314Y-97602490D01*
X103747000Y-97332592D01*
X103747000Y-97057408D01*
X103693314Y-96787510D01*
X103588005Y-96533273D01*
X103435120Y-96304465D01*
X103240535Y-96109880D01*
X103011727Y-95956995D01*
X102934485Y-95925000D01*
X103011727Y-95893005D01*
X103240535Y-95740120D01*
X103435120Y-95545535D01*
X103588005Y-95316727D01*
X103693314Y-95062490D01*
X103747000Y-94792592D01*
X103747000Y-94517408D01*
X103693314Y-94247510D01*
X103588005Y-93993273D01*
X103435120Y-93764465D01*
X103240535Y-93569880D01*
X103011727Y-93416995D01*
X102934485Y-93385000D01*
X103011727Y-93353005D01*
X103240535Y-93200120D01*
X103435120Y-93005535D01*
X103588005Y-92776727D01*
X103693314Y-92522490D01*
X103747000Y-92252592D01*
X103747000Y-91977408D01*
X103693314Y-91707510D01*
X103588005Y-91453273D01*
X103435120Y-91224465D01*
X103240535Y-91029880D01*
X103011727Y-90876995D01*
X102934485Y-90845000D01*
X103011727Y-90813005D01*
X103240535Y-90660120D01*
X103435120Y-90465535D01*
X103588005Y-90236727D01*
X103693314Y-89982490D01*
X103747000Y-89712592D01*
X103747000Y-89506972D01*
X104013589Y-89560000D01*
X104286411Y-89560000D01*
X104392835Y-89538831D01*
X104228273Y-89606995D01*
X103999465Y-89759880D01*
X103804880Y-89954465D01*
X103651995Y-90183273D01*
X103546686Y-90437510D01*
X103493000Y-90707408D01*
X103493000Y-90982592D01*
X103546686Y-91252490D01*
X103651995Y-91506727D01*
X103804880Y-91735535D01*
X103999465Y-91930120D01*
X104228273Y-92083005D01*
X104305515Y-92115000D01*
X104228273Y-92146995D01*
X103999465Y-92299880D01*
X103804880Y-92494465D01*
X103651995Y-92723273D01*
X103546686Y-92977510D01*
X103493000Y-93247408D01*
X103493000Y-93522592D01*
X103546686Y-93792490D01*
X103651995Y-94046727D01*
X103804880Y-94275535D01*
X103999465Y-94470120D01*
X104228273Y-94623005D01*
X104305515Y-94655000D01*
X104228273Y-94686995D01*
X103999465Y-94839880D01*
X103804880Y-95034465D01*
X103651995Y-95263273D01*
X103546686Y-95517510D01*
X103493000Y-95787408D01*
X103493000Y-96062592D01*
X103546686Y-96332490D01*
X103651995Y-96586727D01*
X103804880Y-96815535D01*
X103999465Y-97010120D01*
X104228273Y-97163005D01*
X104305515Y-97195000D01*
X104228273Y-97226995D01*
X103999465Y-97379880D01*
X103804880Y-97574465D01*
X103651995Y-97803273D01*
X103546686Y-98057510D01*
X103493000Y-98327408D01*
X103493000Y-98602592D01*
X103546686Y-98872490D01*
X103651995Y-99126727D01*
X103804880Y-99355535D01*
X103999465Y-99550120D01*
X104228273Y-99703005D01*
X104305515Y-99735000D01*
X104228273Y-99766995D01*
X103999465Y-99919880D01*
X103804880Y-100114465D01*
X103651995Y-100343273D01*
X103546686Y-100597510D01*
X103493000Y-100867408D01*
X103493000Y-101142592D01*
X103546686Y-101412490D01*
X103651995Y-101666727D01*
X103804880Y-101895535D01*
X103999465Y-102090120D01*
X104228273Y-102243005D01*
X104299943Y-102272692D01*
X104286977Y-102277364D01*
X104171020Y-102339344D01*
X104104040Y-102579435D01*
X104890000Y-103365395D01*
X105675960Y-102579435D01*
X105608980Y-102339344D01*
X105473240Y-102275515D01*
X105551727Y-102243005D01*
X105780535Y-102090120D01*
X105975120Y-101895535D01*
X106128005Y-101666727D01*
X106233314Y-101412490D01*
X106287000Y-101142592D01*
X106287000Y-100867408D01*
X106233314Y-100597510D01*
X106128005Y-100343273D01*
X105975120Y-100114465D01*
X105780535Y-99919880D01*
X105551727Y-99766995D01*
X105474485Y-99735000D01*
X105551727Y-99703005D01*
X105780535Y-99550120D01*
X105975120Y-99355535D01*
X106128005Y-99126727D01*
X106233314Y-98872490D01*
X106287000Y-98602592D01*
X106287000Y-98327408D01*
X106233314Y-98057510D01*
X106128005Y-97803273D01*
X105975120Y-97574465D01*
X105780535Y-97379880D01*
X105551727Y-97226995D01*
X105474485Y-97195000D01*
X105551727Y-97163005D01*
X105780535Y-97010120D01*
X105975120Y-96815535D01*
X106128005Y-96586727D01*
X106233314Y-96332490D01*
X106287000Y-96062592D01*
X106287000Y-95787408D01*
X106233314Y-95517510D01*
X106128005Y-95263273D01*
X105975120Y-95034465D01*
X105780535Y-94839880D01*
X105551727Y-94686995D01*
X105474485Y-94655000D01*
X105551727Y-94623005D01*
X105780535Y-94470120D01*
X105975120Y-94275535D01*
X106128005Y-94046727D01*
X106233314Y-93792490D01*
X106287000Y-93522592D01*
X106287000Y-93247408D01*
X106233314Y-92977510D01*
X106128005Y-92723273D01*
X105975120Y-92494465D01*
X105780535Y-92299880D01*
X105551727Y-92146995D01*
X105474485Y-92115000D01*
X105551727Y-92083005D01*
X105780535Y-91930120D01*
X105975120Y-91735535D01*
X106128005Y-91506727D01*
X106233314Y-91252490D01*
X106287000Y-90982592D01*
X106287000Y-90707408D01*
X106233314Y-90437510D01*
X106128005Y-90183273D01*
X105975120Y-89954465D01*
X105780535Y-89759880D01*
X105551727Y-89606995D01*
X105297490Y-89501686D01*
X105027592Y-89448000D01*
X104752408Y-89448000D01*
X104643664Y-89469631D01*
X104806043Y-89402371D01*
X105032886Y-89250799D01*
X105225799Y-89057886D01*
X105377371Y-88831043D01*
X105481775Y-88578989D01*
X105535000Y-88311411D01*
X105535000Y-88038589D01*
X105481775Y-87771011D01*
X105377371Y-87518957D01*
X105225799Y-87292114D01*
X105032886Y-87099201D01*
X104806043Y-86947629D01*
X104553989Y-86843225D01*
X104286411Y-86790000D01*
X104013589Y-86790000D01*
X103746011Y-86843225D01*
X103493957Y-86947629D01*
X103267114Y-87099201D01*
X103074201Y-87292114D01*
X102922629Y-87518957D01*
X102818225Y-87771011D01*
X102765000Y-88038589D01*
X102765000Y-88234797D01*
X102757490Y-88231686D01*
X102487592Y-88178000D01*
X102212408Y-88178000D01*
X101942510Y-88231686D01*
X101688273Y-88336995D01*
X101459465Y-88489880D01*
X101264880Y-88684465D01*
X101111995Y-88913273D01*
X101006686Y-89167510D01*
X100953000Y-89437408D01*
X100735000Y-89437408D01*
X100735000Y-82998061D01*
X103865000Y-82998061D01*
X103865000Y-83201939D01*
X103904774Y-83401898D01*
X103982795Y-83590256D01*
X104096063Y-83759774D01*
X104240226Y-83903937D01*
X104409744Y-84017205D01*
X104598102Y-84095226D01*
X104798061Y-84135000D01*
X105001939Y-84135000D01*
X105201898Y-84095226D01*
X105390256Y-84017205D01*
X105559774Y-83903937D01*
X105703937Y-83759774D01*
X105817205Y-83590256D01*
X105895226Y-83401898D01*
X105935000Y-83201939D01*
X105935000Y-83139801D01*
X106214802Y-82860000D01*
X107196289Y-82860000D01*
X107240226Y-82903937D01*
X107409744Y-83017205D01*
X107598102Y-83095226D01*
X107798061Y-83135000D01*
X108001939Y-83135000D01*
X108201898Y-83095226D01*
X108390256Y-83017205D01*
X108559774Y-82903937D01*
X108703937Y-82759774D01*
X108817205Y-82590256D01*
X108895226Y-82401898D01*
X108935000Y-82201939D01*
X108935000Y-82098061D01*
X145865000Y-82098061D01*
X145865000Y-82301939D01*
X145904774Y-82501898D01*
X145982795Y-82690256D01*
X146096063Y-82859774D01*
X146240226Y-83003937D01*
X146409744Y-83117205D01*
X146598102Y-83195226D01*
X146798061Y-83235000D01*
X147001939Y-83235000D01*
X147201898Y-83195226D01*
X147390256Y-83117205D01*
X147559774Y-83003937D01*
X147703937Y-82859774D01*
X147817205Y-82690256D01*
X147895226Y-82501898D01*
X147900769Y-82474033D01*
X148239802Y-82135000D01*
X148301939Y-82135000D01*
X148501898Y-82095226D01*
X148690256Y-82017205D01*
X148859774Y-81903937D01*
X149003937Y-81759774D01*
X149117205Y-81590256D01*
X149195226Y-81401898D01*
X149235000Y-81201939D01*
X149235000Y-80998061D01*
X149195226Y-80798102D01*
X149117205Y-80609744D01*
X149003937Y-80440226D01*
X148859774Y-80296063D01*
X148690256Y-80182795D01*
X148501898Y-80104774D01*
X148301939Y-80065000D01*
X148098061Y-80065000D01*
X147898102Y-80104774D01*
X147709744Y-80182795D01*
X147540226Y-80296063D01*
X147396063Y-80440226D01*
X147282795Y-80609744D01*
X147204774Y-80798102D01*
X147165000Y-80998061D01*
X147165000Y-81060198D01*
X147050533Y-81174666D01*
X147001939Y-81165000D01*
X146798061Y-81165000D01*
X146598102Y-81204774D01*
X146409744Y-81282795D01*
X146240226Y-81396063D01*
X146096063Y-81540226D01*
X145982795Y-81709744D01*
X145904774Y-81898102D01*
X145865000Y-82098061D01*
X108935000Y-82098061D01*
X108935000Y-81998061D01*
X108895226Y-81798102D01*
X108817205Y-81609744D01*
X108703937Y-81440226D01*
X108559774Y-81296063D01*
X108390256Y-81182795D01*
X108201898Y-81104774D01*
X108001939Y-81065000D01*
X107798061Y-81065000D01*
X107598102Y-81104774D01*
X107409744Y-81182795D01*
X107240226Y-81296063D01*
X107196289Y-81340000D01*
X105937333Y-81340000D01*
X105900000Y-81336323D01*
X105862667Y-81340000D01*
X105751014Y-81350997D01*
X105607753Y-81394454D01*
X105475724Y-81465026D01*
X105359999Y-81559999D01*
X105336201Y-81588997D01*
X104860199Y-82065000D01*
X104798061Y-82065000D01*
X104598102Y-82104774D01*
X104409744Y-82182795D01*
X104240226Y-82296063D01*
X104096063Y-82440226D01*
X103982795Y-82609744D01*
X103904774Y-82798102D01*
X103865000Y-82998061D01*
X100735000Y-82998061D01*
X100735000Y-75590061D01*
X123348800Y-75590061D01*
X123348800Y-75793939D01*
X123388574Y-75993898D01*
X123466595Y-76182256D01*
X123579863Y-76351774D01*
X123724026Y-76495937D01*
X123893544Y-76609205D01*
X124081902Y-76687226D01*
X124281861Y-76727000D01*
X124485739Y-76727000D01*
X124685698Y-76687226D01*
X124874056Y-76609205D01*
X124919261Y-76579000D01*
X127595489Y-76579000D01*
X127650226Y-76633737D01*
X127819744Y-76747005D01*
X128008102Y-76825026D01*
X128208061Y-76864800D01*
X128411939Y-76864800D01*
X128611898Y-76825026D01*
X128800256Y-76747005D01*
X128969774Y-76633737D01*
X129113937Y-76489574D01*
X129227205Y-76320056D01*
X129305226Y-76131698D01*
X129311916Y-76098061D01*
X143865000Y-76098061D01*
X143865000Y-76301939D01*
X143904774Y-76501898D01*
X143982795Y-76690256D01*
X144096063Y-76859774D01*
X144240226Y-77003937D01*
X144409744Y-77117205D01*
X144598102Y-77195226D01*
X144798061Y-77235000D01*
X145001939Y-77235000D01*
X145201898Y-77195226D01*
X145390256Y-77117205D01*
X145559774Y-77003937D01*
X145703937Y-76859774D01*
X145817205Y-76690256D01*
X145895226Y-76501898D01*
X145935000Y-76301939D01*
X145935000Y-76098061D01*
X145895226Y-75898102D01*
X145817205Y-75709744D01*
X145703937Y-75540226D01*
X145660000Y-75496289D01*
X145660000Y-70014801D01*
X147139802Y-68535000D01*
X147201939Y-68535000D01*
X147401898Y-68495226D01*
X147590256Y-68417205D01*
X147759774Y-68303937D01*
X147903937Y-68159774D01*
X148017205Y-67990256D01*
X148095226Y-67801898D01*
X148135000Y-67601939D01*
X148135000Y-67398061D01*
X148095226Y-67198102D01*
X148017205Y-67009744D01*
X147903937Y-66840226D01*
X147759774Y-66696063D01*
X147590256Y-66582795D01*
X147401898Y-66504774D01*
X147201939Y-66465000D01*
X146998061Y-66465000D01*
X146798102Y-66504774D01*
X146609744Y-66582795D01*
X146440226Y-66696063D01*
X146296063Y-66840226D01*
X146182795Y-67009744D01*
X146104774Y-67198102D01*
X146065000Y-67398061D01*
X146065000Y-67460198D01*
X144388998Y-69136201D01*
X144360000Y-69159999D01*
X144336202Y-69188997D01*
X144336201Y-69188998D01*
X144265026Y-69275724D01*
X144194454Y-69407754D01*
X144150998Y-69551015D01*
X144136324Y-69700000D01*
X144140001Y-69737332D01*
X144140000Y-75496289D01*
X144096063Y-75540226D01*
X143982795Y-75709744D01*
X143904774Y-75898102D01*
X143865000Y-76098061D01*
X129311916Y-76098061D01*
X129345000Y-75931739D01*
X129345000Y-75727861D01*
X129305226Y-75527902D01*
X129227205Y-75339544D01*
X129113937Y-75170026D01*
X128969774Y-75025863D01*
X128800256Y-74912595D01*
X128611898Y-74834574D01*
X128411939Y-74794800D01*
X128208061Y-74794800D01*
X128008102Y-74834574D01*
X127819744Y-74912595D01*
X127650226Y-75025863D01*
X127617089Y-75059000D01*
X125205627Y-75059000D01*
X125187737Y-75032226D01*
X125043574Y-74888063D01*
X124874056Y-74774795D01*
X124685698Y-74696774D01*
X124485739Y-74657000D01*
X124281861Y-74657000D01*
X124081902Y-74696774D01*
X123893544Y-74774795D01*
X123724026Y-74888063D01*
X123579863Y-75032226D01*
X123466595Y-75201744D01*
X123388574Y-75390102D01*
X123348800Y-75590061D01*
X100735000Y-75590061D01*
X100735000Y-64398061D01*
X141565000Y-64398061D01*
X141565000Y-64601939D01*
X141604774Y-64801898D01*
X141682795Y-64990256D01*
X141796063Y-65159774D01*
X141840001Y-65203712D01*
X141840000Y-68296289D01*
X141796063Y-68340226D01*
X141682795Y-68509744D01*
X141604774Y-68698102D01*
X141565000Y-68898061D01*
X141565000Y-69101939D01*
X141604774Y-69301898D01*
X141682795Y-69490256D01*
X141796063Y-69659774D01*
X141940226Y-69803937D01*
X142109744Y-69917205D01*
X142298102Y-69995226D01*
X142498061Y-70035000D01*
X142701939Y-70035000D01*
X142901898Y-69995226D01*
X143090256Y-69917205D01*
X143259774Y-69803937D01*
X143403937Y-69659774D01*
X143517205Y-69490256D01*
X143595226Y-69301898D01*
X143635000Y-69101939D01*
X143635000Y-68898061D01*
X143595226Y-68698102D01*
X143517205Y-68509744D01*
X143403937Y-68340226D01*
X143360000Y-68296289D01*
X143360000Y-65203711D01*
X143403937Y-65159774D01*
X143517205Y-64990256D01*
X143595226Y-64801898D01*
X143635000Y-64601939D01*
X143635000Y-64398061D01*
X143595226Y-64198102D01*
X143517205Y-64009744D01*
X143403937Y-63840226D01*
X143259774Y-63696063D01*
X143090256Y-63582795D01*
X142901898Y-63504774D01*
X142701939Y-63465000D01*
X142498061Y-63465000D01*
X142298102Y-63504774D01*
X142109744Y-63582795D01*
X141940226Y-63696063D01*
X141796063Y-63840226D01*
X141682795Y-64009744D01*
X141604774Y-64198102D01*
X141565000Y-64398061D01*
X100735000Y-64398061D01*
X100735000Y-57947406D01*
X138322489Y-57947406D01*
X138360423Y-58167740D01*
X138440613Y-58376440D01*
X138468412Y-58428450D01*
X138557280Y-58443070D01*
X138454176Y-58597376D01*
X138368617Y-58803933D01*
X138325000Y-59023212D01*
X138325000Y-59246788D01*
X138368617Y-59466067D01*
X138454176Y-59672624D01*
X138578388Y-59858520D01*
X138736480Y-60016612D01*
X138922376Y-60140824D01*
X139128933Y-60226383D01*
X139348212Y-60270000D01*
X139520199Y-60270000D01*
X141310481Y-62060283D01*
X141334279Y-62089281D01*
X141363277Y-62113079D01*
X141450004Y-62184254D01*
X141582033Y-62254826D01*
X141725294Y-62298283D01*
X141874280Y-62312957D01*
X141911613Y-62309280D01*
X142661509Y-62309280D01*
X142700366Y-62348137D01*
X142869884Y-62461405D01*
X143058242Y-62539426D01*
X143258201Y-62579200D01*
X143462079Y-62579200D01*
X143662038Y-62539426D01*
X143850396Y-62461405D01*
X144019914Y-62348137D01*
X144164077Y-62203974D01*
X144277345Y-62034456D01*
X144355366Y-61846098D01*
X144395140Y-61646139D01*
X144395140Y-61442261D01*
X144355366Y-61242302D01*
X144277345Y-61053944D01*
X144164077Y-60884426D01*
X144019914Y-60740263D01*
X143850396Y-60626995D01*
X143662038Y-60548974D01*
X143462079Y-60509200D01*
X143258201Y-60509200D01*
X143058242Y-60548974D01*
X142869884Y-60626995D01*
X142700366Y-60740263D01*
X142651349Y-60789280D01*
X142189082Y-60789280D01*
X141595957Y-60196155D01*
X141668933Y-60226383D01*
X141888212Y-60270000D01*
X142111788Y-60270000D01*
X142331067Y-60226383D01*
X142537624Y-60140824D01*
X142635000Y-60075759D01*
X142732376Y-60140824D01*
X142938933Y-60226383D01*
X143158212Y-60270000D01*
X143381788Y-60270000D01*
X143601067Y-60226383D01*
X143807624Y-60140824D01*
X143905000Y-60075759D01*
X144002376Y-60140824D01*
X144208933Y-60226383D01*
X144428212Y-60270000D01*
X144651788Y-60270000D01*
X144871067Y-60226383D01*
X145077624Y-60140824D01*
X145263520Y-60016612D01*
X145421612Y-59858520D01*
X145545824Y-59672624D01*
X145631383Y-59466067D01*
X145675000Y-59246788D01*
X145675000Y-59023212D01*
X145631383Y-58803933D01*
X145545824Y-58597376D01*
X145480759Y-58500000D01*
X145545824Y-58402624D01*
X145631383Y-58196067D01*
X145675000Y-57976788D01*
X145675000Y-57753212D01*
X145631383Y-57533933D01*
X145545824Y-57327376D01*
X145421612Y-57141480D01*
X145263520Y-56983388D01*
X145077624Y-56859176D01*
X144871067Y-56773617D01*
X144651788Y-56730000D01*
X144428212Y-56730000D01*
X144208933Y-56773617D01*
X144002376Y-56859176D01*
X143848070Y-56962280D01*
X143833450Y-56873412D01*
X143629174Y-56782542D01*
X143411095Y-56733269D01*
X143187594Y-56727489D01*
X142967260Y-56765423D01*
X142758560Y-56845613D01*
X142706550Y-56873412D01*
X142685790Y-56999602D01*
X142635000Y-57050392D01*
X142584210Y-56999602D01*
X142563450Y-56873412D01*
X142359174Y-56782542D01*
X142141095Y-56733269D01*
X141917594Y-56727489D01*
X141697260Y-56765423D01*
X141488560Y-56845613D01*
X141436550Y-56873412D01*
X141421930Y-56962280D01*
X141267624Y-56859176D01*
X141061067Y-56773617D01*
X140841788Y-56730000D01*
X140618212Y-56730000D01*
X140398933Y-56773617D01*
X140192376Y-56859176D01*
X140038070Y-56962280D01*
X140023450Y-56873412D01*
X139819174Y-56782542D01*
X139601095Y-56733269D01*
X139377594Y-56727489D01*
X139157260Y-56765423D01*
X138948560Y-56845613D01*
X138896550Y-56873412D01*
X138861439Y-57086834D01*
X139460000Y-57685395D01*
X139474143Y-57671253D01*
X139595000Y-57792110D01*
X139595000Y-57937890D01*
X139532890Y-58000000D01*
X139387110Y-58000000D01*
X139266253Y-57879143D01*
X139280395Y-57865000D01*
X138681834Y-57266439D01*
X138468412Y-57301550D01*
X138377542Y-57505826D01*
X138328269Y-57723905D01*
X138322489Y-57947406D01*
X100735000Y-57947406D01*
X100735000Y-55032731D01*
X100762021Y-54729963D01*
X102258266Y-54729963D01*
X102258266Y-55270037D01*
X102363629Y-55799734D01*
X102570307Y-56298698D01*
X102870356Y-56747753D01*
X103252247Y-57129644D01*
X103701302Y-57429693D01*
X104200266Y-57636371D01*
X104729963Y-57741734D01*
X105270037Y-57741734D01*
X105799734Y-57636371D01*
X106298698Y-57429693D01*
X106747753Y-57129644D01*
X107129644Y-56747753D01*
X107429693Y-56298698D01*
X107636371Y-55799734D01*
X107741734Y-55270037D01*
X107741734Y-54729963D01*
X109258266Y-54729963D01*
X109258266Y-55270037D01*
X109363629Y-55799734D01*
X109570307Y-56298698D01*
X109870356Y-56747753D01*
X110252247Y-57129644D01*
X110701302Y-57429693D01*
X111200266Y-57636371D01*
X111729963Y-57741734D01*
X112270037Y-57741734D01*
X112799734Y-57636371D01*
X113298698Y-57429693D01*
X113747753Y-57129644D01*
X114129644Y-56747753D01*
X114429693Y-56298698D01*
X114636371Y-55799734D01*
X114741734Y-55270037D01*
X114741734Y-54729963D01*
X155258266Y-54729963D01*
X155258266Y-55270037D01*
X155363629Y-55799734D01*
X155570307Y-56298698D01*
X155870356Y-56747753D01*
X156252247Y-57129644D01*
X156701302Y-57429693D01*
X157200266Y-57636371D01*
X157729963Y-57741734D01*
X158270037Y-57741734D01*
X158799734Y-57636371D01*
X159298698Y-57429693D01*
X159747753Y-57129644D01*
X160129644Y-56747753D01*
X160429693Y-56298698D01*
X160636371Y-55799734D01*
X160741734Y-55270037D01*
X160741734Y-54729963D01*
X162258266Y-54729963D01*
X162258266Y-55270037D01*
X162363629Y-55799734D01*
X162570307Y-56298698D01*
X162870356Y-56747753D01*
X163252247Y-57129644D01*
X163701302Y-57429693D01*
X164200266Y-57636371D01*
X164729963Y-57741734D01*
X165270037Y-57741734D01*
X165799734Y-57636371D01*
X166298698Y-57429693D01*
X166747753Y-57129644D01*
X167129644Y-56747753D01*
X167429693Y-56298698D01*
X167636371Y-55799734D01*
X167741734Y-55270037D01*
X167741734Y-54729963D01*
X167636371Y-54200266D01*
X167429693Y-53701302D01*
X167129644Y-53252247D01*
X166747753Y-52870356D01*
X166298698Y-52570307D01*
X165799734Y-52363629D01*
X165270037Y-52258266D01*
X164729963Y-52258266D01*
X164200266Y-52363629D01*
X163701302Y-52570307D01*
X163252247Y-52870356D01*
X162870356Y-53252247D01*
X162570307Y-53701302D01*
X162363629Y-54200266D01*
X162258266Y-54729963D01*
X160741734Y-54729963D01*
X160636371Y-54200266D01*
X160429693Y-53701302D01*
X160129644Y-53252247D01*
X159747753Y-52870356D01*
X159298698Y-52570307D01*
X158799734Y-52363629D01*
X158270037Y-52258266D01*
X157729963Y-52258266D01*
X157200266Y-52363629D01*
X156701302Y-52570307D01*
X156252247Y-52870356D01*
X155870356Y-53252247D01*
X155570307Y-53701302D01*
X155363629Y-54200266D01*
X155258266Y-54729963D01*
X114741734Y-54729963D01*
X114636371Y-54200266D01*
X114429693Y-53701302D01*
X114129644Y-53252247D01*
X113747753Y-52870356D01*
X113298698Y-52570307D01*
X112799734Y-52363629D01*
X112270037Y-52258266D01*
X111729963Y-52258266D01*
X111200266Y-52363629D01*
X110701302Y-52570307D01*
X110252247Y-52870356D01*
X109870356Y-53252247D01*
X109570307Y-53701302D01*
X109363629Y-54200266D01*
X109258266Y-54729963D01*
X107741734Y-54729963D01*
X107636371Y-54200266D01*
X107429693Y-53701302D01*
X107129644Y-53252247D01*
X106747753Y-52870356D01*
X106298698Y-52570307D01*
X105799734Y-52363629D01*
X105270037Y-52258266D01*
X104729963Y-52258266D01*
X104200266Y-52363629D01*
X103701302Y-52570307D01*
X103252247Y-52870356D01*
X102870356Y-53252247D01*
X102570307Y-53701302D01*
X102363629Y-54200266D01*
X102258266Y-54729963D01*
X100762021Y-54729963D01*
X100805281Y-54245253D01*
X101005231Y-53514357D01*
X101331450Y-52830425D01*
X101773626Y-52215072D01*
X102317789Y-51687741D01*
X102946726Y-51265114D01*
X103640570Y-50960537D01*
X104383039Y-50782285D01*
X105026949Y-50735000D01*
X164967269Y-50735000D01*
X165754747Y-50805281D01*
G36*
X143405000Y-57792110D02*
G01*
X143405000Y-57937890D01*
X143342890Y-58000000D01*
X143197110Y-58000000D01*
X143133533Y-57936423D01*
X143137325Y-57789785D01*
X143255858Y-57671253D01*
X143270000Y-57685395D01*
X143284143Y-57671253D01*
X143405000Y-57792110D01*
X143405000Y-57792110D01*
G37*
X143405000Y-57792110D02*
X143405000Y-57937890D01*
X143342890Y-58000000D01*
X143197110Y-58000000D01*
X143133533Y-57936423D01*
X143137325Y-57789785D01*
X143255858Y-57671253D01*
X143270000Y-57685395D01*
X143284143Y-57671253D01*
X143405000Y-57792110D01*
G36*
X142136467Y-57793577D02*
G01*
X142132675Y-57940215D01*
X142072890Y-58000000D01*
X141927110Y-58000000D01*
X141865000Y-57937890D01*
X141865000Y-57792110D01*
X141985858Y-57671253D01*
X142000000Y-57685395D01*
X142014143Y-57671253D01*
X142136467Y-57793577D01*
X142136467Y-57793577D01*
G37*
X142136467Y-57793577D02*
X142132675Y-57940215D01*
X142072890Y-58000000D01*
X141927110Y-58000000D01*
X141865000Y-57937890D01*
X141865000Y-57792110D01*
X141985858Y-57671253D01*
X142000000Y-57685395D01*
X142014143Y-57671253D01*
X142136467Y-57793577D01*
G36*
X145549802Y-129073000D02*
G01*
X108077000Y-129073000D01*
X108077000Y-125349000D01*
X108171560Y-125349000D01*
X108206835Y-125707155D01*
X108311305Y-126051546D01*
X108480955Y-126368938D01*
X108709265Y-126647135D01*
X108987462Y-126875445D01*
X109304854Y-127045095D01*
X109649245Y-127149565D01*
X109917645Y-127176000D01*
X122668448Y-127176000D01*
X122758200Y-127184840D01*
X122847952Y-127176000D01*
X122847955Y-127176000D01*
X123116355Y-127149565D01*
X123460746Y-127045095D01*
X123778138Y-126875445D01*
X124056335Y-126647135D01*
X124113556Y-126577411D01*
X124259617Y-126431350D01*
X124288438Y-126415945D01*
X124566635Y-126187635D01*
X124623855Y-126117912D01*
X127928417Y-122813351D01*
X127998135Y-122756135D01*
X128226445Y-122477938D01*
X128396095Y-122160546D01*
X128500565Y-121816155D01*
X128527000Y-121547755D01*
X128527000Y-121547752D01*
X128535840Y-121458000D01*
X128527000Y-121368248D01*
X128527000Y-119677000D01*
X129715801Y-119677000D01*
X129868804Y-119779233D01*
X130264992Y-119943340D01*
X130685584Y-120027000D01*
X131114416Y-120027000D01*
X131535008Y-119943340D01*
X131931196Y-119779233D01*
X132287757Y-119540987D01*
X132590987Y-119237757D01*
X132829233Y-118881196D01*
X132993340Y-118485008D01*
X133077000Y-118064416D01*
X133077000Y-117635584D01*
X132993340Y-117214992D01*
X132829233Y-116818804D01*
X132590987Y-116462243D01*
X132287757Y-116159013D01*
X131931196Y-115920767D01*
X131535008Y-115756660D01*
X131114416Y-115673000D01*
X130685584Y-115673000D01*
X130264992Y-115756660D01*
X129868804Y-115920767D01*
X129715801Y-116023000D01*
X127884199Y-116023000D01*
X127731196Y-115920767D01*
X127335008Y-115756660D01*
X127154529Y-115720761D01*
X125445409Y-114011641D01*
X125919414Y-114011641D01*
X126090274Y-114249127D01*
X126472491Y-114331588D01*
X126863451Y-114337897D01*
X127248130Y-114267813D01*
X127309726Y-114249127D01*
X127480586Y-114011641D01*
X130119414Y-114011641D01*
X130290274Y-114249127D01*
X130672491Y-114331588D01*
X131063451Y-114337897D01*
X131448130Y-114267813D01*
X131509726Y-114249127D01*
X131680586Y-114011641D01*
X130900000Y-113231055D01*
X130119414Y-114011641D01*
X127480586Y-114011641D01*
X126700000Y-113231055D01*
X125919414Y-114011641D01*
X125445409Y-114011641D01*
X124852000Y-113418233D01*
X124852000Y-112996509D01*
X125038359Y-113130586D01*
X125818945Y-112350000D01*
X127581055Y-112350000D01*
X128361641Y-113130586D01*
X128599127Y-112959726D01*
X128681588Y-112577509D01*
X128682621Y-112513451D01*
X128912103Y-112513451D01*
X128982187Y-112898130D01*
X129000873Y-112959726D01*
X129238359Y-113130586D01*
X130018945Y-112350000D01*
X131781055Y-112350000D01*
X132561641Y-113130586D01*
X132799127Y-112959726D01*
X132881588Y-112577509D01*
X132887897Y-112186549D01*
X132817813Y-111801870D01*
X132799127Y-111740274D01*
X132561641Y-111569414D01*
X131781055Y-112350000D01*
X130018945Y-112350000D01*
X129238359Y-111569414D01*
X129000873Y-111740274D01*
X128918412Y-112122491D01*
X128912103Y-112513451D01*
X128682621Y-112513451D01*
X128687897Y-112186549D01*
X128617813Y-111801870D01*
X128599127Y-111740274D01*
X128361641Y-111569414D01*
X127581055Y-112350000D01*
X125818945Y-112350000D01*
X125038359Y-111569414D01*
X124852000Y-111703491D01*
X124852000Y-110688359D01*
X125919414Y-110688359D01*
X126700000Y-111468945D01*
X127480586Y-110688359D01*
X130119414Y-110688359D01*
X130900000Y-111468945D01*
X131680586Y-110688359D01*
X131509726Y-110450873D01*
X131127509Y-110368412D01*
X130736549Y-110362103D01*
X130351870Y-110432187D01*
X130290274Y-110450873D01*
X130119414Y-110688359D01*
X127480586Y-110688359D01*
X127309726Y-110450873D01*
X126927509Y-110368412D01*
X126536549Y-110362103D01*
X126151870Y-110432187D01*
X126090274Y-110450873D01*
X125919414Y-110688359D01*
X124852000Y-110688359D01*
X124852000Y-106034112D01*
X124887353Y-105981202D01*
X124979847Y-105757903D01*
X125027000Y-105520849D01*
X125027000Y-105279151D01*
X124979847Y-105042097D01*
X124887353Y-104818798D01*
X124753073Y-104617833D01*
X124582167Y-104446927D01*
X124381202Y-104312647D01*
X124157903Y-104220153D01*
X123920849Y-104173000D01*
X123679151Y-104173000D01*
X123442097Y-104220153D01*
X123218798Y-104312647D01*
X123017833Y-104446927D01*
X122846927Y-104617833D01*
X122712647Y-104818798D01*
X122620153Y-105042097D01*
X122573000Y-105279151D01*
X122573000Y-105520849D01*
X122620153Y-105757903D01*
X122712647Y-105981202D01*
X122748000Y-106034112D01*
X122748001Y-112058193D01*
X122743600Y-112057760D01*
X122653848Y-112066600D01*
X110451045Y-112066600D01*
X110182645Y-112093035D01*
X109838254Y-112197505D01*
X109520862Y-112367155D01*
X109242665Y-112595465D01*
X109014355Y-112873662D01*
X108844705Y-113191054D01*
X108740235Y-113535445D01*
X108704960Y-113893600D01*
X108740235Y-114251755D01*
X108844705Y-114596146D01*
X109014355Y-114913538D01*
X109242665Y-115191735D01*
X109498843Y-115401974D01*
X109387491Y-115537656D01*
X109248020Y-115798589D01*
X109162133Y-116081717D01*
X109133133Y-116376160D01*
X109162133Y-116670603D01*
X109188001Y-116755877D01*
X109188000Y-118373782D01*
X109209733Y-118594442D01*
X109295619Y-118877570D01*
X109435090Y-119138503D01*
X109622787Y-119367213D01*
X109845513Y-119550000D01*
X109622787Y-119732787D01*
X109435090Y-119961497D01*
X109295619Y-120222430D01*
X109209733Y-120505558D01*
X109188000Y-120726218D01*
X109188001Y-122321686D01*
X109167810Y-122359461D01*
X109106650Y-122561076D01*
X109085999Y-122770750D01*
X109085999Y-123258250D01*
X109106650Y-123467924D01*
X109167810Y-123669539D01*
X109191348Y-123713576D01*
X108987462Y-123822555D01*
X108709265Y-124050865D01*
X108480955Y-124329062D01*
X108311305Y-124646454D01*
X108206835Y-124990845D01*
X108171560Y-125349000D01*
X108077000Y-125349000D01*
X108077000Y-92964000D01*
X145668582Y-92964000D01*
X145549802Y-129073000D01*
X145549802Y-129073000D01*
G37*
X145549802Y-129073000D02*
X108077000Y-129073000D01*
X108077000Y-125349000D01*
X108171560Y-125349000D01*
X108206835Y-125707155D01*
X108311305Y-126051546D01*
X108480955Y-126368938D01*
X108709265Y-126647135D01*
X108987462Y-126875445D01*
X109304854Y-127045095D01*
X109649245Y-127149565D01*
X109917645Y-127176000D01*
X122668448Y-127176000D01*
X122758200Y-127184840D01*
X122847952Y-127176000D01*
X122847955Y-127176000D01*
X123116355Y-127149565D01*
X123460746Y-127045095D01*
X123778138Y-126875445D01*
X124056335Y-126647135D01*
X124113556Y-126577411D01*
X124259617Y-126431350D01*
X124288438Y-126415945D01*
X124566635Y-126187635D01*
X124623855Y-126117912D01*
X127928417Y-122813351D01*
X127998135Y-122756135D01*
X128226445Y-122477938D01*
X128396095Y-122160546D01*
X128500565Y-121816155D01*
X128527000Y-121547755D01*
X128527000Y-121547752D01*
X128535840Y-121458000D01*
X128527000Y-121368248D01*
X128527000Y-119677000D01*
X129715801Y-119677000D01*
X129868804Y-119779233D01*
X130264992Y-119943340D01*
X130685584Y-120027000D01*
X131114416Y-120027000D01*
X131535008Y-119943340D01*
X131931196Y-119779233D01*
X132287757Y-119540987D01*
X132590987Y-119237757D01*
X132829233Y-118881196D01*
X132993340Y-118485008D01*
X133077000Y-118064416D01*
X133077000Y-117635584D01*
X132993340Y-117214992D01*
X132829233Y-116818804D01*
X132590987Y-116462243D01*
X132287757Y-116159013D01*
X131931196Y-115920767D01*
X131535008Y-115756660D01*
X131114416Y-115673000D01*
X130685584Y-115673000D01*
X130264992Y-115756660D01*
X129868804Y-115920767D01*
X129715801Y-116023000D01*
X127884199Y-116023000D01*
X127731196Y-115920767D01*
X127335008Y-115756660D01*
X127154529Y-115720761D01*
X125445409Y-114011641D01*
X125919414Y-114011641D01*
X126090274Y-114249127D01*
X126472491Y-114331588D01*
X126863451Y-114337897D01*
X127248130Y-114267813D01*
X127309726Y-114249127D01*
X127480586Y-114011641D01*
X130119414Y-114011641D01*
X130290274Y-114249127D01*
X130672491Y-114331588D01*
X131063451Y-114337897D01*
X131448130Y-114267813D01*
X131509726Y-114249127D01*
X131680586Y-114011641D01*
X130900000Y-113231055D01*
X130119414Y-114011641D01*
X127480586Y-114011641D01*
X126700000Y-113231055D01*
X125919414Y-114011641D01*
X125445409Y-114011641D01*
X124852000Y-113418233D01*
X124852000Y-112996509D01*
X125038359Y-113130586D01*
X125818945Y-112350000D01*
X127581055Y-112350000D01*
X128361641Y-113130586D01*
X128599127Y-112959726D01*
X128681588Y-112577509D01*
X128682621Y-112513451D01*
X128912103Y-112513451D01*
X128982187Y-112898130D01*
X129000873Y-112959726D01*
X129238359Y-113130586D01*
X130018945Y-112350000D01*
X131781055Y-112350000D01*
X132561641Y-113130586D01*
X132799127Y-112959726D01*
X132881588Y-112577509D01*
X132887897Y-112186549D01*
X132817813Y-111801870D01*
X132799127Y-111740274D01*
X132561641Y-111569414D01*
X131781055Y-112350000D01*
X130018945Y-112350000D01*
X129238359Y-111569414D01*
X129000873Y-111740274D01*
X128918412Y-112122491D01*
X128912103Y-112513451D01*
X128682621Y-112513451D01*
X128687897Y-112186549D01*
X128617813Y-111801870D01*
X128599127Y-111740274D01*
X128361641Y-111569414D01*
X127581055Y-112350000D01*
X125818945Y-112350000D01*
X125038359Y-111569414D01*
X124852000Y-111703491D01*
X124852000Y-110688359D01*
X125919414Y-110688359D01*
X126700000Y-111468945D01*
X127480586Y-110688359D01*
X130119414Y-110688359D01*
X130900000Y-111468945D01*
X131680586Y-110688359D01*
X131509726Y-110450873D01*
X131127509Y-110368412D01*
X130736549Y-110362103D01*
X130351870Y-110432187D01*
X130290274Y-110450873D01*
X130119414Y-110688359D01*
X127480586Y-110688359D01*
X127309726Y-110450873D01*
X126927509Y-110368412D01*
X126536549Y-110362103D01*
X126151870Y-110432187D01*
X126090274Y-110450873D01*
X125919414Y-110688359D01*
X124852000Y-110688359D01*
X124852000Y-106034112D01*
X124887353Y-105981202D01*
X124979847Y-105757903D01*
X125027000Y-105520849D01*
X125027000Y-105279151D01*
X124979847Y-105042097D01*
X124887353Y-104818798D01*
X124753073Y-104617833D01*
X124582167Y-104446927D01*
X124381202Y-104312647D01*
X124157903Y-104220153D01*
X123920849Y-104173000D01*
X123679151Y-104173000D01*
X123442097Y-104220153D01*
X123218798Y-104312647D01*
X123017833Y-104446927D01*
X122846927Y-104617833D01*
X122712647Y-104818798D01*
X122620153Y-105042097D01*
X122573000Y-105279151D01*
X122573000Y-105520849D01*
X122620153Y-105757903D01*
X122712647Y-105981202D01*
X122748000Y-106034112D01*
X122748001Y-112058193D01*
X122743600Y-112057760D01*
X122653848Y-112066600D01*
X110451045Y-112066600D01*
X110182645Y-112093035D01*
X109838254Y-112197505D01*
X109520862Y-112367155D01*
X109242665Y-112595465D01*
X109014355Y-112873662D01*
X108844705Y-113191054D01*
X108740235Y-113535445D01*
X108704960Y-113893600D01*
X108740235Y-114251755D01*
X108844705Y-114596146D01*
X109014355Y-114913538D01*
X109242665Y-115191735D01*
X109498843Y-115401974D01*
X109387491Y-115537656D01*
X109248020Y-115798589D01*
X109162133Y-116081717D01*
X109133133Y-116376160D01*
X109162133Y-116670603D01*
X109188001Y-116755877D01*
X109188000Y-118373782D01*
X109209733Y-118594442D01*
X109295619Y-118877570D01*
X109435090Y-119138503D01*
X109622787Y-119367213D01*
X109845513Y-119550000D01*
X109622787Y-119732787D01*
X109435090Y-119961497D01*
X109295619Y-120222430D01*
X109209733Y-120505558D01*
X109188000Y-120726218D01*
X109188001Y-122321686D01*
X109167810Y-122359461D01*
X109106650Y-122561076D01*
X109085999Y-122770750D01*
X109085999Y-123258250D01*
X109106650Y-123467924D01*
X109167810Y-123669539D01*
X109191348Y-123713576D01*
X108987462Y-123822555D01*
X108709265Y-124050865D01*
X108480955Y-124329062D01*
X108311305Y-124646454D01*
X108206835Y-124990845D01*
X108171560Y-125349000D01*
X108077000Y-125349000D01*
X108077000Y-92964000D01*
X145668582Y-92964000D01*
X145549802Y-129073000D01*
M02*
