M48
; DRILL file {KiCad (5.1.4-0)} date 2021 February 17, Wednesday 16:02:51
; FORMAT={-:-/ absolute / inch / decimal}
; #@! TF.CreationDate,2021-02-17T16:02:51+01:00
; #@! TF.GenerationSoftware,Kicad,Pcbnew,(5.1.4-0)
; #@! TF.FileFunction,Plated,1,2,PTH
FMAT,2
INCH
T1C0.0157
T2C0.0276
T3C0.0300
T4C0.0315
T5C0.0354
T6C0.0709
%
G90
G05
T1
X4.1299Y-3.2717
X4.248Y-3.2323
X4.27Y-4.03
X4.2874Y-3.0709
X4.315Y-2.4331
X4.315Y-4.03
X4.3189Y-2.6575
X4.3189Y-2.874
X4.3189Y-3.3031
X4.44Y-3.735
X4.48Y-3.55
X4.4803Y-2.8346
X4.4843Y-2.3976
X4.4843Y-2.6142
X4.4843Y-3.0472
X4.4843Y-3.2638
X4.555Y-3.98
X4.59Y-4.035
X4.63Y-3.735
X4.63Y-4.035
X4.6459Y-2.2757
X4.6459Y-2.4922
X4.6496Y-2.7205
X4.665Y-3.555
X4.6929Y-3.2008
X4.815Y-3.735
X4.85Y-3.555
X4.874Y-4.1496
X4.897Y-2.98
X4.905Y-3.935
X4.905Y-3.98
X4.945Y-4.03
X4.985Y-4.03
X5.0Y-3.735
X5.04Y-3.555
X5.0516Y-2.9854
X5.1Y-3.245
X5.101Y-4.812
X5.1614Y-2.685
X5.185Y-3.735
X5.225Y-3.555
X5.3189Y-3.1339
X5.325Y-2.9745
X5.3268Y-2.6024
X5.37Y-3.735
X5.41Y-3.555
X5.4295Y-2.4905
X5.438Y-2.6545
X5.5036Y-2.4512
X5.535Y-4.465
X5.535Y-4.505
X5.535Y-4.78
X5.535Y-4.82
X5.54Y-4.155
X5.54Y-4.195
X5.574Y-2.6692
X5.58Y-4.43
X5.585Y-4.12
X5.585Y-4.75
X5.6142Y-2.5394
X5.6142Y-2.7165
X5.625Y-4.43
X5.625Y-4.75
X5.63Y-4.12
X5.6441Y-2.423
X5.7047Y-3.0
X5.7106Y-2.4321
X5.7441Y-3.0
X5.7756Y-2.7283
X5.7835Y-3.2362
X5.7913Y-2.6575
X5.8346Y-3.1929
X5.85Y-3.59
X5.8543Y-2.5276
X5.874Y-3.0197
X5.9Y-3.47
X5.9094Y-3.374
X5.922Y-3.0995
X5.952Y-4.629
X6.0157Y-2.7323
X6.06Y-3.44
X6.112Y-4.63
X6.26Y-3.13
X6.2638Y-2.8504
X6.29Y-3.45
X6.3937Y-3.6654
X6.4449Y-3.7913
T2
X5.4906Y-2.2781
X5.4906Y-2.3281
X5.5406Y-2.2781
X5.5406Y-2.3281
X5.5906Y-2.2781
X5.5906Y-2.3281
X5.6406Y-2.2781
X5.6406Y-2.3281
X5.6906Y-2.2781
X5.6906Y-2.3281
T3
X4.0295Y-3.8266
X4.0295Y-3.9266
X4.0295Y-4.0266
X4.1295Y-3.8766
X4.1295Y-3.9766
X4.1295Y-4.0766
T4
X4.0295Y-3.5266
X4.0295Y-3.6266
X4.0295Y-3.7266
X4.1295Y-3.5766
X4.1295Y-3.6766
X4.1295Y-3.7766
X6.5044Y-3.6217
X6.5044Y-3.7217
X6.5044Y-3.8217
X6.6044Y-3.6717
X6.6044Y-3.7717
X6.6044Y-3.8717
X4.3579Y-4.6575
X4.3579Y-4.7559
X4.4366Y-4.6575
X4.4366Y-4.7559
X4.5154Y-4.6575
X4.5154Y-4.7559
X4.5941Y-4.6575
X4.5941Y-4.7559
X4.6728Y-4.6575
X4.6728Y-4.7559
X4.7516Y-4.6575
X4.7516Y-4.7559
T5
X6.1457Y-3.648
X6.1457Y-3.748
X6.1457Y-3.848
T6
X4.9882Y-4.4232
X4.9882Y-4.6398
X5.1535Y-4.4232
X5.1535Y-4.6398
T0
M30
