G04 #@! TF.GenerationSoftware,KiCad,Pcbnew,(5.1.4-0)*
G04 #@! TF.CreationDate,2021-02-17T16:17:59+01:00*
G04 #@! TF.ProjectId,DBU_HW,4442555f-4857-42e6-9b69-6361645f7063,A*
G04 #@! TF.SameCoordinates,PX4c4b400PYa037a00*
G04 #@! TF.FileFunction,Legend,Top*
G04 #@! TF.FilePolarity,Positive*
%FSLAX46Y46*%
G04 Gerber Fmt 4.6, Leading zero omitted, Abs format (unit mm)*
G04 Created by KiCad (PCBNEW (5.1.4-0)) date 2021-02-17 16:17:59*
%MOMM*%
%LPD*%
G04 APERTURE LIST*
%ADD10C,0.150000*%
%ADD11C,0.100000*%
%ADD12C,0.300000*%
%ADD13C,0.120000*%
%ADD14C,0.127000*%
%ADD15C,0.200000*%
G04 APERTURE END LIST*
D10*
X16285714Y30081429D02*
X16285714Y31581429D01*
X17000000Y31081429D02*
X17000000Y30081429D01*
X17000000Y30938572D02*
X17071428Y31010000D01*
X17214285Y31081429D01*
X17428571Y31081429D01*
X17571428Y31010000D01*
X17642857Y30867143D01*
X17642857Y30081429D01*
X19000000Y30081429D02*
X19000000Y31581429D01*
X19000000Y30152858D02*
X18857142Y30081429D01*
X18571428Y30081429D01*
X18428571Y30152858D01*
X18357142Y30224286D01*
X18285714Y30367143D01*
X18285714Y30795715D01*
X18357142Y30938572D01*
X18428571Y31010000D01*
X18571428Y31081429D01*
X18857142Y31081429D01*
X19000000Y31010000D01*
X19714285Y30081429D02*
X19714285Y31081429D01*
X19714285Y31581429D02*
X19642857Y31510000D01*
X19714285Y31438572D01*
X19785714Y31510000D01*
X19714285Y31581429D01*
X19714285Y31438572D01*
X21071428Y30152858D02*
X20928571Y30081429D01*
X20642857Y30081429D01*
X20500000Y30152858D01*
X20428571Y30224286D01*
X20357142Y30367143D01*
X20357142Y30795715D01*
X20428571Y30938572D01*
X20500000Y31010000D01*
X20642857Y31081429D01*
X20928571Y31081429D01*
X21071428Y31010000D01*
X22357142Y30081429D02*
X22357142Y30867143D01*
X22285714Y31010000D01*
X22142857Y31081429D01*
X21857142Y31081429D01*
X21714285Y31010000D01*
X22357142Y30152858D02*
X22214285Y30081429D01*
X21857142Y30081429D01*
X21714285Y30152858D01*
X21642857Y30295715D01*
X21642857Y30438572D01*
X21714285Y30581429D01*
X21857142Y30652858D01*
X22214285Y30652858D01*
X22357142Y30724286D01*
X22857142Y31081429D02*
X23428571Y31081429D01*
X23071428Y31581429D02*
X23071428Y30295715D01*
X23142857Y30152858D01*
X23285714Y30081429D01*
X23428571Y30081429D01*
X24142857Y30081429D02*
X24000000Y30152858D01*
X23928571Y30224286D01*
X23857142Y30367143D01*
X23857142Y30795715D01*
X23928571Y30938572D01*
X24000000Y31010000D01*
X24142857Y31081429D01*
X24357142Y31081429D01*
X24500000Y31010000D01*
X24571428Y30938572D01*
X24642857Y30795715D01*
X24642857Y30367143D01*
X24571428Y30224286D01*
X24500000Y30152858D01*
X24357142Y30081429D01*
X24142857Y30081429D01*
X25285714Y30081429D02*
X25285714Y31081429D01*
X25285714Y30795715D02*
X25357142Y30938572D01*
X25428571Y31010000D01*
X25571428Y31081429D01*
X25714285Y31081429D01*
X26142857Y30152858D02*
X26285714Y30081429D01*
X26571428Y30081429D01*
X26714285Y30152858D01*
X26785714Y30295715D01*
X26785714Y30367143D01*
X26714285Y30510000D01*
X26571428Y30581429D01*
X26357142Y30581429D01*
X26214285Y30652858D01*
X26142857Y30795715D01*
X26142857Y30867143D01*
X26214285Y31010000D01*
X26357142Y31081429D01*
X26571428Y31081429D01*
X26714285Y31010000D01*
D11*
G36*
X120270000Y78580492D02*
G01*
X115270000Y78580492D01*
X115270000Y83580492D01*
X120270000Y83580492D01*
X120270000Y78580492D01*
G37*
X120270000Y78580492D02*
X115270000Y78580492D01*
X115270000Y83580492D01*
X120270000Y83580492D01*
X120270000Y78580492D01*
D12*
X105615714Y81307635D02*
X105830000Y81236207D01*
X105901428Y81164778D01*
X105972857Y81021921D01*
X105972857Y80807635D01*
X105901428Y80664778D01*
X105830000Y80593350D01*
X105687142Y80521921D01*
X105115714Y80521921D01*
X105115714Y82021921D01*
X105615714Y82021921D01*
X105758571Y81950492D01*
X105830000Y81879064D01*
X105901428Y81736207D01*
X105901428Y81593350D01*
X105830000Y81450492D01*
X105758571Y81379064D01*
X105615714Y81307635D01*
X105115714Y81307635D01*
X106830000Y80521921D02*
X106687142Y80593350D01*
X106615714Y80664778D01*
X106544285Y80807635D01*
X106544285Y81236207D01*
X106615714Y81379064D01*
X106687142Y81450492D01*
X106830000Y81521921D01*
X107044285Y81521921D01*
X107187142Y81450492D01*
X107258571Y81379064D01*
X107330000Y81236207D01*
X107330000Y80807635D01*
X107258571Y80664778D01*
X107187142Y80593350D01*
X107044285Y80521921D01*
X106830000Y80521921D01*
X108615714Y80521921D02*
X108615714Y81307635D01*
X108544285Y81450492D01*
X108401428Y81521921D01*
X108115714Y81521921D01*
X107972857Y81450492D01*
X108615714Y80593350D02*
X108472857Y80521921D01*
X108115714Y80521921D01*
X107972857Y80593350D01*
X107901428Y80736207D01*
X107901428Y80879064D01*
X107972857Y81021921D01*
X108115714Y81093350D01*
X108472857Y81093350D01*
X108615714Y81164778D01*
X109330000Y80521921D02*
X109330000Y81521921D01*
X109330000Y81236207D02*
X109401428Y81379064D01*
X109472857Y81450492D01*
X109615714Y81521921D01*
X109758571Y81521921D01*
X110901428Y80521921D02*
X110901428Y82021921D01*
X110901428Y80593350D02*
X110758571Y80521921D01*
X110472857Y80521921D01*
X110330000Y80593350D01*
X110258571Y80664778D01*
X110187142Y80807635D01*
X110187142Y81236207D01*
X110258571Y81379064D01*
X110330000Y81450492D01*
X110472857Y81521921D01*
X110758571Y81521921D01*
X110901428Y81450492D01*
X112687142Y81521921D02*
X113758571Y81521921D01*
X113115714Y82164778D02*
X112687142Y80236207D01*
X113615714Y80879064D02*
X112544285Y80879064D01*
X113187142Y80236207D02*
X113615714Y82164778D01*
D10*
X33940000Y37740000D02*
X33940000Y32750000D01*
X33920000Y32610000D02*
X21700000Y32610000D01*
X33940000Y37870000D02*
X11442000Y37870000D01*
X11442000Y37870000D02*
X11442000Y32610000D01*
X21720000Y32610000D02*
X11442000Y32610000D01*
X33940000Y37640000D02*
X33940000Y37860000D01*
X33300000Y38210000D02*
X34300000Y38210000D01*
X34300000Y38210000D02*
X34300000Y37210000D01*
X33940000Y32610000D02*
X33940000Y32740000D01*
X33940000Y32610000D02*
X33920000Y32610000D01*
D13*
X125103984Y47117860D02*
X124586828Y47117860D01*
X125103984Y45697860D02*
X124586828Y45697860D01*
X127010000Y55788922D02*
X127010000Y56306078D01*
X125590000Y55788922D02*
X125590000Y56306078D01*
X41960000Y80001422D02*
X41960000Y80518578D01*
X40540000Y80001422D02*
X40540000Y80518578D01*
X65741422Y70300000D02*
X66258578Y70300000D01*
X65741422Y71720000D02*
X66258578Y71720000D01*
X44841422Y78800000D02*
X45358578Y78800000D01*
X44841422Y80220000D02*
X45358578Y80220000D01*
X34460000Y67501422D02*
X34460000Y68018578D01*
X33040000Y67501422D02*
X33040000Y68018578D01*
X58126471Y50620000D02*
X57609315Y50620000D01*
X58126471Y49200000D02*
X57609315Y49200000D01*
X62635000Y67518578D02*
X62635000Y67001422D01*
X64055000Y67518578D02*
X64055000Y67001422D01*
X119225000Y62468578D02*
X119225000Y61951422D01*
X120645000Y62468578D02*
X120645000Y61951422D01*
X127040000Y65768578D02*
X127040000Y65251422D01*
X128460000Y65768578D02*
X128460000Y65251422D01*
X107241422Y60800000D02*
X107758578Y60800000D01*
X107241422Y62220000D02*
X107758578Y62220000D01*
X26130000Y72570000D02*
X24370000Y72570000D01*
X24370000Y69500000D02*
X26800000Y69500000D01*
X18375279Y72249999D02*
X18049721Y72249999D01*
X18375279Y73269999D02*
X18049721Y73269999D01*
X20130000Y68390000D02*
X20130000Y73630000D01*
X22870000Y68390000D02*
X22870000Y73630000D01*
X20130000Y68390000D02*
X22870000Y68390000D01*
X20130000Y73630000D02*
X22870000Y73630000D01*
X18490000Y70097221D02*
X18490000Y70422779D01*
X19510000Y70097221D02*
X19510000Y70422779D01*
X17935000Y70422779D02*
X17935000Y70097221D01*
X16915000Y70422779D02*
X16915000Y70097221D01*
D14*
X127300000Y38310000D02*
X138700000Y38310000D01*
X127300000Y38310000D02*
X127300000Y37810000D01*
X127300000Y52310000D02*
X127300000Y38310000D01*
X127300000Y37810000D02*
X138700000Y37810000D01*
X138700000Y38310000D02*
X138700000Y52310000D01*
X138700000Y37810000D02*
X138700000Y38310000D01*
X138700000Y52310000D02*
X127300000Y52310000D01*
D10*
X127375000Y61260000D02*
X127375000Y52760000D01*
X138975000Y61260000D02*
X127375000Y61260000D01*
X138975000Y52760000D02*
X138975000Y61260000D01*
X127375000Y52760000D02*
X138975000Y52760000D01*
X127375000Y67510000D02*
X138975000Y67510000D01*
X138975000Y67510000D02*
X138975000Y76010000D01*
X138975000Y76010000D02*
X127375000Y76010000D01*
X127375000Y76010000D02*
X127375000Y67510000D01*
D13*
X124087221Y63470000D02*
X124412779Y63470000D01*
X124087221Y62450000D02*
X124412779Y62450000D01*
X122410000Y62372779D02*
X122410000Y62047221D01*
X121390000Y62372779D02*
X121390000Y62047221D01*
X60490000Y43922779D02*
X60490000Y43597221D01*
X61510000Y43922779D02*
X61510000Y43597221D01*
D15*
X95995000Y85115000D02*
G75*
G03X95995000Y85115000I-100000J0D01*
G01*
D14*
X99300000Y83985000D02*
X99300000Y78518500D01*
X96395000Y83985000D02*
X99300000Y83985000D01*
X77990000Y83985000D02*
X80895000Y83985000D01*
X77990000Y78518500D02*
X77990000Y83985000D01*
X80895000Y76745000D02*
X79403500Y76745000D01*
X97886500Y76745000D02*
X96395000Y76745000D01*
D13*
X21050000Y63820000D02*
X19100000Y63820000D01*
X21050000Y63820000D02*
X23000000Y63820000D01*
X21050000Y58700000D02*
X19100000Y58700000D01*
X21050000Y58700000D02*
X24500000Y58700000D01*
X16960000Y61097221D02*
X16960000Y61422779D01*
X15940000Y61097221D02*
X15940000Y61422779D01*
X119059999Y54581078D02*
X119059999Y54063922D01*
X117639999Y54581078D02*
X117639999Y54063922D01*
X75930000Y48190416D02*
X75000000Y48190416D01*
X72770000Y48190416D02*
X73700000Y48190416D01*
X72770000Y48190416D02*
X72770000Y46030416D01*
X75930000Y48190416D02*
X75930000Y46730416D01*
X106593465Y69836942D02*
X106593465Y68576942D01*
X106593465Y63016942D02*
X106593465Y64276942D01*
X110353465Y69836942D02*
X106593465Y69836942D01*
X112603465Y63016942D02*
X106593465Y63016942D01*
X137162779Y61650000D02*
X136837221Y61650000D01*
X137162779Y62670000D02*
X136837221Y62670000D01*
X124837221Y52520000D02*
X125162779Y52520000D01*
X124837221Y51500000D02*
X125162779Y51500000D01*
X136200000Y62925000D02*
X138485000Y62925000D01*
X138485000Y62925000D02*
X138485000Y64395000D01*
X138485000Y64395000D02*
X136200000Y64395000D01*
X126425406Y49160000D02*
X126425406Y50860000D01*
X126425406Y50860000D02*
X123875406Y50860000D01*
X126425406Y49160000D02*
X123875406Y49160000D01*
X123400000Y54810000D02*
X125100000Y54810000D01*
X125100000Y54810000D02*
X125100000Y57360000D01*
X123400000Y54810000D02*
X123400000Y57360000D01*
X136200000Y64425000D02*
X138485000Y64425000D01*
X138485000Y64425000D02*
X138485000Y65895000D01*
X138485000Y65895000D02*
X136200000Y65895000D01*
X118600000Y63590000D02*
X116900000Y63590000D01*
X116900000Y63590000D02*
X116900000Y61040000D01*
X118600000Y63590000D02*
X118600000Y61040000D01*
X130550000Y67010000D02*
X128850000Y67010000D01*
X128850000Y67010000D02*
X128850000Y64460000D01*
X130550000Y67010000D02*
X130550000Y64460000D01*
X119200000Y52159999D02*
X117500000Y52159999D01*
X117500000Y52159999D02*
X117500000Y49609999D01*
X119200000Y52159999D02*
X119200000Y49609999D01*
X125208185Y47651430D02*
X124882627Y47651430D01*
X125208185Y48671430D02*
X124882627Y48671430D01*
X52860000Y49322779D02*
X52860000Y48997221D01*
X51840000Y49322779D02*
X51840000Y48997221D01*
X24446000Y81250293D02*
X24446000Y80924735D01*
X25466000Y81250293D02*
X25466000Y80924735D01*
X20395501Y81250291D02*
X20395501Y80924733D01*
X21415501Y81250291D02*
X21415501Y80924733D01*
X16345000Y81250292D02*
X16345000Y80924734D01*
X17365000Y81250292D02*
X17365000Y80924734D01*
X25651001Y82602514D02*
X25651001Y84887514D01*
X24181001Y82602514D02*
X25651001Y82602514D01*
X24181001Y84887514D02*
X24181001Y82602514D01*
X21640500Y82602512D02*
X21640500Y84887512D01*
X20170500Y82602512D02*
X21640500Y82602512D01*
X20170500Y84887512D02*
X20170500Y82602512D01*
X17630000Y82602515D02*
X17630000Y84887515D01*
X16160000Y82602515D02*
X17630000Y82602515D01*
X16160000Y84887515D02*
X16160000Y82602515D01*
X53600000Y47510000D02*
X48200000Y47510000D01*
X53600000Y43010000D02*
X53600000Y47510000D01*
X53662779Y78750000D02*
X53337221Y78750000D01*
X53662779Y79770000D02*
X53337221Y79770000D01*
X60710000Y75920000D02*
X60710000Y76870000D01*
X60710000Y76870000D02*
X59760000Y76870000D01*
X60710000Y53600000D02*
X60710000Y52650000D01*
X60710000Y52650000D02*
X59760000Y52650000D01*
X36490000Y75920000D02*
X36490000Y76870000D01*
X36490000Y76870000D02*
X37440000Y76870000D01*
X36490000Y53600000D02*
X36490000Y52650000D01*
X36490000Y52650000D02*
X37440000Y52650000D01*
X37440000Y52650000D02*
X37440000Y51335000D01*
X68180000Y43963194D02*
X68180000Y43637636D01*
X67160000Y43963194D02*
X67160000Y43637636D01*
X66140000Y43963194D02*
X66140000Y43637636D01*
X65120000Y43963194D02*
X65120000Y43637636D01*
X68230000Y48190416D02*
X67300000Y48190416D01*
X65070000Y48190416D02*
X66000000Y48190416D01*
X65070000Y48190416D02*
X65070000Y46030416D01*
X68230000Y48190416D02*
X68230000Y46730416D01*
X90442279Y46847637D02*
X90442279Y47173195D01*
X91462279Y46847637D02*
X91462279Y47173195D01*
X96451192Y46847637D02*
X96451192Y47173195D01*
X97471192Y46847637D02*
X97471192Y47173195D01*
X83110000Y43963194D02*
X83110000Y43637636D01*
X84130000Y43963194D02*
X84130000Y43637636D01*
X82090000Y43637636D02*
X82090000Y43963194D01*
X81070000Y43637636D02*
X81070000Y43963194D01*
X94466736Y43763194D02*
X94466736Y43437636D01*
X95486736Y43763194D02*
X95486736Y43437636D01*
X92426734Y43763194D02*
X92426734Y43437636D01*
X93446734Y43763194D02*
X93446734Y43437636D01*
X90442279Y43763194D02*
X90442279Y43437636D01*
X91462279Y43763194D02*
X91462279Y43437636D01*
X70910000Y43963194D02*
X70910000Y43637636D01*
X71930000Y43963194D02*
X71930000Y43637636D01*
X68870000Y43963194D02*
X68870000Y43637636D01*
X69890000Y43963194D02*
X69890000Y43637636D01*
X75880000Y43963194D02*
X75880000Y43637636D01*
X74860000Y43963194D02*
X74860000Y43637636D01*
X73840000Y43963194D02*
X73840000Y43637636D01*
X72820000Y43963194D02*
X72820000Y43637636D01*
X80030000Y43963194D02*
X80030000Y43637636D01*
X79010000Y43963194D02*
X79010000Y43637636D01*
X77990000Y43963194D02*
X77990000Y43637636D01*
X76970000Y43963194D02*
X76970000Y43637636D01*
X100475648Y43763194D02*
X100475648Y43437636D01*
X101495648Y43763194D02*
X101495648Y43437636D01*
X98435648Y43763194D02*
X98435648Y43437636D01*
X99455648Y43763194D02*
X99455648Y43437636D01*
X96451192Y43763194D02*
X96451192Y43437636D01*
X97471192Y43763194D02*
X97471192Y43437636D01*
X88224807Y43863193D02*
X88224807Y43537635D01*
X87204807Y43863193D02*
X87204807Y43537635D01*
X86184807Y43863193D02*
X86184807Y43537635D01*
X85164807Y43863193D02*
X85164807Y43537635D01*
X26893603Y44063194D02*
X26893603Y43737636D01*
X25873603Y44063194D02*
X25873603Y43737636D01*
X24853602Y44063194D02*
X24853602Y43737636D01*
X23833602Y44063194D02*
X23833602Y43737636D01*
X31101403Y44063194D02*
X31101403Y43737636D01*
X30081403Y44063194D02*
X30081403Y43737636D01*
X29061403Y44063193D02*
X29061403Y43737635D01*
X28041403Y44063193D02*
X28041403Y43737635D01*
X39517005Y44063193D02*
X39517005Y43737635D01*
X38497005Y44063193D02*
X38497005Y43737635D01*
X37477005Y44063194D02*
X37477005Y43737636D01*
X36457005Y44063194D02*
X36457005Y43737636D01*
X35309204Y44063194D02*
X35309204Y43737636D01*
X34289204Y44063194D02*
X34289204Y43737636D01*
X33269204Y44063194D02*
X33269204Y43737636D01*
X32249204Y44063194D02*
X32249204Y43737636D01*
X22685801Y44063194D02*
X22685801Y43737636D01*
X21665801Y44063194D02*
X21665801Y43737636D01*
X20645801Y44063194D02*
X20645801Y43737636D01*
X19625801Y44063194D02*
X19625801Y43737636D01*
X18477999Y44063194D02*
X18477999Y43737636D01*
X17457999Y44063194D02*
X17457999Y43737636D01*
X16438000Y44063193D02*
X16438000Y43737635D01*
X15418000Y44063193D02*
X15418000Y43737635D01*
X84180000Y48190416D02*
X84180000Y46730416D01*
X81020000Y48190416D02*
X81020000Y46030416D01*
X81020000Y48190416D02*
X81950000Y48190416D01*
X84180000Y48190416D02*
X83250000Y48190416D01*
X95536736Y47990416D02*
X95536736Y46530416D01*
X92376736Y47990416D02*
X92376736Y45830416D01*
X92376736Y47990416D02*
X93306736Y47990416D01*
X95536736Y47990416D02*
X94606736Y47990416D01*
X71980000Y48190416D02*
X71980000Y46730416D01*
X68820000Y48190416D02*
X68820000Y46030416D01*
X68820000Y48190416D02*
X69750000Y48190416D01*
X71980000Y48190416D02*
X71050000Y48190416D01*
X80080000Y48190416D02*
X79150000Y48190416D01*
X76920000Y48190416D02*
X77850000Y48190416D01*
X76920000Y48190416D02*
X76920000Y46030416D01*
X80080000Y48190416D02*
X80080000Y46730416D01*
X101545648Y47990416D02*
X101545648Y46530416D01*
X98385648Y47990416D02*
X98385648Y45830416D01*
X98385648Y47990416D02*
X99315648Y47990416D01*
X101545648Y47990416D02*
X100615648Y47990416D01*
X88274807Y48090416D02*
X87344807Y48090416D01*
X85114807Y48090416D02*
X86044807Y48090416D01*
X85114807Y48090416D02*
X85114807Y45930416D01*
X88274807Y48090416D02*
X88274807Y46630416D01*
X26943602Y48290416D02*
X26013602Y48290416D01*
X23783602Y48290416D02*
X24713602Y48290416D01*
X23783602Y48290416D02*
X23783602Y46130416D01*
X26943602Y48290416D02*
X26943602Y46830416D01*
X31151403Y48290416D02*
X30221403Y48290416D01*
X27991403Y48290416D02*
X28921403Y48290416D01*
X27991403Y48290416D02*
X27991403Y46130416D01*
X31151403Y48290416D02*
X31151403Y46830416D01*
X39567005Y48290416D02*
X38637005Y48290416D01*
X36407005Y48290416D02*
X37337005Y48290416D01*
X36407005Y48290416D02*
X36407005Y46130416D01*
X39567005Y48290416D02*
X39567005Y46830416D01*
X35359204Y48290416D02*
X34429204Y48290416D01*
X32199204Y48290416D02*
X33129204Y48290416D01*
X32199204Y48290416D02*
X32199204Y46130416D01*
X35359204Y48290416D02*
X35359204Y46830416D01*
X22735801Y48290416D02*
X21805801Y48290416D01*
X19575801Y48290416D02*
X20505801Y48290416D01*
X19575801Y48290416D02*
X19575801Y46130416D01*
X22735801Y48290416D02*
X22735801Y46830416D01*
X18528000Y48290416D02*
X17598000Y48290416D01*
X15368000Y48290416D02*
X16298000Y48290416D01*
X15368000Y48290416D02*
X15368000Y46130416D01*
X18528000Y48290416D02*
X18528000Y46830416D01*
D10*
X28900000Y86110000D02*
X40100000Y86110000D01*
X40100000Y86110000D02*
X40100000Y80910000D01*
X40100000Y80910000D02*
X28900000Y80910000D01*
X28900000Y80910000D02*
X28900000Y86110000D01*
X40450000Y85310000D02*
X40450000Y86460000D01*
X40450000Y86460000D02*
X39300000Y86460000D01*
D13*
X68390000Y71672779D02*
X68390000Y71347221D01*
X69410000Y71672779D02*
X69410000Y71347221D01*
X54040000Y45422779D02*
X54040000Y45097221D01*
X55060000Y45422779D02*
X55060000Y45097221D01*
X47810000Y45097221D02*
X47810000Y45422779D01*
X46790000Y45097221D02*
X46790000Y45422779D01*
X71337221Y67750000D02*
X71662779Y67750000D01*
X71337221Y68770000D02*
X71662779Y68770000D01*
X71337221Y70250000D02*
X71662779Y70250000D01*
X71337221Y71270000D02*
X71662779Y71270000D01*
X33462779Y59520000D02*
X33137221Y59520000D01*
X33462779Y58500000D02*
X33137221Y58500000D01*
X44937221Y80750000D02*
X45262779Y80750000D01*
X44937221Y81770000D02*
X45262779Y81770000D01*
X32510000Y67597221D02*
X32510000Y67922779D01*
X31490000Y67597221D02*
X31490000Y67922779D01*
X34560000Y63134721D02*
X34560000Y63460279D01*
X33540000Y63134721D02*
X33540000Y63460279D01*
X137162779Y66150000D02*
X136837221Y66150000D01*
X137162779Y67170000D02*
X136837221Y67170000D01*
X33462779Y56669315D02*
X33137221Y56669315D01*
X33462779Y55649315D02*
X33137221Y55649315D01*
X62690000Y54222779D02*
X62690000Y53897221D01*
X63710000Y54222779D02*
X63710000Y53897221D01*
X58740000Y43922779D02*
X58740000Y43597221D01*
X59760000Y43922779D02*
X59760000Y43597221D01*
X111662779Y70250000D02*
X111337221Y70250000D01*
X111662779Y71270000D02*
X111337221Y71270000D01*
X58030672Y48520000D02*
X57705114Y48520000D01*
X58030672Y47500000D02*
X57705114Y47500000D01*
X25240000Y61097221D02*
X25240000Y61422779D01*
X26260000Y61097221D02*
X26260000Y61422779D01*
X33462779Y55154314D02*
X33137221Y55154314D01*
X33462779Y54134314D02*
X33137221Y54134314D01*
X33240000Y74097221D02*
X33240000Y74422779D01*
X34260000Y74097221D02*
X34260000Y74422779D01*
X38437221Y78809099D02*
X38762779Y78809099D01*
X38437221Y79829099D02*
X38762779Y79829099D01*
X56474721Y78750000D02*
X56800279Y78750000D01*
X56474721Y79770000D02*
X56800279Y79770000D01*
X64712221Y72465000D02*
X65037779Y72465000D01*
X64712221Y73485000D02*
X65037779Y73485000D01*
X65760000Y67422779D02*
X65760000Y67097221D01*
X64740000Y67422779D02*
X64740000Y67097221D01*
X62615000Y62387779D02*
X62615000Y62062221D01*
X63635000Y62387779D02*
X63635000Y62062221D01*
X64390000Y54222779D02*
X64390000Y53897221D01*
X65410000Y54222779D02*
X65410000Y53897221D01*
X54840000Y49322779D02*
X54840000Y48997221D01*
X55860000Y49322779D02*
X55860000Y48997221D01*
X48762779Y50420000D02*
X48437221Y50420000D01*
X48762779Y49400000D02*
X48437221Y49400000D01*
X44812779Y50520000D02*
X44487221Y50520000D01*
X44812779Y49500000D02*
X44487221Y49500000D01*
X89087221Y75845000D02*
X89412779Y75845000D01*
X89087221Y74825000D02*
X89412779Y74825000D01*
D10*
X11666666Y32057620D02*
X11666666Y31343334D01*
X11619047Y31200477D01*
X11523809Y31105239D01*
X11380952Y31057620D01*
X11285714Y31057620D01*
X12047619Y32057620D02*
X12666666Y32057620D01*
X12333333Y31676667D01*
X12476190Y31676667D01*
X12571428Y31629048D01*
X12619047Y31581429D01*
X12666666Y31486191D01*
X12666666Y31248096D01*
X12619047Y31152858D01*
X12571428Y31105239D01*
X12476190Y31057620D01*
X12190476Y31057620D01*
X12095238Y31105239D01*
X12047619Y31152858D01*
X120907140Y46118218D02*
X120859521Y46070599D01*
X120716664Y46022980D01*
X120621426Y46022980D01*
X120478569Y46070599D01*
X120383331Y46165837D01*
X120335712Y46261075D01*
X120288093Y46451551D01*
X120288093Y46594408D01*
X120335712Y46784884D01*
X120383331Y46880122D01*
X120478569Y46975360D01*
X120621426Y47022980D01*
X120716664Y47022980D01*
X120859521Y46975360D01*
X120907140Y46927741D01*
X121240474Y47022980D02*
X121859521Y47022980D01*
X121526188Y46642027D01*
X121669045Y46642027D01*
X121764283Y46594408D01*
X121811902Y46546789D01*
X121859521Y46451551D01*
X121859521Y46213456D01*
X121811902Y46118218D01*
X121764283Y46070599D01*
X121669045Y46022980D01*
X121383331Y46022980D01*
X121288093Y46070599D01*
X121240474Y46118218D01*
X122335712Y46022980D02*
X122526188Y46022980D01*
X122621426Y46070599D01*
X122669045Y46118218D01*
X122764283Y46261075D01*
X122811902Y46451551D01*
X122811902Y46832503D01*
X122764283Y46927741D01*
X122716664Y46975360D01*
X122621426Y47022980D01*
X122430950Y47022980D01*
X122335712Y46975360D01*
X122288093Y46927741D01*
X122240474Y46832503D01*
X122240474Y46594408D01*
X122288093Y46499170D01*
X122335712Y46451551D01*
X122430950Y46403932D01*
X122621426Y46403932D01*
X122716664Y46451551D01*
X122764283Y46499170D01*
X122811902Y46594408D01*
X126607142Y58617143D02*
X126654761Y58569524D01*
X126702380Y58426667D01*
X126702380Y58331429D01*
X126654761Y58188572D01*
X126559523Y58093334D01*
X126464285Y58045715D01*
X126273809Y57998096D01*
X126130952Y57998096D01*
X125940476Y58045715D01*
X125845238Y58093334D01*
X125750000Y58188572D01*
X125702380Y58331429D01*
X125702380Y58426667D01*
X125750000Y58569524D01*
X125797619Y58617143D01*
X125702380Y58950477D02*
X125702380Y59569524D01*
X126083333Y59236191D01*
X126083333Y59379048D01*
X126130952Y59474286D01*
X126178571Y59521905D01*
X126273809Y59569524D01*
X126511904Y59569524D01*
X126607142Y59521905D01*
X126654761Y59474286D01*
X126702380Y59379048D01*
X126702380Y59093334D01*
X126654761Y58998096D01*
X126607142Y58950477D01*
X126130952Y60140953D02*
X126083333Y60045715D01*
X126035714Y59998096D01*
X125940476Y59950477D01*
X125892857Y59950477D01*
X125797619Y59998096D01*
X125750000Y60045715D01*
X125702380Y60140953D01*
X125702380Y60331429D01*
X125750000Y60426667D01*
X125797619Y60474286D01*
X125892857Y60521905D01*
X125940476Y60521905D01*
X126035714Y60474286D01*
X126083333Y60426667D01*
X126130952Y60331429D01*
X126130952Y60140953D01*
X126178571Y60045715D01*
X126226190Y59998096D01*
X126321428Y59950477D01*
X126511904Y59950477D01*
X126607142Y59998096D01*
X126654761Y60045715D01*
X126702380Y60140953D01*
X126702380Y60331429D01*
X126654761Y60426667D01*
X126607142Y60474286D01*
X126511904Y60521905D01*
X126321428Y60521905D01*
X126226190Y60474286D01*
X126178571Y60426667D01*
X126130952Y60331429D01*
X41607142Y82867143D02*
X41654761Y82819524D01*
X41702380Y82676667D01*
X41702380Y82581429D01*
X41654761Y82438572D01*
X41559523Y82343334D01*
X41464285Y82295715D01*
X41273809Y82248096D01*
X41130952Y82248096D01*
X40940476Y82295715D01*
X40845238Y82343334D01*
X40750000Y82438572D01*
X40702380Y82581429D01*
X40702380Y82676667D01*
X40750000Y82819524D01*
X40797619Y82867143D01*
X40702380Y83200477D02*
X40702380Y83819524D01*
X41083333Y83486191D01*
X41083333Y83629048D01*
X41130952Y83724286D01*
X41178571Y83771905D01*
X41273809Y83819524D01*
X41511904Y83819524D01*
X41607142Y83771905D01*
X41654761Y83724286D01*
X41702380Y83629048D01*
X41702380Y83343334D01*
X41654761Y83248096D01*
X41607142Y83200477D01*
X40702380Y84152858D02*
X40702380Y84819524D01*
X41702380Y84390953D01*
X65357142Y68902858D02*
X65309523Y68855239D01*
X65166666Y68807620D01*
X65071428Y68807620D01*
X64928571Y68855239D01*
X64833333Y68950477D01*
X64785714Y69045715D01*
X64738095Y69236191D01*
X64738095Y69379048D01*
X64785714Y69569524D01*
X64833333Y69664762D01*
X64928571Y69760000D01*
X65071428Y69807620D01*
X65166666Y69807620D01*
X65309523Y69760000D01*
X65357142Y69712381D01*
X65690476Y69807620D02*
X66309523Y69807620D01*
X65976190Y69426667D01*
X66119047Y69426667D01*
X66214285Y69379048D01*
X66261904Y69331429D01*
X66309523Y69236191D01*
X66309523Y68998096D01*
X66261904Y68902858D01*
X66214285Y68855239D01*
X66119047Y68807620D01*
X65833333Y68807620D01*
X65738095Y68855239D01*
X65690476Y68902858D01*
X67166666Y69807620D02*
X66976190Y69807620D01*
X66880952Y69760000D01*
X66833333Y69712381D01*
X66738095Y69569524D01*
X66690476Y69379048D01*
X66690476Y68998096D01*
X66738095Y68902858D01*
X66785714Y68855239D01*
X66880952Y68807620D01*
X67071428Y68807620D01*
X67166666Y68855239D01*
X67214285Y68902858D01*
X67261904Y68998096D01*
X67261904Y69236191D01*
X67214285Y69331429D01*
X67166666Y69379048D01*
X67071428Y69426667D01*
X66880952Y69426667D01*
X66785714Y69379048D01*
X66738095Y69331429D01*
X66690476Y69236191D01*
X47607142Y78902858D02*
X47559523Y78855239D01*
X47416666Y78807620D01*
X47321428Y78807620D01*
X47178571Y78855239D01*
X47083333Y78950477D01*
X47035714Y79045715D01*
X46988095Y79236191D01*
X46988095Y79379048D01*
X47035714Y79569524D01*
X47083333Y79664762D01*
X47178571Y79760000D01*
X47321428Y79807620D01*
X47416666Y79807620D01*
X47559523Y79760000D01*
X47607142Y79712381D01*
X47940476Y79807620D02*
X48559523Y79807620D01*
X48226190Y79426667D01*
X48369047Y79426667D01*
X48464285Y79379048D01*
X48511904Y79331429D01*
X48559523Y79236191D01*
X48559523Y78998096D01*
X48511904Y78902858D01*
X48464285Y78855239D01*
X48369047Y78807620D01*
X48083333Y78807620D01*
X47988095Y78855239D01*
X47940476Y78902858D01*
X49464285Y79807620D02*
X48988095Y79807620D01*
X48940476Y79331429D01*
X48988095Y79379048D01*
X49083333Y79426667D01*
X49321428Y79426667D01*
X49416666Y79379048D01*
X49464285Y79331429D01*
X49511904Y79236191D01*
X49511904Y78998096D01*
X49464285Y78902858D01*
X49416666Y78855239D01*
X49321428Y78807620D01*
X49083333Y78807620D01*
X48988095Y78855239D01*
X48940476Y78902858D01*
X34107142Y70367143D02*
X34154761Y70319524D01*
X34202380Y70176667D01*
X34202380Y70081429D01*
X34154761Y69938572D01*
X34059523Y69843334D01*
X33964285Y69795715D01*
X33773809Y69748096D01*
X33630952Y69748096D01*
X33440476Y69795715D01*
X33345238Y69843334D01*
X33250000Y69938572D01*
X33202380Y70081429D01*
X33202380Y70176667D01*
X33250000Y70319524D01*
X33297619Y70367143D01*
X33202380Y70700477D02*
X33202380Y71319524D01*
X33583333Y70986191D01*
X33583333Y71129048D01*
X33630952Y71224286D01*
X33678571Y71271905D01*
X33773809Y71319524D01*
X34011904Y71319524D01*
X34107142Y71271905D01*
X34154761Y71224286D01*
X34202380Y71129048D01*
X34202380Y70843334D01*
X34154761Y70748096D01*
X34107142Y70700477D01*
X33202380Y71652858D02*
X33202380Y72271905D01*
X33583333Y71938572D01*
X33583333Y72081429D01*
X33630952Y72176667D01*
X33678571Y72224286D01*
X33773809Y72271905D01*
X34011904Y72271905D01*
X34107142Y72224286D01*
X34154761Y72176667D01*
X34202380Y72081429D01*
X34202380Y71795715D01*
X34154761Y71700477D01*
X34107142Y71652858D01*
X60507142Y49552858D02*
X60459523Y49505239D01*
X60316666Y49457620D01*
X60221428Y49457620D01*
X60078571Y49505239D01*
X59983333Y49600477D01*
X59935714Y49695715D01*
X59888095Y49886191D01*
X59888095Y50029048D01*
X59935714Y50219524D01*
X59983333Y50314762D01*
X60078571Y50410000D01*
X60221428Y50457620D01*
X60316666Y50457620D01*
X60459523Y50410000D01*
X60507142Y50362381D01*
X60840476Y50457620D02*
X61459523Y50457620D01*
X61126190Y50076667D01*
X61269047Y50076667D01*
X61364285Y50029048D01*
X61411904Y49981429D01*
X61459523Y49886191D01*
X61459523Y49648096D01*
X61411904Y49552858D01*
X61364285Y49505239D01*
X61269047Y49457620D01*
X60983333Y49457620D01*
X60888095Y49505239D01*
X60840476Y49552858D01*
X62078571Y50457620D02*
X62173809Y50457620D01*
X62269047Y50410000D01*
X62316666Y50362381D01*
X62364285Y50267143D01*
X62411904Y50076667D01*
X62411904Y49838572D01*
X62364285Y49648096D01*
X62316666Y49552858D01*
X62269047Y49505239D01*
X62173809Y49457620D01*
X62078571Y49457620D01*
X61983333Y49505239D01*
X61935714Y49552858D01*
X61888095Y49648096D01*
X61840476Y49838572D01*
X61840476Y50076667D01*
X61888095Y50267143D01*
X61935714Y50362381D01*
X61983333Y50410000D01*
X62078571Y50457620D01*
X63107142Y64402858D02*
X63059523Y64355239D01*
X62916666Y64307620D01*
X62821428Y64307620D01*
X62678571Y64355239D01*
X62583333Y64450477D01*
X62535714Y64545715D01*
X62488095Y64736191D01*
X62488095Y64879048D01*
X62535714Y65069524D01*
X62583333Y65164762D01*
X62678571Y65260000D01*
X62821428Y65307620D01*
X62916666Y65307620D01*
X63059523Y65260000D01*
X63107142Y65212381D01*
X63488095Y65212381D02*
X63535714Y65260000D01*
X63630952Y65307620D01*
X63869047Y65307620D01*
X63964285Y65260000D01*
X64011904Y65212381D01*
X64059523Y65117143D01*
X64059523Y65021905D01*
X64011904Y64879048D01*
X63440476Y64307620D01*
X64059523Y64307620D01*
X64916666Y65307620D02*
X64726190Y65307620D01*
X64630952Y65260000D01*
X64583333Y65212381D01*
X64488095Y65069524D01*
X64440476Y64879048D01*
X64440476Y64498096D01*
X64488095Y64402858D01*
X64535714Y64355239D01*
X64630952Y64307620D01*
X64821428Y64307620D01*
X64916666Y64355239D01*
X64964285Y64402858D01*
X65011904Y64498096D01*
X65011904Y64736191D01*
X64964285Y64831429D01*
X64916666Y64879048D01*
X64821428Y64926667D01*
X64630952Y64926667D01*
X64535714Y64879048D01*
X64488095Y64831429D01*
X64440476Y64736191D01*
X120357142Y59093334D02*
X120404761Y59045715D01*
X120452380Y58902858D01*
X120452380Y58807620D01*
X120404761Y58664762D01*
X120309523Y58569524D01*
X120214285Y58521905D01*
X120023809Y58474286D01*
X119880952Y58474286D01*
X119690476Y58521905D01*
X119595238Y58569524D01*
X119500000Y58664762D01*
X119452380Y58807620D01*
X119452380Y58902858D01*
X119500000Y59045715D01*
X119547619Y59093334D01*
X119452380Y59426667D02*
X119452380Y60093334D01*
X120452380Y59664762D01*
X128107142Y62593334D02*
X128154761Y62545715D01*
X128202380Y62402858D01*
X128202380Y62307620D01*
X128154761Y62164762D01*
X128059523Y62069524D01*
X127964285Y62021905D01*
X127773809Y61974286D01*
X127630952Y61974286D01*
X127440476Y62021905D01*
X127345238Y62069524D01*
X127250000Y62164762D01*
X127202380Y62307620D01*
X127202380Y62402858D01*
X127250000Y62545715D01*
X127297619Y62593334D01*
X127202380Y63450477D02*
X127202380Y63260000D01*
X127250000Y63164762D01*
X127297619Y63117143D01*
X127440476Y63021905D01*
X127630952Y62974286D01*
X128011904Y62974286D01*
X128107142Y63021905D01*
X128154761Y63069524D01*
X128202380Y63164762D01*
X128202380Y63355239D01*
X128154761Y63450477D01*
X128107142Y63498096D01*
X128011904Y63545715D01*
X127773809Y63545715D01*
X127678571Y63498096D01*
X127630952Y63450477D01*
X127583333Y63355239D01*
X127583333Y63164762D01*
X127630952Y63069524D01*
X127678571Y63021905D01*
X127773809Y62974286D01*
X104333333Y61152858D02*
X104285714Y61105239D01*
X104142857Y61057620D01*
X104047619Y61057620D01*
X103904761Y61105239D01*
X103809523Y61200477D01*
X103761904Y61295715D01*
X103714285Y61486191D01*
X103714285Y61629048D01*
X103761904Y61819524D01*
X103809523Y61914762D01*
X103904761Y62010000D01*
X104047619Y62057620D01*
X104142857Y62057620D01*
X104285714Y62010000D01*
X104333333Y61962381D01*
X105190476Y61724286D02*
X105190476Y61057620D01*
X104952380Y62105239D02*
X104714285Y61390953D01*
X105333333Y61390953D01*
X24488095Y74057620D02*
X24488095Y73248096D01*
X24535714Y73152858D01*
X24583333Y73105239D01*
X24678571Y73057620D01*
X24869047Y73057620D01*
X24964285Y73105239D01*
X25011904Y73152858D01*
X25059523Y73248096D01*
X25059523Y74057620D01*
X25964285Y73724286D02*
X25964285Y73057620D01*
X25726190Y74105239D02*
X25488095Y73390953D01*
X26107142Y73390953D01*
X18045833Y73807620D02*
X17712500Y74283810D01*
X17474404Y73807620D02*
X17474404Y74807620D01*
X17855357Y74807620D01*
X17950595Y74760000D01*
X17998214Y74712381D01*
X18045833Y74617143D01*
X18045833Y74474286D01*
X17998214Y74379048D01*
X17950595Y74331429D01*
X17855357Y74283810D01*
X17474404Y74283810D01*
X18379166Y74807620D02*
X19045833Y74807620D01*
X18617261Y73807620D01*
X20214285Y67807620D02*
X20785714Y67807620D01*
X20500000Y66807620D02*
X20500000Y67807620D01*
X21119047Y66807620D02*
X21119047Y67807620D01*
X21119047Y67331429D02*
X21690476Y67331429D01*
X21690476Y66807620D02*
X21690476Y67807620D01*
X22690476Y66807620D02*
X22119047Y66807620D01*
X22404761Y66807620D02*
X22404761Y67807620D01*
X22309523Y67664762D01*
X22214285Y67569524D01*
X22119047Y67521905D01*
X19452380Y67593334D02*
X18976190Y67260000D01*
X19452380Y67021905D02*
X18452380Y67021905D01*
X18452380Y67402858D01*
X18500000Y67498096D01*
X18547619Y67545715D01*
X18642857Y67593334D01*
X18785714Y67593334D01*
X18880952Y67545715D01*
X18928571Y67498096D01*
X18976190Y67402858D01*
X18976190Y67021905D01*
X18452380Y68498096D02*
X18452380Y68021905D01*
X18928571Y67974286D01*
X18880952Y68021905D01*
X18833333Y68117143D01*
X18833333Y68355239D01*
X18880952Y68450477D01*
X18928571Y68498096D01*
X19023809Y68545715D01*
X19261904Y68545715D01*
X19357142Y68498096D01*
X19404761Y68450477D01*
X19452380Y68355239D01*
X19452380Y68117143D01*
X19404761Y68021905D01*
X19357142Y67974286D01*
X17782142Y67593334D02*
X17829761Y67545715D01*
X17877380Y67402858D01*
X17877380Y67307620D01*
X17829761Y67164762D01*
X17734523Y67069524D01*
X17639285Y67021905D01*
X17448809Y66974286D01*
X17305952Y66974286D01*
X17115476Y67021905D01*
X17020238Y67069524D01*
X16925000Y67164762D01*
X16877380Y67307620D01*
X16877380Y67402858D01*
X16925000Y67545715D01*
X16972619Y67593334D01*
X17877380Y68069524D02*
X17877380Y68260000D01*
X17829761Y68355239D01*
X17782142Y68402858D01*
X17639285Y68498096D01*
X17448809Y68545715D01*
X17067857Y68545715D01*
X16972619Y68498096D01*
X16925000Y68450477D01*
X16877380Y68355239D01*
X16877380Y68164762D01*
X16925000Y68069524D01*
X16972619Y68021905D01*
X17067857Y67974286D01*
X17305952Y67974286D01*
X17401190Y68021905D01*
X17448809Y68069524D01*
X17496428Y68164762D01*
X17496428Y68355239D01*
X17448809Y68450477D01*
X17401190Y68498096D01*
X17305952Y68545715D01*
X125416666Y40057620D02*
X125416666Y39343334D01*
X125369047Y39200477D01*
X125273809Y39105239D01*
X125130952Y39057620D01*
X125035714Y39057620D01*
X126321428Y39724286D02*
X126321428Y39057620D01*
X126083333Y40105239D02*
X125845238Y39390953D01*
X126464285Y39390953D01*
X124690476Y61807620D02*
X125023809Y60807620D01*
X125357142Y61807620D01*
X126261904Y60807620D02*
X125928571Y61283810D01*
X125690476Y60807620D02*
X125690476Y61807620D01*
X126071428Y61807620D01*
X126166666Y61760000D01*
X126214285Y61712381D01*
X126261904Y61617143D01*
X126261904Y61474286D01*
X126214285Y61379048D01*
X126166666Y61331429D01*
X126071428Y61283810D01*
X125690476Y61283810D01*
X126642857Y61712381D02*
X126690476Y61760000D01*
X126785714Y61807620D01*
X127023809Y61807620D01*
X127119047Y61760000D01*
X127166666Y61712381D01*
X127214285Y61617143D01*
X127214285Y61521905D01*
X127166666Y61379048D01*
X126595238Y60807620D01*
X127214285Y60807620D01*
X126202380Y73200477D02*
X127202380Y73533810D01*
X126202380Y73867143D01*
X127202380Y74771905D02*
X126726190Y74438572D01*
X127202380Y74200477D02*
X126202380Y74200477D01*
X126202380Y74581429D01*
X126250000Y74676667D01*
X126297619Y74724286D01*
X126392857Y74771905D01*
X126535714Y74771905D01*
X126630952Y74724286D01*
X126678571Y74676667D01*
X126726190Y74581429D01*
X126726190Y74200477D01*
X127202380Y75724286D02*
X127202380Y75152858D01*
X127202380Y75438572D02*
X126202380Y75438572D01*
X126345238Y75343334D01*
X126440476Y75248096D01*
X126488095Y75152858D01*
X123416666Y64431429D02*
X123083333Y64431429D01*
X123083333Y63907620D02*
X123083333Y64907620D01*
X123559523Y64907620D01*
X124273809Y64431429D02*
X124416666Y64383810D01*
X124464285Y64336191D01*
X124511904Y64240953D01*
X124511904Y64098096D01*
X124464285Y64002858D01*
X124416666Y63955239D01*
X124321428Y63907620D01*
X123940476Y63907620D01*
X123940476Y64907620D01*
X124273809Y64907620D01*
X124369047Y64860000D01*
X124416666Y64812381D01*
X124464285Y64717143D01*
X124464285Y64621905D01*
X124416666Y64526667D01*
X124369047Y64479048D01*
X124273809Y64431429D01*
X123940476Y64431429D01*
X124845238Y64907620D02*
X125464285Y64907620D01*
X125130952Y64526667D01*
X125273809Y64526667D01*
X125369047Y64479048D01*
X125416666Y64431429D01*
X125464285Y64336191D01*
X125464285Y64098096D01*
X125416666Y64002858D01*
X125369047Y63955239D01*
X125273809Y63907620D01*
X124988095Y63907620D01*
X124892857Y63955239D01*
X124845238Y64002858D01*
X122257142Y59543334D02*
X122304761Y59495715D01*
X122352380Y59352858D01*
X122352380Y59257620D01*
X122304761Y59114762D01*
X122209523Y59019524D01*
X122114285Y58971905D01*
X121923809Y58924286D01*
X121780952Y58924286D01*
X121590476Y58971905D01*
X121495238Y59019524D01*
X121400000Y59114762D01*
X121352380Y59257620D01*
X121352380Y59352858D01*
X121400000Y59495715D01*
X121447619Y59543334D01*
X121780952Y60114762D02*
X121733333Y60019524D01*
X121685714Y59971905D01*
X121590476Y59924286D01*
X121542857Y59924286D01*
X121447619Y59971905D01*
X121400000Y60019524D01*
X121352380Y60114762D01*
X121352380Y60305239D01*
X121400000Y60400477D01*
X121447619Y60448096D01*
X121542857Y60495715D01*
X121590476Y60495715D01*
X121685714Y60448096D01*
X121733333Y60400477D01*
X121780952Y60305239D01*
X121780952Y60114762D01*
X121828571Y60019524D01*
X121876190Y59971905D01*
X121971428Y59924286D01*
X122161904Y59924286D01*
X122257142Y59971905D01*
X122304761Y60019524D01*
X122352380Y60114762D01*
X122352380Y60305239D01*
X122304761Y60400477D01*
X122257142Y60448096D01*
X122161904Y60495715D01*
X121971428Y60495715D01*
X121876190Y60448096D01*
X121828571Y60400477D01*
X121780952Y60305239D01*
X61257142Y40017143D02*
X61304761Y39969524D01*
X61352380Y39826667D01*
X61352380Y39731429D01*
X61304761Y39588572D01*
X61209523Y39493334D01*
X61114285Y39445715D01*
X60923809Y39398096D01*
X60780952Y39398096D01*
X60590476Y39445715D01*
X60495238Y39493334D01*
X60400000Y39588572D01*
X60352380Y39731429D01*
X60352380Y39826667D01*
X60400000Y39969524D01*
X60447619Y40017143D01*
X60685714Y40874286D02*
X61352380Y40874286D01*
X60304761Y40636191D02*
X61019047Y40398096D01*
X61019047Y41017143D01*
X61352380Y41921905D02*
X61352380Y41350477D01*
X61352380Y41636191D02*
X60352380Y41636191D01*
X60495238Y41540953D01*
X60590476Y41445715D01*
X60638095Y41350477D01*
X77866666Y75807620D02*
X77866666Y75093334D01*
X77819047Y74950477D01*
X77723809Y74855239D01*
X77580952Y74807620D01*
X77485714Y74807620D01*
X78771428Y75807620D02*
X78580952Y75807620D01*
X78485714Y75760000D01*
X78438095Y75712381D01*
X78342857Y75569524D01*
X78295238Y75379048D01*
X78295238Y74998096D01*
X78342857Y74902858D01*
X78390476Y74855239D01*
X78485714Y74807620D01*
X78676190Y74807620D01*
X78771428Y74855239D01*
X78819047Y74902858D01*
X78866666Y74998096D01*
X78866666Y75236191D01*
X78819047Y75331429D01*
X78771428Y75379048D01*
X78676190Y75426667D01*
X78485714Y75426667D01*
X78390476Y75379048D01*
X78342857Y75331429D01*
X78295238Y75236191D01*
X20288095Y58407620D02*
X20288095Y57598096D01*
X20335714Y57502858D01*
X20383333Y57455239D01*
X20478571Y57407620D01*
X20669047Y57407620D01*
X20764285Y57455239D01*
X20811904Y57502858D01*
X20859523Y57598096D01*
X20859523Y58407620D01*
X21288095Y58312381D02*
X21335714Y58360000D01*
X21430952Y58407620D01*
X21669047Y58407620D01*
X21764285Y58360000D01*
X21811904Y58312381D01*
X21859523Y58217143D01*
X21859523Y58121905D01*
X21811904Y57979048D01*
X21240476Y57407620D01*
X21859523Y57407620D01*
X15472380Y60617143D02*
X14996190Y60283810D01*
X15472380Y60045715D02*
X14472380Y60045715D01*
X14472380Y60426667D01*
X14520000Y60521905D01*
X14567619Y60569524D01*
X14662857Y60617143D01*
X14805714Y60617143D01*
X14900952Y60569524D01*
X14948571Y60521905D01*
X14996190Y60426667D01*
X14996190Y60045715D01*
X15472380Y61569524D02*
X15472380Y60998096D01*
X15472380Y61283810D02*
X14472380Y61283810D01*
X14615238Y61188572D01*
X14710476Y61093334D01*
X14758095Y60998096D01*
X14900952Y62140953D02*
X14853333Y62045715D01*
X14805714Y61998096D01*
X14710476Y61950477D01*
X14662857Y61950477D01*
X14567619Y61998096D01*
X14520000Y62045715D01*
X14472380Y62140953D01*
X14472380Y62331429D01*
X14520000Y62426667D01*
X14567619Y62474286D01*
X14662857Y62521905D01*
X14710476Y62521905D01*
X14805714Y62474286D01*
X14853333Y62426667D01*
X14900952Y62331429D01*
X14900952Y62140953D01*
X14948571Y62045715D01*
X14996190Y61998096D01*
X15091428Y61950477D01*
X15281904Y61950477D01*
X15377142Y61998096D01*
X15424761Y62045715D01*
X15472380Y62140953D01*
X15472380Y62331429D01*
X15424761Y62426667D01*
X15377142Y62474286D01*
X15281904Y62521905D01*
X15091428Y62521905D01*
X14996190Y62474286D01*
X14948571Y62426667D01*
X14900952Y62331429D01*
X116678571Y54139168D02*
X116678571Y53805835D01*
X117202380Y53805835D02*
X116202380Y53805835D01*
X116202380Y54282025D01*
X117202380Y55186787D02*
X117202380Y54615359D01*
X117202380Y54901073D02*
X116202380Y54901073D01*
X116345238Y54805835D01*
X116440476Y54710597D01*
X116488095Y54615359D01*
X73878571Y49312381D02*
X73783333Y49360000D01*
X73688095Y49455239D01*
X73545238Y49598096D01*
X73450000Y49645715D01*
X73354761Y49645715D01*
X73402380Y49407620D02*
X73307142Y49455239D01*
X73211904Y49550477D01*
X73164285Y49740953D01*
X73164285Y50074286D01*
X73211904Y50264762D01*
X73307142Y50360000D01*
X73402380Y50407620D01*
X73592857Y50407620D01*
X73688095Y50360000D01*
X73783333Y50264762D01*
X73830952Y50074286D01*
X73830952Y49740953D01*
X73783333Y49550477D01*
X73688095Y49455239D01*
X73592857Y49407620D01*
X73402380Y49407620D01*
X74783333Y49407620D02*
X74211904Y49407620D01*
X74497619Y49407620D02*
X74497619Y50407620D01*
X74402380Y50264762D01*
X74307142Y50169524D01*
X74211904Y50121905D01*
X75164285Y50312381D02*
X75211904Y50360000D01*
X75307142Y50407620D01*
X75545238Y50407620D01*
X75640476Y50360000D01*
X75688095Y50312381D01*
X75735714Y50217143D01*
X75735714Y50121905D01*
X75688095Y49979048D01*
X75116666Y49407620D01*
X75735714Y49407620D01*
X111488095Y62557620D02*
X111488095Y61748096D01*
X111535714Y61652858D01*
X111583333Y61605239D01*
X111678571Y61557620D01*
X111869047Y61557620D01*
X111964285Y61605239D01*
X112011904Y61652858D01*
X112059523Y61748096D01*
X112059523Y62557620D01*
X113059523Y61557620D02*
X112488095Y61557620D01*
X112773809Y61557620D02*
X112773809Y62557620D01*
X112678571Y62414762D01*
X112583333Y62319524D01*
X112488095Y62271905D01*
X133386101Y61707620D02*
X133052768Y62183810D01*
X132814673Y61707620D02*
X132814673Y62707620D01*
X133195625Y62707620D01*
X133290863Y62660000D01*
X133338482Y62612381D01*
X133386101Y62517143D01*
X133386101Y62374286D01*
X133338482Y62279048D01*
X133290863Y62231429D01*
X133195625Y62183810D01*
X132814673Y62183810D01*
X134338482Y61707620D02*
X133767054Y61707620D01*
X134052768Y61707620D02*
X134052768Y62707620D01*
X133957530Y62564762D01*
X133862292Y62469524D01*
X133767054Y62421905D01*
X134719435Y62612381D02*
X134767054Y62660000D01*
X134862292Y62707620D01*
X135100387Y62707620D01*
X135195625Y62660000D01*
X135243244Y62612381D01*
X135290863Y62517143D01*
X135290863Y62421905D01*
X135243244Y62279048D01*
X134671816Y61707620D01*
X135290863Y61707620D01*
X120916666Y52081429D02*
X120583333Y52081429D01*
X120583333Y51557620D02*
X120583333Y52557620D01*
X121059523Y52557620D01*
X121773809Y52081429D02*
X121916666Y52033810D01*
X121964285Y51986191D01*
X122011904Y51890953D01*
X122011904Y51748096D01*
X121964285Y51652858D01*
X121916666Y51605239D01*
X121821428Y51557620D01*
X121440476Y51557620D01*
X121440476Y52557620D01*
X121773809Y52557620D01*
X121869047Y52510000D01*
X121916666Y52462381D01*
X121964285Y52367143D01*
X121964285Y52271905D01*
X121916666Y52176667D01*
X121869047Y52129048D01*
X121773809Y52081429D01*
X121440476Y52081429D01*
X122869047Y52224286D02*
X122869047Y51557620D01*
X122630952Y52605239D02*
X122392857Y51890953D01*
X123011904Y51890953D01*
X133035714Y63207620D02*
X133035714Y64207620D01*
X133273809Y64207620D01*
X133416666Y64160000D01*
X133511904Y64064762D01*
X133559523Y63969524D01*
X133607142Y63779048D01*
X133607142Y63636191D01*
X133559523Y63445715D01*
X133511904Y63350477D01*
X133416666Y63255239D01*
X133273809Y63207620D01*
X133035714Y63207620D01*
X134559523Y63207620D02*
X133988095Y63207620D01*
X134273809Y63207620D02*
X134273809Y64207620D01*
X134178571Y64064762D01*
X134083333Y63969524D01*
X133988095Y63921905D01*
X135511904Y63207620D02*
X134940476Y63207620D01*
X135226190Y63207620D02*
X135226190Y64207620D01*
X135130952Y64064762D01*
X135035714Y63969524D01*
X134940476Y63921905D01*
X120564673Y49557620D02*
X120564673Y50557620D01*
X120802768Y50557620D01*
X120945625Y50510000D01*
X121040863Y50414762D01*
X121088482Y50319524D01*
X121136101Y50129048D01*
X121136101Y49986191D01*
X121088482Y49795715D01*
X121040863Y49700477D01*
X120945625Y49605239D01*
X120802768Y49557620D01*
X120564673Y49557620D01*
X122088482Y49557620D02*
X121517054Y49557620D01*
X121802768Y49557620D02*
X121802768Y50557620D01*
X121707530Y50414762D01*
X121612292Y50319524D01*
X121517054Y50271905D01*
X122707530Y50557620D02*
X122802768Y50557620D01*
X122898006Y50510000D01*
X122945625Y50462381D01*
X122993244Y50367143D01*
X123040863Y50176667D01*
X123040863Y49938572D01*
X122993244Y49748096D01*
X122945625Y49652858D01*
X122898006Y49605239D01*
X122802768Y49557620D01*
X122707530Y49557620D01*
X122612292Y49605239D01*
X122564673Y49652858D01*
X122517054Y49748096D01*
X122469435Y49938572D01*
X122469435Y50176667D01*
X122517054Y50367143D01*
X122564673Y50462381D01*
X122612292Y50510000D01*
X122707530Y50557620D01*
X124702380Y58571905D02*
X123702380Y58571905D01*
X123702380Y58810000D01*
X123750000Y58952858D01*
X123845238Y59048096D01*
X123940476Y59095715D01*
X124130952Y59143334D01*
X124273809Y59143334D01*
X124464285Y59095715D01*
X124559523Y59048096D01*
X124654761Y58952858D01*
X124702380Y58810000D01*
X124702380Y58571905D01*
X124702380Y59619524D02*
X124702380Y59810000D01*
X124654761Y59905239D01*
X124607142Y59952858D01*
X124464285Y60048096D01*
X124273809Y60095715D01*
X123892857Y60095715D01*
X123797619Y60048096D01*
X123750000Y60000477D01*
X123702380Y59905239D01*
X123702380Y59714762D01*
X123750000Y59619524D01*
X123797619Y59571905D01*
X123892857Y59524286D01*
X124130952Y59524286D01*
X124226190Y59571905D01*
X124273809Y59619524D01*
X124321428Y59714762D01*
X124321428Y59905239D01*
X124273809Y60000477D01*
X124226190Y60048096D01*
X124130952Y60095715D01*
X133511904Y64707620D02*
X133511904Y65707620D01*
X133750000Y65707620D01*
X133892857Y65660000D01*
X133988095Y65564762D01*
X134035714Y65469524D01*
X134083333Y65279048D01*
X134083333Y65136191D01*
X134035714Y64945715D01*
X133988095Y64850477D01*
X133892857Y64755239D01*
X133750000Y64707620D01*
X133511904Y64707620D01*
X134940476Y65374286D02*
X134940476Y64707620D01*
X134702380Y65755239D02*
X134464285Y65040953D01*
X135083333Y65040953D01*
X118202380Y58601905D02*
X117202380Y58601905D01*
X117202380Y58840000D01*
X117250000Y58982858D01*
X117345238Y59078096D01*
X117440476Y59125715D01*
X117630952Y59173334D01*
X117773809Y59173334D01*
X117964285Y59125715D01*
X118059523Y59078096D01*
X118154761Y58982858D01*
X118202380Y58840000D01*
X118202380Y58601905D01*
X117202380Y59506667D02*
X117202380Y60125715D01*
X117583333Y59792381D01*
X117583333Y59935239D01*
X117630952Y60030477D01*
X117678571Y60078096D01*
X117773809Y60125715D01*
X118011904Y60125715D01*
X118107142Y60078096D01*
X118154761Y60030477D01*
X118202380Y59935239D01*
X118202380Y59649524D01*
X118154761Y59554286D01*
X118107142Y59506667D01*
X130152380Y62021905D02*
X129152380Y62021905D01*
X129152380Y62260000D01*
X129200000Y62402858D01*
X129295238Y62498096D01*
X129390476Y62545715D01*
X129580952Y62593334D01*
X129723809Y62593334D01*
X129914285Y62545715D01*
X130009523Y62498096D01*
X130104761Y62402858D01*
X130152380Y62260000D01*
X130152380Y62021905D01*
X129247619Y62974286D02*
X129200000Y63021905D01*
X129152380Y63117143D01*
X129152380Y63355239D01*
X129200000Y63450477D01*
X129247619Y63498096D01*
X129342857Y63545715D01*
X129438095Y63545715D01*
X129580952Y63498096D01*
X130152380Y62926667D01*
X130152380Y63545715D01*
X117202380Y50021905D02*
X116202380Y50021905D01*
X116202380Y50260000D01*
X116250000Y50402858D01*
X116345238Y50498096D01*
X116440476Y50545715D01*
X116630952Y50593334D01*
X116773809Y50593334D01*
X116964285Y50545715D01*
X117059523Y50498096D01*
X117154761Y50402858D01*
X117202380Y50260000D01*
X117202380Y50021905D01*
X117202380Y51545715D02*
X117202380Y50974286D01*
X117202380Y51260000D02*
X116202380Y51260000D01*
X116345238Y51164762D01*
X116440476Y51069524D01*
X116488095Y50974286D01*
X121136101Y47802858D02*
X121088482Y47755239D01*
X120945625Y47707620D01*
X120850387Y47707620D01*
X120707530Y47755239D01*
X120612292Y47850477D01*
X120564673Y47945715D01*
X120517054Y48136191D01*
X120517054Y48279048D01*
X120564673Y48469524D01*
X120612292Y48564762D01*
X120707530Y48660000D01*
X120850387Y48707620D01*
X120945625Y48707620D01*
X121088482Y48660000D01*
X121136101Y48612381D01*
X121993244Y48374286D02*
X121993244Y47707620D01*
X121755149Y48755239D02*
X121517054Y48040953D01*
X122136101Y48040953D01*
X122707530Y48707620D02*
X122802768Y48707620D01*
X122898006Y48660000D01*
X122945625Y48612381D01*
X122993244Y48517143D01*
X123040863Y48326667D01*
X123040863Y48088572D01*
X122993244Y47898096D01*
X122945625Y47802858D01*
X122898006Y47755239D01*
X122802768Y47707620D01*
X122707530Y47707620D01*
X122612292Y47755239D01*
X122564673Y47802858D01*
X122517054Y47898096D01*
X122469435Y48088572D01*
X122469435Y48326667D01*
X122517054Y48517143D01*
X122564673Y48612381D01*
X122612292Y48660000D01*
X122707530Y48707620D01*
X51452380Y48993334D02*
X50976190Y48660000D01*
X51452380Y48421905D02*
X50452380Y48421905D01*
X50452380Y48802858D01*
X50500000Y48898096D01*
X50547619Y48945715D01*
X50642857Y48993334D01*
X50785714Y48993334D01*
X50880952Y48945715D01*
X50928571Y48898096D01*
X50976190Y48802858D01*
X50976190Y48421905D01*
X50452380Y49850477D02*
X50452380Y49660000D01*
X50500000Y49564762D01*
X50547619Y49517143D01*
X50690476Y49421905D01*
X50880952Y49374286D01*
X51261904Y49374286D01*
X51357142Y49421905D01*
X51404761Y49469524D01*
X51452380Y49564762D01*
X51452380Y49755239D01*
X51404761Y49850477D01*
X51357142Y49898096D01*
X51261904Y49945715D01*
X51023809Y49945715D01*
X50928571Y49898096D01*
X50880952Y49850477D01*
X50833333Y49755239D01*
X50833333Y49564762D01*
X50880952Y49469524D01*
X50928571Y49421905D01*
X51023809Y49374286D01*
X23858380Y80394657D02*
X23382190Y80061324D01*
X23858380Y79823229D02*
X22858380Y79823229D01*
X22858380Y80204181D01*
X22906000Y80299419D01*
X22953619Y80347038D01*
X23048857Y80394657D01*
X23191714Y80394657D01*
X23286952Y80347038D01*
X23334571Y80299419D01*
X23382190Y80204181D01*
X23382190Y79823229D01*
X23191714Y81251800D02*
X23858380Y81251800D01*
X22810761Y81013705D02*
X23525047Y80775610D01*
X23525047Y81394657D01*
X22858380Y81680372D02*
X22858380Y82347038D01*
X23858380Y81918467D01*
X19807881Y80394655D02*
X19331691Y80061322D01*
X19807881Y79823227D02*
X18807881Y79823227D01*
X18807881Y80204179D01*
X18855501Y80299417D01*
X18903120Y80347036D01*
X18998358Y80394655D01*
X19141215Y80394655D01*
X19236453Y80347036D01*
X19284072Y80299417D01*
X19331691Y80204179D01*
X19331691Y79823227D01*
X19141215Y81251798D02*
X19807881Y81251798D01*
X18760262Y81013703D02*
X19474548Y80775608D01*
X19474548Y81394655D01*
X18807881Y82204179D02*
X18807881Y82013703D01*
X18855501Y81918465D01*
X18903120Y81870846D01*
X19045977Y81775608D01*
X19236453Y81727989D01*
X19617405Y81727989D01*
X19712643Y81775608D01*
X19760262Y81823227D01*
X19807881Y81918465D01*
X19807881Y82108941D01*
X19760262Y82204179D01*
X19712643Y82251798D01*
X19617405Y82299417D01*
X19379310Y82299417D01*
X19284072Y82251798D01*
X19236453Y82204179D01*
X19188834Y82108941D01*
X19188834Y81918465D01*
X19236453Y81823227D01*
X19284072Y81775608D01*
X19379310Y81727989D01*
X15757380Y80494656D02*
X15281190Y80161323D01*
X15757380Y79923228D02*
X14757380Y79923228D01*
X14757380Y80304180D01*
X14805000Y80399418D01*
X14852619Y80447037D01*
X14947857Y80494656D01*
X15090714Y80494656D01*
X15185952Y80447037D01*
X15233571Y80399418D01*
X15281190Y80304180D01*
X15281190Y79923228D01*
X14757380Y80827990D02*
X14757380Y81447037D01*
X15138333Y81113704D01*
X15138333Y81256561D01*
X15185952Y81351799D01*
X15233571Y81399418D01*
X15328809Y81447037D01*
X15566904Y81447037D01*
X15662142Y81399418D01*
X15709761Y81351799D01*
X15757380Y81256561D01*
X15757380Y80970847D01*
X15709761Y80875609D01*
X15662142Y80827990D01*
X14757380Y81780371D02*
X14757380Y82447037D01*
X15757380Y82018466D01*
X23768381Y83349419D02*
X22768381Y83349419D01*
X22768381Y83587514D01*
X22816001Y83730372D01*
X22911239Y83825610D01*
X23006477Y83873229D01*
X23196953Y83920848D01*
X23339810Y83920848D01*
X23530286Y83873229D01*
X23625524Y83825610D01*
X23720762Y83730372D01*
X23768381Y83587514D01*
X23768381Y83349419D01*
X22768381Y84254181D02*
X22768381Y84920848D01*
X23768381Y84492276D01*
X19757880Y83349417D02*
X18757880Y83349417D01*
X18757880Y83587512D01*
X18805500Y83730370D01*
X18900738Y83825608D01*
X18995976Y83873227D01*
X19186452Y83920846D01*
X19329309Y83920846D01*
X19519785Y83873227D01*
X19615023Y83825608D01*
X19710261Y83730370D01*
X19757880Y83587512D01*
X19757880Y83349417D01*
X18757880Y84777989D02*
X18757880Y84587512D01*
X18805500Y84492274D01*
X18853119Y84444655D01*
X18995976Y84349417D01*
X19186452Y84301798D01*
X19567404Y84301798D01*
X19662642Y84349417D01*
X19710261Y84397036D01*
X19757880Y84492274D01*
X19757880Y84682751D01*
X19710261Y84777989D01*
X19662642Y84825608D01*
X19567404Y84873227D01*
X19329309Y84873227D01*
X19234071Y84825608D01*
X19186452Y84777989D01*
X19138833Y84682751D01*
X19138833Y84492274D01*
X19186452Y84397036D01*
X19234071Y84349417D01*
X19329309Y84301798D01*
X15747380Y83349420D02*
X14747380Y83349420D01*
X14747380Y83587515D01*
X14795000Y83730373D01*
X14890238Y83825611D01*
X14985476Y83873230D01*
X15175952Y83920849D01*
X15318809Y83920849D01*
X15509285Y83873230D01*
X15604523Y83825611D01*
X15699761Y83730373D01*
X15747380Y83587515D01*
X15747380Y83349420D01*
X14747380Y84825611D02*
X14747380Y84349420D01*
X15223571Y84301801D01*
X15175952Y84349420D01*
X15128333Y84444658D01*
X15128333Y84682754D01*
X15175952Y84777992D01*
X15223571Y84825611D01*
X15318809Y84873230D01*
X15556904Y84873230D01*
X15652142Y84825611D01*
X15699761Y84777992D01*
X15747380Y84682754D01*
X15747380Y84444658D01*
X15699761Y84349420D01*
X15652142Y84301801D01*
X50090476Y42757620D02*
X50757142Y41757620D01*
X50757142Y42757620D02*
X50090476Y41757620D01*
X51661904Y41757620D02*
X51090476Y41757620D01*
X51376190Y41757620D02*
X51376190Y42757620D01*
X51280952Y42614762D01*
X51185714Y42519524D01*
X51090476Y42471905D01*
X52857142Y80402858D02*
X52809523Y80355239D01*
X52666666Y80307620D01*
X52571428Y80307620D01*
X52428571Y80355239D01*
X52333333Y80450477D01*
X52285714Y80545715D01*
X52238095Y80736191D01*
X52238095Y80879048D01*
X52285714Y81069524D01*
X52333333Y81164762D01*
X52428571Y81260000D01*
X52571428Y81307620D01*
X52666666Y81307620D01*
X52809523Y81260000D01*
X52857142Y81212381D01*
X53238095Y81212381D02*
X53285714Y81260000D01*
X53380952Y81307620D01*
X53619047Y81307620D01*
X53714285Y81260000D01*
X53761904Y81212381D01*
X53809523Y81117143D01*
X53809523Y81021905D01*
X53761904Y80879048D01*
X53190476Y80307620D01*
X53809523Y80307620D01*
X54714285Y81307620D02*
X54238095Y81307620D01*
X54190476Y80831429D01*
X54238095Y80879048D01*
X54333333Y80926667D01*
X54571428Y80926667D01*
X54666666Y80879048D01*
X54714285Y80831429D01*
X54761904Y80736191D01*
X54761904Y80498096D01*
X54714285Y80402858D01*
X54666666Y80355239D01*
X54571428Y80307620D01*
X54333333Y80307620D01*
X54238095Y80355239D01*
X54190476Y80402858D01*
X120978095Y38537620D02*
X120978095Y39537620D01*
X120978095Y39061429D02*
X121549523Y39061429D01*
X121549523Y38537620D02*
X121549523Y39537620D01*
X122454285Y39204286D02*
X122454285Y38537620D01*
X122216190Y39585239D02*
X121978095Y38870953D01*
X122597142Y38870953D01*
X4498095Y38537620D02*
X4498095Y39537620D01*
X4498095Y39061429D02*
X5069523Y39061429D01*
X5069523Y38537620D02*
X5069523Y39537620D01*
X5450476Y39537620D02*
X6069523Y39537620D01*
X5736190Y39156667D01*
X5879047Y39156667D01*
X5974285Y39109048D01*
X6021904Y39061429D01*
X6069523Y38966191D01*
X6069523Y38728096D01*
X6021904Y38632858D01*
X5974285Y38585239D01*
X5879047Y38537620D01*
X5593333Y38537620D01*
X5498095Y38585239D01*
X5450476Y38632858D01*
X120978095Y76237620D02*
X120978095Y77237620D01*
X120978095Y76761429D02*
X121549523Y76761429D01*
X121549523Y76237620D02*
X121549523Y77237620D01*
X121978095Y77142381D02*
X122025714Y77190000D01*
X122120952Y77237620D01*
X122359047Y77237620D01*
X122454285Y77190000D01*
X122501904Y77142381D01*
X122549523Y77047143D01*
X122549523Y76951905D01*
X122501904Y76809048D01*
X121930476Y76237620D01*
X122549523Y76237620D01*
X4498095Y76237620D02*
X4498095Y77237620D01*
X4498095Y76761429D02*
X5069523Y76761429D01*
X5069523Y76237620D02*
X5069523Y77237620D01*
X6069523Y76237620D02*
X5498095Y76237620D01*
X5783809Y76237620D02*
X5783809Y77237620D01*
X5688571Y77094762D01*
X5593333Y76999524D01*
X5498095Y76951905D01*
X61138095Y78000620D02*
X61138095Y77191096D01*
X61185714Y77095858D01*
X61233333Y77048239D01*
X61328571Y77000620D01*
X61519047Y77000620D01*
X61614285Y77048239D01*
X61661904Y77095858D01*
X61709523Y77191096D01*
X61709523Y78000620D01*
X62090476Y78000620D02*
X62709523Y78000620D01*
X62376190Y77619667D01*
X62519047Y77619667D01*
X62614285Y77572048D01*
X62661904Y77524429D01*
X62709523Y77429191D01*
X62709523Y77191096D01*
X62661904Y77095858D01*
X62614285Y77048239D01*
X62519047Y77000620D01*
X62233333Y77000620D01*
X62138095Y77048239D01*
X62090476Y77095858D01*
X68122380Y40411748D02*
X67646190Y40078414D01*
X68122380Y39840319D02*
X67122380Y39840319D01*
X67122380Y40221272D01*
X67170000Y40316510D01*
X67217619Y40364129D01*
X67312857Y40411748D01*
X67455714Y40411748D01*
X67550952Y40364129D01*
X67598571Y40316510D01*
X67646190Y40221272D01*
X67646190Y39840319D01*
X67455714Y41268891D02*
X68122380Y41268891D01*
X67074761Y41030795D02*
X67789047Y40792700D01*
X67789047Y41411748D01*
X66082380Y40411748D02*
X65606190Y40078414D01*
X66082380Y39840319D02*
X65082380Y39840319D01*
X65082380Y40221272D01*
X65130000Y40316510D01*
X65177619Y40364129D01*
X65272857Y40411748D01*
X65415714Y40411748D01*
X65510952Y40364129D01*
X65558571Y40316510D01*
X65606190Y40221272D01*
X65606190Y39840319D01*
X65082380Y40745081D02*
X65082380Y41364129D01*
X65463333Y41030795D01*
X65463333Y41173653D01*
X65510952Y41268891D01*
X65558571Y41316510D01*
X65653809Y41364129D01*
X65891904Y41364129D01*
X65987142Y41316510D01*
X66034761Y41268891D01*
X66082380Y41173653D01*
X66082380Y40887938D01*
X66034761Y40792700D01*
X65987142Y40745081D01*
X66654761Y49312381D02*
X66559523Y49360000D01*
X66464285Y49455239D01*
X66321428Y49598096D01*
X66226190Y49645715D01*
X66130952Y49645715D01*
X66178571Y49407620D02*
X66083333Y49455239D01*
X65988095Y49550477D01*
X65940476Y49740953D01*
X65940476Y50074286D01*
X65988095Y50264762D01*
X66083333Y50360000D01*
X66178571Y50407620D01*
X66369047Y50407620D01*
X66464285Y50360000D01*
X66559523Y50264762D01*
X66607142Y50074286D01*
X66607142Y49740953D01*
X66559523Y49550477D01*
X66464285Y49455239D01*
X66369047Y49407620D01*
X66178571Y49407620D01*
X67559523Y49407620D02*
X66988095Y49407620D01*
X67273809Y49407620D02*
X67273809Y50407620D01*
X67178571Y50264762D01*
X67083333Y50169524D01*
X66988095Y50121905D01*
X90307142Y49502858D02*
X90259523Y49455239D01*
X90116666Y49407620D01*
X90021428Y49407620D01*
X89878571Y49455239D01*
X89783333Y49550477D01*
X89735714Y49645715D01*
X89688095Y49836191D01*
X89688095Y49979048D01*
X89735714Y50169524D01*
X89783333Y50264762D01*
X89878571Y50360000D01*
X90021428Y50407620D01*
X90116666Y50407620D01*
X90259523Y50360000D01*
X90307142Y50312381D01*
X91259523Y49407620D02*
X90688095Y49407620D01*
X90973809Y49407620D02*
X90973809Y50407620D01*
X90878571Y50264762D01*
X90783333Y50169524D01*
X90688095Y50121905D01*
X91878571Y50407620D02*
X91973809Y50407620D01*
X92069047Y50360000D01*
X92116666Y50312381D01*
X92164285Y50217143D01*
X92211904Y50026667D01*
X92211904Y49788572D01*
X92164285Y49598096D01*
X92116666Y49502858D01*
X92069047Y49455239D01*
X91973809Y49407620D01*
X91878571Y49407620D01*
X91783333Y49455239D01*
X91735714Y49502858D01*
X91688095Y49598096D01*
X91640476Y49788572D01*
X91640476Y50026667D01*
X91688095Y50217143D01*
X91735714Y50312381D01*
X91783333Y50360000D01*
X91878571Y50407620D01*
X96107142Y49502858D02*
X96059523Y49455239D01*
X95916666Y49407620D01*
X95821428Y49407620D01*
X95678571Y49455239D01*
X95583333Y49550477D01*
X95535714Y49645715D01*
X95488095Y49836191D01*
X95488095Y49979048D01*
X95535714Y50169524D01*
X95583333Y50264762D01*
X95678571Y50360000D01*
X95821428Y50407620D01*
X95916666Y50407620D01*
X96059523Y50360000D01*
X96107142Y50312381D01*
X97059523Y49407620D02*
X96488095Y49407620D01*
X96773809Y49407620D02*
X96773809Y50407620D01*
X96678571Y50264762D01*
X96583333Y50169524D01*
X96488095Y50121905D01*
X98011904Y49407620D02*
X97440476Y49407620D01*
X97726190Y49407620D02*
X97726190Y50407620D01*
X97630952Y50264762D01*
X97535714Y50169524D01*
X97440476Y50121905D01*
X84072380Y39935558D02*
X83596190Y39602225D01*
X84072380Y39364130D02*
X83072380Y39364130D01*
X83072380Y39745082D01*
X83120000Y39840320D01*
X83167619Y39887939D01*
X83262857Y39935558D01*
X83405714Y39935558D01*
X83500952Y39887939D01*
X83548571Y39840320D01*
X83596190Y39745082D01*
X83596190Y39364130D01*
X84072380Y40887939D02*
X84072380Y40316511D01*
X84072380Y40602225D02*
X83072380Y40602225D01*
X83215238Y40506987D01*
X83310476Y40411749D01*
X83358095Y40316511D01*
X83072380Y41506987D02*
X83072380Y41602225D01*
X83120000Y41697463D01*
X83167619Y41745082D01*
X83262857Y41792701D01*
X83453333Y41840320D01*
X83691428Y41840320D01*
X83881904Y41792701D01*
X83977142Y41745082D01*
X84024761Y41697463D01*
X84072380Y41602225D01*
X84072380Y41506987D01*
X84024761Y41411749D01*
X83977142Y41364130D01*
X83881904Y41316511D01*
X83691428Y41268892D01*
X83453333Y41268892D01*
X83262857Y41316511D01*
X83167619Y41364130D01*
X83120000Y41411749D01*
X83072380Y41506987D01*
X82032380Y40411748D02*
X81556190Y40078414D01*
X82032380Y39840319D02*
X81032380Y39840319D01*
X81032380Y40221272D01*
X81080000Y40316510D01*
X81127619Y40364129D01*
X81222857Y40411748D01*
X81365714Y40411748D01*
X81460952Y40364129D01*
X81508571Y40316510D01*
X81556190Y40221272D01*
X81556190Y39840319D01*
X82032380Y40887938D02*
X82032380Y41078414D01*
X81984761Y41173653D01*
X81937142Y41221272D01*
X81794285Y41316510D01*
X81603809Y41364129D01*
X81222857Y41364129D01*
X81127619Y41316510D01*
X81080000Y41268891D01*
X81032380Y41173653D01*
X81032380Y40983176D01*
X81080000Y40887938D01*
X81127619Y40840319D01*
X81222857Y40792700D01*
X81460952Y40792700D01*
X81556190Y40840319D01*
X81603809Y40887938D01*
X81651428Y40983176D01*
X81651428Y41173653D01*
X81603809Y41268891D01*
X81556190Y41316510D01*
X81460952Y41364129D01*
X95529116Y39757558D02*
X95052926Y39424225D01*
X95529116Y39186130D02*
X94529116Y39186130D01*
X94529116Y39567082D01*
X94576736Y39662320D01*
X94624355Y39709939D01*
X94719593Y39757558D01*
X94862450Y39757558D01*
X94957688Y39709939D01*
X95005307Y39662320D01*
X95052926Y39567082D01*
X95052926Y39186130D01*
X95529116Y40709939D02*
X95529116Y40138511D01*
X95529116Y40424225D02*
X94529116Y40424225D01*
X94671974Y40328987D01*
X94767212Y40233749D01*
X94814831Y40138511D01*
X94862450Y41567082D02*
X95529116Y41567082D01*
X94481497Y41328987D02*
X95195783Y41090892D01*
X95195783Y41709939D01*
X93389114Y39857558D02*
X92912924Y39524225D01*
X93389114Y39286130D02*
X92389114Y39286130D01*
X92389114Y39667082D01*
X92436734Y39762320D01*
X92484353Y39809939D01*
X92579591Y39857558D01*
X92722448Y39857558D01*
X92817686Y39809939D01*
X92865305Y39762320D01*
X92912924Y39667082D01*
X92912924Y39286130D01*
X93389114Y40809939D02*
X93389114Y40238511D01*
X93389114Y40524225D02*
X92389114Y40524225D01*
X92531972Y40428987D01*
X92627210Y40333749D01*
X92674829Y40238511D01*
X92389114Y41143273D02*
X92389114Y41762320D01*
X92770067Y41428987D01*
X92770067Y41571844D01*
X92817686Y41667082D01*
X92865305Y41714701D01*
X92960543Y41762320D01*
X93198638Y41762320D01*
X93293876Y41714701D01*
X93341495Y41667082D01*
X93389114Y41571844D01*
X93389114Y41286130D01*
X93341495Y41190892D01*
X93293876Y41143273D01*
X91354659Y39735558D02*
X90878469Y39402225D01*
X91354659Y39164130D02*
X90354659Y39164130D01*
X90354659Y39545082D01*
X90402279Y39640320D01*
X90449898Y39687939D01*
X90545136Y39735558D01*
X90687993Y39735558D01*
X90783231Y39687939D01*
X90830850Y39640320D01*
X90878469Y39545082D01*
X90878469Y39164130D01*
X91354659Y40687939D02*
X91354659Y40116511D01*
X91354659Y40402225D02*
X90354659Y40402225D01*
X90497517Y40306987D01*
X90592755Y40211749D01*
X90640374Y40116511D01*
X91354659Y41640320D02*
X91354659Y41068892D01*
X91354659Y41354606D02*
X90354659Y41354606D01*
X90497517Y41259368D01*
X90592755Y41164130D01*
X90640374Y41068892D01*
X71972380Y39935558D02*
X71496190Y39602225D01*
X71972380Y39364130D02*
X70972380Y39364130D01*
X70972380Y39745082D01*
X71020000Y39840320D01*
X71067619Y39887939D01*
X71162857Y39935558D01*
X71305714Y39935558D01*
X71400952Y39887939D01*
X71448571Y39840320D01*
X71496190Y39745082D01*
X71496190Y39364130D01*
X71972380Y40887939D02*
X71972380Y40316511D01*
X71972380Y40602225D02*
X70972380Y40602225D01*
X71115238Y40506987D01*
X71210476Y40411749D01*
X71258095Y40316511D01*
X70972380Y41745082D02*
X70972380Y41554606D01*
X71020000Y41459368D01*
X71067619Y41411749D01*
X71210476Y41316511D01*
X71400952Y41268892D01*
X71781904Y41268892D01*
X71877142Y41316511D01*
X71924761Y41364130D01*
X71972380Y41459368D01*
X71972380Y41649844D01*
X71924761Y41745082D01*
X71877142Y41792701D01*
X71781904Y41840320D01*
X71543809Y41840320D01*
X71448571Y41792701D01*
X71400952Y41745082D01*
X71353333Y41649844D01*
X71353333Y41459368D01*
X71400952Y41364130D01*
X71448571Y41316511D01*
X71543809Y41268892D01*
X69932380Y39935558D02*
X69456190Y39602225D01*
X69932380Y39364130D02*
X68932380Y39364130D01*
X68932380Y39745082D01*
X68980000Y39840320D01*
X69027619Y39887939D01*
X69122857Y39935558D01*
X69265714Y39935558D01*
X69360952Y39887939D01*
X69408571Y39840320D01*
X69456190Y39745082D01*
X69456190Y39364130D01*
X69932380Y40887939D02*
X69932380Y40316511D01*
X69932380Y40602225D02*
X68932380Y40602225D01*
X69075238Y40506987D01*
X69170476Y40411749D01*
X69218095Y40316511D01*
X68932380Y41792701D02*
X68932380Y41316511D01*
X69408571Y41268892D01*
X69360952Y41316511D01*
X69313333Y41411749D01*
X69313333Y41649844D01*
X69360952Y41745082D01*
X69408571Y41792701D01*
X69503809Y41840320D01*
X69741904Y41840320D01*
X69837142Y41792701D01*
X69884761Y41745082D01*
X69932380Y41649844D01*
X69932380Y41411749D01*
X69884761Y41316511D01*
X69837142Y41268892D01*
X75822380Y39935558D02*
X75346190Y39602225D01*
X75822380Y39364130D02*
X74822380Y39364130D01*
X74822380Y39745082D01*
X74870000Y39840320D01*
X74917619Y39887939D01*
X75012857Y39935558D01*
X75155714Y39935558D01*
X75250952Y39887939D01*
X75298571Y39840320D01*
X75346190Y39745082D01*
X75346190Y39364130D01*
X74822380Y40268892D02*
X74822380Y40887939D01*
X75203333Y40554606D01*
X75203333Y40697463D01*
X75250952Y40792701D01*
X75298571Y40840320D01*
X75393809Y40887939D01*
X75631904Y40887939D01*
X75727142Y40840320D01*
X75774761Y40792701D01*
X75822380Y40697463D01*
X75822380Y40411749D01*
X75774761Y40316511D01*
X75727142Y40268892D01*
X74917619Y41268892D02*
X74870000Y41316511D01*
X74822380Y41411749D01*
X74822380Y41649844D01*
X74870000Y41745082D01*
X74917619Y41792701D01*
X75012857Y41840320D01*
X75108095Y41840320D01*
X75250952Y41792701D01*
X75822380Y41221273D01*
X75822380Y41840320D01*
X73882380Y39935558D02*
X73406190Y39602225D01*
X73882380Y39364130D02*
X72882380Y39364130D01*
X72882380Y39745082D01*
X72930000Y39840320D01*
X72977619Y39887939D01*
X73072857Y39935558D01*
X73215714Y39935558D01*
X73310952Y39887939D01*
X73358571Y39840320D01*
X73406190Y39745082D01*
X73406190Y39364130D01*
X72882380Y40268892D02*
X72882380Y40887939D01*
X73263333Y40554606D01*
X73263333Y40697463D01*
X73310952Y40792701D01*
X73358571Y40840320D01*
X73453809Y40887939D01*
X73691904Y40887939D01*
X73787142Y40840320D01*
X73834761Y40792701D01*
X73882380Y40697463D01*
X73882380Y40411749D01*
X73834761Y40316511D01*
X73787142Y40268892D01*
X73882380Y41840320D02*
X73882380Y41268892D01*
X73882380Y41554606D02*
X72882380Y41554606D01*
X73025238Y41459368D01*
X73120476Y41364130D01*
X73168095Y41268892D01*
X80072380Y39935558D02*
X79596190Y39602225D01*
X80072380Y39364130D02*
X79072380Y39364130D01*
X79072380Y39745082D01*
X79120000Y39840320D01*
X79167619Y39887939D01*
X79262857Y39935558D01*
X79405714Y39935558D01*
X79500952Y39887939D01*
X79548571Y39840320D01*
X79596190Y39745082D01*
X79596190Y39364130D01*
X79405714Y40792701D02*
X80072380Y40792701D01*
X79024761Y40554606D02*
X79739047Y40316511D01*
X79739047Y40935558D01*
X79072380Y41221273D02*
X79072380Y41840320D01*
X79453333Y41506987D01*
X79453333Y41649844D01*
X79500952Y41745082D01*
X79548571Y41792701D01*
X79643809Y41840320D01*
X79881904Y41840320D01*
X79977142Y41792701D01*
X80024761Y41745082D01*
X80072380Y41649844D01*
X80072380Y41364130D01*
X80024761Y41268892D01*
X79977142Y41221273D01*
X77932380Y39935558D02*
X77456190Y39602225D01*
X77932380Y39364130D02*
X76932380Y39364130D01*
X76932380Y39745082D01*
X76980000Y39840320D01*
X77027619Y39887939D01*
X77122857Y39935558D01*
X77265714Y39935558D01*
X77360952Y39887939D01*
X77408571Y39840320D01*
X77456190Y39745082D01*
X77456190Y39364130D01*
X77265714Y40792701D02*
X77932380Y40792701D01*
X76884761Y40554606D02*
X77599047Y40316511D01*
X77599047Y40935558D01*
X77027619Y41268892D02*
X76980000Y41316511D01*
X76932380Y41411749D01*
X76932380Y41649844D01*
X76980000Y41745082D01*
X77027619Y41792701D01*
X77122857Y41840320D01*
X77218095Y41840320D01*
X77360952Y41792701D01*
X77932380Y41221273D01*
X77932380Y41840320D01*
X101438028Y39957558D02*
X100961838Y39624225D01*
X101438028Y39386130D02*
X100438028Y39386130D01*
X100438028Y39767082D01*
X100485648Y39862320D01*
X100533267Y39909939D01*
X100628505Y39957558D01*
X100771362Y39957558D01*
X100866600Y39909939D01*
X100914219Y39862320D01*
X100961838Y39767082D01*
X100961838Y39386130D01*
X100533267Y40338511D02*
X100485648Y40386130D01*
X100438028Y40481368D01*
X100438028Y40719463D01*
X100485648Y40814701D01*
X100533267Y40862320D01*
X100628505Y40909939D01*
X100723743Y40909939D01*
X100866600Y40862320D01*
X101438028Y40290892D01*
X101438028Y40909939D01*
X100438028Y41528987D02*
X100438028Y41624225D01*
X100485648Y41719463D01*
X100533267Y41767082D01*
X100628505Y41814701D01*
X100818981Y41862320D01*
X101057076Y41862320D01*
X101247552Y41814701D01*
X101342790Y41767082D01*
X101390409Y41719463D01*
X101438028Y41624225D01*
X101438028Y41528987D01*
X101390409Y41433749D01*
X101342790Y41386130D01*
X101247552Y41338511D01*
X101057076Y41290892D01*
X100818981Y41290892D01*
X100628505Y41338511D01*
X100533267Y41386130D01*
X100485648Y41433749D01*
X100438028Y41528987D01*
X99398028Y39757558D02*
X98921838Y39424225D01*
X99398028Y39186130D02*
X98398028Y39186130D01*
X98398028Y39567082D01*
X98445648Y39662320D01*
X98493267Y39709939D01*
X98588505Y39757558D01*
X98731362Y39757558D01*
X98826600Y39709939D01*
X98874219Y39662320D01*
X98921838Y39567082D01*
X98921838Y39186130D01*
X99398028Y40709939D02*
X99398028Y40138511D01*
X99398028Y40424225D02*
X98398028Y40424225D01*
X98540886Y40328987D01*
X98636124Y40233749D01*
X98683743Y40138511D01*
X99398028Y41186130D02*
X99398028Y41376606D01*
X99350409Y41471844D01*
X99302790Y41519463D01*
X99159933Y41614701D01*
X98969457Y41662320D01*
X98588505Y41662320D01*
X98493267Y41614701D01*
X98445648Y41567082D01*
X98398028Y41471844D01*
X98398028Y41281368D01*
X98445648Y41186130D01*
X98493267Y41138511D01*
X98588505Y41090892D01*
X98826600Y41090892D01*
X98921838Y41138511D01*
X98969457Y41186130D01*
X99017076Y41281368D01*
X99017076Y41471844D01*
X98969457Y41567082D01*
X98921838Y41614701D01*
X98826600Y41662320D01*
X97402380Y39757558D02*
X96926190Y39424225D01*
X97402380Y39186130D02*
X96402380Y39186130D01*
X96402380Y39567082D01*
X96450000Y39662320D01*
X96497619Y39709939D01*
X96592857Y39757558D01*
X96735714Y39757558D01*
X96830952Y39709939D01*
X96878571Y39662320D01*
X96926190Y39567082D01*
X96926190Y39186130D01*
X97402380Y40709939D02*
X97402380Y40138511D01*
X97402380Y40424225D02*
X96402380Y40424225D01*
X96545238Y40328987D01*
X96640476Y40233749D01*
X96688095Y40138511D01*
X96402380Y41043273D02*
X96402380Y41709939D01*
X97402380Y41281368D01*
X88399187Y40085558D02*
X87922997Y39752225D01*
X88399187Y39514130D02*
X87399187Y39514130D01*
X87399187Y39895082D01*
X87446807Y39990320D01*
X87494426Y40037939D01*
X87589664Y40085558D01*
X87732521Y40085558D01*
X87827759Y40037939D01*
X87875378Y39990320D01*
X87922997Y39895082D01*
X87922997Y39514130D01*
X87494426Y40466511D02*
X87446807Y40514130D01*
X87399187Y40609368D01*
X87399187Y40847463D01*
X87446807Y40942701D01*
X87494426Y40990320D01*
X87589664Y41037939D01*
X87684902Y41037939D01*
X87827759Y40990320D01*
X88399187Y40418892D01*
X88399187Y41037939D01*
X87494426Y41418892D02*
X87446807Y41466511D01*
X87399187Y41561749D01*
X87399187Y41799844D01*
X87446807Y41895082D01*
X87494426Y41942701D01*
X87589664Y41990320D01*
X87684902Y41990320D01*
X87827759Y41942701D01*
X88399187Y41371273D01*
X88399187Y41990320D01*
X86173187Y40085558D02*
X85696997Y39752225D01*
X86173187Y39514130D02*
X85173187Y39514130D01*
X85173187Y39895082D01*
X85220807Y39990320D01*
X85268426Y40037939D01*
X85363664Y40085558D01*
X85506521Y40085558D01*
X85601759Y40037939D01*
X85649378Y39990320D01*
X85696997Y39895082D01*
X85696997Y39514130D01*
X85268426Y40466511D02*
X85220807Y40514130D01*
X85173187Y40609368D01*
X85173187Y40847463D01*
X85220807Y40942701D01*
X85268426Y40990320D01*
X85363664Y41037939D01*
X85458902Y41037939D01*
X85601759Y40990320D01*
X86173187Y40418892D01*
X86173187Y41037939D01*
X86173187Y41990320D02*
X86173187Y41418892D01*
X86173187Y41704606D02*
X85173187Y41704606D01*
X85316045Y41609368D01*
X85411283Y41514130D01*
X85458902Y41418892D01*
X26963983Y40285558D02*
X26487793Y39952225D01*
X26963983Y39714130D02*
X25963983Y39714130D01*
X25963983Y40095082D01*
X26011603Y40190320D01*
X26059222Y40237939D01*
X26154460Y40285558D01*
X26297317Y40285558D01*
X26392555Y40237939D01*
X26440174Y40190320D01*
X26487793Y40095082D01*
X26487793Y39714130D01*
X26297317Y41142701D02*
X26963983Y41142701D01*
X25916364Y40904606D02*
X26630650Y40666511D01*
X26630650Y41285558D01*
X26963983Y42190320D02*
X26963983Y41618892D01*
X26963983Y41904606D02*
X25963983Y41904606D01*
X26106841Y41809368D01*
X26202079Y41714130D01*
X26249698Y41618892D01*
X24991982Y40285558D02*
X24515792Y39952225D01*
X24991982Y39714130D02*
X23991982Y39714130D01*
X23991982Y40095082D01*
X24039602Y40190320D01*
X24087221Y40237939D01*
X24182459Y40285558D01*
X24325316Y40285558D01*
X24420554Y40237939D01*
X24468173Y40190320D01*
X24515792Y40095082D01*
X24515792Y39714130D01*
X24325316Y41142701D02*
X24991982Y41142701D01*
X23944363Y40904606D02*
X24658649Y40666511D01*
X24658649Y41285558D01*
X23991982Y41856987D02*
X23991982Y41952225D01*
X24039602Y42047463D01*
X24087221Y42095082D01*
X24182459Y42142701D01*
X24372935Y42190320D01*
X24611030Y42190320D01*
X24801506Y42142701D01*
X24896744Y42095082D01*
X24944363Y42047463D01*
X24991982Y41952225D01*
X24991982Y41856987D01*
X24944363Y41761749D01*
X24896744Y41714130D01*
X24801506Y41666511D01*
X24611030Y41618892D01*
X24372935Y41618892D01*
X24182459Y41666511D01*
X24087221Y41714130D01*
X24039602Y41761749D01*
X23991982Y41856987D01*
X31121783Y40285558D02*
X30645593Y39952225D01*
X31121783Y39714130D02*
X30121783Y39714130D01*
X30121783Y40095082D01*
X30169403Y40190320D01*
X30217022Y40237939D01*
X30312260Y40285558D01*
X30455117Y40285558D01*
X30550355Y40237939D01*
X30597974Y40190320D01*
X30645593Y40095082D01*
X30645593Y39714130D01*
X30217022Y40666511D02*
X30169403Y40714130D01*
X30121783Y40809368D01*
X30121783Y41047463D01*
X30169403Y41142701D01*
X30217022Y41190320D01*
X30312260Y41237939D01*
X30407498Y41237939D01*
X30550355Y41190320D01*
X31121783Y40618892D01*
X31121783Y41237939D01*
X30455117Y42095082D02*
X31121783Y42095082D01*
X30074164Y41856987D02*
X30788450Y41618892D01*
X30788450Y42237939D01*
X29149783Y40285557D02*
X28673593Y39952224D01*
X29149783Y39714129D02*
X28149783Y39714129D01*
X28149783Y40095081D01*
X28197403Y40190319D01*
X28245022Y40237938D01*
X28340260Y40285557D01*
X28483117Y40285557D01*
X28578355Y40237938D01*
X28625974Y40190319D01*
X28673593Y40095081D01*
X28673593Y39714129D01*
X28245022Y40666510D02*
X28197403Y40714129D01*
X28149783Y40809367D01*
X28149783Y41047462D01*
X28197403Y41142700D01*
X28245022Y41190319D01*
X28340260Y41237938D01*
X28435498Y41237938D01*
X28578355Y41190319D01*
X29149783Y40618891D01*
X29149783Y41237938D01*
X28149783Y41571272D02*
X28149783Y42190319D01*
X28530736Y41856986D01*
X28530736Y41999843D01*
X28578355Y42095081D01*
X28625974Y42142700D01*
X28721212Y42190319D01*
X28959307Y42190319D01*
X29054545Y42142700D01*
X29102164Y42095081D01*
X29149783Y41999843D01*
X29149783Y41714129D01*
X29102164Y41618891D01*
X29054545Y41571272D01*
X39441385Y40285558D02*
X38965195Y39952225D01*
X39441385Y39714130D02*
X38441385Y39714130D01*
X38441385Y40095082D01*
X38489005Y40190320D01*
X38536624Y40237939D01*
X38631862Y40285558D01*
X38774719Y40285558D01*
X38869957Y40237939D01*
X38917576Y40190320D01*
X38965195Y40095082D01*
X38965195Y39714130D01*
X38536624Y40666511D02*
X38489005Y40714130D01*
X38441385Y40809368D01*
X38441385Y41047463D01*
X38489005Y41142701D01*
X38536624Y41190320D01*
X38631862Y41237939D01*
X38727100Y41237939D01*
X38869957Y41190320D01*
X39441385Y40618892D01*
X39441385Y41237939D01*
X38441385Y42095082D02*
X38441385Y41904606D01*
X38489005Y41809368D01*
X38536624Y41761749D01*
X38679481Y41666511D01*
X38869957Y41618892D01*
X39250909Y41618892D01*
X39346147Y41666511D01*
X39393766Y41714130D01*
X39441385Y41809368D01*
X39441385Y41999844D01*
X39393766Y42095082D01*
X39346147Y42142701D01*
X39250909Y42190320D01*
X39012814Y42190320D01*
X38917576Y42142701D01*
X38869957Y42095082D01*
X38822338Y41999844D01*
X38822338Y41809368D01*
X38869957Y41714130D01*
X38917576Y41666511D01*
X39012814Y41618892D01*
X37569385Y40285558D02*
X37093195Y39952225D01*
X37569385Y39714130D02*
X36569385Y39714130D01*
X36569385Y40095082D01*
X36617005Y40190320D01*
X36664624Y40237939D01*
X36759862Y40285558D01*
X36902719Y40285558D01*
X36997957Y40237939D01*
X37045576Y40190320D01*
X37093195Y40095082D01*
X37093195Y39714130D01*
X36664624Y40666511D02*
X36617005Y40714130D01*
X36569385Y40809368D01*
X36569385Y41047463D01*
X36617005Y41142701D01*
X36664624Y41190320D01*
X36759862Y41237939D01*
X36855100Y41237939D01*
X36997957Y41190320D01*
X37569385Y40618892D01*
X37569385Y41237939D01*
X36569385Y42142701D02*
X36569385Y41666511D01*
X37045576Y41618892D01*
X36997957Y41666511D01*
X36950338Y41761749D01*
X36950338Y41999844D01*
X36997957Y42095082D01*
X37045576Y42142701D01*
X37140814Y42190320D01*
X37378909Y42190320D01*
X37474147Y42142701D01*
X37521766Y42095082D01*
X37569385Y41999844D01*
X37569385Y41761749D01*
X37521766Y41666511D01*
X37474147Y41618892D01*
X35267584Y40285558D02*
X34791394Y39952225D01*
X35267584Y39714130D02*
X34267584Y39714130D01*
X34267584Y40095082D01*
X34315204Y40190320D01*
X34362823Y40237939D01*
X34458061Y40285558D01*
X34600918Y40285558D01*
X34696156Y40237939D01*
X34743775Y40190320D01*
X34791394Y40095082D01*
X34791394Y39714130D01*
X34362823Y40666511D02*
X34315204Y40714130D01*
X34267584Y40809368D01*
X34267584Y41047463D01*
X34315204Y41142701D01*
X34362823Y41190320D01*
X34458061Y41237939D01*
X34553299Y41237939D01*
X34696156Y41190320D01*
X35267584Y40618892D01*
X35267584Y41237939D01*
X34696156Y41809368D02*
X34648537Y41714130D01*
X34600918Y41666511D01*
X34505680Y41618892D01*
X34458061Y41618892D01*
X34362823Y41666511D01*
X34315204Y41714130D01*
X34267584Y41809368D01*
X34267584Y41999844D01*
X34315204Y42095082D01*
X34362823Y42142701D01*
X34458061Y42190320D01*
X34505680Y42190320D01*
X34600918Y42142701D01*
X34648537Y42095082D01*
X34696156Y41999844D01*
X34696156Y41809368D01*
X34743775Y41714130D01*
X34791394Y41666511D01*
X34886632Y41618892D01*
X35077108Y41618892D01*
X35172346Y41666511D01*
X35219965Y41714130D01*
X35267584Y41809368D01*
X35267584Y41999844D01*
X35219965Y42095082D01*
X35172346Y42142701D01*
X35077108Y42190320D01*
X34886632Y42190320D01*
X34791394Y42142701D01*
X34743775Y42095082D01*
X34696156Y41999844D01*
X33185584Y40285558D02*
X32709394Y39952225D01*
X33185584Y39714130D02*
X32185584Y39714130D01*
X32185584Y40095082D01*
X32233204Y40190320D01*
X32280823Y40237939D01*
X32376061Y40285558D01*
X32518918Y40285558D01*
X32614156Y40237939D01*
X32661775Y40190320D01*
X32709394Y40095082D01*
X32709394Y39714130D01*
X32280823Y40666511D02*
X32233204Y40714130D01*
X32185584Y40809368D01*
X32185584Y41047463D01*
X32233204Y41142701D01*
X32280823Y41190320D01*
X32376061Y41237939D01*
X32471299Y41237939D01*
X32614156Y41190320D01*
X33185584Y40618892D01*
X33185584Y41237939D01*
X32185584Y41571273D02*
X32185584Y42237939D01*
X33185584Y41809368D01*
X22602181Y40285558D02*
X22125991Y39952225D01*
X22602181Y39714130D02*
X21602181Y39714130D01*
X21602181Y40095082D01*
X21649801Y40190320D01*
X21697420Y40237939D01*
X21792658Y40285558D01*
X21935515Y40285558D01*
X22030753Y40237939D01*
X22078372Y40190320D01*
X22125991Y40095082D01*
X22125991Y39714130D01*
X21602181Y40618892D02*
X21602181Y41237939D01*
X21983134Y40904606D01*
X21983134Y41047463D01*
X22030753Y41142701D01*
X22078372Y41190320D01*
X22173610Y41237939D01*
X22411705Y41237939D01*
X22506943Y41190320D01*
X22554562Y41142701D01*
X22602181Y41047463D01*
X22602181Y40761749D01*
X22554562Y40666511D01*
X22506943Y40618892D01*
X21602181Y41856987D02*
X21602181Y41952225D01*
X21649801Y42047463D01*
X21697420Y42095082D01*
X21792658Y42142701D01*
X21983134Y42190320D01*
X22221229Y42190320D01*
X22411705Y42142701D01*
X22506943Y42095082D01*
X22554562Y42047463D01*
X22602181Y41952225D01*
X22602181Y41856987D01*
X22554562Y41761749D01*
X22506943Y41714130D01*
X22411705Y41666511D01*
X22221229Y41618892D01*
X21983134Y41618892D01*
X21792658Y41666511D01*
X21697420Y41714130D01*
X21649801Y41761749D01*
X21602181Y41856987D01*
X20630181Y40285558D02*
X20153991Y39952225D01*
X20630181Y39714130D02*
X19630181Y39714130D01*
X19630181Y40095082D01*
X19677801Y40190320D01*
X19725420Y40237939D01*
X19820658Y40285558D01*
X19963515Y40285558D01*
X20058753Y40237939D01*
X20106372Y40190320D01*
X20153991Y40095082D01*
X20153991Y39714130D01*
X19725420Y40666511D02*
X19677801Y40714130D01*
X19630181Y40809368D01*
X19630181Y41047463D01*
X19677801Y41142701D01*
X19725420Y41190320D01*
X19820658Y41237939D01*
X19915896Y41237939D01*
X20058753Y41190320D01*
X20630181Y40618892D01*
X20630181Y41237939D01*
X20630181Y41714130D02*
X20630181Y41904606D01*
X20582562Y41999844D01*
X20534943Y42047463D01*
X20392086Y42142701D01*
X20201610Y42190320D01*
X19820658Y42190320D01*
X19725420Y42142701D01*
X19677801Y42095082D01*
X19630181Y41999844D01*
X19630181Y41809368D01*
X19677801Y41714130D01*
X19725420Y41666511D01*
X19820658Y41618892D01*
X20058753Y41618892D01*
X20153991Y41666511D01*
X20201610Y41714130D01*
X20249229Y41809368D01*
X20249229Y41999844D01*
X20201610Y42095082D01*
X20153991Y42142701D01*
X20058753Y42190320D01*
X18598379Y40035558D02*
X18122189Y39702225D01*
X18598379Y39464130D02*
X17598379Y39464130D01*
X17598379Y39845082D01*
X17645999Y39940320D01*
X17693618Y39987939D01*
X17788856Y40035558D01*
X17931713Y40035558D01*
X18026951Y39987939D01*
X18074570Y39940320D01*
X18122189Y39845082D01*
X18122189Y39464130D01*
X17931713Y40892701D02*
X18598379Y40892701D01*
X17550760Y40654606D02*
X18265046Y40416511D01*
X18265046Y41035558D01*
X17598379Y41892701D02*
X17598379Y41416511D01*
X18074570Y41368892D01*
X18026951Y41416511D01*
X17979332Y41511749D01*
X17979332Y41749844D01*
X18026951Y41845082D01*
X18074570Y41892701D01*
X18169808Y41940320D01*
X18407903Y41940320D01*
X18503141Y41892701D01*
X18550760Y41845082D01*
X18598379Y41749844D01*
X18598379Y41511749D01*
X18550760Y41416511D01*
X18503141Y41368892D01*
X16372380Y40035558D02*
X15896190Y39702225D01*
X16372380Y39464130D02*
X15372380Y39464130D01*
X15372380Y39845082D01*
X15420000Y39940320D01*
X15467619Y39987939D01*
X15562857Y40035558D01*
X15705714Y40035558D01*
X15800952Y39987939D01*
X15848571Y39940320D01*
X15896190Y39845082D01*
X15896190Y39464130D01*
X15705714Y40892701D02*
X16372380Y40892701D01*
X15324761Y40654606D02*
X16039047Y40416511D01*
X16039047Y41035558D01*
X15705714Y41845082D02*
X16372380Y41845082D01*
X15324761Y41606987D02*
X16039047Y41368892D01*
X16039047Y41987939D01*
X82604761Y49312381D02*
X82509523Y49360000D01*
X82414285Y49455239D01*
X82271428Y49598096D01*
X82176190Y49645715D01*
X82080952Y49645715D01*
X82128571Y49407620D02*
X82033333Y49455239D01*
X81938095Y49550477D01*
X81890476Y49740953D01*
X81890476Y50074286D01*
X81938095Y50264762D01*
X82033333Y50360000D01*
X82128571Y50407620D01*
X82319047Y50407620D01*
X82414285Y50360000D01*
X82509523Y50264762D01*
X82557142Y50074286D01*
X82557142Y49740953D01*
X82509523Y49550477D01*
X82414285Y49455239D01*
X82319047Y49407620D01*
X82128571Y49407620D01*
X82890476Y50407620D02*
X83509523Y50407620D01*
X83176190Y50026667D01*
X83319047Y50026667D01*
X83414285Y49979048D01*
X83461904Y49931429D01*
X83509523Y49836191D01*
X83509523Y49598096D01*
X83461904Y49502858D01*
X83414285Y49455239D01*
X83319047Y49407620D01*
X83033333Y49407620D01*
X82938095Y49455239D01*
X82890476Y49502858D01*
X93820786Y49312381D02*
X93725548Y49360000D01*
X93630310Y49455239D01*
X93487453Y49598096D01*
X93392215Y49645715D01*
X93296977Y49645715D01*
X93344596Y49407620D02*
X93249358Y49455239D01*
X93154120Y49550477D01*
X93106501Y49740953D01*
X93106501Y50074286D01*
X93154120Y50264762D01*
X93249358Y50360000D01*
X93344596Y50407620D01*
X93535072Y50407620D01*
X93630310Y50360000D01*
X93725548Y50264762D01*
X93773167Y50074286D01*
X93773167Y49740953D01*
X93725548Y49550477D01*
X93630310Y49455239D01*
X93535072Y49407620D01*
X93344596Y49407620D01*
X94630310Y50074286D02*
X94630310Y49407620D01*
X94392215Y50455239D02*
X94154120Y49740953D01*
X94773167Y49740953D01*
X70404761Y49312381D02*
X70309523Y49360000D01*
X70214285Y49455239D01*
X70071428Y49598096D01*
X69976190Y49645715D01*
X69880952Y49645715D01*
X69928571Y49407620D02*
X69833333Y49455239D01*
X69738095Y49550477D01*
X69690476Y49740953D01*
X69690476Y50074286D01*
X69738095Y50264762D01*
X69833333Y50360000D01*
X69928571Y50407620D01*
X70119047Y50407620D01*
X70214285Y50360000D01*
X70309523Y50264762D01*
X70357142Y50074286D01*
X70357142Y49740953D01*
X70309523Y49550477D01*
X70214285Y49455239D01*
X70119047Y49407620D01*
X69928571Y49407620D01*
X71261904Y50407620D02*
X70785714Y50407620D01*
X70738095Y49931429D01*
X70785714Y49979048D01*
X70880952Y50026667D01*
X71119047Y50026667D01*
X71214285Y49979048D01*
X71261904Y49931429D01*
X71309523Y49836191D01*
X71309523Y49598096D01*
X71261904Y49502858D01*
X71214285Y49455239D01*
X71119047Y49407620D01*
X70880952Y49407620D01*
X70785714Y49455239D01*
X70738095Y49502858D01*
X78028571Y49312381D02*
X77933333Y49360000D01*
X77838095Y49455239D01*
X77695238Y49598096D01*
X77600000Y49645715D01*
X77504761Y49645715D01*
X77552380Y49407620D02*
X77457142Y49455239D01*
X77361904Y49550477D01*
X77314285Y49740953D01*
X77314285Y50074286D01*
X77361904Y50264762D01*
X77457142Y50360000D01*
X77552380Y50407620D01*
X77742857Y50407620D01*
X77838095Y50360000D01*
X77933333Y50264762D01*
X77980952Y50074286D01*
X77980952Y49740953D01*
X77933333Y49550477D01*
X77838095Y49455239D01*
X77742857Y49407620D01*
X77552380Y49407620D01*
X78933333Y49407620D02*
X78361904Y49407620D01*
X78647619Y49407620D02*
X78647619Y50407620D01*
X78552380Y50264762D01*
X78457142Y50169524D01*
X78361904Y50121905D01*
X79790476Y50074286D02*
X79790476Y49407620D01*
X79552380Y50455239D02*
X79314285Y49740953D01*
X79933333Y49740953D01*
X99799747Y49312381D02*
X99704509Y49360000D01*
X99609271Y49455239D01*
X99466414Y49598096D01*
X99371176Y49645715D01*
X99275938Y49645715D01*
X99323557Y49407620D02*
X99228319Y49455239D01*
X99133081Y49550477D01*
X99085462Y49740953D01*
X99085462Y50074286D01*
X99133081Y50264762D01*
X99228319Y50360000D01*
X99323557Y50407620D01*
X99514033Y50407620D01*
X99609271Y50360000D01*
X99704509Y50264762D01*
X99752128Y50074286D01*
X99752128Y49740953D01*
X99704509Y49550477D01*
X99609271Y49455239D01*
X99514033Y49407620D01*
X99323557Y49407620D01*
X100609271Y50407620D02*
X100418795Y50407620D01*
X100323557Y50360000D01*
X100275938Y50312381D01*
X100180700Y50169524D01*
X100133081Y49979048D01*
X100133081Y49598096D01*
X100180700Y49502858D01*
X100228319Y49455239D01*
X100323557Y49407620D01*
X100514033Y49407620D01*
X100609271Y49455239D01*
X100656890Y49502858D01*
X100704509Y49598096D01*
X100704509Y49836191D01*
X100656890Y49931429D01*
X100609271Y49979048D01*
X100514033Y50026667D01*
X100323557Y50026667D01*
X100228319Y49979048D01*
X100180700Y49931429D01*
X100133081Y49836191D01*
X86454761Y49312381D02*
X86359523Y49360000D01*
X86264285Y49455239D01*
X86121428Y49598096D01*
X86026190Y49645715D01*
X85930952Y49645715D01*
X85978571Y49407620D02*
X85883333Y49455239D01*
X85788095Y49550477D01*
X85740476Y49740953D01*
X85740476Y50074286D01*
X85788095Y50264762D01*
X85883333Y50360000D01*
X85978571Y50407620D01*
X86169047Y50407620D01*
X86264285Y50360000D01*
X86359523Y50264762D01*
X86407142Y50074286D01*
X86407142Y49740953D01*
X86359523Y49550477D01*
X86264285Y49455239D01*
X86169047Y49407620D01*
X85978571Y49407620D01*
X86740476Y50407620D02*
X87407142Y50407620D01*
X86978571Y49407620D01*
X24678571Y49462381D02*
X24583333Y49510000D01*
X24488095Y49605239D01*
X24345238Y49748096D01*
X24250000Y49795715D01*
X24154761Y49795715D01*
X24202380Y49557620D02*
X24107142Y49605239D01*
X24011904Y49700477D01*
X23964285Y49890953D01*
X23964285Y50224286D01*
X24011904Y50414762D01*
X24107142Y50510000D01*
X24202380Y50557620D01*
X24392857Y50557620D01*
X24488095Y50510000D01*
X24583333Y50414762D01*
X24630952Y50224286D01*
X24630952Y49890953D01*
X24583333Y49700477D01*
X24488095Y49605239D01*
X24392857Y49557620D01*
X24202380Y49557620D01*
X25583333Y49557620D02*
X25011904Y49557620D01*
X25297619Y49557620D02*
X25297619Y50557620D01*
X25202380Y50414762D01*
X25107142Y50319524D01*
X25011904Y50271905D01*
X25916666Y50557620D02*
X26535714Y50557620D01*
X26202380Y50176667D01*
X26345238Y50176667D01*
X26440476Y50129048D01*
X26488095Y50081429D01*
X26535714Y49986191D01*
X26535714Y49748096D01*
X26488095Y49652858D01*
X26440476Y49605239D01*
X26345238Y49557620D01*
X26059523Y49557620D01*
X25964285Y49605239D01*
X25916666Y49652858D01*
X29408664Y49462381D02*
X29313426Y49510000D01*
X29218188Y49605239D01*
X29075331Y49748096D01*
X28980093Y49795715D01*
X28884855Y49795715D01*
X28932474Y49557620D02*
X28837236Y49605239D01*
X28741998Y49700477D01*
X28694379Y49890953D01*
X28694379Y50224286D01*
X28741998Y50414762D01*
X28837236Y50510000D01*
X28932474Y50557620D01*
X29122950Y50557620D01*
X29218188Y50510000D01*
X29313426Y50414762D01*
X29361045Y50224286D01*
X29361045Y49890953D01*
X29313426Y49700477D01*
X29218188Y49605239D01*
X29122950Y49557620D01*
X28932474Y49557620D01*
X29932474Y50129048D02*
X29837236Y50176667D01*
X29789617Y50224286D01*
X29741998Y50319524D01*
X29741998Y50367143D01*
X29789617Y50462381D01*
X29837236Y50510000D01*
X29932474Y50557620D01*
X30122950Y50557620D01*
X30218188Y50510000D01*
X30265807Y50462381D01*
X30313426Y50367143D01*
X30313426Y50319524D01*
X30265807Y50224286D01*
X30218188Y50176667D01*
X30122950Y50129048D01*
X29932474Y50129048D01*
X29837236Y50081429D01*
X29789617Y50033810D01*
X29741998Y49938572D01*
X29741998Y49748096D01*
X29789617Y49652858D01*
X29837236Y49605239D01*
X29932474Y49557620D01*
X30122950Y49557620D01*
X30218188Y49605239D01*
X30265807Y49652858D01*
X30313426Y49748096D01*
X30313426Y49938572D01*
X30265807Y50033810D01*
X30218188Y50081429D01*
X30122950Y50129048D01*
X37904761Y49462381D02*
X37809523Y49510000D01*
X37714285Y49605239D01*
X37571428Y49748096D01*
X37476190Y49795715D01*
X37380952Y49795715D01*
X37428571Y49557620D02*
X37333333Y49605239D01*
X37238095Y49700477D01*
X37190476Y49890953D01*
X37190476Y50224286D01*
X37238095Y50414762D01*
X37333333Y50510000D01*
X37428571Y50557620D01*
X37619047Y50557620D01*
X37714285Y50510000D01*
X37809523Y50414762D01*
X37857142Y50224286D01*
X37857142Y49890953D01*
X37809523Y49700477D01*
X37714285Y49605239D01*
X37619047Y49557620D01*
X37428571Y49557620D01*
X38333333Y49557620D02*
X38523809Y49557620D01*
X38619047Y49605239D01*
X38666666Y49652858D01*
X38761904Y49795715D01*
X38809523Y49986191D01*
X38809523Y50367143D01*
X38761904Y50462381D01*
X38714285Y50510000D01*
X38619047Y50557620D01*
X38428571Y50557620D01*
X38333333Y50510000D01*
X38285714Y50462381D01*
X38238095Y50367143D01*
X38238095Y50129048D01*
X38285714Y50033810D01*
X38333333Y49986191D01*
X38428571Y49938572D01*
X38619047Y49938572D01*
X38714285Y49986191D01*
X38761904Y50033810D01*
X38809523Y50129048D01*
X33140275Y49462381D02*
X33045037Y49510000D01*
X32949799Y49605239D01*
X32806942Y49748096D01*
X32711704Y49795715D01*
X32616465Y49795715D01*
X32664084Y49557620D02*
X32568846Y49605239D01*
X32473608Y49700477D01*
X32425989Y49890953D01*
X32425989Y50224286D01*
X32473608Y50414762D01*
X32568846Y50510000D01*
X32664084Y50557620D01*
X32854561Y50557620D01*
X32949799Y50510000D01*
X33045037Y50414762D01*
X33092656Y50224286D01*
X33092656Y49890953D01*
X33045037Y49700477D01*
X32949799Y49605239D01*
X32854561Y49557620D01*
X32664084Y49557620D01*
X34045037Y49557620D02*
X33473608Y49557620D01*
X33759323Y49557620D02*
X33759323Y50557620D01*
X33664084Y50414762D01*
X33568846Y50319524D01*
X33473608Y50271905D01*
X34664084Y50557620D02*
X34759323Y50557620D01*
X34854561Y50510000D01*
X34902180Y50462381D01*
X34949799Y50367143D01*
X34997418Y50176667D01*
X34997418Y49938572D01*
X34949799Y49748096D01*
X34902180Y49652858D01*
X34854561Y49605239D01*
X34759323Y49557620D01*
X34664084Y49557620D01*
X34568846Y49605239D01*
X34521227Y49652858D01*
X34473608Y49748096D01*
X34425989Y49938572D01*
X34425989Y50176667D01*
X34473608Y50367143D01*
X34521227Y50462381D01*
X34568846Y50510000D01*
X34664084Y50557620D01*
X20516872Y49462381D02*
X20421634Y49510000D01*
X20326396Y49605239D01*
X20183539Y49748096D01*
X20088301Y49795715D01*
X19993062Y49795715D01*
X20040681Y49557620D02*
X19945443Y49605239D01*
X19850205Y49700477D01*
X19802586Y49890953D01*
X19802586Y50224286D01*
X19850205Y50414762D01*
X19945443Y50510000D01*
X20040681Y50557620D01*
X20231158Y50557620D01*
X20326396Y50510000D01*
X20421634Y50414762D01*
X20469253Y50224286D01*
X20469253Y49890953D01*
X20421634Y49700477D01*
X20326396Y49605239D01*
X20231158Y49557620D01*
X20040681Y49557620D01*
X21421634Y49557620D02*
X20850205Y49557620D01*
X21135920Y49557620D02*
X21135920Y50557620D01*
X21040681Y50414762D01*
X20945443Y50319524D01*
X20850205Y50271905D01*
X22374015Y49557620D02*
X21802586Y49557620D01*
X22088301Y49557620D02*
X22088301Y50557620D01*
X21993062Y50414762D01*
X21897824Y50319524D01*
X21802586Y50271905D01*
X16309071Y49462381D02*
X16213833Y49510000D01*
X16118595Y49605239D01*
X15975738Y49748096D01*
X15880500Y49795715D01*
X15785261Y49795715D01*
X15832880Y49557620D02*
X15737642Y49605239D01*
X15642404Y49700477D01*
X15594785Y49890953D01*
X15594785Y50224286D01*
X15642404Y50414762D01*
X15737642Y50510000D01*
X15832880Y50557620D01*
X16023357Y50557620D01*
X16118595Y50510000D01*
X16213833Y50414762D01*
X16261452Y50224286D01*
X16261452Y49890953D01*
X16213833Y49700477D01*
X16118595Y49605239D01*
X16023357Y49557620D01*
X15832880Y49557620D01*
X17213833Y49557620D02*
X16642404Y49557620D01*
X16928119Y49557620D02*
X16928119Y50557620D01*
X16832880Y50414762D01*
X16737642Y50319524D01*
X16642404Y50271905D01*
X18118595Y50557620D02*
X17642404Y50557620D01*
X17594785Y50081429D01*
X17642404Y50129048D01*
X17737642Y50176667D01*
X17975738Y50176667D01*
X18070976Y50129048D01*
X18118595Y50081429D01*
X18166214Y49986191D01*
X18166214Y49748096D01*
X18118595Y49652858D01*
X18070976Y49605239D01*
X17975738Y49557620D01*
X17737642Y49557620D01*
X17642404Y49605239D01*
X17594785Y49652858D01*
X29416666Y80557620D02*
X29416666Y79843334D01*
X29369047Y79700477D01*
X29273809Y79605239D01*
X29130952Y79557620D01*
X29035714Y79557620D01*
X29797619Y80557620D02*
X30464285Y80557620D01*
X30035714Y79557620D01*
X69252380Y74293334D02*
X68776190Y73960000D01*
X69252380Y73721905D02*
X68252380Y73721905D01*
X68252380Y74102858D01*
X68300000Y74198096D01*
X68347619Y74245715D01*
X68442857Y74293334D01*
X68585714Y74293334D01*
X68680952Y74245715D01*
X68728571Y74198096D01*
X68776190Y74102858D01*
X68776190Y73721905D01*
X69252380Y75245715D02*
X69252380Y74674286D01*
X69252380Y74960000D02*
X68252380Y74960000D01*
X68395238Y74864762D01*
X68490476Y74769524D01*
X68538095Y74674286D01*
X54911142Y41657233D02*
X54958761Y41609614D01*
X55006380Y41466757D01*
X55006380Y41371519D01*
X54958761Y41228662D01*
X54863523Y41133424D01*
X54768285Y41085805D01*
X54577809Y41038186D01*
X54434952Y41038186D01*
X54244476Y41085805D01*
X54149238Y41133424D01*
X54054000Y41228662D01*
X54006380Y41371519D01*
X54006380Y41466757D01*
X54054000Y41609614D01*
X54101619Y41657233D01*
X54006380Y41990567D02*
X54006380Y42609614D01*
X54387333Y42276281D01*
X54387333Y42419138D01*
X54434952Y42514376D01*
X54482571Y42561995D01*
X54577809Y42609614D01*
X54815904Y42609614D01*
X54911142Y42561995D01*
X54958761Y42514376D01*
X55006380Y42419138D01*
X55006380Y42133424D01*
X54958761Y42038186D01*
X54911142Y41990567D01*
X54101619Y42990567D02*
X54054000Y43038186D01*
X54006380Y43133424D01*
X54006380Y43371519D01*
X54054000Y43466757D01*
X54101619Y43514376D01*
X54196857Y43561995D01*
X54292095Y43561995D01*
X54434952Y43514376D01*
X55006380Y42942948D01*
X55006380Y43561995D01*
X47525142Y41657233D02*
X47572761Y41609614D01*
X47620380Y41466757D01*
X47620380Y41371519D01*
X47572761Y41228662D01*
X47477523Y41133424D01*
X47382285Y41085805D01*
X47191809Y41038186D01*
X47048952Y41038186D01*
X46858476Y41085805D01*
X46763238Y41133424D01*
X46668000Y41228662D01*
X46620380Y41371519D01*
X46620380Y41466757D01*
X46668000Y41609614D01*
X46715619Y41657233D01*
X46715619Y42038186D02*
X46668000Y42085805D01*
X46620380Y42181043D01*
X46620380Y42419138D01*
X46668000Y42514376D01*
X46715619Y42561995D01*
X46810857Y42609614D01*
X46906095Y42609614D01*
X47048952Y42561995D01*
X47620380Y41990567D01*
X47620380Y42609614D01*
X47620380Y43085805D02*
X47620380Y43276281D01*
X47572761Y43371519D01*
X47525142Y43419138D01*
X47382285Y43514376D01*
X47191809Y43561995D01*
X46810857Y43561995D01*
X46715619Y43514376D01*
X46668000Y43466757D01*
X46620380Y43371519D01*
X46620380Y43181043D01*
X46668000Y43085805D01*
X46715619Y43038186D01*
X46810857Y42990567D01*
X47048952Y42990567D01*
X47144190Y43038186D01*
X47191809Y43085805D01*
X47239428Y43181043D01*
X47239428Y43371519D01*
X47191809Y43466757D01*
X47144190Y43514376D01*
X47048952Y43561995D01*
X70857142Y66307620D02*
X70523809Y66783810D01*
X70285714Y66307620D02*
X70285714Y67307620D01*
X70666666Y67307620D01*
X70761904Y67260000D01*
X70809523Y67212381D01*
X70857142Y67117143D01*
X70857142Y66974286D01*
X70809523Y66879048D01*
X70761904Y66831429D01*
X70666666Y66783810D01*
X70285714Y66783810D01*
X71190476Y67307620D02*
X71809523Y67307620D01*
X71476190Y66926667D01*
X71619047Y66926667D01*
X71714285Y66879048D01*
X71761904Y66831429D01*
X71809523Y66736191D01*
X71809523Y66498096D01*
X71761904Y66402858D01*
X71714285Y66355239D01*
X71619047Y66307620D01*
X71333333Y66307620D01*
X71238095Y66355239D01*
X71190476Y66402858D01*
X72380952Y66879048D02*
X72285714Y66926667D01*
X72238095Y66974286D01*
X72190476Y67069524D01*
X72190476Y67117143D01*
X72238095Y67212381D01*
X72285714Y67260000D01*
X72380952Y67307620D01*
X72571428Y67307620D01*
X72666666Y67260000D01*
X72714285Y67212381D01*
X72761904Y67117143D01*
X72761904Y67069524D01*
X72714285Y66974286D01*
X72666666Y66926667D01*
X72571428Y66879048D01*
X72380952Y66879048D01*
X72285714Y66831429D01*
X72238095Y66783810D01*
X72190476Y66688572D01*
X72190476Y66498096D01*
X72238095Y66402858D01*
X72285714Y66355239D01*
X72380952Y66307620D01*
X72571428Y66307620D01*
X72666666Y66355239D01*
X72714285Y66402858D01*
X72761904Y66498096D01*
X72761904Y66688572D01*
X72714285Y66783810D01*
X72666666Y66831429D01*
X72571428Y66879048D01*
X70857142Y71707620D02*
X70523809Y72183810D01*
X70285714Y71707620D02*
X70285714Y72707620D01*
X70666666Y72707620D01*
X70761904Y72660000D01*
X70809523Y72612381D01*
X70857142Y72517143D01*
X70857142Y72374286D01*
X70809523Y72279048D01*
X70761904Y72231429D01*
X70666666Y72183810D01*
X70285714Y72183810D01*
X71190476Y72707620D02*
X71809523Y72707620D01*
X71476190Y72326667D01*
X71619047Y72326667D01*
X71714285Y72279048D01*
X71761904Y72231429D01*
X71809523Y72136191D01*
X71809523Y71898096D01*
X71761904Y71802858D01*
X71714285Y71755239D01*
X71619047Y71707620D01*
X71333333Y71707620D01*
X71238095Y71755239D01*
X71190476Y71802858D01*
X72285714Y71707620D02*
X72476190Y71707620D01*
X72571428Y71755239D01*
X72619047Y71802858D01*
X72714285Y71945715D01*
X72761904Y72136191D01*
X72761904Y72517143D01*
X72714285Y72612381D01*
X72666666Y72660000D01*
X72571428Y72707620D01*
X72380952Y72707620D01*
X72285714Y72660000D01*
X72238095Y72612381D01*
X72190476Y72517143D01*
X72190476Y72279048D01*
X72238095Y72183810D01*
X72285714Y72136191D01*
X72380952Y72088572D01*
X72571428Y72088572D01*
X72666666Y72136191D01*
X72714285Y72183810D01*
X72761904Y72279048D01*
X29557142Y58547620D02*
X29223809Y59023810D01*
X28985714Y58547620D02*
X28985714Y59547620D01*
X29366666Y59547620D01*
X29461904Y59500000D01*
X29509523Y59452381D01*
X29557142Y59357143D01*
X29557142Y59214286D01*
X29509523Y59119048D01*
X29461904Y59071429D01*
X29366666Y59023810D01*
X28985714Y59023810D01*
X29890476Y59547620D02*
X30509523Y59547620D01*
X30176190Y59166667D01*
X30319047Y59166667D01*
X30414285Y59119048D01*
X30461904Y59071429D01*
X30509523Y58976191D01*
X30509523Y58738096D01*
X30461904Y58642858D01*
X30414285Y58595239D01*
X30319047Y58547620D01*
X30033333Y58547620D01*
X29938095Y58595239D01*
X29890476Y58642858D01*
X31366666Y59547620D02*
X31176190Y59547620D01*
X31080952Y59500000D01*
X31033333Y59452381D01*
X30938095Y59309524D01*
X30890476Y59119048D01*
X30890476Y58738096D01*
X30938095Y58642858D01*
X30985714Y58595239D01*
X31080952Y58547620D01*
X31271428Y58547620D01*
X31366666Y58595239D01*
X31414285Y58642858D01*
X31461904Y58738096D01*
X31461904Y58976191D01*
X31414285Y59071429D01*
X31366666Y59119048D01*
X31271428Y59166667D01*
X31080952Y59166667D01*
X30985714Y59119048D01*
X30938095Y59071429D01*
X30890476Y58976191D01*
X47607142Y80927858D02*
X47559523Y80880239D01*
X47416666Y80832620D01*
X47321428Y80832620D01*
X47178571Y80880239D01*
X47083333Y80975477D01*
X47035714Y81070715D01*
X46988095Y81261191D01*
X46988095Y81404048D01*
X47035714Y81594524D01*
X47083333Y81689762D01*
X47178571Y81785000D01*
X47321428Y81832620D01*
X47416666Y81832620D01*
X47559523Y81785000D01*
X47607142Y81737381D01*
X47940476Y81832620D02*
X48559523Y81832620D01*
X48226190Y81451667D01*
X48369047Y81451667D01*
X48464285Y81404048D01*
X48511904Y81356429D01*
X48559523Y81261191D01*
X48559523Y81023096D01*
X48511904Y80927858D01*
X48464285Y80880239D01*
X48369047Y80832620D01*
X48083333Y80832620D01*
X47988095Y80880239D01*
X47940476Y80927858D01*
X49416666Y81499286D02*
X49416666Y80832620D01*
X49178571Y81880239D02*
X48940476Y81165953D01*
X49559523Y81165953D01*
X32357142Y70367143D02*
X32404761Y70319524D01*
X32452380Y70176667D01*
X32452380Y70081429D01*
X32404761Y69938572D01*
X32309523Y69843334D01*
X32214285Y69795715D01*
X32023809Y69748096D01*
X31880952Y69748096D01*
X31690476Y69795715D01*
X31595238Y69843334D01*
X31500000Y69938572D01*
X31452380Y70081429D01*
X31452380Y70176667D01*
X31500000Y70319524D01*
X31547619Y70367143D01*
X31452380Y70700477D02*
X31452380Y71319524D01*
X31833333Y70986191D01*
X31833333Y71129048D01*
X31880952Y71224286D01*
X31928571Y71271905D01*
X32023809Y71319524D01*
X32261904Y71319524D01*
X32357142Y71271905D01*
X32404761Y71224286D01*
X32452380Y71129048D01*
X32452380Y70843334D01*
X32404761Y70748096D01*
X32357142Y70700477D01*
X32452380Y72271905D02*
X32452380Y71700477D01*
X32452380Y71986191D02*
X31452380Y71986191D01*
X31595238Y71890953D01*
X31690476Y71795715D01*
X31738095Y71700477D01*
X30607142Y62902858D02*
X30559523Y62855239D01*
X30416666Y62807620D01*
X30321428Y62807620D01*
X30178571Y62855239D01*
X30083333Y62950477D01*
X30035714Y63045715D01*
X29988095Y63236191D01*
X29988095Y63379048D01*
X30035714Y63569524D01*
X30083333Y63664762D01*
X30178571Y63760000D01*
X30321428Y63807620D01*
X30416666Y63807620D01*
X30559523Y63760000D01*
X30607142Y63712381D01*
X30988095Y63712381D02*
X31035714Y63760000D01*
X31130952Y63807620D01*
X31369047Y63807620D01*
X31464285Y63760000D01*
X31511904Y63712381D01*
X31559523Y63617143D01*
X31559523Y63521905D01*
X31511904Y63379048D01*
X30940476Y62807620D01*
X31559523Y62807620D01*
X31892857Y63807620D02*
X32511904Y63807620D01*
X32178571Y63426667D01*
X32321428Y63426667D01*
X32416666Y63379048D01*
X32464285Y63331429D01*
X32511904Y63236191D01*
X32511904Y62998096D01*
X32464285Y62902858D01*
X32416666Y62855239D01*
X32321428Y62807620D01*
X32035714Y62807620D01*
X31940476Y62855239D01*
X31892857Y62902858D01*
X134083333Y66207620D02*
X133750000Y66683810D01*
X133511904Y66207620D02*
X133511904Y67207620D01*
X133892857Y67207620D01*
X133988095Y67160000D01*
X134035714Y67112381D01*
X134083333Y67017143D01*
X134083333Y66874286D01*
X134035714Y66779048D01*
X133988095Y66731429D01*
X133892857Y66683810D01*
X133511904Y66683810D01*
X134464285Y67112381D02*
X134511904Y67160000D01*
X134607142Y67207620D01*
X134845238Y67207620D01*
X134940476Y67160000D01*
X134988095Y67112381D01*
X135035714Y67017143D01*
X135035714Y66921905D01*
X134988095Y66779048D01*
X134416666Y66207620D01*
X135035714Y66207620D01*
X29357142Y55807620D02*
X29023809Y56283810D01*
X28785714Y55807620D02*
X28785714Y56807620D01*
X29166666Y56807620D01*
X29261904Y56760000D01*
X29309523Y56712381D01*
X29357142Y56617143D01*
X29357142Y56474286D01*
X29309523Y56379048D01*
X29261904Y56331429D01*
X29166666Y56283810D01*
X28785714Y56283810D01*
X29690476Y56807620D02*
X30309523Y56807620D01*
X29976190Y56426667D01*
X30119047Y56426667D01*
X30214285Y56379048D01*
X30261904Y56331429D01*
X30309523Y56236191D01*
X30309523Y55998096D01*
X30261904Y55902858D01*
X30214285Y55855239D01*
X30119047Y55807620D01*
X29833333Y55807620D01*
X29738095Y55855239D01*
X29690476Y55902858D01*
X31214285Y56807620D02*
X30738095Y56807620D01*
X30690476Y56331429D01*
X30738095Y56379048D01*
X30833333Y56426667D01*
X31071428Y56426667D01*
X31166666Y56379048D01*
X31214285Y56331429D01*
X31261904Y56236191D01*
X31261904Y55998096D01*
X31214285Y55902858D01*
X31166666Y55855239D01*
X31071428Y55807620D01*
X30833333Y55807620D01*
X30738095Y55855239D01*
X30690476Y55902858D01*
X63777380Y56454643D02*
X63301190Y56121310D01*
X63777380Y55883215D02*
X62777380Y55883215D01*
X62777380Y56264167D01*
X62825000Y56359405D01*
X62872619Y56407024D01*
X62967857Y56454643D01*
X63110714Y56454643D01*
X63205952Y56407024D01*
X63253571Y56359405D01*
X63301190Y56264167D01*
X63301190Y55883215D01*
X62777380Y56787977D02*
X62777380Y57407024D01*
X63158333Y57073691D01*
X63158333Y57216548D01*
X63205952Y57311786D01*
X63253571Y57359405D01*
X63348809Y57407024D01*
X63586904Y57407024D01*
X63682142Y57359405D01*
X63729761Y57311786D01*
X63777380Y57216548D01*
X63777380Y56930834D01*
X63729761Y56835596D01*
X63682142Y56787977D01*
X63110714Y58264167D02*
X63777380Y58264167D01*
X62729761Y58026072D02*
X63444047Y57787977D01*
X63444047Y58407024D01*
X59602380Y40117143D02*
X59126190Y39783810D01*
X59602380Y39545715D02*
X58602380Y39545715D01*
X58602380Y39926667D01*
X58650000Y40021905D01*
X58697619Y40069524D01*
X58792857Y40117143D01*
X58935714Y40117143D01*
X59030952Y40069524D01*
X59078571Y40021905D01*
X59126190Y39926667D01*
X59126190Y39545715D01*
X58602380Y40450477D02*
X58602380Y41069524D01*
X58983333Y40736191D01*
X58983333Y40879048D01*
X59030952Y40974286D01*
X59078571Y41021905D01*
X59173809Y41069524D01*
X59411904Y41069524D01*
X59507142Y41021905D01*
X59554761Y40974286D01*
X59602380Y40879048D01*
X59602380Y40593334D01*
X59554761Y40498096D01*
X59507142Y40450477D01*
X58602380Y41402858D02*
X58602380Y42021905D01*
X58983333Y41688572D01*
X58983333Y41831429D01*
X59030952Y41926667D01*
X59078571Y41974286D01*
X59173809Y42021905D01*
X59411904Y42021905D01*
X59507142Y41974286D01*
X59554761Y41926667D01*
X59602380Y41831429D01*
X59602380Y41545715D01*
X59554761Y41450477D01*
X59507142Y41402858D01*
X108833333Y70402858D02*
X108785714Y70355239D01*
X108642857Y70307620D01*
X108547619Y70307620D01*
X108404761Y70355239D01*
X108309523Y70450477D01*
X108261904Y70545715D01*
X108214285Y70736191D01*
X108214285Y70879048D01*
X108261904Y71069524D01*
X108309523Y71164762D01*
X108404761Y71260000D01*
X108547619Y71307620D01*
X108642857Y71307620D01*
X108785714Y71260000D01*
X108833333Y71212381D01*
X109738095Y71307620D02*
X109261904Y71307620D01*
X109214285Y70831429D01*
X109261904Y70879048D01*
X109357142Y70926667D01*
X109595238Y70926667D01*
X109690476Y70879048D01*
X109738095Y70831429D01*
X109785714Y70736191D01*
X109785714Y70498096D01*
X109738095Y70402858D01*
X109690476Y70355239D01*
X109595238Y70307620D01*
X109357142Y70307620D01*
X109261904Y70355239D01*
X109214285Y70402858D01*
X60507142Y47702858D02*
X60459523Y47655239D01*
X60316666Y47607620D01*
X60221428Y47607620D01*
X60078571Y47655239D01*
X59983333Y47750477D01*
X59935714Y47845715D01*
X59888095Y48036191D01*
X59888095Y48179048D01*
X59935714Y48369524D01*
X59983333Y48464762D01*
X60078571Y48560000D01*
X60221428Y48607620D01*
X60316666Y48607620D01*
X60459523Y48560000D01*
X60507142Y48512381D01*
X60888095Y48512381D02*
X60935714Y48560000D01*
X61030952Y48607620D01*
X61269047Y48607620D01*
X61364285Y48560000D01*
X61411904Y48512381D01*
X61459523Y48417143D01*
X61459523Y48321905D01*
X61411904Y48179048D01*
X60840476Y47607620D01*
X61459523Y47607620D01*
X62030952Y48179048D02*
X61935714Y48226667D01*
X61888095Y48274286D01*
X61840476Y48369524D01*
X61840476Y48417143D01*
X61888095Y48512381D01*
X61935714Y48560000D01*
X62030952Y48607620D01*
X62221428Y48607620D01*
X62316666Y48560000D01*
X62364285Y48512381D01*
X62411904Y48417143D01*
X62411904Y48369524D01*
X62364285Y48274286D01*
X62316666Y48226667D01*
X62221428Y48179048D01*
X62030952Y48179048D01*
X61935714Y48131429D01*
X61888095Y48083810D01*
X61840476Y47988572D01*
X61840476Y47798096D01*
X61888095Y47702858D01*
X61935714Y47655239D01*
X62030952Y47607620D01*
X62221428Y47607620D01*
X62316666Y47655239D01*
X62364285Y47702858D01*
X62411904Y47798096D01*
X62411904Y47988572D01*
X62364285Y48083810D01*
X62316666Y48131429D01*
X62221428Y48179048D01*
X27707142Y60970358D02*
X27659523Y60922739D01*
X27516666Y60875120D01*
X27421428Y60875120D01*
X27278571Y60922739D01*
X27183333Y61017977D01*
X27135714Y61113215D01*
X27088095Y61303691D01*
X27088095Y61446548D01*
X27135714Y61637024D01*
X27183333Y61732262D01*
X27278571Y61827500D01*
X27421428Y61875120D01*
X27516666Y61875120D01*
X27659523Y61827500D01*
X27707142Y61779881D01*
X28088095Y61779881D02*
X28135714Y61827500D01*
X28230952Y61875120D01*
X28469047Y61875120D01*
X28564285Y61827500D01*
X28611904Y61779881D01*
X28659523Y61684643D01*
X28659523Y61589405D01*
X28611904Y61446548D01*
X28040476Y60875120D01*
X28659523Y60875120D01*
X28992857Y61875120D02*
X29659523Y61875120D01*
X29230952Y60875120D01*
X29357142Y54402858D02*
X29309523Y54355239D01*
X29166666Y54307620D01*
X29071428Y54307620D01*
X28928571Y54355239D01*
X28833333Y54450477D01*
X28785714Y54545715D01*
X28738095Y54736191D01*
X28738095Y54879048D01*
X28785714Y55069524D01*
X28833333Y55164762D01*
X28928571Y55260000D01*
X29071428Y55307620D01*
X29166666Y55307620D01*
X29309523Y55260000D01*
X29357142Y55212381D01*
X29738095Y55212381D02*
X29785714Y55260000D01*
X29880952Y55307620D01*
X30119047Y55307620D01*
X30214285Y55260000D01*
X30261904Y55212381D01*
X30309523Y55117143D01*
X30309523Y55021905D01*
X30261904Y54879048D01*
X29690476Y54307620D01*
X30309523Y54307620D01*
X31166666Y54974286D02*
X31166666Y54307620D01*
X30928571Y55355239D02*
X30690476Y54640953D01*
X31309523Y54640953D01*
X30697142Y73812858D02*
X30649523Y73765239D01*
X30506666Y73717620D01*
X30411428Y73717620D01*
X30268571Y73765239D01*
X30173333Y73860477D01*
X30125714Y73955715D01*
X30078095Y74146191D01*
X30078095Y74289048D01*
X30125714Y74479524D01*
X30173333Y74574762D01*
X30268571Y74670000D01*
X30411428Y74717620D01*
X30506666Y74717620D01*
X30649523Y74670000D01*
X30697142Y74622381D01*
X31078095Y74622381D02*
X31125714Y74670000D01*
X31220952Y74717620D01*
X31459047Y74717620D01*
X31554285Y74670000D01*
X31601904Y74622381D01*
X31649523Y74527143D01*
X31649523Y74431905D01*
X31601904Y74289048D01*
X31030476Y73717620D01*
X31649523Y73717620D01*
X32030476Y74622381D02*
X32078095Y74670000D01*
X32173333Y74717620D01*
X32411428Y74717620D01*
X32506666Y74670000D01*
X32554285Y74622381D01*
X32601904Y74527143D01*
X32601904Y74431905D01*
X32554285Y74289048D01*
X31982857Y73717620D01*
X32601904Y73717620D01*
X34992142Y78926957D02*
X34944523Y78879338D01*
X34801666Y78831719D01*
X34706428Y78831719D01*
X34563571Y78879338D01*
X34468333Y78974576D01*
X34420714Y79069814D01*
X34373095Y79260290D01*
X34373095Y79403147D01*
X34420714Y79593623D01*
X34468333Y79688861D01*
X34563571Y79784099D01*
X34706428Y79831719D01*
X34801666Y79831719D01*
X34944523Y79784099D01*
X34992142Y79736480D01*
X35373095Y79736480D02*
X35420714Y79784099D01*
X35515952Y79831719D01*
X35754047Y79831719D01*
X35849285Y79784099D01*
X35896904Y79736480D01*
X35944523Y79641242D01*
X35944523Y79546004D01*
X35896904Y79403147D01*
X35325476Y78831719D01*
X35944523Y78831719D01*
X36896904Y78831719D02*
X36325476Y78831719D01*
X36611190Y78831719D02*
X36611190Y79831719D01*
X36515952Y79688861D01*
X36420714Y79593623D01*
X36325476Y79546004D01*
X56107142Y80402858D02*
X56059523Y80355239D01*
X55916666Y80307620D01*
X55821428Y80307620D01*
X55678571Y80355239D01*
X55583333Y80450477D01*
X55535714Y80545715D01*
X55488095Y80736191D01*
X55488095Y80879048D01*
X55535714Y81069524D01*
X55583333Y81164762D01*
X55678571Y81260000D01*
X55821428Y81307620D01*
X55916666Y81307620D01*
X56059523Y81260000D01*
X56107142Y81212381D01*
X56488095Y81212381D02*
X56535714Y81260000D01*
X56630952Y81307620D01*
X56869047Y81307620D01*
X56964285Y81260000D01*
X57011904Y81212381D01*
X57059523Y81117143D01*
X57059523Y81021905D01*
X57011904Y80879048D01*
X56440476Y80307620D01*
X57059523Y80307620D01*
X57678571Y81307620D02*
X57773809Y81307620D01*
X57869047Y81260000D01*
X57916666Y81212381D01*
X57964285Y81117143D01*
X58011904Y80926667D01*
X58011904Y80688572D01*
X57964285Y80498096D01*
X57916666Y80402858D01*
X57869047Y80355239D01*
X57773809Y80307620D01*
X57678571Y80307620D01*
X57583333Y80355239D01*
X57535714Y80402858D01*
X57488095Y80498096D01*
X57440476Y80688572D01*
X57440476Y80926667D01*
X57488095Y81117143D01*
X57535714Y81212381D01*
X57583333Y81260000D01*
X57678571Y81307620D01*
X64257142Y74002858D02*
X64209523Y73955239D01*
X64066666Y73907620D01*
X63971428Y73907620D01*
X63828571Y73955239D01*
X63733333Y74050477D01*
X63685714Y74145715D01*
X63638095Y74336191D01*
X63638095Y74479048D01*
X63685714Y74669524D01*
X63733333Y74764762D01*
X63828571Y74860000D01*
X63971428Y74907620D01*
X64066666Y74907620D01*
X64209523Y74860000D01*
X64257142Y74812381D01*
X65209523Y73907620D02*
X64638095Y73907620D01*
X64923809Y73907620D02*
X64923809Y74907620D01*
X64828571Y74764762D01*
X64733333Y74669524D01*
X64638095Y74621905D01*
X65685714Y73907620D02*
X65876190Y73907620D01*
X65971428Y73955239D01*
X66019047Y74002858D01*
X66114285Y74145715D01*
X66161904Y74336191D01*
X66161904Y74717143D01*
X66114285Y74812381D01*
X66066666Y74860000D01*
X65971428Y74907620D01*
X65780952Y74907620D01*
X65685714Y74860000D01*
X65638095Y74812381D01*
X65590476Y74717143D01*
X65590476Y74479048D01*
X65638095Y74383810D01*
X65685714Y74336191D01*
X65780952Y74288572D01*
X65971428Y74288572D01*
X66066666Y74336191D01*
X66114285Y74383810D01*
X66161904Y74479048D01*
X66107142Y64462858D02*
X66059523Y64415239D01*
X65916666Y64367620D01*
X65821428Y64367620D01*
X65678571Y64415239D01*
X65583333Y64510477D01*
X65535714Y64605715D01*
X65488095Y64796191D01*
X65488095Y64939048D01*
X65535714Y65129524D01*
X65583333Y65224762D01*
X65678571Y65320000D01*
X65821428Y65367620D01*
X65916666Y65367620D01*
X66059523Y65320000D01*
X66107142Y65272381D01*
X67059523Y64367620D02*
X66488095Y64367620D01*
X66773809Y64367620D02*
X66773809Y65367620D01*
X66678571Y65224762D01*
X66583333Y65129524D01*
X66488095Y65081905D01*
X67630952Y64939048D02*
X67535714Y64986667D01*
X67488095Y65034286D01*
X67440476Y65129524D01*
X67440476Y65177143D01*
X67488095Y65272381D01*
X67535714Y65320000D01*
X67630952Y65367620D01*
X67821428Y65367620D01*
X67916666Y65320000D01*
X67964285Y65272381D01*
X68011904Y65177143D01*
X68011904Y65129524D01*
X67964285Y65034286D01*
X67916666Y64986667D01*
X67821428Y64939048D01*
X67630952Y64939048D01*
X67535714Y64891429D01*
X67488095Y64843810D01*
X67440476Y64748572D01*
X67440476Y64558096D01*
X67488095Y64462858D01*
X67535714Y64415239D01*
X67630952Y64367620D01*
X67821428Y64367620D01*
X67916666Y64415239D01*
X67964285Y64462858D01*
X68011904Y64558096D01*
X68011904Y64748572D01*
X67964285Y64843810D01*
X67916666Y64891429D01*
X67821428Y64939048D01*
X64857142Y61935358D02*
X64809523Y61887739D01*
X64666666Y61840120D01*
X64571428Y61840120D01*
X64428571Y61887739D01*
X64333333Y61982977D01*
X64285714Y62078215D01*
X64238095Y62268691D01*
X64238095Y62411548D01*
X64285714Y62602024D01*
X64333333Y62697262D01*
X64428571Y62792500D01*
X64571428Y62840120D01*
X64666666Y62840120D01*
X64809523Y62792500D01*
X64857142Y62744881D01*
X65809523Y61840120D02*
X65238095Y61840120D01*
X65523809Y61840120D02*
X65523809Y62840120D01*
X65428571Y62697262D01*
X65333333Y62602024D01*
X65238095Y62554405D01*
X66666666Y62840120D02*
X66476190Y62840120D01*
X66380952Y62792500D01*
X66333333Y62744881D01*
X66238095Y62602024D01*
X66190476Y62411548D01*
X66190476Y62030596D01*
X66238095Y61935358D01*
X66285714Y61887739D01*
X66380952Y61840120D01*
X66571428Y61840120D01*
X66666666Y61887739D01*
X66714285Y61935358D01*
X66761904Y62030596D01*
X66761904Y62268691D01*
X66714285Y62363929D01*
X66666666Y62411548D01*
X66571428Y62459167D01*
X66380952Y62459167D01*
X66285714Y62411548D01*
X66238095Y62363929D01*
X66190476Y62268691D01*
X65257142Y56454643D02*
X65304761Y56407024D01*
X65352380Y56264167D01*
X65352380Y56168929D01*
X65304761Y56026072D01*
X65209523Y55930834D01*
X65114285Y55883215D01*
X64923809Y55835596D01*
X64780952Y55835596D01*
X64590476Y55883215D01*
X64495238Y55930834D01*
X64400000Y56026072D01*
X64352380Y56168929D01*
X64352380Y56264167D01*
X64400000Y56407024D01*
X64447619Y56454643D01*
X65352380Y57407024D02*
X65352380Y56835596D01*
X65352380Y57121310D02*
X64352380Y57121310D01*
X64495238Y57026072D01*
X64590476Y56930834D01*
X64638095Y56835596D01*
X64352380Y58311786D02*
X64352380Y57835596D01*
X64828571Y57787977D01*
X64780952Y57835596D01*
X64733333Y57930834D01*
X64733333Y58168929D01*
X64780952Y58264167D01*
X64828571Y58311786D01*
X64923809Y58359405D01*
X65161904Y58359405D01*
X65257142Y58311786D01*
X65304761Y58264167D01*
X65352380Y58168929D01*
X65352380Y57930834D01*
X65304761Y57835596D01*
X65257142Y57787977D01*
X54207142Y48467143D02*
X54254761Y48419524D01*
X54302380Y48276667D01*
X54302380Y48181429D01*
X54254761Y48038572D01*
X54159523Y47943334D01*
X54064285Y47895715D01*
X53873809Y47848096D01*
X53730952Y47848096D01*
X53540476Y47895715D01*
X53445238Y47943334D01*
X53350000Y48038572D01*
X53302380Y48181429D01*
X53302380Y48276667D01*
X53350000Y48419524D01*
X53397619Y48467143D01*
X54302380Y49419524D02*
X54302380Y48848096D01*
X54302380Y49133810D02*
X53302380Y49133810D01*
X53445238Y49038572D01*
X53540476Y48943334D01*
X53588095Y48848096D01*
X53635714Y50276667D02*
X54302380Y50276667D01*
X53254761Y50038572D02*
X53969047Y49800477D01*
X53969047Y50419524D01*
X48007142Y48052858D02*
X47959523Y48005239D01*
X47816666Y47957620D01*
X47721428Y47957620D01*
X47578571Y48005239D01*
X47483333Y48100477D01*
X47435714Y48195715D01*
X47388095Y48386191D01*
X47388095Y48529048D01*
X47435714Y48719524D01*
X47483333Y48814762D01*
X47578571Y48910000D01*
X47721428Y48957620D01*
X47816666Y48957620D01*
X47959523Y48910000D01*
X48007142Y48862381D01*
X48959523Y47957620D02*
X48388095Y47957620D01*
X48673809Y47957620D02*
X48673809Y48957620D01*
X48578571Y48814762D01*
X48483333Y48719524D01*
X48388095Y48671905D01*
X49292857Y48957620D02*
X49911904Y48957620D01*
X49578571Y48576667D01*
X49721428Y48576667D01*
X49816666Y48529048D01*
X49864285Y48481429D01*
X49911904Y48386191D01*
X49911904Y48148096D01*
X49864285Y48052858D01*
X49816666Y48005239D01*
X49721428Y47957620D01*
X49435714Y47957620D01*
X49340476Y48005239D01*
X49292857Y48052858D01*
X44057142Y48152858D02*
X44009523Y48105239D01*
X43866666Y48057620D01*
X43771428Y48057620D01*
X43628571Y48105239D01*
X43533333Y48200477D01*
X43485714Y48295715D01*
X43438095Y48486191D01*
X43438095Y48629048D01*
X43485714Y48819524D01*
X43533333Y48914762D01*
X43628571Y49010000D01*
X43771428Y49057620D01*
X43866666Y49057620D01*
X44009523Y49010000D01*
X44057142Y48962381D01*
X45009523Y48057620D02*
X44438095Y48057620D01*
X44723809Y48057620D02*
X44723809Y49057620D01*
X44628571Y48914762D01*
X44533333Y48819524D01*
X44438095Y48771905D01*
X45390476Y48962381D02*
X45438095Y49010000D01*
X45533333Y49057620D01*
X45771428Y49057620D01*
X45866666Y49010000D01*
X45914285Y48962381D01*
X45961904Y48867143D01*
X45961904Y48771905D01*
X45914285Y48629048D01*
X45342857Y48057620D01*
X45961904Y48057620D01*
X91583333Y74927858D02*
X91535714Y74880239D01*
X91392857Y74832620D01*
X91297619Y74832620D01*
X91154761Y74880239D01*
X91059523Y74975477D01*
X91011904Y75070715D01*
X90964285Y75261191D01*
X90964285Y75404048D01*
X91011904Y75594524D01*
X91059523Y75689762D01*
X91154761Y75785000D01*
X91297619Y75832620D01*
X91392857Y75832620D01*
X91535714Y75785000D01*
X91583333Y75737381D01*
X91916666Y75832620D02*
X92535714Y75832620D01*
X92202380Y75451667D01*
X92345238Y75451667D01*
X92440476Y75404048D01*
X92488095Y75356429D01*
X92535714Y75261191D01*
X92535714Y75023096D01*
X92488095Y74927858D01*
X92440476Y74880239D01*
X92345238Y74832620D01*
X92059523Y74832620D01*
X91964285Y74880239D01*
X91916666Y74927858D01*
M02*
