M48
; DRILL file {KiCad (5.1.4-0)} date 2021 February 17, Wednesday 16:18:03
; FORMAT={-:-/ absolute / inch / decimal}
; #@! TF.CreationDate,2021-02-17T16:18:03+01:00
; #@! TF.GenerationSoftware,Kicad,Pcbnew,(5.1.4-0)
; #@! TF.FileFunction,Plated,1,4,PTH
FMAT,2
INCH
T1C0.0118
T2C0.0157
T3C0.0236
T4C0.0276
T5C0.0300
T6C0.0315
T7C0.0354
T8C0.0393
T9C0.0591
T10C0.1772
%
G90
G05
T1
X0.5807Y1.6974
X0.6496Y2.4906
X0.6496Y2.3331
X0.6636Y3.1108
X0.686Y2.6874
X0.7046Y1.8783
X0.748Y2.6874
X0.7501Y1.6974
X0.7874Y2.3724
X0.8071Y2.4118
X0.8231Y3.1108
X0.8703Y1.8783
X0.9157Y1.6974
X0.9825Y3.1108
X1.036Y1.8783
X1.0433Y2.6874
X1.065Y2.4428
X1.065Y2.3808
X1.1241Y1.6579
X1.2016Y1.8783
X1.2126Y2.6987
X1.2126Y2.6367
X1.2356Y2.3232
X1.2356Y2.211
X1.2356Y2.1514
X1.2795Y2.9546
X1.2795Y2.8926
X1.2897Y1.6579
X1.2913Y2.523
X1.2913Y2.461
X1.342Y2.0969
X1.3673Y1.8783
X1.4554Y1.6579
X1.4764Y1.3291
X1.4882Y3.1756
X1.533Y1.8783
X1.5512Y3.1756
X1.565Y3.2189
X1.5689Y2.9925
X1.5764Y1.3291
X1.5886Y2.1043
X1.6764Y1.3291
X1.7224Y1.9197
X1.7441Y3.2504
X1.7717Y1.8409
X1.7717Y1.7957
X1.7717Y1.7504
X1.7717Y1.7051
X1.7717Y1.6598
X1.7717Y1.6146
X1.7764Y1.3291
X1.7913Y2.1362
X1.7913Y1.9197
X1.8071Y3.2504
X1.8231Y1.6146
X1.8745Y1.6146
X1.8764Y1.3291
X1.8839Y1.9138
X1.9259Y1.6146
X1.944Y2.9965
X1.9449Y1.9138
X1.9764Y1.3291
X1.9773Y1.6146
X1.9783Y2.2937
X2.0039Y2.9945
X2.0287Y1.6146
X2.0764Y1.3291
X2.0801Y1.6146
X2.0945Y3.1677
X2.1181Y1.9827
X2.1315Y1.6146
X2.1378Y3.1677
X2.1427Y1.9394
X2.1654Y2.9945
X2.1764Y1.3291
X2.1829Y1.6146
X2.1969Y3.1677
X2.2343Y1.8409
X2.2343Y1.7957
X2.2343Y1.7504
X2.2343Y1.7051
X2.2343Y1.6598
X2.2343Y1.6146
X2.2598Y3.1677
X2.2764Y1.3291
X2.3307Y1.7976
X2.3327Y1.6441
X2.3543Y2.7189
X2.372Y1.8902
X2.3764Y1.3291
X2.4016Y1.6441
X2.4409Y2.087
X2.4764Y2.8843
X2.4764Y1.3291
X2.5197Y2.9236
X2.5354Y2.4827
X2.5354Y2.4157
X2.5764Y1.3291
X2.5846Y1.65
X2.6024Y2.1598
X2.6024Y2.0969
X2.6181Y2.6776
X2.6181Y2.6185
X2.6339Y2.8764
X2.6614Y1.8736
X2.6764Y1.3291
X2.6772Y2.8154
X2.7315Y1.648
X2.7764Y1.3291
X2.7835Y2.8409
X2.784Y2.6402
X2.8091Y1.8736
X2.8764Y1.3291
X2.887Y1.648
X2.935Y2.7484
X2.9646Y1.8736
X2.9764Y1.3291
X3.0504Y1.648
X3.0764Y1.3291
X3.0896Y3.164
X3.128Y1.8736
X3.1663Y2.777
X3.1693Y3.3843
X3.1764Y1.3291
X3.2118Y1.648
X3.247Y3.164
X3.2764Y1.3291
X3.2894Y1.8736
X3.3346Y3.3705
X3.3614Y2.9716
X3.373Y1.65
X3.3764Y1.3291
X3.4014Y2.9726
X3.435Y2.963
X3.4506Y1.8736
X3.4744Y1.4276
X3.4744Y1.3276
X3.4904Y3.164
X3.502Y3.4276
X3.5433Y1.9177
X3.5744Y1.4276
X3.5744Y1.3276
X3.5768Y3.4276
X3.6181Y2.9728
X3.6181Y1.6382
X3.6744Y1.4276
X3.6744Y1.3276
X3.6969Y2.9728
X3.7365Y1.8665
X3.7441Y3.3488
X3.7557Y2.9728
X3.7744Y1.4276
X3.7744Y1.3276
X3.7835Y1.9177
X3.8106Y3.2766
X3.8583Y1.6382
X3.8744Y1.4276
X3.8744Y1.3276
X3.8827Y3.164
X3.9731Y1.8665
X3.9744Y1.4276
X4.0453Y2.7407
X4.0453Y2.6907
X4.0453Y2.6407
X4.0453Y2.5907
X4.0453Y2.5407
X4.0453Y2.4906
X4.0744Y1.2276
X4.0748Y1.7819
X4.0748Y1.6819
X4.0846Y2.6907
X4.0846Y2.6407
X4.0846Y2.5907
X4.0846Y2.5407
X4.0945Y2.4907
X4.1043Y2.7407
X4.1527Y2.7407
X4.1527Y2.4907
X4.1744Y1.3276
X4.1744Y1.2276
X4.1748Y1.7819
X4.1748Y1.6819
X4.2027Y2.7407
X4.2126Y2.6907
X4.2126Y2.6407
X4.2126Y2.5907
X4.2126Y2.5407
X4.2126Y2.4915
X4.2527Y2.6407
X4.2527Y2.5907
X4.2527Y2.5407
X4.2527Y2.7407
X4.2527Y2.6907
X4.2527Y2.4907
X4.2744Y1.4276
X4.2744Y1.3276
X4.2744Y1.2276
X4.2748Y1.7819
X4.2748Y1.6819
X4.3012Y2.7858
X4.3027Y2.5907
X4.3027Y2.7407
X4.3027Y2.6907
X4.3027Y2.6407
X4.3405Y2.4454
X4.3405Y2.3962
X4.3744Y1.4276
X4.3744Y1.3276
X4.3744Y1.2276
X4.3748Y1.6819
X4.3897Y2.4454
X4.3897Y2.3962
X4.3898Y2.8252
X4.439Y2.4454
X4.439Y2.3962
X4.4748Y1.6819
X4.5748Y1.6819
X4.6358Y2.3626
X4.6748Y1.7819
X4.6748Y1.6819
X4.7219Y2.3626
X4.7748Y1.7819
X4.7748Y1.6819
X4.7992Y2.3626
X4.8327Y1.9689
X4.8327Y1.8961
X4.8327Y1.8271
X4.8748Y1.6819
X4.8917Y2.3035
X4.9508Y1.7327
X4.9705Y2.5594
X4.9705Y2.5201
X4.9705Y2.3035
X5.0689Y2.3724
X5.0689Y2.2724
X5.2083Y2.3724
X5.2083Y2.2724
X5.3083Y2.3724
X5.3083Y2.2724
T2
X1.5724Y2.4815
X1.5724Y2.3815
X1.5724Y2.2815
X1.6724Y2.3815
X1.6724Y2.2815
X1.7724Y2.2815
X1.8653Y2.6185
X1.936Y2.6892
X1.936Y2.5478
X2.0067Y2.7599
X2.0067Y2.6185
X2.0067Y2.4771
X2.0774Y2.6892
X2.0774Y2.5478
X2.1481Y2.6185
X2.9429Y2.5988
X2.9429Y2.4988
X2.9429Y2.3988
X2.9429Y2.2988
X2.9429Y2.1988
X3.0429Y2.5988
X3.0429Y2.4988
X3.0429Y2.3988
X3.0429Y2.2988
X3.0429Y2.1988
X3.1429Y2.5988
X3.1429Y2.4988
X3.1429Y2.3988
X3.1429Y2.2988
X3.1429Y2.1988
X3.2429Y2.5988
X3.2429Y2.4988
X3.2429Y2.3988
X3.2429Y2.2988
X3.2429Y2.1988
X3.3429Y2.5988
X3.3429Y2.4988
X3.4429Y2.5988
X3.4429Y2.4988
X3.5429Y2.5988
X3.5429Y2.4988
X3.6429Y2.5988
X3.6429Y2.4988
X3.7429Y2.5988
X3.7429Y2.4988
X3.7429Y2.289
X3.7429Y2.189
X3.8429Y2.5988
X3.8429Y2.289
X3.8429Y2.189
X3.9429Y2.289
X3.9429Y2.189
X4.2913Y3.3665
X4.2913Y3.2665
X4.2913Y3.1665
X4.2913Y3.0665
X4.2913Y2.9665
X4.3913Y3.3665
X4.3913Y3.2665
X4.3913Y3.1665
X4.3913Y3.0665
X4.3913Y2.9665
X4.4913Y3.3665
X4.4913Y3.2665
X4.4913Y3.1665
X4.4913Y3.0665
X4.4913Y2.9665
X4.5913Y3.3665
X4.5913Y3.2665
X4.5913Y3.1665
X4.6913Y3.3665
X4.6913Y3.2665
X4.6913Y3.1665
X4.7913Y3.3665
X4.7913Y3.2665
X4.7913Y3.1665
T3
X0.3667Y2.069
X0.3881Y2.0077
X0.4011Y2.1239
X0.4409Y2.0606
X4.1535Y2.1162
X4.1535Y2.0184
X4.2228Y2.1855
X4.2228Y1.9491
X4.2328Y2.1062
X4.2328Y2.0284
X4.3106Y2.1062
X4.3106Y2.0284
X4.3206Y2.1855
X4.3206Y1.9491
X4.3899Y2.1162
X4.3899Y2.0184
X0.4493Y1.9864
X0.4657Y2.1312
X0.5042Y2.0208
X0.5115Y2.0854
T4
X1.2583Y3.3128
X1.2583Y3.2628
X1.3083Y3.3128
X1.3083Y3.2628
X1.3583Y3.3128
X1.3583Y3.2628
X1.4083Y3.3128
X1.4083Y3.2628
X1.4583Y3.3128
X1.4583Y3.2628
T5
X0.5705Y1.3374
X0.6205Y1.4374
X0.6705Y1.3374
X0.7205Y1.4374
X0.7705Y1.3374
X0.8205Y1.4374
X0.8705Y1.3374
X0.9205Y1.4374
T6
X0.9705Y1.3374
X1.0205Y1.4374
X1.0705Y1.3374
X1.1205Y1.4374
X1.1705Y1.3374
X1.2205Y1.4374
X0.8465Y2.8449
X0.8465Y2.7465
X5.1181Y1.9689
X5.1181Y1.8705
X5.1969Y1.9689
X5.1969Y1.8705
X5.2756Y1.9689
X5.2756Y1.8705
X5.3543Y1.9689
X5.3543Y1.8705
T7
X5.1431Y2.7366
X5.2431Y2.7366
X5.3431Y2.7366
X5.1431Y2.1559
X5.2431Y2.1559
X5.3431Y2.1559
T8
X4.0967Y2.2423
X4.0967Y1.8923
X4.4467Y2.2423
X4.4467Y1.8923
X0.2288Y2.0606
X0.4409Y2.2728
X0.4409Y1.8485
X0.6531Y2.0606
T9
X3.4585Y2.3043
X3.5085Y2.2043
X3.5585Y2.3043
X3.6085Y2.2043
T10
X0.2071Y1.3185
X0.2071Y2.8028
X4.7929Y1.3185
X4.7929Y2.8028
T0
M30
