M48
; DRILL file {KiCad (7.0.0)} date Wed Mar  8 01:07:47 2023
; FORMAT={-:-/ absolute / metric / decimal}
; #@! TF.CreationDate,2023-03-08T01:07:47+01:00
; #@! TF.GenerationSoftware,Kicad,Pcbnew,(7.0.0)
; #@! TF.FileFunction,Plated,1,2,PTH
FMAT,2
METRIC
; #@! TA.AperFunction,Plated,PTH,ViaDrill
T1C0.400
; #@! TA.AperFunction,Plated,PTH,ComponentDrill
T2C0.599
; #@! TA.AperFunction,Plated,PTH,ComponentDrill
T3C0.998
; #@! TA.AperFunction,Plated,PTH,ComponentDrill
T4C1.000
; #@! TA.AperFunction,Plated,PTH,ComponentDrill
T5C1.200
; #@! TA.AperFunction,Plated,PTH,ComponentDrill
T6C3.200
%
G90
G05
T1
X69.46Y-106.44
X70.27Y-80.97
X70.5Y-75.0
X70.88Y-124.93
X71.31Y-106.51
X71.72Y-113.84
X72.0Y-51.0
X74.01Y-109.83
X74.3Y-78.3
X74.425Y-99.45
X74.453Y-115.989
X75.25Y-121.4
X75.53Y-102.49
X76.0Y-72.5
X79.3Y-74.3
X79.74Y-116.25
X80.3Y-72.6
X80.52Y-105.42
X80.59Y-99.55
X81.5Y-94.0
X81.788Y-82.042
X83.566Y-61.722
X83.91Y-119.83
X84.69Y-84.52
X85.852Y-64.77
X86.0Y-98.0
X86.614Y-86.36
X87.6Y-61.176
X87.61Y-110.26
X87.63Y-64.77
X88.39Y-112.4
X89.21Y-113.31
X89.26Y-116.5
X90.49Y-116.6
X90.55Y-113.125
X90.78Y-102.11
X91.0Y-98.5
X91.2Y-74.2
X91.648Y-113.125
X91.68Y-106.76
X92.01Y-116.69
X92.743Y-112.852
X93.24Y-116.52
X93.3Y-124.26
X93.5Y-120.5
X93.54Y-93.68
X93.63Y-98.44
X94.02Y-112.3
X94.17Y-90.96
X94.79Y-109.78
X94.83Y-112.98
X95.25Y-113.919
X95.4Y-74.2
X96.42Y-66.65
X96.65Y-112.01
X97.2Y-90.53
X97.587Y-120.03
X97.76Y-112.93
X97.86Y-101.07
X98.36Y-107.38
X98.552Y-113.665
X98.713Y-111.275
X99.31Y-117.42
X99.5Y-71.5
X100.0Y-79.5
X101.0Y-75.0
X101.14Y-109.5
X101.545Y-91.757
X102.0Y-70.0
X102.264Y-92.54
X102.37Y-111.35
X102.5Y-76.5
X102.5Y-79.0
X103.0Y-68.5
X103.32Y-109.45
X103.34Y-101.9
X104.085Y-91.668
X104.58Y-105.72
X105.156Y-61.214
X105.257Y-90.638
X105.52Y-99.01
X106.0Y-70.375
X106.42Y-96.82
X107.0Y-77.5
X107.5Y-112.5
X107.696Y-62.23
X107.92Y-110.0
X108.0Y-54.0
X108.0Y-105.72
X113.5Y-75.0
X114.01Y-123.58
X114.3Y-61.214
X114.37Y-109.19
X114.45Y-69.225
X114.554Y-59.182
X114.9Y-65.075
X115.075Y-93.1
X115.1Y-101.225
X115.5Y-48.151
X116.332Y-88.646
X116.459Y-113.665
X116.459Y-115.824
X117.25Y-103.32
X117.41Y-98.4
X117.776Y-87.202
X118.11Y-108.839
X118.76Y-56.33
X118.872Y-109.601
X119.761Y-110.49
X119.93Y-113.1
X121.213Y-105.415
X121.225Y-66.65
X121.706Y-106.285
X122.18Y-98.44
X122.506Y-106.883
X129.09Y-98.23
X129.17Y-90.17
X129.19Y-113.26
X129.51Y-110.08
X129.85Y-65.8
X130.0Y-56.0
X130.048Y-91.948
X130.2Y-60.3
X130.288Y-95.236
X131.71Y-76.07
X133.604Y-96.52
X134.493Y-100.457
X134.62Y-96.52
X134.62Y-99.187
X135.636Y-65.024
X136.398Y-82.423
X137.02Y-95.88
X137.39Y-90.05
X138.049Y-57.023
X139.5Y-77.5
X139.954Y-96.266
X140.499Y-86.614
X140.499Y-87.749
X140.499Y-88.819
X140.5Y-106.0
X140.84Y-111.79
X140.97Y-79.248
X140.97Y-80.518
X141.12Y-97.29
X141.12Y-98.31
X141.52Y-103.95
X142.5Y-59.5
X142.74Y-100.79
X143.0Y-51.5
X143.0Y-61.5
X143.0Y-66.0
X143.0Y-68.0
X143.0Y-69.5
X143.0Y-73.5
X143.0Y-75.5
X143.5Y-53.0
X143.51Y-80.264
X144.36Y-97.424
X144.62Y-81.77
X144.95Y-85.04
X145.0Y-52.5
X145.0Y-67.0
X145.029Y-87.879
X145.034Y-86.106
X145.034Y-88.9
X145.108Y-98.149
X145.271Y-62.325
X145.78Y-72.42
X146.304Y-80.01
X147.12Y-60.51
X147.31Y-97.32
X147.44Y-74.08
X147.83Y-93.7
X148.41Y-96.29
X149.83Y-95.1
X151.59Y-77.07
X152.0Y-107.0
X153.0Y-57.0
X153.03Y-102.87
X153.5Y-93.0
X153.71Y-97.24
X154.66Y-96.16
X155.702Y-105.156
X159.004Y-105.156
X159.5Y-61.0
X159.5Y-84.5
X163.5Y-106.5
X164.5Y-72.0
X164.5Y-91.5
T2
X77.288Y-110.647
X77.288Y-112.379
X78.156Y-109.145
X78.156Y-113.88
X78.672Y-61.434
X78.672Y-85.934
X79.01Y-110.639
X79.01Y-112.386
X79.04Y-59.829
X79.04Y-84.329
X79.657Y-108.277
X79.657Y-114.749
X79.701Y-62.725
X79.701Y-87.225
X80.523Y-59.113
X80.523Y-61.013
X80.523Y-83.613
X80.523Y-85.513
X80.523Y-109.765
X80.523Y-111.513
X80.523Y-113.26
X81.346Y-62.725
X81.346Y-87.225
X81.39Y-108.277
X81.39Y-114.749
X82.007Y-59.829
X82.007Y-84.329
X82.037Y-110.639
X82.037Y-112.386
X82.375Y-61.434
X82.375Y-85.934
X82.891Y-109.145
X82.891Y-113.88
X83.759Y-110.647
X83.759Y-112.379
X151.648Y-61.422
X151.648Y-85.922
X152.017Y-59.816
X152.017Y-84.316
X152.677Y-62.712
X152.677Y-87.212
X153.5Y-59.1
X153.5Y-61.0
X153.5Y-83.6
X153.5Y-85.5
X154.323Y-62.712
X154.323Y-87.212
X154.983Y-59.816
X154.983Y-84.316
X155.352Y-61.422
X155.352Y-85.922
T3
X76.078Y-107.068
X76.078Y-115.958
X76.713Y-57.203
X76.713Y-64.823
X76.713Y-81.703
X76.713Y-89.323
X84.334Y-57.203
X84.334Y-64.823
X84.334Y-81.703
X84.334Y-89.323
X84.968Y-107.068
X84.968Y-115.958
X149.69Y-57.19
X149.69Y-64.81
X149.69Y-81.69
X149.69Y-89.31
X157.31Y-57.19
X157.31Y-64.81
X157.31Y-81.69
X157.31Y-89.31
T4
X92.979Y-59.903
X93.035Y-52.222
X95.519Y-59.903
X95.575Y-52.222
X95.814Y-104.506
X95.905Y-96.256
X98.059Y-59.903
X98.115Y-52.222
X98.354Y-104.506
X98.445Y-96.256
X100.599Y-59.903
X100.655Y-52.222
X109.235Y-92.694
X109.235Y-95.464
X109.235Y-98.234
X109.235Y-101.004
X109.235Y-103.774
X109.261Y-59.512
X109.261Y-62.282
X109.261Y-65.052
X109.261Y-67.822
X109.261Y-70.592
X112.075Y-94.079
X112.075Y-96.849
X112.075Y-99.619
X112.075Y-102.389
X112.101Y-60.897
X112.101Y-63.667
X112.101Y-66.437
X112.101Y-69.207
X123.998Y-59.502
X123.998Y-62.272
X123.998Y-65.042
X123.998Y-67.812
X123.998Y-70.582
X124.079Y-92.725
X124.079Y-95.495
X124.079Y-98.265
X124.079Y-101.035
X124.079Y-103.805
X126.838Y-60.887
X126.838Y-63.657
X126.838Y-66.427
X126.838Y-69.197
X126.919Y-94.11
X126.919Y-96.88
X126.919Y-99.65
X126.919Y-102.42
X136.221Y-108.557
X136.221Y-111.097
X136.321Y-100.65
X136.321Y-103.19
X144.855Y-108.576
X144.855Y-111.116
X144.883Y-100.64
X144.883Y-103.18
X152.248Y-110.195
X154.788Y-110.195
X160.34Y-110.043
X162.88Y-110.043
T5
X95.072Y-77.064
X95.148Y-87.391
X95.214Y-68.834
X97.587Y-121.798
X97.612Y-77.064
X97.688Y-87.391
X97.754Y-68.834
X100.152Y-77.064
X100.228Y-87.391
X100.294Y-68.834
X102.629Y-118.491
X106.892Y-121.798
X111.633Y-118.593
X115.778Y-121.778
X135.473Y-92.644
X135.514Y-74.625
X135.555Y-67.335
X135.585Y-84.531
X135.6Y-59.736
X135.616Y-52.339
X138.013Y-92.644
X138.054Y-74.625
X138.095Y-67.335
X138.125Y-84.531
X138.14Y-59.736
X138.156Y-52.339
X140.553Y-92.644
X140.594Y-74.625
X140.635Y-67.335
X140.665Y-84.531
X140.68Y-59.736
X140.696Y-52.339
T6
X110.655Y-85.734
X110.655Y-110.734
X110.681Y-52.552
X110.681Y-77.552
X125.418Y-52.542
X125.418Y-77.542
X125.499Y-85.765
X125.499Y-110.765
T0
M30
