G04 #@! TF.GenerationSoftware,KiCad,Pcbnew,(7.0.0)*
G04 #@! TF.CreationDate,2023-03-08T01:07:39+01:00*
G04 #@! TF.ProjectId,inverter_box_LV_distribution_board,696e7665-7274-4657-925f-626f785f4c56,rev?*
G04 #@! TF.SameCoordinates,Original*
G04 #@! TF.FileFunction,Soldermask,Bot*
G04 #@! TF.FilePolarity,Negative*
%FSLAX46Y46*%
G04 Gerber Fmt 4.6, Leading zero omitted, Abs format (unit mm)*
G04 Created by KiCad (PCBNEW (7.0.0)) date 2023-03-08 01:07:39*
%MOMM*%
%LPD*%
G01*
G04 APERTURE LIST*
G04 Aperture macros list*
%AMRoundRect*
0 Rectangle with rounded corners*
0 $1 Rounding radius*
0 $2 $3 $4 $5 $6 $7 $8 $9 X,Y pos of 4 corners*
0 Add a 4 corners polygon primitive as box body*
4,1,4,$2,$3,$4,$5,$6,$7,$8,$9,$2,$3,0*
0 Add four circle primitives for the rounded corners*
1,1,$1+$1,$2,$3*
1,1,$1+$1,$4,$5*
1,1,$1+$1,$6,$7*
1,1,$1+$1,$8,$9*
0 Add four rect primitives between the rounded corners*
20,1,$1+$1,$2,$3,$4,$5,0*
20,1,$1+$1,$4,$5,$6,$7,0*
20,1,$1+$1,$6,$7,$8,$9,0*
20,1,$1+$1,$8,$9,$2,$3,0*%
G04 Aperture macros list end*
%ADD10C,0.100000*%
%ADD11C,4.000000*%
%ADD12R,1.600000X1.600000*%
%ADD13C,1.600000*%
%ADD14C,2.500000*%
%ADD15C,1.099820*%
%ADD16C,1.498600*%
%ADD17RoundRect,0.300000X-0.700000X-0.300000X0.700000X-0.300000X0.700000X0.300000X-0.700000X0.300000X0*%
%ADD18R,1.700000X1.700000*%
%ADD19O,1.700000X1.700000*%
%ADD20RoundRect,0.250000X-0.620000X-0.850000X0.620000X-0.850000X0.620000X0.850000X-0.620000X0.850000X0*%
%ADD21O,1.740000X2.200000*%
%ADD22RoundRect,0.250000X0.620000X0.850000X-0.620000X0.850000X-0.620000X-0.850000X0.620000X-0.850000X0*%
%ADD23R,1.000000X1.500000*%
G04 APERTURE END LIST*
D10*
X113775000Y-91825000D02*
X116125000Y-91825000D01*
X116125000Y-91825000D02*
X116125000Y-104150000D01*
X116125000Y-104150000D02*
X113775000Y-104150000D01*
X113775000Y-104150000D02*
X113775000Y-91825000D01*
G36*
X113775000Y-91825000D02*
G01*
X116125000Y-91825000D01*
X116125000Y-104150000D01*
X113775000Y-104150000D01*
X113775000Y-91825000D01*
G37*
X128300000Y-96075000D02*
X131325000Y-96075000D01*
X131325000Y-96075000D02*
X131325000Y-105550000D01*
X131325000Y-105550000D02*
X128300000Y-105550000D01*
X128300000Y-105550000D02*
X128300000Y-96075000D01*
G36*
X128300000Y-96075000D02*
G01*
X131325000Y-96075000D01*
X131325000Y-105550000D01*
X128300000Y-105550000D01*
X128300000Y-96075000D01*
G37*
X128462500Y-59075000D02*
X131187500Y-59075000D01*
X131187500Y-59075000D02*
X131187500Y-71300000D01*
X131187500Y-71300000D02*
X128462500Y-71300000D01*
X128462500Y-71300000D02*
X128462500Y-59075000D01*
G36*
X128462500Y-59075000D02*
G01*
X131187500Y-59075000D01*
X131187500Y-71300000D01*
X128462500Y-71300000D01*
X128462500Y-59075000D01*
G37*
X113525000Y-62350000D02*
X116275000Y-62350000D01*
X116275000Y-62350000D02*
X116275000Y-70850000D01*
X116275000Y-70850000D02*
X113525000Y-70850000D01*
X113525000Y-70850000D02*
X113525000Y-62350000D01*
G36*
X113525000Y-62350000D02*
G01*
X116275000Y-62350000D01*
X116275000Y-70850000D01*
X113525000Y-70850000D01*
X113525000Y-62350000D01*
G37*
D11*
X125417720Y-77541520D03*
X125417720Y-52541520D03*
D12*
X123997719Y-70581519D03*
D13*
X123997720Y-67811520D03*
X123997720Y-65041520D03*
X123997720Y-62271520D03*
X123997720Y-59501520D03*
X126837720Y-69196520D03*
X126837720Y-66426520D03*
X126837720Y-63656520D03*
X126837720Y-60886520D03*
D11*
X110655240Y-110734240D03*
X110655240Y-85734240D03*
D12*
X109235239Y-103774239D03*
D13*
X109235240Y-101004240D03*
X109235240Y-98234240D03*
X109235240Y-95464240D03*
X109235240Y-92694240D03*
X112075240Y-102389240D03*
X112075240Y-99619240D03*
X112075240Y-96849240D03*
X112075240Y-94079240D03*
D11*
X125499000Y-110764720D03*
X125499000Y-85764720D03*
D12*
X124078999Y-103804719D03*
D13*
X124079000Y-101034720D03*
X124079000Y-98264720D03*
X124079000Y-95494720D03*
X124079000Y-92724720D03*
X126919000Y-102419720D03*
X126919000Y-99649720D03*
X126919000Y-96879720D03*
X126919000Y-94109720D03*
D11*
X110680640Y-77551680D03*
X110680640Y-52551680D03*
D12*
X109260639Y-70591679D03*
D13*
X109260640Y-67821680D03*
X109260640Y-65051680D03*
X109260640Y-62281680D03*
X109260640Y-59511680D03*
X112100640Y-69206680D03*
X112100640Y-66436680D03*
X112100640Y-63666680D03*
X112100640Y-60896680D03*
D14*
X106892400Y-121797800D03*
X102628700Y-118491000D03*
X115778280Y-121777760D03*
X111633000Y-118592600D03*
D15*
X79657360Y-108276740D03*
X78156220Y-109145420D03*
X77287540Y-110646560D03*
X77287540Y-112378840D03*
X78156220Y-113879980D03*
X79657360Y-114748660D03*
X81389640Y-114748660D03*
X82890780Y-113879980D03*
X83759460Y-112378840D03*
X83759460Y-110646560D03*
X82890780Y-109145420D03*
X81389640Y-108276740D03*
X80523500Y-109765180D03*
X79009660Y-110638940D03*
X79009660Y-112386460D03*
X80523500Y-113260220D03*
X82037340Y-112386460D03*
X82037340Y-110638940D03*
X80523500Y-111512700D03*
D16*
X76078500Y-115957700D03*
X84968500Y-115957700D03*
X84968500Y-107067700D03*
X76078500Y-107067700D03*
D15*
X80523500Y-83612780D03*
X79040140Y-84329060D03*
X78671840Y-85934340D03*
X79700540Y-87224660D03*
X81346460Y-87224660D03*
X82375160Y-85934340D03*
X82006860Y-84329060D03*
X80523500Y-85512700D03*
D16*
X76713500Y-89322700D03*
X84333500Y-89322700D03*
X84333500Y-81702700D03*
X76713500Y-81702700D03*
D15*
X80523500Y-59112780D03*
X79040140Y-59829060D03*
X78671840Y-61434340D03*
X79700540Y-62724660D03*
X81346460Y-62724660D03*
X82375160Y-61434340D03*
X82006860Y-59829060D03*
X80523500Y-61012700D03*
D16*
X76713500Y-64822700D03*
X84333500Y-64822700D03*
X84333500Y-57202700D03*
X76713500Y-57202700D03*
D15*
X153500000Y-59100080D03*
X152016640Y-59816360D03*
X151648340Y-61421640D03*
X152677040Y-62711960D03*
X154322960Y-62711960D03*
X155351660Y-61421640D03*
X154983360Y-59816360D03*
X153500000Y-61000000D03*
D16*
X149690000Y-64810000D03*
X157310000Y-64810000D03*
X157310000Y-57190000D03*
X149690000Y-57190000D03*
D15*
X153500000Y-83600080D03*
X152016640Y-84316360D03*
X151648340Y-85921640D03*
X152677040Y-87211960D03*
X154322960Y-87211960D03*
X155351660Y-85921640D03*
X154983360Y-84316360D03*
X153500000Y-85500000D03*
D16*
X149690000Y-89310000D03*
X157310000Y-89310000D03*
X157310000Y-81690000D03*
X149690000Y-81690000D03*
D14*
X97586800Y-121798080D03*
D17*
X82050000Y-74170000D03*
X82050000Y-71630000D03*
X89550000Y-71630000D03*
X89550000Y-74170000D03*
D18*
X144854719Y-111116479D03*
D19*
X144854719Y-108576479D03*
D20*
X135554720Y-67335400D03*
D21*
X138094719Y-67335399D03*
X140634719Y-67335399D03*
D20*
X135600440Y-59735720D03*
D21*
X138140439Y-59735719D03*
X140680439Y-59735719D03*
D20*
X135615680Y-52339240D03*
D21*
X138155679Y-52339239D03*
X140695679Y-52339239D03*
D20*
X135514080Y-74625200D03*
D21*
X138054079Y-74625199D03*
X140594079Y-74625199D03*
D18*
X162880039Y-110042959D03*
D19*
X160340039Y-110042959D03*
D22*
X140665200Y-84531200D03*
D21*
X138125199Y-84531199D03*
X135585199Y-84531199D03*
D18*
X95905319Y-96255839D03*
D19*
X98445319Y-96255839D03*
D18*
X98353879Y-104505759D03*
D19*
X95813879Y-104505759D03*
D18*
X154787599Y-110195359D03*
D19*
X152247599Y-110195359D03*
D22*
X140553440Y-92643960D03*
D21*
X138013439Y-92643959D03*
X135473439Y-92643959D03*
D23*
X154533839Y-103377999D03*
X155833839Y-103377999D03*
X154533839Y-99827999D03*
X155833839Y-99827999D03*
X158883839Y-103377999D03*
X160183839Y-103377999D03*
X158883839Y-99827999D03*
X160183839Y-99827999D03*
D18*
X100655119Y-52222399D03*
D19*
X98115119Y-52222399D03*
X95575119Y-52222399D03*
X93035119Y-52222399D03*
D20*
X95148400Y-87391240D03*
D21*
X97688399Y-87391239D03*
X100228399Y-87391239D03*
D18*
X100599239Y-59903359D03*
D19*
X98059239Y-59903359D03*
X95519239Y-59903359D03*
X92979239Y-59903359D03*
D20*
X95214440Y-68834000D03*
D21*
X97754439Y-68833999D03*
X100294439Y-68833999D03*
D20*
X95072200Y-77063600D03*
D21*
X97612199Y-77063599D03*
X100152199Y-77063599D03*
D18*
X136320799Y-103190039D03*
D19*
X136320799Y-100650039D03*
D18*
X136221439Y-111096639D03*
D19*
X136221439Y-108556639D03*
D18*
X144882959Y-103180199D03*
D19*
X144882959Y-100640199D03*
M02*
