G04 #@! TF.GenerationSoftware,KiCad,Pcbnew,(7.0.0)*
G04 #@! TF.CreationDate,2023-03-08T01:07:39+01:00*
G04 #@! TF.ProjectId,inverter_box_LV_distribution_board,696e7665-7274-4657-925f-626f785f4c56,rev?*
G04 #@! TF.SameCoordinates,Original*
G04 #@! TF.FileFunction,Paste,Top*
G04 #@! TF.FilePolarity,Positive*
%FSLAX46Y46*%
G04 Gerber Fmt 4.6, Leading zero omitted, Abs format (unit mm)*
G04 Created by KiCad (PCBNEW (7.0.0)) date 2023-03-08 01:07:39*
%MOMM*%
%LPD*%
G01*
G04 APERTURE LIST*
G04 Aperture macros list*
%AMRoundRect*
0 Rectangle with rounded corners*
0 $1 Rounding radius*
0 $2 $3 $4 $5 $6 $7 $8 $9 X,Y pos of 4 corners*
0 Add a 4 corners polygon primitive as box body*
4,1,4,$2,$3,$4,$5,$6,$7,$8,$9,$2,$3,0*
0 Add four circle primitives for the rounded corners*
1,1,$1+$1,$2,$3*
1,1,$1+$1,$4,$5*
1,1,$1+$1,$6,$7*
1,1,$1+$1,$8,$9*
0 Add four rect primitives between the rounded corners*
20,1,$1+$1,$2,$3,$4,$5,0*
20,1,$1+$1,$4,$5,$6,$7,0*
20,1,$1+$1,$6,$7,$8,$9,0*
20,1,$1+$1,$8,$9,$2,$3,0*%
G04 Aperture macros list end*
%ADD10C,1.099820*%
%ADD11C,1.498600*%
%ADD12RoundRect,0.218750X-0.218750X-0.256250X0.218750X-0.256250X0.218750X0.256250X-0.218750X0.256250X0*%
G04 APERTURE END LIST*
D10*
X79657360Y-108276740D03*
X78156220Y-109145420D03*
X77287540Y-110646560D03*
X77287540Y-112378840D03*
X78156220Y-113879980D03*
X79657360Y-114748660D03*
X81389640Y-114748660D03*
X82890780Y-113879980D03*
X83759460Y-112378840D03*
X83759460Y-110646560D03*
X82890780Y-109145420D03*
X81389640Y-108276740D03*
X80523500Y-109765180D03*
X79009660Y-110638940D03*
X79009660Y-112386460D03*
X80523500Y-113260220D03*
X82037340Y-112386460D03*
X82037340Y-110638940D03*
X80523500Y-111512700D03*
D11*
X76078500Y-115957700D03*
X84968500Y-115957700D03*
X84968500Y-107067700D03*
X76078500Y-107067700D03*
D10*
X80523500Y-83612780D03*
X79040140Y-84329060D03*
X78671840Y-85934340D03*
X79700540Y-87224660D03*
X81346460Y-87224660D03*
X82375160Y-85934340D03*
X82006860Y-84329060D03*
X80523500Y-85512700D03*
D11*
X76713500Y-89322700D03*
X84333500Y-89322700D03*
X84333500Y-81702700D03*
X76713500Y-81702700D03*
D10*
X80523500Y-59112780D03*
X79040140Y-59829060D03*
X78671840Y-61434340D03*
X79700540Y-62724660D03*
X81346460Y-62724660D03*
X82375160Y-61434340D03*
X82006860Y-59829060D03*
X80523500Y-61012700D03*
D11*
X76713500Y-64822700D03*
X84333500Y-64822700D03*
X84333500Y-57202700D03*
X76713500Y-57202700D03*
D10*
X153500000Y-59100080D03*
X152016640Y-59816360D03*
X151648340Y-61421640D03*
X152677040Y-62711960D03*
X154322960Y-62711960D03*
X155351660Y-61421640D03*
X154983360Y-59816360D03*
X153500000Y-61000000D03*
D11*
X149690000Y-64810000D03*
X157310000Y-64810000D03*
X157310000Y-57190000D03*
X149690000Y-57190000D03*
D10*
X153500000Y-83600080D03*
X152016640Y-84316360D03*
X151648340Y-85921640D03*
X152677040Y-87211960D03*
X154322960Y-87211960D03*
X155351660Y-85921640D03*
X154983360Y-84316360D03*
X153500000Y-85500000D03*
D11*
X149690000Y-89310000D03*
X157310000Y-89310000D03*
X157310000Y-81690000D03*
X149690000Y-81690000D03*
D12*
X88646000Y-50038000D03*
X90221000Y-50038000D03*
M02*
