G04 #@! TF.GenerationSoftware,KiCad,Pcbnew,(7.0.0)*
G04 #@! TF.CreationDate,2023-03-08T01:07:39+01:00*
G04 #@! TF.ProjectId,inverter_box_LV_distribution_board,696e7665-7274-4657-925f-626f785f4c56,rev?*
G04 #@! TF.SameCoordinates,Original*
G04 #@! TF.FileFunction,Legend,Top*
G04 #@! TF.FilePolarity,Positive*
%FSLAX46Y46*%
G04 Gerber Fmt 4.6, Leading zero omitted, Abs format (unit mm)*
G04 Created by KiCad (PCBNEW (7.0.0)) date 2023-03-08 01:07:39*
%MOMM*%
%LPD*%
G01*
G04 APERTURE LIST*
%ADD10C,0.200000*%
%ADD11C,0.076200*%
%ADD12C,0.150000*%
%ADD13C,0.120000*%
%ADD14C,0.198120*%
%ADD15C,0.099060*%
G04 APERTURE END LIST*
D10*
X123086904Y-49480857D02*
X123139285Y-49533238D01*
X123139285Y-49533238D02*
X123086904Y-49585619D01*
X123086904Y-49585619D02*
X123034523Y-49533238D01*
X123034523Y-49533238D02*
X123086904Y-49480857D01*
X123086904Y-49480857D02*
X123086904Y-49585619D01*
X123086904Y-49166571D02*
X123034523Y-48538000D01*
X123034523Y-48538000D02*
X123086904Y-48485619D01*
X123086904Y-48485619D02*
X123139285Y-48538000D01*
X123139285Y-48538000D02*
X123086904Y-49166571D01*
X123086904Y-49166571D02*
X123086904Y-48485619D01*
X123453571Y-48852285D02*
X123872619Y-48852285D01*
X123610714Y-48485619D02*
X123610714Y-49428476D01*
X123610714Y-49428476D02*
X123663095Y-49533238D01*
X123663095Y-49533238D02*
X123767857Y-49585619D01*
X123767857Y-49585619D02*
X123872619Y-49585619D01*
X124239285Y-49585619D02*
X124239285Y-48852285D01*
X124239285Y-49061809D02*
X124291666Y-48957047D01*
X124291666Y-48957047D02*
X124344047Y-48904666D01*
X124344047Y-48904666D02*
X124448809Y-48852285D01*
X124448809Y-48852285D02*
X124553571Y-48852285D01*
X125391666Y-49585619D02*
X125391666Y-49009428D01*
X125391666Y-49009428D02*
X125339285Y-48904666D01*
X125339285Y-48904666D02*
X125234523Y-48852285D01*
X125234523Y-48852285D02*
X125024999Y-48852285D01*
X125024999Y-48852285D02*
X124920237Y-48904666D01*
X125391666Y-49533238D02*
X125286904Y-49585619D01*
X125286904Y-49585619D02*
X125024999Y-49585619D01*
X125024999Y-49585619D02*
X124920237Y-49533238D01*
X124920237Y-49533238D02*
X124867856Y-49428476D01*
X124867856Y-49428476D02*
X124867856Y-49323714D01*
X124867856Y-49323714D02*
X124920237Y-49218952D01*
X124920237Y-49218952D02*
X125024999Y-49166571D01*
X125024999Y-49166571D02*
X125286904Y-49166571D01*
X125286904Y-49166571D02*
X125391666Y-49114190D01*
X126386904Y-49533238D02*
X126282142Y-49585619D01*
X126282142Y-49585619D02*
X126072618Y-49585619D01*
X126072618Y-49585619D02*
X125967856Y-49533238D01*
X125967856Y-49533238D02*
X125915475Y-49480857D01*
X125915475Y-49480857D02*
X125863094Y-49376095D01*
X125863094Y-49376095D02*
X125863094Y-49061809D01*
X125863094Y-49061809D02*
X125915475Y-48957047D01*
X125915475Y-48957047D02*
X125967856Y-48904666D01*
X125967856Y-48904666D02*
X126072618Y-48852285D01*
X126072618Y-48852285D02*
X126282142Y-48852285D01*
X126282142Y-48852285D02*
X126386904Y-48904666D01*
X127277380Y-49533238D02*
X127172618Y-49585619D01*
X127172618Y-49585619D02*
X126963094Y-49585619D01*
X126963094Y-49585619D02*
X126858332Y-49533238D01*
X126858332Y-49533238D02*
X126805951Y-49428476D01*
X126805951Y-49428476D02*
X126805951Y-49009428D01*
X126805951Y-49009428D02*
X126858332Y-48904666D01*
X126858332Y-48904666D02*
X126963094Y-48852285D01*
X126963094Y-48852285D02*
X127172618Y-48852285D01*
X127172618Y-48852285D02*
X127277380Y-48904666D01*
X127277380Y-48904666D02*
X127329761Y-49009428D01*
X127329761Y-49009428D02*
X127329761Y-49114190D01*
X127329761Y-49114190D02*
X126805951Y-49218952D01*
X127748808Y-49533238D02*
X127853570Y-49585619D01*
X127853570Y-49585619D02*
X128063094Y-49585619D01*
X128063094Y-49585619D02*
X128167856Y-49533238D01*
X128167856Y-49533238D02*
X128220237Y-49428476D01*
X128220237Y-49428476D02*
X128220237Y-49376095D01*
X128220237Y-49376095D02*
X128167856Y-49271333D01*
X128167856Y-49271333D02*
X128063094Y-49218952D01*
X128063094Y-49218952D02*
X127905951Y-49218952D01*
X127905951Y-49218952D02*
X127801189Y-49166571D01*
X127801189Y-49166571D02*
X127748808Y-49061809D01*
X127748808Y-49061809D02*
X127748808Y-49009428D01*
X127748808Y-49009428D02*
X127801189Y-48904666D01*
X127801189Y-48904666D02*
X127905951Y-48852285D01*
X127905951Y-48852285D02*
X128063094Y-48852285D01*
X128063094Y-48852285D02*
X128167856Y-48904666D01*
X128691665Y-49480857D02*
X128744046Y-49533238D01*
X128744046Y-49533238D02*
X128691665Y-49585619D01*
X128691665Y-49585619D02*
X128639284Y-49533238D01*
X128639284Y-49533238D02*
X128691665Y-49480857D01*
X128691665Y-49480857D02*
X128691665Y-49585619D01*
X128691665Y-49166571D02*
X128639284Y-48538000D01*
X128639284Y-48538000D02*
X128691665Y-48485619D01*
X128691665Y-48485619D02*
X128744046Y-48538000D01*
X128744046Y-48538000D02*
X128691665Y-49166571D01*
X128691665Y-49166571D02*
X128691665Y-48485619D01*
X108536904Y-49730857D02*
X108589285Y-49783238D01*
X108589285Y-49783238D02*
X108536904Y-49835619D01*
X108536904Y-49835619D02*
X108484523Y-49783238D01*
X108484523Y-49783238D02*
X108536904Y-49730857D01*
X108536904Y-49730857D02*
X108536904Y-49835619D01*
X108536904Y-49416571D02*
X108484523Y-48788000D01*
X108484523Y-48788000D02*
X108536904Y-48735619D01*
X108536904Y-48735619D02*
X108589285Y-48788000D01*
X108589285Y-48788000D02*
X108536904Y-49416571D01*
X108536904Y-49416571D02*
X108536904Y-48735619D01*
X108903571Y-49102285D02*
X109322619Y-49102285D01*
X109060714Y-48735619D02*
X109060714Y-49678476D01*
X109060714Y-49678476D02*
X109113095Y-49783238D01*
X109113095Y-49783238D02*
X109217857Y-49835619D01*
X109217857Y-49835619D02*
X109322619Y-49835619D01*
X109689285Y-49835619D02*
X109689285Y-49102285D01*
X109689285Y-49311809D02*
X109741666Y-49207047D01*
X109741666Y-49207047D02*
X109794047Y-49154666D01*
X109794047Y-49154666D02*
X109898809Y-49102285D01*
X109898809Y-49102285D02*
X110003571Y-49102285D01*
X110841666Y-49835619D02*
X110841666Y-49259428D01*
X110841666Y-49259428D02*
X110789285Y-49154666D01*
X110789285Y-49154666D02*
X110684523Y-49102285D01*
X110684523Y-49102285D02*
X110474999Y-49102285D01*
X110474999Y-49102285D02*
X110370237Y-49154666D01*
X110841666Y-49783238D02*
X110736904Y-49835619D01*
X110736904Y-49835619D02*
X110474999Y-49835619D01*
X110474999Y-49835619D02*
X110370237Y-49783238D01*
X110370237Y-49783238D02*
X110317856Y-49678476D01*
X110317856Y-49678476D02*
X110317856Y-49573714D01*
X110317856Y-49573714D02*
X110370237Y-49468952D01*
X110370237Y-49468952D02*
X110474999Y-49416571D01*
X110474999Y-49416571D02*
X110736904Y-49416571D01*
X110736904Y-49416571D02*
X110841666Y-49364190D01*
X111836904Y-49783238D02*
X111732142Y-49835619D01*
X111732142Y-49835619D02*
X111522618Y-49835619D01*
X111522618Y-49835619D02*
X111417856Y-49783238D01*
X111417856Y-49783238D02*
X111365475Y-49730857D01*
X111365475Y-49730857D02*
X111313094Y-49626095D01*
X111313094Y-49626095D02*
X111313094Y-49311809D01*
X111313094Y-49311809D02*
X111365475Y-49207047D01*
X111365475Y-49207047D02*
X111417856Y-49154666D01*
X111417856Y-49154666D02*
X111522618Y-49102285D01*
X111522618Y-49102285D02*
X111732142Y-49102285D01*
X111732142Y-49102285D02*
X111836904Y-49154666D01*
X112727380Y-49783238D02*
X112622618Y-49835619D01*
X112622618Y-49835619D02*
X112413094Y-49835619D01*
X112413094Y-49835619D02*
X112308332Y-49783238D01*
X112308332Y-49783238D02*
X112255951Y-49678476D01*
X112255951Y-49678476D02*
X112255951Y-49259428D01*
X112255951Y-49259428D02*
X112308332Y-49154666D01*
X112308332Y-49154666D02*
X112413094Y-49102285D01*
X112413094Y-49102285D02*
X112622618Y-49102285D01*
X112622618Y-49102285D02*
X112727380Y-49154666D01*
X112727380Y-49154666D02*
X112779761Y-49259428D01*
X112779761Y-49259428D02*
X112779761Y-49364190D01*
X112779761Y-49364190D02*
X112255951Y-49468952D01*
X113198808Y-49783238D02*
X113303570Y-49835619D01*
X113303570Y-49835619D02*
X113513094Y-49835619D01*
X113513094Y-49835619D02*
X113617856Y-49783238D01*
X113617856Y-49783238D02*
X113670237Y-49678476D01*
X113670237Y-49678476D02*
X113670237Y-49626095D01*
X113670237Y-49626095D02*
X113617856Y-49521333D01*
X113617856Y-49521333D02*
X113513094Y-49468952D01*
X113513094Y-49468952D02*
X113355951Y-49468952D01*
X113355951Y-49468952D02*
X113251189Y-49416571D01*
X113251189Y-49416571D02*
X113198808Y-49311809D01*
X113198808Y-49311809D02*
X113198808Y-49259428D01*
X113198808Y-49259428D02*
X113251189Y-49154666D01*
X113251189Y-49154666D02*
X113355951Y-49102285D01*
X113355951Y-49102285D02*
X113513094Y-49102285D01*
X113513094Y-49102285D02*
X113617856Y-49154666D01*
X114141665Y-49730857D02*
X114194046Y-49783238D01*
X114194046Y-49783238D02*
X114141665Y-49835619D01*
X114141665Y-49835619D02*
X114089284Y-49783238D01*
X114089284Y-49783238D02*
X114141665Y-49730857D01*
X114141665Y-49730857D02*
X114141665Y-49835619D01*
X114141665Y-49416571D02*
X114089284Y-48788000D01*
X114089284Y-48788000D02*
X114141665Y-48735619D01*
X114141665Y-48735619D02*
X114194046Y-48788000D01*
X114194046Y-48788000D02*
X114141665Y-49416571D01*
X114141665Y-49416571D02*
X114141665Y-48735619D01*
X108336904Y-108030857D02*
X108389285Y-108083238D01*
X108389285Y-108083238D02*
X108336904Y-108135619D01*
X108336904Y-108135619D02*
X108284523Y-108083238D01*
X108284523Y-108083238D02*
X108336904Y-108030857D01*
X108336904Y-108030857D02*
X108336904Y-108135619D01*
X108336904Y-107716571D02*
X108284523Y-107088000D01*
X108284523Y-107088000D02*
X108336904Y-107035619D01*
X108336904Y-107035619D02*
X108389285Y-107088000D01*
X108389285Y-107088000D02*
X108336904Y-107716571D01*
X108336904Y-107716571D02*
X108336904Y-107035619D01*
X108703571Y-107402285D02*
X109122619Y-107402285D01*
X108860714Y-107035619D02*
X108860714Y-107978476D01*
X108860714Y-107978476D02*
X108913095Y-108083238D01*
X108913095Y-108083238D02*
X109017857Y-108135619D01*
X109017857Y-108135619D02*
X109122619Y-108135619D01*
X109489285Y-108135619D02*
X109489285Y-107402285D01*
X109489285Y-107611809D02*
X109541666Y-107507047D01*
X109541666Y-107507047D02*
X109594047Y-107454666D01*
X109594047Y-107454666D02*
X109698809Y-107402285D01*
X109698809Y-107402285D02*
X109803571Y-107402285D01*
X110641666Y-108135619D02*
X110641666Y-107559428D01*
X110641666Y-107559428D02*
X110589285Y-107454666D01*
X110589285Y-107454666D02*
X110484523Y-107402285D01*
X110484523Y-107402285D02*
X110274999Y-107402285D01*
X110274999Y-107402285D02*
X110170237Y-107454666D01*
X110641666Y-108083238D02*
X110536904Y-108135619D01*
X110536904Y-108135619D02*
X110274999Y-108135619D01*
X110274999Y-108135619D02*
X110170237Y-108083238D01*
X110170237Y-108083238D02*
X110117856Y-107978476D01*
X110117856Y-107978476D02*
X110117856Y-107873714D01*
X110117856Y-107873714D02*
X110170237Y-107768952D01*
X110170237Y-107768952D02*
X110274999Y-107716571D01*
X110274999Y-107716571D02*
X110536904Y-107716571D01*
X110536904Y-107716571D02*
X110641666Y-107664190D01*
X111636904Y-108083238D02*
X111532142Y-108135619D01*
X111532142Y-108135619D02*
X111322618Y-108135619D01*
X111322618Y-108135619D02*
X111217856Y-108083238D01*
X111217856Y-108083238D02*
X111165475Y-108030857D01*
X111165475Y-108030857D02*
X111113094Y-107926095D01*
X111113094Y-107926095D02*
X111113094Y-107611809D01*
X111113094Y-107611809D02*
X111165475Y-107507047D01*
X111165475Y-107507047D02*
X111217856Y-107454666D01*
X111217856Y-107454666D02*
X111322618Y-107402285D01*
X111322618Y-107402285D02*
X111532142Y-107402285D01*
X111532142Y-107402285D02*
X111636904Y-107454666D01*
X112527380Y-108083238D02*
X112422618Y-108135619D01*
X112422618Y-108135619D02*
X112213094Y-108135619D01*
X112213094Y-108135619D02*
X112108332Y-108083238D01*
X112108332Y-108083238D02*
X112055951Y-107978476D01*
X112055951Y-107978476D02*
X112055951Y-107559428D01*
X112055951Y-107559428D02*
X112108332Y-107454666D01*
X112108332Y-107454666D02*
X112213094Y-107402285D01*
X112213094Y-107402285D02*
X112422618Y-107402285D01*
X112422618Y-107402285D02*
X112527380Y-107454666D01*
X112527380Y-107454666D02*
X112579761Y-107559428D01*
X112579761Y-107559428D02*
X112579761Y-107664190D01*
X112579761Y-107664190D02*
X112055951Y-107768952D01*
X112998808Y-108083238D02*
X113103570Y-108135619D01*
X113103570Y-108135619D02*
X113313094Y-108135619D01*
X113313094Y-108135619D02*
X113417856Y-108083238D01*
X113417856Y-108083238D02*
X113470237Y-107978476D01*
X113470237Y-107978476D02*
X113470237Y-107926095D01*
X113470237Y-107926095D02*
X113417856Y-107821333D01*
X113417856Y-107821333D02*
X113313094Y-107768952D01*
X113313094Y-107768952D02*
X113155951Y-107768952D01*
X113155951Y-107768952D02*
X113051189Y-107716571D01*
X113051189Y-107716571D02*
X112998808Y-107611809D01*
X112998808Y-107611809D02*
X112998808Y-107559428D01*
X112998808Y-107559428D02*
X113051189Y-107454666D01*
X113051189Y-107454666D02*
X113155951Y-107402285D01*
X113155951Y-107402285D02*
X113313094Y-107402285D01*
X113313094Y-107402285D02*
X113417856Y-107454666D01*
X113941665Y-108030857D02*
X113994046Y-108083238D01*
X113994046Y-108083238D02*
X113941665Y-108135619D01*
X113941665Y-108135619D02*
X113889284Y-108083238D01*
X113889284Y-108083238D02*
X113941665Y-108030857D01*
X113941665Y-108030857D02*
X113941665Y-108135619D01*
X113941665Y-107716571D02*
X113889284Y-107088000D01*
X113889284Y-107088000D02*
X113941665Y-107035619D01*
X113941665Y-107035619D02*
X113994046Y-107088000D01*
X113994046Y-107088000D02*
X113941665Y-107716571D01*
X113941665Y-107716571D02*
X113941665Y-107035619D01*
X124311904Y-108255857D02*
X124364285Y-108308238D01*
X124364285Y-108308238D02*
X124311904Y-108360619D01*
X124311904Y-108360619D02*
X124259523Y-108308238D01*
X124259523Y-108308238D02*
X124311904Y-108255857D01*
X124311904Y-108255857D02*
X124311904Y-108360619D01*
X124311904Y-107941571D02*
X124259523Y-107313000D01*
X124259523Y-107313000D02*
X124311904Y-107260619D01*
X124311904Y-107260619D02*
X124364285Y-107313000D01*
X124364285Y-107313000D02*
X124311904Y-107941571D01*
X124311904Y-107941571D02*
X124311904Y-107260619D01*
X124678571Y-107627285D02*
X125097619Y-107627285D01*
X124835714Y-107260619D02*
X124835714Y-108203476D01*
X124835714Y-108203476D02*
X124888095Y-108308238D01*
X124888095Y-108308238D02*
X124992857Y-108360619D01*
X124992857Y-108360619D02*
X125097619Y-108360619D01*
X125464285Y-108360619D02*
X125464285Y-107627285D01*
X125464285Y-107836809D02*
X125516666Y-107732047D01*
X125516666Y-107732047D02*
X125569047Y-107679666D01*
X125569047Y-107679666D02*
X125673809Y-107627285D01*
X125673809Y-107627285D02*
X125778571Y-107627285D01*
X126616666Y-108360619D02*
X126616666Y-107784428D01*
X126616666Y-107784428D02*
X126564285Y-107679666D01*
X126564285Y-107679666D02*
X126459523Y-107627285D01*
X126459523Y-107627285D02*
X126249999Y-107627285D01*
X126249999Y-107627285D02*
X126145237Y-107679666D01*
X126616666Y-108308238D02*
X126511904Y-108360619D01*
X126511904Y-108360619D02*
X126249999Y-108360619D01*
X126249999Y-108360619D02*
X126145237Y-108308238D01*
X126145237Y-108308238D02*
X126092856Y-108203476D01*
X126092856Y-108203476D02*
X126092856Y-108098714D01*
X126092856Y-108098714D02*
X126145237Y-107993952D01*
X126145237Y-107993952D02*
X126249999Y-107941571D01*
X126249999Y-107941571D02*
X126511904Y-107941571D01*
X126511904Y-107941571D02*
X126616666Y-107889190D01*
X127611904Y-108308238D02*
X127507142Y-108360619D01*
X127507142Y-108360619D02*
X127297618Y-108360619D01*
X127297618Y-108360619D02*
X127192856Y-108308238D01*
X127192856Y-108308238D02*
X127140475Y-108255857D01*
X127140475Y-108255857D02*
X127088094Y-108151095D01*
X127088094Y-108151095D02*
X127088094Y-107836809D01*
X127088094Y-107836809D02*
X127140475Y-107732047D01*
X127140475Y-107732047D02*
X127192856Y-107679666D01*
X127192856Y-107679666D02*
X127297618Y-107627285D01*
X127297618Y-107627285D02*
X127507142Y-107627285D01*
X127507142Y-107627285D02*
X127611904Y-107679666D01*
X128502380Y-108308238D02*
X128397618Y-108360619D01*
X128397618Y-108360619D02*
X128188094Y-108360619D01*
X128188094Y-108360619D02*
X128083332Y-108308238D01*
X128083332Y-108308238D02*
X128030951Y-108203476D01*
X128030951Y-108203476D02*
X128030951Y-107784428D01*
X128030951Y-107784428D02*
X128083332Y-107679666D01*
X128083332Y-107679666D02*
X128188094Y-107627285D01*
X128188094Y-107627285D02*
X128397618Y-107627285D01*
X128397618Y-107627285D02*
X128502380Y-107679666D01*
X128502380Y-107679666D02*
X128554761Y-107784428D01*
X128554761Y-107784428D02*
X128554761Y-107889190D01*
X128554761Y-107889190D02*
X128030951Y-107993952D01*
X128973808Y-108308238D02*
X129078570Y-108360619D01*
X129078570Y-108360619D02*
X129288094Y-108360619D01*
X129288094Y-108360619D02*
X129392856Y-108308238D01*
X129392856Y-108308238D02*
X129445237Y-108203476D01*
X129445237Y-108203476D02*
X129445237Y-108151095D01*
X129445237Y-108151095D02*
X129392856Y-108046333D01*
X129392856Y-108046333D02*
X129288094Y-107993952D01*
X129288094Y-107993952D02*
X129130951Y-107993952D01*
X129130951Y-107993952D02*
X129026189Y-107941571D01*
X129026189Y-107941571D02*
X128973808Y-107836809D01*
X128973808Y-107836809D02*
X128973808Y-107784428D01*
X128973808Y-107784428D02*
X129026189Y-107679666D01*
X129026189Y-107679666D02*
X129130951Y-107627285D01*
X129130951Y-107627285D02*
X129288094Y-107627285D01*
X129288094Y-107627285D02*
X129392856Y-107679666D01*
X129916665Y-108255857D02*
X129969046Y-108308238D01*
X129969046Y-108308238D02*
X129916665Y-108360619D01*
X129916665Y-108360619D02*
X129864284Y-108308238D01*
X129864284Y-108308238D02*
X129916665Y-108255857D01*
X129916665Y-108255857D02*
X129916665Y-108360619D01*
X129916665Y-107941571D02*
X129864284Y-107313000D01*
X129864284Y-107313000D02*
X129916665Y-107260619D01*
X129916665Y-107260619D02*
X129969046Y-107313000D01*
X129969046Y-107313000D02*
X129916665Y-107941571D01*
X129916665Y-107941571D02*
X129916665Y-107260619D01*
D11*
X84847063Y-110098828D02*
X84391315Y-110098828D01*
X84619189Y-110098828D02*
X84619189Y-109301268D01*
X84619189Y-109301268D02*
X84543231Y-109415206D01*
X84543231Y-109415206D02*
X84467273Y-109491164D01*
X84467273Y-109491164D02*
X84391315Y-109529143D01*
X85340791Y-109301268D02*
X85416749Y-109301268D01*
X85416749Y-109301268D02*
X85492707Y-109339248D01*
X85492707Y-109339248D02*
X85530686Y-109377227D01*
X85530686Y-109377227D02*
X85568665Y-109453185D01*
X85568665Y-109453185D02*
X85606644Y-109605101D01*
X85606644Y-109605101D02*
X85606644Y-109794996D01*
X85606644Y-109794996D02*
X85568665Y-109946912D01*
X85568665Y-109946912D02*
X85530686Y-110022870D01*
X85530686Y-110022870D02*
X85492707Y-110060849D01*
X85492707Y-110060849D02*
X85416749Y-110098828D01*
X85416749Y-110098828D02*
X85340791Y-110098828D01*
X85340791Y-110098828D02*
X85264833Y-110060849D01*
X85264833Y-110060849D02*
X85226854Y-110022870D01*
X85226854Y-110022870D02*
X85188875Y-109946912D01*
X85188875Y-109946912D02*
X85150896Y-109794996D01*
X85150896Y-109794996D02*
X85150896Y-109605101D01*
X85150896Y-109605101D02*
X85188875Y-109453185D01*
X85188875Y-109453185D02*
X85226854Y-109377227D01*
X85226854Y-109377227D02*
X85264833Y-109339248D01*
X85264833Y-109339248D02*
X85340791Y-109301268D01*
X76801916Y-112980882D02*
X76801916Y-113512588D01*
X76612021Y-112677049D02*
X76422126Y-113246735D01*
X76422126Y-113246735D02*
X76915853Y-113246735D01*
X77706035Y-114216168D02*
X77326245Y-114216168D01*
X77326245Y-114216168D02*
X77288266Y-114595959D01*
X77288266Y-114595959D02*
X77326245Y-114557980D01*
X77326245Y-114557980D02*
X77402203Y-114520001D01*
X77402203Y-114520001D02*
X77592098Y-114520001D01*
X77592098Y-114520001D02*
X77668056Y-114557980D01*
X77668056Y-114557980D02*
X77706035Y-114595959D01*
X77706035Y-114595959D02*
X77744014Y-114671917D01*
X77744014Y-114671917D02*
X77744014Y-114861812D01*
X77744014Y-114861812D02*
X77706035Y-114937770D01*
X77706035Y-114937770D02*
X77668056Y-114975749D01*
X77668056Y-114975749D02*
X77592098Y-115013728D01*
X77592098Y-115013728D02*
X77402203Y-115013728D01*
X77402203Y-115013728D02*
X77326245Y-114975749D01*
X77326245Y-114975749D02*
X77288266Y-114937770D01*
X83978383Y-108597688D02*
X83522635Y-108597688D01*
X83750509Y-108597688D02*
X83750509Y-107800128D01*
X83750509Y-107800128D02*
X83674551Y-107914066D01*
X83674551Y-107914066D02*
X83598593Y-107990024D01*
X83598593Y-107990024D02*
X83522635Y-108028003D01*
X84737964Y-108597688D02*
X84282216Y-108597688D01*
X84510090Y-108597688D02*
X84510090Y-107800128D01*
X84510090Y-107800128D02*
X84434132Y-107914066D01*
X84434132Y-107914066D02*
X84358174Y-107990024D01*
X84358174Y-107990024D02*
X84282216Y-108028003D01*
X77288266Y-107876087D02*
X77326245Y-107838108D01*
X77326245Y-107838108D02*
X77402203Y-107800128D01*
X77402203Y-107800128D02*
X77592098Y-107800128D01*
X77592098Y-107800128D02*
X77668056Y-107838108D01*
X77668056Y-107838108D02*
X77706035Y-107876087D01*
X77706035Y-107876087D02*
X77744014Y-107952045D01*
X77744014Y-107952045D02*
X77744014Y-108028003D01*
X77744014Y-108028003D02*
X77706035Y-108141940D01*
X77706035Y-108141940D02*
X77250287Y-108597688D01*
X77250287Y-108597688D02*
X77744014Y-108597688D01*
X76384147Y-109301268D02*
X76877874Y-109301268D01*
X76877874Y-109301268D02*
X76612021Y-109605101D01*
X76612021Y-109605101D02*
X76725958Y-109605101D01*
X76725958Y-109605101D02*
X76801916Y-109643080D01*
X76801916Y-109643080D02*
X76839895Y-109681059D01*
X76839895Y-109681059D02*
X76877874Y-109757017D01*
X76877874Y-109757017D02*
X76877874Y-109946912D01*
X76877874Y-109946912D02*
X76839895Y-110022870D01*
X76839895Y-110022870D02*
X76801916Y-110060849D01*
X76801916Y-110060849D02*
X76725958Y-110098828D01*
X76725958Y-110098828D02*
X76498084Y-110098828D01*
X76498084Y-110098828D02*
X76422126Y-110060849D01*
X76422126Y-110060849D02*
X76384147Y-110022870D01*
X79169196Y-115082308D02*
X79017280Y-115082308D01*
X79017280Y-115082308D02*
X78941322Y-115120288D01*
X78941322Y-115120288D02*
X78903343Y-115158267D01*
X78903343Y-115158267D02*
X78827385Y-115272204D01*
X78827385Y-115272204D02*
X78789406Y-115424120D01*
X78789406Y-115424120D02*
X78789406Y-115727952D01*
X78789406Y-115727952D02*
X78827385Y-115803910D01*
X78827385Y-115803910D02*
X78865364Y-115841889D01*
X78865364Y-115841889D02*
X78941322Y-115879868D01*
X78941322Y-115879868D02*
X79093238Y-115879868D01*
X79093238Y-115879868D02*
X79169196Y-115841889D01*
X79169196Y-115841889D02*
X79207175Y-115803910D01*
X79207175Y-115803910D02*
X79245154Y-115727952D01*
X79245154Y-115727952D02*
X79245154Y-115538057D01*
X79245154Y-115538057D02*
X79207175Y-115462099D01*
X79207175Y-115462099D02*
X79169196Y-115424120D01*
X79169196Y-115424120D02*
X79093238Y-115386141D01*
X79093238Y-115386141D02*
X78941322Y-115386141D01*
X78941322Y-115386141D02*
X78865364Y-115424120D01*
X78865364Y-115424120D02*
X78827385Y-115462099D01*
X78827385Y-115462099D02*
X78789406Y-115538057D01*
X84445744Y-113512588D02*
X84597660Y-113512588D01*
X84597660Y-113512588D02*
X84673618Y-113474609D01*
X84673618Y-113474609D02*
X84711597Y-113436630D01*
X84711597Y-113436630D02*
X84787555Y-113322693D01*
X84787555Y-113322693D02*
X84825534Y-113170777D01*
X84825534Y-113170777D02*
X84825534Y-112866945D01*
X84825534Y-112866945D02*
X84787555Y-112790987D01*
X84787555Y-112790987D02*
X84749576Y-112753008D01*
X84749576Y-112753008D02*
X84673618Y-112715028D01*
X84673618Y-112715028D02*
X84521702Y-112715028D01*
X84521702Y-112715028D02*
X84445744Y-112753008D01*
X84445744Y-112753008D02*
X84407765Y-112790987D01*
X84407765Y-112790987D02*
X84369786Y-112866945D01*
X84369786Y-112866945D02*
X84369786Y-113056840D01*
X84369786Y-113056840D02*
X84407765Y-113132798D01*
X84407765Y-113132798D02*
X84445744Y-113170777D01*
X84445744Y-113170777D02*
X84521702Y-113208756D01*
X84521702Y-113208756D02*
X84673618Y-113208756D01*
X84673618Y-113208756D02*
X84749576Y-113170777D01*
X84749576Y-113170777D02*
X84787555Y-113132798D01*
X84787555Y-113132798D02*
X84825534Y-113056840D01*
X81964527Y-115082308D02*
X82496233Y-115082308D01*
X82496233Y-115082308D02*
X82154422Y-115879868D01*
X79245154Y-107731548D02*
X78789406Y-107731548D01*
X79017280Y-107731548D02*
X79017280Y-106933988D01*
X79017280Y-106933988D02*
X78941322Y-107047926D01*
X78941322Y-107047926D02*
X78865364Y-107123884D01*
X78865364Y-107123884D02*
X78789406Y-107161863D01*
X83655562Y-114557980D02*
X83579604Y-114520001D01*
X83579604Y-114520001D02*
X83541625Y-114482022D01*
X83541625Y-114482022D02*
X83503646Y-114406064D01*
X83503646Y-114406064D02*
X83503646Y-114368085D01*
X83503646Y-114368085D02*
X83541625Y-114292127D01*
X83541625Y-114292127D02*
X83579604Y-114254148D01*
X83579604Y-114254148D02*
X83655562Y-114216168D01*
X83655562Y-114216168D02*
X83807478Y-114216168D01*
X83807478Y-114216168D02*
X83883436Y-114254148D01*
X83883436Y-114254148D02*
X83921415Y-114292127D01*
X83921415Y-114292127D02*
X83959394Y-114368085D01*
X83959394Y-114368085D02*
X83959394Y-114406064D01*
X83959394Y-114406064D02*
X83921415Y-114482022D01*
X83921415Y-114482022D02*
X83883436Y-114520001D01*
X83883436Y-114520001D02*
X83807478Y-114557980D01*
X83807478Y-114557980D02*
X83655562Y-114557980D01*
X83655562Y-114557980D02*
X83579604Y-114595959D01*
X83579604Y-114595959D02*
X83541625Y-114633938D01*
X83541625Y-114633938D02*
X83503646Y-114709896D01*
X83503646Y-114709896D02*
X83503646Y-114861812D01*
X83503646Y-114861812D02*
X83541625Y-114937770D01*
X83541625Y-114937770D02*
X83579604Y-114975749D01*
X83579604Y-114975749D02*
X83655562Y-115013728D01*
X83655562Y-115013728D02*
X83807478Y-115013728D01*
X83807478Y-115013728D02*
X83883436Y-114975749D01*
X83883436Y-114975749D02*
X83921415Y-114937770D01*
X83921415Y-114937770D02*
X83959394Y-114861812D01*
X83959394Y-114861812D02*
X83959394Y-114709896D01*
X83959394Y-114709896D02*
X83921415Y-114633938D01*
X83921415Y-114633938D02*
X83883436Y-114595959D01*
X83883436Y-114595959D02*
X83807478Y-114557980D01*
X82477243Y-107731548D02*
X82021495Y-107731548D01*
X82249369Y-107731548D02*
X82249369Y-106933988D01*
X82249369Y-106933988D02*
X82173411Y-107047926D01*
X82173411Y-107047926D02*
X82097453Y-107123884D01*
X82097453Y-107123884D02*
X82021495Y-107161863D01*
X82781076Y-107009947D02*
X82819055Y-106971968D01*
X82819055Y-106971968D02*
X82895013Y-106933988D01*
X82895013Y-106933988D02*
X83084908Y-106933988D01*
X83084908Y-106933988D02*
X83160866Y-106971968D01*
X83160866Y-106971968D02*
X83198845Y-107009947D01*
X83198845Y-107009947D02*
X83236824Y-107085905D01*
X83236824Y-107085905D02*
X83236824Y-107161863D01*
X83236824Y-107161863D02*
X83198845Y-107275800D01*
X83198845Y-107275800D02*
X82743097Y-107731548D01*
X82743097Y-107731548D02*
X83236824Y-107731548D01*
X82581747Y-82983768D02*
X83113453Y-82983768D01*
X83113453Y-82983768D02*
X82771642Y-83781328D01*
X82377095Y-87558308D02*
X81997305Y-87558308D01*
X81997305Y-87558308D02*
X81959326Y-87938099D01*
X81959326Y-87938099D02*
X81997305Y-87900120D01*
X81997305Y-87900120D02*
X82073263Y-87862141D01*
X82073263Y-87862141D02*
X82263158Y-87862141D01*
X82263158Y-87862141D02*
X82339116Y-87900120D01*
X82339116Y-87900120D02*
X82377095Y-87938099D01*
X82377095Y-87938099D02*
X82415074Y-88014057D01*
X82415074Y-88014057D02*
X82415074Y-88203952D01*
X82415074Y-88203952D02*
X82377095Y-88279910D01*
X82377095Y-88279910D02*
X82339116Y-88317889D01*
X82339116Y-88317889D02*
X82263158Y-88355868D01*
X82263158Y-88355868D02*
X82073263Y-88355868D01*
X82073263Y-88355868D02*
X81997305Y-88317889D01*
X81997305Y-88317889D02*
X81959326Y-88279910D01*
X83365276Y-86270528D02*
X83213360Y-86270528D01*
X83213360Y-86270528D02*
X83137402Y-86308508D01*
X83137402Y-86308508D02*
X83099423Y-86346487D01*
X83099423Y-86346487D02*
X83023465Y-86460424D01*
X83023465Y-86460424D02*
X82985486Y-86612340D01*
X82985486Y-86612340D02*
X82985486Y-86916172D01*
X82985486Y-86916172D02*
X83023465Y-86992130D01*
X83023465Y-86992130D02*
X83061444Y-87030109D01*
X83061444Y-87030109D02*
X83137402Y-87068088D01*
X83137402Y-87068088D02*
X83289318Y-87068088D01*
X83289318Y-87068088D02*
X83365276Y-87030109D01*
X83365276Y-87030109D02*
X83403255Y-86992130D01*
X83403255Y-86992130D02*
X83441234Y-86916172D01*
X83441234Y-86916172D02*
X83441234Y-86726277D01*
X83441234Y-86726277D02*
X83403255Y-86650319D01*
X83403255Y-86650319D02*
X83365276Y-86612340D01*
X83365276Y-86612340D02*
X83289318Y-86574361D01*
X83289318Y-86574361D02*
X83137402Y-86574361D01*
X83137402Y-86574361D02*
X83061444Y-86612340D01*
X83061444Y-86612340D02*
X83023465Y-86650319D01*
X83023465Y-86650319D02*
X82985486Y-86726277D01*
X77765907Y-86270528D02*
X78259634Y-86270528D01*
X78259634Y-86270528D02*
X77993781Y-86574361D01*
X77993781Y-86574361D02*
X78107718Y-86574361D01*
X78107718Y-86574361D02*
X78183676Y-86612340D01*
X78183676Y-86612340D02*
X78221655Y-86650319D01*
X78221655Y-86650319D02*
X78259634Y-86726277D01*
X78259634Y-86726277D02*
X78259634Y-86916172D01*
X78259634Y-86916172D02*
X78221655Y-86992130D01*
X78221655Y-86992130D02*
X78183676Y-87030109D01*
X78183676Y-87030109D02*
X78107718Y-87068088D01*
X78107718Y-87068088D02*
X77879844Y-87068088D01*
X77879844Y-87068088D02*
X77803886Y-87030109D01*
X77803886Y-87030109D02*
X77765907Y-86992130D01*
X81589574Y-83067588D02*
X81133826Y-83067588D01*
X81361700Y-83067588D02*
X81361700Y-82270028D01*
X81361700Y-82270028D02*
X81285742Y-82383966D01*
X81285742Y-82383966D02*
X81209784Y-82459924D01*
X81209784Y-82459924D02*
X81133826Y-82497903D01*
X79212376Y-87824162D02*
X79212376Y-88355868D01*
X79022481Y-87520329D02*
X78832586Y-88090015D01*
X78832586Y-88090015D02*
X79326313Y-88090015D01*
X78172186Y-83059727D02*
X78210165Y-83021748D01*
X78210165Y-83021748D02*
X78286123Y-82983768D01*
X78286123Y-82983768D02*
X78476018Y-82983768D01*
X78476018Y-82983768D02*
X78551976Y-83021748D01*
X78551976Y-83021748D02*
X78589955Y-83059727D01*
X78589955Y-83059727D02*
X78627934Y-83135685D01*
X78627934Y-83135685D02*
X78627934Y-83211643D01*
X78627934Y-83211643D02*
X78589955Y-83325580D01*
X78589955Y-83325580D02*
X78134207Y-83781328D01*
X78134207Y-83781328D02*
X78627934Y-83781328D01*
X83365276Y-61770528D02*
X83213360Y-61770528D01*
X83213360Y-61770528D02*
X83137402Y-61808508D01*
X83137402Y-61808508D02*
X83099423Y-61846487D01*
X83099423Y-61846487D02*
X83023465Y-61960424D01*
X83023465Y-61960424D02*
X82985486Y-62112340D01*
X82985486Y-62112340D02*
X82985486Y-62416172D01*
X82985486Y-62416172D02*
X83023465Y-62492130D01*
X83023465Y-62492130D02*
X83061444Y-62530109D01*
X83061444Y-62530109D02*
X83137402Y-62568088D01*
X83137402Y-62568088D02*
X83289318Y-62568088D01*
X83289318Y-62568088D02*
X83365276Y-62530109D01*
X83365276Y-62530109D02*
X83403255Y-62492130D01*
X83403255Y-62492130D02*
X83441234Y-62416172D01*
X83441234Y-62416172D02*
X83441234Y-62226277D01*
X83441234Y-62226277D02*
X83403255Y-62150319D01*
X83403255Y-62150319D02*
X83365276Y-62112340D01*
X83365276Y-62112340D02*
X83289318Y-62074361D01*
X83289318Y-62074361D02*
X83137402Y-62074361D01*
X83137402Y-62074361D02*
X83061444Y-62112340D01*
X83061444Y-62112340D02*
X83023465Y-62150319D01*
X83023465Y-62150319D02*
X82985486Y-62226277D01*
X82581747Y-58483768D02*
X83113453Y-58483768D01*
X83113453Y-58483768D02*
X82771642Y-59281328D01*
X82377095Y-63058308D02*
X81997305Y-63058308D01*
X81997305Y-63058308D02*
X81959326Y-63438099D01*
X81959326Y-63438099D02*
X81997305Y-63400120D01*
X81997305Y-63400120D02*
X82073263Y-63362141D01*
X82073263Y-63362141D02*
X82263158Y-63362141D01*
X82263158Y-63362141D02*
X82339116Y-63400120D01*
X82339116Y-63400120D02*
X82377095Y-63438099D01*
X82377095Y-63438099D02*
X82415074Y-63514057D01*
X82415074Y-63514057D02*
X82415074Y-63703952D01*
X82415074Y-63703952D02*
X82377095Y-63779910D01*
X82377095Y-63779910D02*
X82339116Y-63817889D01*
X82339116Y-63817889D02*
X82263158Y-63855868D01*
X82263158Y-63855868D02*
X82073263Y-63855868D01*
X82073263Y-63855868D02*
X81997305Y-63817889D01*
X81997305Y-63817889D02*
X81959326Y-63779910D01*
X77765907Y-61770528D02*
X78259634Y-61770528D01*
X78259634Y-61770528D02*
X77993781Y-62074361D01*
X77993781Y-62074361D02*
X78107718Y-62074361D01*
X78107718Y-62074361D02*
X78183676Y-62112340D01*
X78183676Y-62112340D02*
X78221655Y-62150319D01*
X78221655Y-62150319D02*
X78259634Y-62226277D01*
X78259634Y-62226277D02*
X78259634Y-62416172D01*
X78259634Y-62416172D02*
X78221655Y-62492130D01*
X78221655Y-62492130D02*
X78183676Y-62530109D01*
X78183676Y-62530109D02*
X78107718Y-62568088D01*
X78107718Y-62568088D02*
X77879844Y-62568088D01*
X77879844Y-62568088D02*
X77803886Y-62530109D01*
X77803886Y-62530109D02*
X77765907Y-62492130D01*
X78172186Y-58559727D02*
X78210165Y-58521748D01*
X78210165Y-58521748D02*
X78286123Y-58483768D01*
X78286123Y-58483768D02*
X78476018Y-58483768D01*
X78476018Y-58483768D02*
X78551976Y-58521748D01*
X78551976Y-58521748D02*
X78589955Y-58559727D01*
X78589955Y-58559727D02*
X78627934Y-58635685D01*
X78627934Y-58635685D02*
X78627934Y-58711643D01*
X78627934Y-58711643D02*
X78589955Y-58825580D01*
X78589955Y-58825580D02*
X78134207Y-59281328D01*
X78134207Y-59281328D02*
X78627934Y-59281328D01*
X79212376Y-63324162D02*
X79212376Y-63855868D01*
X79022481Y-63020329D02*
X78832586Y-63590015D01*
X78832586Y-63590015D02*
X79326313Y-63590015D01*
X81589574Y-58567588D02*
X81133826Y-58567588D01*
X81361700Y-58567588D02*
X81361700Y-57770028D01*
X81361700Y-57770028D02*
X81285742Y-57883966D01*
X81285742Y-57883966D02*
X81209784Y-57959924D01*
X81209784Y-57959924D02*
X81133826Y-57997903D01*
X156341776Y-61757828D02*
X156189860Y-61757828D01*
X156189860Y-61757828D02*
X156113902Y-61795808D01*
X156113902Y-61795808D02*
X156075923Y-61833787D01*
X156075923Y-61833787D02*
X155999965Y-61947724D01*
X155999965Y-61947724D02*
X155961986Y-62099640D01*
X155961986Y-62099640D02*
X155961986Y-62403472D01*
X155961986Y-62403472D02*
X155999965Y-62479430D01*
X155999965Y-62479430D02*
X156037944Y-62517409D01*
X156037944Y-62517409D02*
X156113902Y-62555388D01*
X156113902Y-62555388D02*
X156265818Y-62555388D01*
X156265818Y-62555388D02*
X156341776Y-62517409D01*
X156341776Y-62517409D02*
X156379755Y-62479430D01*
X156379755Y-62479430D02*
X156417734Y-62403472D01*
X156417734Y-62403472D02*
X156417734Y-62213577D01*
X156417734Y-62213577D02*
X156379755Y-62137619D01*
X156379755Y-62137619D02*
X156341776Y-62099640D01*
X156341776Y-62099640D02*
X156265818Y-62061661D01*
X156265818Y-62061661D02*
X156113902Y-62061661D01*
X156113902Y-62061661D02*
X156037944Y-62099640D01*
X156037944Y-62099640D02*
X155999965Y-62137619D01*
X155999965Y-62137619D02*
X155961986Y-62213577D01*
X150742407Y-61757828D02*
X151236134Y-61757828D01*
X151236134Y-61757828D02*
X150970281Y-62061661D01*
X150970281Y-62061661D02*
X151084218Y-62061661D01*
X151084218Y-62061661D02*
X151160176Y-62099640D01*
X151160176Y-62099640D02*
X151198155Y-62137619D01*
X151198155Y-62137619D02*
X151236134Y-62213577D01*
X151236134Y-62213577D02*
X151236134Y-62403472D01*
X151236134Y-62403472D02*
X151198155Y-62479430D01*
X151198155Y-62479430D02*
X151160176Y-62517409D01*
X151160176Y-62517409D02*
X151084218Y-62555388D01*
X151084218Y-62555388D02*
X150856344Y-62555388D01*
X150856344Y-62555388D02*
X150780386Y-62517409D01*
X150780386Y-62517409D02*
X150742407Y-62479430D01*
X154566074Y-58554888D02*
X154110326Y-58554888D01*
X154338200Y-58554888D02*
X154338200Y-57757328D01*
X154338200Y-57757328D02*
X154262242Y-57871266D01*
X154262242Y-57871266D02*
X154186284Y-57947224D01*
X154186284Y-57947224D02*
X154110326Y-57985203D01*
X152188876Y-63311462D02*
X152188876Y-63843168D01*
X151998981Y-63007629D02*
X151809086Y-63577315D01*
X151809086Y-63577315D02*
X152302813Y-63577315D01*
X155558247Y-58471068D02*
X156089953Y-58471068D01*
X156089953Y-58471068D02*
X155748142Y-59268628D01*
X155353595Y-63045608D02*
X154973805Y-63045608D01*
X154973805Y-63045608D02*
X154935826Y-63425399D01*
X154935826Y-63425399D02*
X154973805Y-63387420D01*
X154973805Y-63387420D02*
X155049763Y-63349441D01*
X155049763Y-63349441D02*
X155239658Y-63349441D01*
X155239658Y-63349441D02*
X155315616Y-63387420D01*
X155315616Y-63387420D02*
X155353595Y-63425399D01*
X155353595Y-63425399D02*
X155391574Y-63501357D01*
X155391574Y-63501357D02*
X155391574Y-63691252D01*
X155391574Y-63691252D02*
X155353595Y-63767210D01*
X155353595Y-63767210D02*
X155315616Y-63805189D01*
X155315616Y-63805189D02*
X155239658Y-63843168D01*
X155239658Y-63843168D02*
X155049763Y-63843168D01*
X155049763Y-63843168D02*
X154973805Y-63805189D01*
X154973805Y-63805189D02*
X154935826Y-63767210D01*
X151148686Y-58547027D02*
X151186665Y-58509048D01*
X151186665Y-58509048D02*
X151262623Y-58471068D01*
X151262623Y-58471068D02*
X151452518Y-58471068D01*
X151452518Y-58471068D02*
X151528476Y-58509048D01*
X151528476Y-58509048D02*
X151566455Y-58547027D01*
X151566455Y-58547027D02*
X151604434Y-58622985D01*
X151604434Y-58622985D02*
X151604434Y-58698943D01*
X151604434Y-58698943D02*
X151566455Y-58812880D01*
X151566455Y-58812880D02*
X151110707Y-59268628D01*
X151110707Y-59268628D02*
X151604434Y-59268628D01*
X152188876Y-87811462D02*
X152188876Y-88343168D01*
X151998981Y-87507629D02*
X151809086Y-88077315D01*
X151809086Y-88077315D02*
X152302813Y-88077315D01*
X151148686Y-83047027D02*
X151186665Y-83009048D01*
X151186665Y-83009048D02*
X151262623Y-82971068D01*
X151262623Y-82971068D02*
X151452518Y-82971068D01*
X151452518Y-82971068D02*
X151528476Y-83009048D01*
X151528476Y-83009048D02*
X151566455Y-83047027D01*
X151566455Y-83047027D02*
X151604434Y-83122985D01*
X151604434Y-83122985D02*
X151604434Y-83198943D01*
X151604434Y-83198943D02*
X151566455Y-83312880D01*
X151566455Y-83312880D02*
X151110707Y-83768628D01*
X151110707Y-83768628D02*
X151604434Y-83768628D01*
X155353595Y-87545608D02*
X154973805Y-87545608D01*
X154973805Y-87545608D02*
X154935826Y-87925399D01*
X154935826Y-87925399D02*
X154973805Y-87887420D01*
X154973805Y-87887420D02*
X155049763Y-87849441D01*
X155049763Y-87849441D02*
X155239658Y-87849441D01*
X155239658Y-87849441D02*
X155315616Y-87887420D01*
X155315616Y-87887420D02*
X155353595Y-87925399D01*
X155353595Y-87925399D02*
X155391574Y-88001357D01*
X155391574Y-88001357D02*
X155391574Y-88191252D01*
X155391574Y-88191252D02*
X155353595Y-88267210D01*
X155353595Y-88267210D02*
X155315616Y-88305189D01*
X155315616Y-88305189D02*
X155239658Y-88343168D01*
X155239658Y-88343168D02*
X155049763Y-88343168D01*
X155049763Y-88343168D02*
X154973805Y-88305189D01*
X154973805Y-88305189D02*
X154935826Y-88267210D01*
X156341776Y-86257828D02*
X156189860Y-86257828D01*
X156189860Y-86257828D02*
X156113902Y-86295808D01*
X156113902Y-86295808D02*
X156075923Y-86333787D01*
X156075923Y-86333787D02*
X155999965Y-86447724D01*
X155999965Y-86447724D02*
X155961986Y-86599640D01*
X155961986Y-86599640D02*
X155961986Y-86903472D01*
X155961986Y-86903472D02*
X155999965Y-86979430D01*
X155999965Y-86979430D02*
X156037944Y-87017409D01*
X156037944Y-87017409D02*
X156113902Y-87055388D01*
X156113902Y-87055388D02*
X156265818Y-87055388D01*
X156265818Y-87055388D02*
X156341776Y-87017409D01*
X156341776Y-87017409D02*
X156379755Y-86979430D01*
X156379755Y-86979430D02*
X156417734Y-86903472D01*
X156417734Y-86903472D02*
X156417734Y-86713577D01*
X156417734Y-86713577D02*
X156379755Y-86637619D01*
X156379755Y-86637619D02*
X156341776Y-86599640D01*
X156341776Y-86599640D02*
X156265818Y-86561661D01*
X156265818Y-86561661D02*
X156113902Y-86561661D01*
X156113902Y-86561661D02*
X156037944Y-86599640D01*
X156037944Y-86599640D02*
X155999965Y-86637619D01*
X155999965Y-86637619D02*
X155961986Y-86713577D01*
X150742407Y-86257828D02*
X151236134Y-86257828D01*
X151236134Y-86257828D02*
X150970281Y-86561661D01*
X150970281Y-86561661D02*
X151084218Y-86561661D01*
X151084218Y-86561661D02*
X151160176Y-86599640D01*
X151160176Y-86599640D02*
X151198155Y-86637619D01*
X151198155Y-86637619D02*
X151236134Y-86713577D01*
X151236134Y-86713577D02*
X151236134Y-86903472D01*
X151236134Y-86903472D02*
X151198155Y-86979430D01*
X151198155Y-86979430D02*
X151160176Y-87017409D01*
X151160176Y-87017409D02*
X151084218Y-87055388D01*
X151084218Y-87055388D02*
X150856344Y-87055388D01*
X150856344Y-87055388D02*
X150780386Y-87017409D01*
X150780386Y-87017409D02*
X150742407Y-86979430D01*
X154566074Y-83054888D02*
X154110326Y-83054888D01*
X154338200Y-83054888D02*
X154338200Y-82257328D01*
X154338200Y-82257328D02*
X154262242Y-82371266D01*
X154262242Y-82371266D02*
X154186284Y-82447224D01*
X154186284Y-82447224D02*
X154110326Y-82485203D01*
X155558247Y-82971068D02*
X156089953Y-82971068D01*
X156089953Y-82971068D02*
X155748142Y-83768628D01*
D12*
X89266833Y-48975380D02*
X88933500Y-48499190D01*
X88695405Y-48975380D02*
X88695405Y-47975380D01*
X88695405Y-47975380D02*
X89076357Y-47975380D01*
X89076357Y-47975380D02*
X89171595Y-48023000D01*
X89171595Y-48023000D02*
X89219214Y-48070619D01*
X89219214Y-48070619D02*
X89266833Y-48165857D01*
X89266833Y-48165857D02*
X89266833Y-48308714D01*
X89266833Y-48308714D02*
X89219214Y-48403952D01*
X89219214Y-48403952D02*
X89171595Y-48451571D01*
X89171595Y-48451571D02*
X89076357Y-48499190D01*
X89076357Y-48499190D02*
X88695405Y-48499190D01*
X90219214Y-48975380D02*
X89647786Y-48975380D01*
X89933500Y-48975380D02*
X89933500Y-47975380D01*
X89933500Y-47975380D02*
X89838262Y-48118238D01*
X89838262Y-48118238D02*
X89743024Y-48213476D01*
X89743024Y-48213476D02*
X89647786Y-48261095D01*
D13*
X108342400Y-121797800D02*
G75*
G03*
X108342400Y-121797800I-1450000J0D01*
G01*
X104078700Y-118491000D02*
G75*
G03*
X104078700Y-118491000I-1450000J0D01*
G01*
X117228280Y-121777760D02*
G75*
G03*
X117228280Y-121777760I-1450000J0D01*
G01*
X113083000Y-118592600D02*
G75*
G03*
X113083000Y-118592600I-1450000J0D01*
G01*
D14*
X79725940Y-101063140D02*
X81321060Y-101063140D01*
D15*
X92022080Y-111512700D02*
G75*
G03*
X92022080Y-111512700I-11498580J0D01*
G01*
D14*
X90523480Y-111512700D02*
G75*
G03*
X90523480Y-111512700I-9999980J0D01*
G01*
X79725940Y-76564280D02*
X81321060Y-76564280D01*
D15*
X90523480Y-85512700D02*
G75*
G03*
X90523480Y-85512700I-9999980J0D01*
G01*
D14*
X89022340Y-85512700D02*
G75*
G03*
X89022340Y-85512700I-8498840J0D01*
G01*
X79725940Y-52064280D02*
X81321060Y-52064280D01*
D15*
X90523480Y-61012700D02*
G75*
G03*
X90523480Y-61012700I-9999980J0D01*
G01*
D14*
X89022340Y-61012700D02*
G75*
G03*
X89022340Y-61012700I-8498840J0D01*
G01*
X152702440Y-52051580D02*
X154297560Y-52051580D01*
D15*
X163499980Y-61000000D02*
G75*
G03*
X163499980Y-61000000I-9999980J0D01*
G01*
D14*
X161998840Y-61000000D02*
G75*
G03*
X161998840Y-61000000I-8498840J0D01*
G01*
X152702440Y-76551580D02*
X154297560Y-76551580D01*
D15*
X163499980Y-85500000D02*
G75*
G03*
X163499980Y-85500000I-9999980J0D01*
G01*
D14*
X161998840Y-85500000D02*
G75*
G03*
X161998840Y-85500000I-8498840J0D01*
G01*
D13*
X99036800Y-121798080D02*
G75*
G03*
X99036800Y-121798080I-1450000J0D01*
G01*
X89270721Y-49528000D02*
X89596279Y-49528000D01*
X89270721Y-50548000D02*
X89596279Y-50548000D01*
M02*
