G04 #@! TF.GenerationSoftware,KiCad,Pcbnew,(5.1.4-0)*
G04 #@! TF.CreationDate,2021-02-17T15:57:58+01:00*
G04 #@! TF.ProjectId,DCU,4443552e-6b69-4636-9164-5f7063625858,rev?*
G04 #@! TF.SameCoordinates,Original*
G04 #@! TF.FileFunction,Copper,L2,Bot*
G04 #@! TF.FilePolarity,Positive*
%FSLAX46Y46*%
G04 Gerber Fmt 4.6, Leading zero omitted, Abs format (unit mm)*
G04 Created by KiCad (PCBNEW (5.1.4-0)) date 2021-02-17 15:57:58*
%MOMM*%
%LPD*%
G04 APERTURE LIST*
%ADD10C,1.524000*%
%ADD11O,1.700000X1.700000*%
%ADD12R,1.700000X1.700000*%
%ADD13C,1.700000*%
%ADD14C,1.000000*%
%ADD15C,0.800000*%
%ADD16C,0.250000*%
%ADD17C,0.254000*%
G04 APERTURE END LIST*
D10*
X128100000Y-69790000D03*
X129370000Y-67250000D03*
X130640000Y-69790000D03*
X131910000Y-67250000D03*
D11*
X172350000Y-75260000D03*
X172350000Y-77800000D03*
X172350000Y-80340000D03*
D12*
X172350000Y-82880000D03*
D11*
X157100000Y-67650000D03*
X159640000Y-67650000D03*
X162180000Y-67650000D03*
D12*
X164720000Y-67650000D03*
X151730000Y-67520000D03*
D11*
X149190000Y-67520000D03*
X146650000Y-67520000D03*
X144110000Y-67520000D03*
D13*
X141570000Y-67520000D03*
X139030000Y-67520000D03*
D10*
X148080000Y-130210000D03*
X146810000Y-132750000D03*
X145540000Y-130210000D03*
X144270000Y-132750000D03*
X143000000Y-130210000D03*
X141730000Y-132750000D03*
X140460000Y-130210000D03*
X139190000Y-132750000D03*
X137920000Y-130210000D03*
X136650000Y-132750000D03*
D14*
X166018000Y-110832000D03*
X166018000Y-109562000D03*
X167288000Y-110832000D03*
X167288000Y-109562000D03*
X168558000Y-110832000D03*
X168558000Y-109562000D03*
X169828000Y-110832000D03*
X169828000Y-109562000D03*
X171098000Y-110832000D03*
X171098000Y-109562000D03*
D10*
X162885000Y-124400000D03*
X165425000Y-124400000D03*
X167965000Y-124400000D03*
D15*
X143650000Y-89250000D03*
X142050000Y-93650000D03*
X122900000Y-88950000D03*
X128070000Y-87810000D03*
X117920000Y-84090000D03*
X123130000Y-83700000D03*
X135060000Y-81980000D03*
X134300000Y-78350000D03*
X136490000Y-68710000D03*
X139150000Y-69150000D03*
X159600000Y-69300000D03*
X156000000Y-73600000D03*
X149210000Y-73710000D03*
X147700000Y-69000000D03*
X170650000Y-77900000D03*
X168120000Y-74920000D03*
X165850000Y-90800000D03*
X171850000Y-100800000D03*
X171200000Y-96950000D03*
X169800000Y-106250000D03*
X168780000Y-106410000D03*
X168000000Y-116550000D03*
X161300000Y-113050000D03*
X160100000Y-117600000D03*
X164900000Y-115600000D03*
X156450000Y-126900000D03*
X165500000Y-126100000D03*
X152200000Y-118950000D03*
X148400000Y-132650000D03*
X143000000Y-128700000D03*
X136300000Y-124600000D03*
X122850000Y-109900000D03*
X120550000Y-113250000D03*
X123110000Y-116570000D03*
X130380000Y-113860000D03*
X136680000Y-114700000D03*
X113350000Y-95150000D03*
X128000000Y-94200000D03*
X128000000Y-95100000D03*
X121600000Y-93900000D03*
X120750000Y-97100000D03*
X152600000Y-102350000D03*
X151850000Y-101800000D03*
X161050000Y-101800000D03*
X144580000Y-124440000D03*
X146950000Y-129000000D03*
X140150000Y-75850000D03*
X138950000Y-76450000D03*
X159500000Y-96300000D03*
X158980000Y-100280000D03*
X166800000Y-99750000D03*
X164666000Y-101750000D03*
X143584000Y-108862000D03*
X144854000Y-109370000D03*
X138800000Y-108850000D03*
X134300000Y-107300000D03*
X134300000Y-106100000D03*
X130600000Y-117300000D03*
X133700000Y-119550000D03*
X171100000Y-112000000D03*
X167300000Y-112050000D03*
X121850000Y-108850000D03*
X158300000Y-81200000D03*
X151050000Y-84350000D03*
X154100000Y-78700000D03*
X125100000Y-114500000D03*
X124600000Y-113500000D03*
X118650000Y-91900000D03*
X139350000Y-91900000D03*
X138150000Y-92250000D03*
X128200000Y-107300000D03*
X128200000Y-106100000D03*
X134150000Y-94150000D03*
X134150000Y-95100000D03*
X163700000Y-88550000D03*
X112670000Y-116830000D03*
X139450000Y-112300000D03*
X149050000Y-106050000D03*
X149050000Y-107100000D03*
X160400000Y-113050000D03*
X168600000Y-112050000D03*
X149050000Y-95150000D03*
X149050000Y-94250000D03*
X113350000Y-93950000D03*
X155950000Y-112650000D03*
X154150000Y-112700000D03*
X113350000Y-106250000D03*
X113350000Y-107100000D03*
X150000000Y-120100000D03*
X145050000Y-116350000D03*
X155900000Y-90800000D03*
X157200000Y-98250000D03*
X156500000Y-120900000D03*
X118150000Y-108950000D03*
X160700000Y-95500000D03*
X167650000Y-92200000D03*
X161450000Y-85300000D03*
X171650000Y-91200000D03*
X165600000Y-96200000D03*
X167100000Y-97600000D03*
X164350000Y-108150000D03*
X162450000Y-108850000D03*
X141850000Y-95300000D03*
X145450000Y-112750000D03*
X155950000Y-98450000D03*
X156950000Y-89850000D03*
X145850000Y-85100000D03*
X147750000Y-88150000D03*
X141550000Y-86450000D03*
X172619673Y-105972319D03*
X170900000Y-106700000D03*
X132390000Y-125890000D03*
X126960000Y-115200000D03*
X127020000Y-117360000D03*
X134850000Y-125900000D03*
X134850000Y-127490000D03*
X132665000Y-127480000D03*
X132000000Y-85146890D03*
X132100000Y-87571890D03*
X132100000Y-98200000D03*
X132100000Y-102215000D03*
X130700000Y-85100000D03*
X131100000Y-87571890D03*
X131101380Y-98147442D03*
X131050000Y-102250000D03*
X139388199Y-115038199D03*
X141800000Y-115050000D03*
X137568959Y-121371041D03*
X138791729Y-120189646D03*
X138276066Y-122078149D03*
X139601041Y-120998959D03*
X138420000Y-86040000D03*
X147590000Y-78530000D03*
X147590000Y-76270000D03*
X136400000Y-86846890D03*
X157180000Y-78590000D03*
X157170000Y-76530000D03*
X139100000Y-86900000D03*
X137332459Y-87567541D03*
X161150000Y-82000000D03*
X162151041Y-80098959D03*
X152750000Y-90550000D03*
X154900000Y-88550000D03*
X164200000Y-98150000D03*
X164200000Y-99681000D03*
X162800000Y-99750000D03*
X162800000Y-98200000D03*
X171198001Y-108450000D03*
X172648001Y-107400000D03*
X142154349Y-79604349D03*
X146700000Y-80535000D03*
X158050000Y-89400000D03*
X159450000Y-90600000D03*
D16*
X172619673Y-105972319D02*
X171627681Y-105972319D01*
X171627681Y-105972319D02*
X170900000Y-106700000D01*
X132400000Y-125900000D02*
X132390000Y-125890000D01*
X126960000Y-115200000D02*
X126960000Y-117300000D01*
X126960000Y-117300000D02*
X127020000Y-117360000D01*
X132390000Y-125890000D02*
X134840000Y-125890000D01*
X134840000Y-125890000D02*
X134850000Y-125900000D01*
X134850000Y-127490000D02*
X132675000Y-127490000D01*
X132675000Y-127490000D02*
X132665000Y-127480000D01*
X132000000Y-85146890D02*
X132000000Y-87471890D01*
X132000000Y-87471890D02*
X132100000Y-87571890D01*
X132100000Y-98200000D02*
X132100000Y-102215000D01*
X130700000Y-85100000D02*
X131100000Y-85500000D01*
X131100000Y-85500000D02*
X131100000Y-87571890D01*
X131101380Y-98147442D02*
X131101380Y-102198620D01*
X131101380Y-102198620D02*
X131050000Y-102250000D01*
X139388199Y-115038199D02*
X141788199Y-115038199D01*
X141788199Y-115038199D02*
X141800000Y-115050000D01*
X137568959Y-121371041D02*
X137610334Y-121371041D01*
X137610334Y-121371041D02*
X138791729Y-120189646D01*
X138276066Y-122078149D02*
X138521851Y-122078149D01*
X138521851Y-122078149D02*
X139601041Y-120998959D01*
X147590000Y-78530000D02*
X147590000Y-76270000D01*
X138420000Y-86040000D02*
X137406890Y-86040000D01*
X137406890Y-86040000D02*
X137206890Y-86040000D01*
X137206890Y-86040000D02*
X136400000Y-86846890D01*
X157180000Y-78590000D02*
X157180000Y-76540000D01*
X157180000Y-76540000D02*
X157170000Y-76530000D01*
X139100000Y-86900000D02*
X138000000Y-86900000D01*
X138000000Y-86900000D02*
X137332459Y-87567541D01*
X161150000Y-82000000D02*
X161150000Y-81100000D01*
X161150000Y-81100000D02*
X162151041Y-80098959D01*
X152750000Y-90550000D02*
X154750000Y-88550000D01*
X154750000Y-88550000D02*
X154900000Y-88550000D01*
X164200000Y-98150000D02*
X164200000Y-99681000D01*
X162800000Y-99750000D02*
X162800000Y-98200000D01*
X171198001Y-108450000D02*
X171598001Y-108450000D01*
X171598001Y-108450000D02*
X172648001Y-107400000D01*
X142154349Y-79604349D02*
X145769349Y-79604349D01*
X145769349Y-79604349D02*
X146700000Y-80535000D01*
X158050000Y-89400000D02*
X158250000Y-89400000D01*
X158250000Y-89400000D02*
X159450000Y-90600000D01*
D17*
G36*
X171633489Y-65800638D02*
G01*
X172242855Y-65984617D01*
X172804876Y-66283449D01*
X173298148Y-66685753D01*
X173703885Y-67176205D01*
X174006635Y-67736128D01*
X174194861Y-68344188D01*
X174265001Y-69011522D01*
X174265002Y-130964035D01*
X174199362Y-131633488D01*
X174015383Y-132242853D01*
X173716552Y-132804874D01*
X173314248Y-133298147D01*
X172823793Y-133703886D01*
X172263877Y-134006633D01*
X171655812Y-134194860D01*
X170988479Y-134265000D01*
X114035946Y-134265000D01*
X113366512Y-134199362D01*
X112757146Y-134015383D01*
X112195130Y-133716553D01*
X111701856Y-133314250D01*
X111296117Y-132823795D01*
X110993367Y-132263873D01*
X110805141Y-131655811D01*
X110735001Y-130988478D01*
X110735001Y-129729963D01*
X112258267Y-129729963D01*
X112258267Y-130270037D01*
X112363630Y-130799734D01*
X112570308Y-131298698D01*
X112870357Y-131747753D01*
X113252248Y-132129644D01*
X113701303Y-132429693D01*
X114200267Y-132636371D01*
X114729964Y-132741734D01*
X115270038Y-132741734D01*
X115799735Y-132636371D01*
X116298699Y-132429693D01*
X116747754Y-132129644D01*
X117129645Y-131747753D01*
X117429694Y-131298698D01*
X117630633Y-130813589D01*
X133865000Y-130813589D01*
X133865000Y-131086411D01*
X133918225Y-131353989D01*
X134022629Y-131606043D01*
X134174201Y-131832886D01*
X134367114Y-132025799D01*
X134593957Y-132177371D01*
X134846011Y-132281775D01*
X135113589Y-132335000D01*
X135309797Y-132335000D01*
X135306686Y-132342510D01*
X135253000Y-132612408D01*
X135253000Y-132887592D01*
X135306686Y-133157490D01*
X135411995Y-133411727D01*
X135564880Y-133640535D01*
X135759465Y-133835120D01*
X135988273Y-133988005D01*
X136242510Y-134093314D01*
X136512408Y-134147000D01*
X136787592Y-134147000D01*
X137057490Y-134093314D01*
X137311727Y-133988005D01*
X137540535Y-133835120D01*
X137735120Y-133640535D01*
X137888005Y-133411727D01*
X137920000Y-133334485D01*
X137951995Y-133411727D01*
X138104880Y-133640535D01*
X138299465Y-133835120D01*
X138528273Y-133988005D01*
X138782510Y-134093314D01*
X139052408Y-134147000D01*
X139327592Y-134147000D01*
X139597490Y-134093314D01*
X139851727Y-133988005D01*
X140080535Y-133835120D01*
X140275120Y-133640535D01*
X140428005Y-133411727D01*
X140460000Y-133334485D01*
X140491995Y-133411727D01*
X140644880Y-133640535D01*
X140839465Y-133835120D01*
X141068273Y-133988005D01*
X141322510Y-134093314D01*
X141592408Y-134147000D01*
X141867592Y-134147000D01*
X142137490Y-134093314D01*
X142391727Y-133988005D01*
X142620535Y-133835120D01*
X142815120Y-133640535D01*
X142968005Y-133411727D01*
X143000000Y-133334485D01*
X143031995Y-133411727D01*
X143184880Y-133640535D01*
X143379465Y-133835120D01*
X143608273Y-133988005D01*
X143862510Y-134093314D01*
X144132408Y-134147000D01*
X144407592Y-134147000D01*
X144677490Y-134093314D01*
X144931727Y-133988005D01*
X145160535Y-133835120D01*
X145280090Y-133715565D01*
X146024040Y-133715565D01*
X146091020Y-133955656D01*
X146340048Y-134072756D01*
X146607135Y-134139023D01*
X146882017Y-134151910D01*
X147154133Y-134110922D01*
X147413023Y-134017636D01*
X147528980Y-133955656D01*
X147595960Y-133715565D01*
X146810000Y-132929605D01*
X146024040Y-133715565D01*
X145280090Y-133715565D01*
X145355120Y-133640535D01*
X145508005Y-133411727D01*
X145537692Y-133340057D01*
X145542364Y-133353023D01*
X145604344Y-133468980D01*
X145844435Y-133535960D01*
X146630395Y-132750000D01*
X146989605Y-132750000D01*
X147775565Y-133535960D01*
X148015656Y-133468980D01*
X148132756Y-133219952D01*
X148199023Y-132952865D01*
X148211910Y-132677983D01*
X148170922Y-132405867D01*
X148077636Y-132146977D01*
X148015656Y-132031020D01*
X147775565Y-131964040D01*
X146989605Y-132750000D01*
X146630395Y-132750000D01*
X145844435Y-131964040D01*
X145604344Y-132031020D01*
X145540515Y-132166760D01*
X145508005Y-132088273D01*
X145355120Y-131859465D01*
X145280090Y-131784435D01*
X146024040Y-131784435D01*
X146810000Y-132570395D01*
X147595960Y-131784435D01*
X147528980Y-131544344D01*
X147279952Y-131427244D01*
X147012865Y-131360977D01*
X146737983Y-131348090D01*
X146465867Y-131389078D01*
X146206977Y-131482364D01*
X146091020Y-131544344D01*
X146024040Y-131784435D01*
X145280090Y-131784435D01*
X145160535Y-131664880D01*
X144931727Y-131511995D01*
X144677490Y-131406686D01*
X144407592Y-131353000D01*
X144132408Y-131353000D01*
X143862510Y-131406686D01*
X143608273Y-131511995D01*
X143379465Y-131664880D01*
X143184880Y-131859465D01*
X143031995Y-132088273D01*
X143000000Y-132165515D01*
X142968005Y-132088273D01*
X142815120Y-131859465D01*
X142620535Y-131664880D01*
X142391727Y-131511995D01*
X142137490Y-131406686D01*
X141867592Y-131353000D01*
X141592408Y-131353000D01*
X141322510Y-131406686D01*
X141068273Y-131511995D01*
X140839465Y-131664880D01*
X140644880Y-131859465D01*
X140491995Y-132088273D01*
X140460000Y-132165515D01*
X140428005Y-132088273D01*
X140275120Y-131859465D01*
X140080535Y-131664880D01*
X139851727Y-131511995D01*
X139597490Y-131406686D01*
X139327592Y-131353000D01*
X139052408Y-131353000D01*
X138782510Y-131406686D01*
X138528273Y-131511995D01*
X138299465Y-131664880D01*
X138104880Y-131859465D01*
X137951995Y-132088273D01*
X137920000Y-132165515D01*
X137888005Y-132088273D01*
X137735120Y-131859465D01*
X137540535Y-131664880D01*
X137311727Y-131511995D01*
X137057490Y-131406686D01*
X136787592Y-131353000D01*
X136581972Y-131353000D01*
X136635000Y-131086411D01*
X136635000Y-130813589D01*
X136613831Y-130707165D01*
X136681995Y-130871727D01*
X136834880Y-131100535D01*
X137029465Y-131295120D01*
X137258273Y-131448005D01*
X137512510Y-131553314D01*
X137782408Y-131607000D01*
X138057592Y-131607000D01*
X138327490Y-131553314D01*
X138581727Y-131448005D01*
X138810535Y-131295120D01*
X139005120Y-131100535D01*
X139158005Y-130871727D01*
X139190000Y-130794485D01*
X139221995Y-130871727D01*
X139374880Y-131100535D01*
X139569465Y-131295120D01*
X139798273Y-131448005D01*
X140052510Y-131553314D01*
X140322408Y-131607000D01*
X140597592Y-131607000D01*
X140867490Y-131553314D01*
X141121727Y-131448005D01*
X141350535Y-131295120D01*
X141470090Y-131175565D01*
X142214040Y-131175565D01*
X142281020Y-131415656D01*
X142530048Y-131532756D01*
X142797135Y-131599023D01*
X143072017Y-131611910D01*
X143344133Y-131570922D01*
X143603023Y-131477636D01*
X143718980Y-131415656D01*
X143785960Y-131175565D01*
X143000000Y-130389605D01*
X142214040Y-131175565D01*
X141470090Y-131175565D01*
X141545120Y-131100535D01*
X141698005Y-130871727D01*
X141727692Y-130800057D01*
X141732364Y-130813023D01*
X141794344Y-130928980D01*
X142034435Y-130995960D01*
X142820395Y-130210000D01*
X143179605Y-130210000D01*
X143965565Y-130995960D01*
X144205656Y-130928980D01*
X144269485Y-130793240D01*
X144301995Y-130871727D01*
X144454880Y-131100535D01*
X144649465Y-131295120D01*
X144878273Y-131448005D01*
X145132510Y-131553314D01*
X145402408Y-131607000D01*
X145677592Y-131607000D01*
X145947490Y-131553314D01*
X146201727Y-131448005D01*
X146430535Y-131295120D01*
X146550090Y-131175565D01*
X147294040Y-131175565D01*
X147361020Y-131415656D01*
X147610048Y-131532756D01*
X147877135Y-131599023D01*
X148152017Y-131611910D01*
X148424133Y-131570922D01*
X148683023Y-131477636D01*
X148798980Y-131415656D01*
X148865960Y-131175565D01*
X148080000Y-130389605D01*
X147294040Y-131175565D01*
X146550090Y-131175565D01*
X146625120Y-131100535D01*
X146778005Y-130871727D01*
X146807692Y-130800057D01*
X146812364Y-130813023D01*
X146874344Y-130928980D01*
X147114435Y-130995960D01*
X147900395Y-130210000D01*
X148259605Y-130210000D01*
X149045565Y-130995960D01*
X149285656Y-130928980D01*
X149402756Y-130679952D01*
X149469023Y-130412865D01*
X149481910Y-130137983D01*
X149440922Y-129865867D01*
X149391952Y-129729963D01*
X167258266Y-129729963D01*
X167258266Y-130270037D01*
X167363629Y-130799734D01*
X167570307Y-131298698D01*
X167870356Y-131747753D01*
X168252247Y-132129644D01*
X168701302Y-132429693D01*
X169200266Y-132636371D01*
X169729963Y-132741734D01*
X170270037Y-132741734D01*
X170799734Y-132636371D01*
X171298698Y-132429693D01*
X171747753Y-132129644D01*
X172129644Y-131747753D01*
X172429693Y-131298698D01*
X172636371Y-130799734D01*
X172741734Y-130270037D01*
X172741734Y-129729963D01*
X172636371Y-129200266D01*
X172429693Y-128701302D01*
X172129644Y-128252247D01*
X171747753Y-127870356D01*
X171298698Y-127570307D01*
X170799734Y-127363629D01*
X170270037Y-127258266D01*
X169729963Y-127258266D01*
X169200266Y-127363629D01*
X168701302Y-127570307D01*
X168252247Y-127870356D01*
X167870356Y-128252247D01*
X167570307Y-128701302D01*
X167363629Y-129200266D01*
X167258266Y-129729963D01*
X149391952Y-129729963D01*
X149347636Y-129606977D01*
X149285656Y-129491020D01*
X149045565Y-129424040D01*
X148259605Y-130210000D01*
X147900395Y-130210000D01*
X147114435Y-129424040D01*
X146874344Y-129491020D01*
X146810515Y-129626760D01*
X146778005Y-129548273D01*
X146625120Y-129319465D01*
X146550090Y-129244435D01*
X147294040Y-129244435D01*
X148080000Y-130030395D01*
X148865960Y-129244435D01*
X148798980Y-129004344D01*
X148549952Y-128887244D01*
X148282865Y-128820977D01*
X148007983Y-128808090D01*
X147735867Y-128849078D01*
X147476977Y-128942364D01*
X147361020Y-129004344D01*
X147294040Y-129244435D01*
X146550090Y-129244435D01*
X146430535Y-129124880D01*
X146201727Y-128971995D01*
X145947490Y-128866686D01*
X145677592Y-128813000D01*
X145402408Y-128813000D01*
X145132510Y-128866686D01*
X144878273Y-128971995D01*
X144649465Y-129124880D01*
X144454880Y-129319465D01*
X144301995Y-129548273D01*
X144272308Y-129619943D01*
X144267636Y-129606977D01*
X144205656Y-129491020D01*
X143965565Y-129424040D01*
X143179605Y-130210000D01*
X142820395Y-130210000D01*
X142034435Y-129424040D01*
X141794344Y-129491020D01*
X141730515Y-129626760D01*
X141698005Y-129548273D01*
X141545120Y-129319465D01*
X141470090Y-129244435D01*
X142214040Y-129244435D01*
X143000000Y-130030395D01*
X143785960Y-129244435D01*
X143718980Y-129004344D01*
X143469952Y-128887244D01*
X143202865Y-128820977D01*
X142927983Y-128808090D01*
X142655867Y-128849078D01*
X142396977Y-128942364D01*
X142281020Y-129004344D01*
X142214040Y-129244435D01*
X141470090Y-129244435D01*
X141350535Y-129124880D01*
X141121727Y-128971995D01*
X140867490Y-128866686D01*
X140597592Y-128813000D01*
X140322408Y-128813000D01*
X140052510Y-128866686D01*
X139798273Y-128971995D01*
X139569465Y-129124880D01*
X139374880Y-129319465D01*
X139221995Y-129548273D01*
X139190000Y-129625515D01*
X139158005Y-129548273D01*
X139005120Y-129319465D01*
X138810535Y-129124880D01*
X138581727Y-128971995D01*
X138327490Y-128866686D01*
X138057592Y-128813000D01*
X137782408Y-128813000D01*
X137512510Y-128866686D01*
X137258273Y-128971995D01*
X137029465Y-129124880D01*
X136834880Y-129319465D01*
X136681995Y-129548273D01*
X136576686Y-129802510D01*
X136523000Y-130072408D01*
X136523000Y-130347592D01*
X136544631Y-130456336D01*
X136477371Y-130293957D01*
X136325799Y-130067114D01*
X136132886Y-129874201D01*
X135906043Y-129722629D01*
X135653989Y-129618225D01*
X135386411Y-129565000D01*
X135113589Y-129565000D01*
X134846011Y-129618225D01*
X134593957Y-129722629D01*
X134367114Y-129874201D01*
X134174201Y-130067114D01*
X134022629Y-130293957D01*
X133918225Y-130546011D01*
X133865000Y-130813589D01*
X117630633Y-130813589D01*
X117636372Y-130799734D01*
X117741735Y-130270037D01*
X117741735Y-129729963D01*
X117636372Y-129200266D01*
X117429694Y-128701302D01*
X117129645Y-128252247D01*
X116747754Y-127870356D01*
X116298699Y-127570307D01*
X115799735Y-127363629D01*
X115270038Y-127258266D01*
X114729964Y-127258266D01*
X114200267Y-127363629D01*
X113701303Y-127570307D01*
X113252248Y-127870356D01*
X112870357Y-128252247D01*
X112570308Y-128701302D01*
X112363630Y-129200266D01*
X112258267Y-129729963D01*
X110735001Y-129729963D01*
X110735001Y-125788061D01*
X131355000Y-125788061D01*
X131355000Y-125991939D01*
X131394774Y-126191898D01*
X131472795Y-126380256D01*
X131586063Y-126549774D01*
X131730226Y-126693937D01*
X131884362Y-126796927D01*
X131861063Y-126820226D01*
X131747795Y-126989744D01*
X131669774Y-127178102D01*
X131630000Y-127378061D01*
X131630000Y-127581939D01*
X131669774Y-127781898D01*
X131747795Y-127970256D01*
X131861063Y-128139774D01*
X132005226Y-128283937D01*
X132174744Y-128397205D01*
X132363102Y-128475226D01*
X132563061Y-128515000D01*
X132766939Y-128515000D01*
X132966898Y-128475226D01*
X133155256Y-128397205D01*
X133324774Y-128283937D01*
X133358711Y-128250000D01*
X134146289Y-128250000D01*
X134190226Y-128293937D01*
X134359744Y-128407205D01*
X134548102Y-128485226D01*
X134748061Y-128525000D01*
X134951939Y-128525000D01*
X135151898Y-128485226D01*
X135340256Y-128407205D01*
X135509774Y-128293937D01*
X135653937Y-128149774D01*
X135767205Y-127980256D01*
X135845226Y-127791898D01*
X135885000Y-127591939D01*
X135885000Y-127388061D01*
X135845226Y-127188102D01*
X135767205Y-126999744D01*
X135653937Y-126830226D01*
X135518711Y-126695000D01*
X135653937Y-126559774D01*
X135767205Y-126390256D01*
X135845226Y-126201898D01*
X135885000Y-126001939D01*
X135885000Y-125798061D01*
X135845226Y-125598102D01*
X135767205Y-125409744D01*
X135653937Y-125240226D01*
X135509774Y-125096063D01*
X135340256Y-124982795D01*
X135151898Y-124904774D01*
X134951939Y-124865000D01*
X134748061Y-124865000D01*
X134548102Y-124904774D01*
X134359744Y-124982795D01*
X134190226Y-125096063D01*
X134156289Y-125130000D01*
X133093711Y-125130000D01*
X133049774Y-125086063D01*
X132880256Y-124972795D01*
X132691898Y-124894774D01*
X132491939Y-124855000D01*
X132288061Y-124855000D01*
X132088102Y-124894774D01*
X131899744Y-124972795D01*
X131730226Y-125086063D01*
X131586063Y-125230226D01*
X131472795Y-125399744D01*
X131394774Y-125588102D01*
X131355000Y-125788061D01*
X110735001Y-125788061D01*
X110735001Y-124262408D01*
X161488000Y-124262408D01*
X161488000Y-124537592D01*
X161541686Y-124807490D01*
X161646995Y-125061727D01*
X161799880Y-125290535D01*
X161994465Y-125485120D01*
X162223273Y-125638005D01*
X162477510Y-125743314D01*
X162747408Y-125797000D01*
X163022592Y-125797000D01*
X163292490Y-125743314D01*
X163546727Y-125638005D01*
X163775535Y-125485120D01*
X163895090Y-125365565D01*
X164639040Y-125365565D01*
X164706020Y-125605656D01*
X164955048Y-125722756D01*
X165222135Y-125789023D01*
X165497017Y-125801910D01*
X165769133Y-125760922D01*
X166028023Y-125667636D01*
X166143980Y-125605656D01*
X166210960Y-125365565D01*
X165425000Y-124579605D01*
X164639040Y-125365565D01*
X163895090Y-125365565D01*
X163970120Y-125290535D01*
X164123005Y-125061727D01*
X164152692Y-124990057D01*
X164157364Y-125003023D01*
X164219344Y-125118980D01*
X164459435Y-125185960D01*
X165245395Y-124400000D01*
X165604605Y-124400000D01*
X166390565Y-125185960D01*
X166630656Y-125118980D01*
X166694485Y-124983240D01*
X166726995Y-125061727D01*
X166879880Y-125290535D01*
X167074465Y-125485120D01*
X167303273Y-125638005D01*
X167557510Y-125743314D01*
X167827408Y-125797000D01*
X168102592Y-125797000D01*
X168372490Y-125743314D01*
X168626727Y-125638005D01*
X168855535Y-125485120D01*
X169050120Y-125290535D01*
X169203005Y-125061727D01*
X169308314Y-124807490D01*
X169362000Y-124537592D01*
X169362000Y-124262408D01*
X169308314Y-123992510D01*
X169203005Y-123738273D01*
X169050120Y-123509465D01*
X168855535Y-123314880D01*
X168626727Y-123161995D01*
X168372490Y-123056686D01*
X168102592Y-123003000D01*
X167827408Y-123003000D01*
X167557510Y-123056686D01*
X167303273Y-123161995D01*
X167074465Y-123314880D01*
X166879880Y-123509465D01*
X166726995Y-123738273D01*
X166697308Y-123809943D01*
X166692636Y-123796977D01*
X166630656Y-123681020D01*
X166390565Y-123614040D01*
X165604605Y-124400000D01*
X165245395Y-124400000D01*
X164459435Y-123614040D01*
X164219344Y-123681020D01*
X164155515Y-123816760D01*
X164123005Y-123738273D01*
X163970120Y-123509465D01*
X163895090Y-123434435D01*
X164639040Y-123434435D01*
X165425000Y-124220395D01*
X166210960Y-123434435D01*
X166143980Y-123194344D01*
X165894952Y-123077244D01*
X165627865Y-123010977D01*
X165352983Y-122998090D01*
X165080867Y-123039078D01*
X164821977Y-123132364D01*
X164706020Y-123194344D01*
X164639040Y-123434435D01*
X163895090Y-123434435D01*
X163775535Y-123314880D01*
X163546727Y-123161995D01*
X163292490Y-123056686D01*
X163022592Y-123003000D01*
X162747408Y-123003000D01*
X162477510Y-123056686D01*
X162223273Y-123161995D01*
X161994465Y-123314880D01*
X161799880Y-123509465D01*
X161646995Y-123738273D01*
X161541686Y-123992510D01*
X161488000Y-124262408D01*
X110735001Y-124262408D01*
X110735001Y-121269102D01*
X136533959Y-121269102D01*
X136533959Y-121472980D01*
X136573733Y-121672939D01*
X136651754Y-121861297D01*
X136765022Y-122030815D01*
X136909185Y-122174978D01*
X137078703Y-122288246D01*
X137267061Y-122366267D01*
X137278554Y-122368553D01*
X137280840Y-122380047D01*
X137358861Y-122568405D01*
X137472129Y-122737923D01*
X137616292Y-122882086D01*
X137785810Y-122995354D01*
X137974168Y-123073375D01*
X138174127Y-123113149D01*
X138378005Y-123113149D01*
X138577964Y-123073375D01*
X138766322Y-122995354D01*
X138935840Y-122882086D01*
X139080003Y-122737923D01*
X139193271Y-122568405D01*
X139254702Y-122420100D01*
X139640843Y-122033959D01*
X139702980Y-122033959D01*
X139902939Y-121994185D01*
X140091297Y-121916164D01*
X140260815Y-121802896D01*
X140404978Y-121658733D01*
X140518246Y-121489215D01*
X140596267Y-121300857D01*
X140636041Y-121100898D01*
X140636041Y-120897020D01*
X140596267Y-120697061D01*
X140518246Y-120508703D01*
X140404978Y-120339185D01*
X140260815Y-120195022D01*
X140091297Y-120081754D01*
X139902939Y-120003733D01*
X139806198Y-119984490D01*
X139786955Y-119887748D01*
X139708934Y-119699390D01*
X139595666Y-119529872D01*
X139451503Y-119385709D01*
X139281985Y-119272441D01*
X139093627Y-119194420D01*
X138893668Y-119154646D01*
X138689790Y-119154646D01*
X138489831Y-119194420D01*
X138301473Y-119272441D01*
X138131955Y-119385709D01*
X137987792Y-119529872D01*
X137874524Y-119699390D01*
X137796503Y-119887748D01*
X137756729Y-120087707D01*
X137756729Y-120149844D01*
X137570533Y-120336041D01*
X137467020Y-120336041D01*
X137267061Y-120375815D01*
X137078703Y-120453836D01*
X136909185Y-120567104D01*
X136765022Y-120711267D01*
X136651754Y-120880785D01*
X136573733Y-121069143D01*
X136533959Y-121269102D01*
X110735001Y-121269102D01*
X110735001Y-115098061D01*
X125925000Y-115098061D01*
X125925000Y-115301939D01*
X125964774Y-115501898D01*
X126042795Y-115690256D01*
X126156063Y-115859774D01*
X126200000Y-115903711D01*
X126200001Y-116724265D01*
X126102795Y-116869744D01*
X126024774Y-117058102D01*
X125985000Y-117258061D01*
X125985000Y-117461939D01*
X126024774Y-117661898D01*
X126102795Y-117850256D01*
X126216063Y-118019774D01*
X126360226Y-118163937D01*
X126529744Y-118277205D01*
X126718102Y-118355226D01*
X126918061Y-118395000D01*
X127121939Y-118395000D01*
X127321898Y-118355226D01*
X127510256Y-118277205D01*
X127679774Y-118163937D01*
X127823937Y-118019774D01*
X127937205Y-117850256D01*
X128015226Y-117661898D01*
X128055000Y-117461939D01*
X128055000Y-117258061D01*
X128015226Y-117058102D01*
X127937205Y-116869744D01*
X127823937Y-116700226D01*
X127720000Y-116596289D01*
X127720000Y-115903711D01*
X127763937Y-115859774D01*
X127877205Y-115690256D01*
X127955226Y-115501898D01*
X127995000Y-115301939D01*
X127995000Y-115098061D01*
X127962817Y-114936260D01*
X138353199Y-114936260D01*
X138353199Y-115140138D01*
X138392973Y-115340097D01*
X138470994Y-115528455D01*
X138584262Y-115697973D01*
X138728425Y-115842136D01*
X138897943Y-115955404D01*
X139086301Y-116033425D01*
X139286260Y-116073199D01*
X139490138Y-116073199D01*
X139690097Y-116033425D01*
X139878455Y-115955404D01*
X140047973Y-115842136D01*
X140091910Y-115798199D01*
X141084488Y-115798199D01*
X141140226Y-115853937D01*
X141309744Y-115967205D01*
X141498102Y-116045226D01*
X141698061Y-116085000D01*
X141901939Y-116085000D01*
X142101898Y-116045226D01*
X142290256Y-115967205D01*
X142459774Y-115853937D01*
X142603937Y-115709774D01*
X142717205Y-115540256D01*
X142795226Y-115351898D01*
X142835000Y-115151939D01*
X142835000Y-114948061D01*
X142795226Y-114748102D01*
X142717205Y-114559744D01*
X142603937Y-114390226D01*
X142459774Y-114246063D01*
X142290256Y-114132795D01*
X142101898Y-114054774D01*
X141901939Y-114015000D01*
X141698061Y-114015000D01*
X141498102Y-114054774D01*
X141309744Y-114132795D01*
X141140226Y-114246063D01*
X141108090Y-114278199D01*
X140091910Y-114278199D01*
X140047973Y-114234262D01*
X139878455Y-114120994D01*
X139690097Y-114042973D01*
X139490138Y-114003199D01*
X139286260Y-114003199D01*
X139086301Y-114042973D01*
X138897943Y-114120994D01*
X138728425Y-114234262D01*
X138584262Y-114378425D01*
X138470994Y-114547943D01*
X138392973Y-114736301D01*
X138353199Y-114936260D01*
X127962817Y-114936260D01*
X127955226Y-114898102D01*
X127877205Y-114709744D01*
X127763937Y-114540226D01*
X127619774Y-114396063D01*
X127450256Y-114282795D01*
X127261898Y-114204774D01*
X127061939Y-114165000D01*
X126858061Y-114165000D01*
X126658102Y-114204774D01*
X126469744Y-114282795D01*
X126300226Y-114396063D01*
X126156063Y-114540226D01*
X126042795Y-114709744D01*
X125964774Y-114898102D01*
X125925000Y-115098061D01*
X110735001Y-115098061D01*
X110735001Y-109450212D01*
X164883000Y-109450212D01*
X164883000Y-109673788D01*
X164926617Y-109893067D01*
X165012176Y-110099624D01*
X165077241Y-110197000D01*
X165012176Y-110294376D01*
X164926617Y-110500933D01*
X164883000Y-110720212D01*
X164883000Y-110943788D01*
X164926617Y-111163067D01*
X165012176Y-111369624D01*
X165136388Y-111555520D01*
X165294480Y-111713612D01*
X165480376Y-111837824D01*
X165686933Y-111923383D01*
X165906212Y-111967000D01*
X166129788Y-111967000D01*
X166349067Y-111923383D01*
X166555624Y-111837824D01*
X166709930Y-111734720D01*
X166724550Y-111823588D01*
X166928826Y-111914458D01*
X167146905Y-111963731D01*
X167370406Y-111969511D01*
X167590740Y-111931577D01*
X167799440Y-111851387D01*
X167851450Y-111823588D01*
X167872210Y-111697398D01*
X167923000Y-111646608D01*
X167973790Y-111697398D01*
X167994550Y-111823588D01*
X168198826Y-111914458D01*
X168416905Y-111963731D01*
X168640406Y-111969511D01*
X168860740Y-111931577D01*
X169069440Y-111851387D01*
X169121450Y-111823588D01*
X169136070Y-111734720D01*
X169290376Y-111837824D01*
X169496933Y-111923383D01*
X169716212Y-111967000D01*
X169939788Y-111967000D01*
X170159067Y-111923383D01*
X170365624Y-111837824D01*
X170519930Y-111734720D01*
X170534550Y-111823588D01*
X170738826Y-111914458D01*
X170956905Y-111963731D01*
X171180406Y-111969511D01*
X171400740Y-111931577D01*
X171609440Y-111851387D01*
X171661450Y-111823588D01*
X171696561Y-111610166D01*
X171098000Y-111011605D01*
X171083858Y-111025748D01*
X170963000Y-110904890D01*
X170963000Y-110759110D01*
X171025110Y-110697000D01*
X171170890Y-110697000D01*
X171291748Y-110817858D01*
X171277605Y-110832000D01*
X171876166Y-111430561D01*
X172089588Y-111395450D01*
X172180458Y-111191174D01*
X172229731Y-110973095D01*
X172235511Y-110749594D01*
X172197577Y-110529260D01*
X172117387Y-110320560D01*
X172089588Y-110268550D01*
X172000720Y-110253930D01*
X172103824Y-110099624D01*
X172189383Y-109893067D01*
X172233000Y-109673788D01*
X172233000Y-109450212D01*
X172189383Y-109230933D01*
X172103824Y-109024376D01*
X172101094Y-109020290D01*
X172138002Y-108990001D01*
X172161805Y-108960998D01*
X172687803Y-108435000D01*
X172749940Y-108435000D01*
X172949899Y-108395226D01*
X173138257Y-108317205D01*
X173307775Y-108203937D01*
X173451938Y-108059774D01*
X173565206Y-107890256D01*
X173643227Y-107701898D01*
X173683001Y-107501939D01*
X173683001Y-107298061D01*
X173643227Y-107098102D01*
X173565206Y-106909744D01*
X173451938Y-106740226D01*
X173383708Y-106671996D01*
X173423610Y-106632093D01*
X173536878Y-106462575D01*
X173614899Y-106274217D01*
X173654673Y-106074258D01*
X173654673Y-105870380D01*
X173614899Y-105670421D01*
X173536878Y-105482063D01*
X173423610Y-105312545D01*
X173279447Y-105168382D01*
X173109929Y-105055114D01*
X172921571Y-104977093D01*
X172721612Y-104937319D01*
X172517734Y-104937319D01*
X172317775Y-104977093D01*
X172129417Y-105055114D01*
X171959899Y-105168382D01*
X171915962Y-105212319D01*
X171665003Y-105212319D01*
X171627680Y-105208643D01*
X171590357Y-105212319D01*
X171590348Y-105212319D01*
X171478695Y-105223316D01*
X171335434Y-105266773D01*
X171203405Y-105337345D01*
X171087680Y-105432318D01*
X171063882Y-105461317D01*
X170860198Y-105665000D01*
X170798061Y-105665000D01*
X170598102Y-105704774D01*
X170409744Y-105782795D01*
X170240226Y-105896063D01*
X170096063Y-106040226D01*
X169982795Y-106209744D01*
X169904774Y-106398102D01*
X169865000Y-106598061D01*
X169865000Y-106801939D01*
X169904774Y-107001898D01*
X169982795Y-107190256D01*
X170096063Y-107359774D01*
X170240226Y-107503937D01*
X170409744Y-107617205D01*
X170521001Y-107663289D01*
X170394064Y-107790226D01*
X170280796Y-107959744D01*
X170202775Y-108148102D01*
X170163001Y-108348061D01*
X170163001Y-108472247D01*
X170159067Y-108470617D01*
X169939788Y-108427000D01*
X169716212Y-108427000D01*
X169496933Y-108470617D01*
X169290376Y-108556176D01*
X169193000Y-108621241D01*
X169095624Y-108556176D01*
X168889067Y-108470617D01*
X168669788Y-108427000D01*
X168446212Y-108427000D01*
X168226933Y-108470617D01*
X168020376Y-108556176D01*
X167923000Y-108621241D01*
X167825624Y-108556176D01*
X167619067Y-108470617D01*
X167399788Y-108427000D01*
X167176212Y-108427000D01*
X166956933Y-108470617D01*
X166750376Y-108556176D01*
X166653000Y-108621241D01*
X166555624Y-108556176D01*
X166349067Y-108470617D01*
X166129788Y-108427000D01*
X165906212Y-108427000D01*
X165686933Y-108470617D01*
X165480376Y-108556176D01*
X165294480Y-108680388D01*
X165136388Y-108838480D01*
X165012176Y-109024376D01*
X164926617Y-109230933D01*
X164883000Y-109450212D01*
X110735001Y-109450212D01*
X110735001Y-102148061D01*
X130015000Y-102148061D01*
X130015000Y-102351939D01*
X130054774Y-102551898D01*
X130132795Y-102740256D01*
X130246063Y-102909774D01*
X130390226Y-103053937D01*
X130559744Y-103167205D01*
X130748102Y-103245226D01*
X130948061Y-103285000D01*
X131151939Y-103285000D01*
X131351898Y-103245226D01*
X131540256Y-103167205D01*
X131601191Y-103126490D01*
X131609744Y-103132205D01*
X131798102Y-103210226D01*
X131998061Y-103250000D01*
X132201939Y-103250000D01*
X132401898Y-103210226D01*
X132590256Y-103132205D01*
X132759774Y-103018937D01*
X132903937Y-102874774D01*
X133017205Y-102705256D01*
X133095226Y-102516898D01*
X133135000Y-102316939D01*
X133135000Y-102113061D01*
X133095226Y-101913102D01*
X133017205Y-101724744D01*
X132903937Y-101555226D01*
X132860000Y-101511289D01*
X132860000Y-98903711D01*
X132903937Y-98859774D01*
X133017205Y-98690256D01*
X133095226Y-98501898D01*
X133135000Y-98301939D01*
X133135000Y-98098061D01*
X161765000Y-98098061D01*
X161765000Y-98301939D01*
X161804774Y-98501898D01*
X161882795Y-98690256D01*
X161996063Y-98859774D01*
X162040001Y-98903712D01*
X162040000Y-99046289D01*
X161996063Y-99090226D01*
X161882795Y-99259744D01*
X161804774Y-99448102D01*
X161765000Y-99648061D01*
X161765000Y-99851939D01*
X161804774Y-100051898D01*
X161882795Y-100240256D01*
X161996063Y-100409774D01*
X162140226Y-100553937D01*
X162309744Y-100667205D01*
X162498102Y-100745226D01*
X162698061Y-100785000D01*
X162901939Y-100785000D01*
X163101898Y-100745226D01*
X163290256Y-100667205D01*
X163459774Y-100553937D01*
X163534500Y-100479211D01*
X163540226Y-100484937D01*
X163709744Y-100598205D01*
X163898102Y-100676226D01*
X164098061Y-100716000D01*
X164301939Y-100716000D01*
X164501898Y-100676226D01*
X164690256Y-100598205D01*
X164859774Y-100484937D01*
X165003937Y-100340774D01*
X165117205Y-100171256D01*
X165195226Y-99982898D01*
X165235000Y-99782939D01*
X165235000Y-99579061D01*
X165195226Y-99379102D01*
X165117205Y-99190744D01*
X165003937Y-99021226D01*
X164960000Y-98977289D01*
X164960000Y-98853711D01*
X165003937Y-98809774D01*
X165117205Y-98640256D01*
X165195226Y-98451898D01*
X165235000Y-98251939D01*
X165235000Y-98048061D01*
X165195226Y-97848102D01*
X165117205Y-97659744D01*
X165003937Y-97490226D01*
X164859774Y-97346063D01*
X164690256Y-97232795D01*
X164501898Y-97154774D01*
X164301939Y-97115000D01*
X164098061Y-97115000D01*
X163898102Y-97154774D01*
X163709744Y-97232795D01*
X163540226Y-97346063D01*
X163475000Y-97411289D01*
X163459774Y-97396063D01*
X163290256Y-97282795D01*
X163101898Y-97204774D01*
X162901939Y-97165000D01*
X162698061Y-97165000D01*
X162498102Y-97204774D01*
X162309744Y-97282795D01*
X162140226Y-97396063D01*
X161996063Y-97540226D01*
X161882795Y-97709744D01*
X161804774Y-97898102D01*
X161765000Y-98098061D01*
X133135000Y-98098061D01*
X133095226Y-97898102D01*
X133017205Y-97709744D01*
X132903937Y-97540226D01*
X132759774Y-97396063D01*
X132590256Y-97282795D01*
X132401898Y-97204774D01*
X132201939Y-97165000D01*
X131998061Y-97165000D01*
X131798102Y-97204774D01*
X131647123Y-97267312D01*
X131591636Y-97230237D01*
X131403278Y-97152216D01*
X131203319Y-97112442D01*
X130999441Y-97112442D01*
X130799482Y-97152216D01*
X130611124Y-97230237D01*
X130441606Y-97343505D01*
X130297443Y-97487668D01*
X130184175Y-97657186D01*
X130106154Y-97845544D01*
X130066380Y-98045503D01*
X130066380Y-98249381D01*
X130106154Y-98449340D01*
X130184175Y-98637698D01*
X130297443Y-98807216D01*
X130341380Y-98851153D01*
X130341381Y-101494908D01*
X130246063Y-101590226D01*
X130132795Y-101759744D01*
X130054774Y-101948102D01*
X130015000Y-102148061D01*
X110735001Y-102148061D01*
X110735001Y-90448061D01*
X151715000Y-90448061D01*
X151715000Y-90651939D01*
X151754774Y-90851898D01*
X151832795Y-91040256D01*
X151946063Y-91209774D01*
X152090226Y-91353937D01*
X152259744Y-91467205D01*
X152448102Y-91545226D01*
X152648061Y-91585000D01*
X152851939Y-91585000D01*
X153051898Y-91545226D01*
X153240256Y-91467205D01*
X153409774Y-91353937D01*
X153553937Y-91209774D01*
X153667205Y-91040256D01*
X153745226Y-90851898D01*
X153785000Y-90651939D01*
X153785000Y-90589801D01*
X154791172Y-89583630D01*
X154798061Y-89585000D01*
X155001939Y-89585000D01*
X155201898Y-89545226D01*
X155390256Y-89467205D01*
X155559774Y-89353937D01*
X155615650Y-89298061D01*
X157015000Y-89298061D01*
X157015000Y-89501939D01*
X157054774Y-89701898D01*
X157132795Y-89890256D01*
X157246063Y-90059774D01*
X157390226Y-90203937D01*
X157559744Y-90317205D01*
X157748102Y-90395226D01*
X157948061Y-90435000D01*
X158151939Y-90435000D01*
X158200533Y-90425334D01*
X158415000Y-90639802D01*
X158415000Y-90701939D01*
X158454774Y-90901898D01*
X158532795Y-91090256D01*
X158646063Y-91259774D01*
X158790226Y-91403937D01*
X158959744Y-91517205D01*
X159148102Y-91595226D01*
X159348061Y-91635000D01*
X159551939Y-91635000D01*
X159751898Y-91595226D01*
X159940256Y-91517205D01*
X160109774Y-91403937D01*
X160253937Y-91259774D01*
X160367205Y-91090256D01*
X160445226Y-90901898D01*
X160485000Y-90701939D01*
X160485000Y-90498061D01*
X160445226Y-90298102D01*
X160367205Y-90109744D01*
X160253937Y-89940226D01*
X160109774Y-89796063D01*
X159940256Y-89682795D01*
X159751898Y-89604774D01*
X159551939Y-89565000D01*
X159489802Y-89565000D01*
X159050769Y-89125968D01*
X159045226Y-89098102D01*
X158967205Y-88909744D01*
X158853937Y-88740226D01*
X158709774Y-88596063D01*
X158540256Y-88482795D01*
X158351898Y-88404774D01*
X158151939Y-88365000D01*
X157948061Y-88365000D01*
X157748102Y-88404774D01*
X157559744Y-88482795D01*
X157390226Y-88596063D01*
X157246063Y-88740226D01*
X157132795Y-88909744D01*
X157054774Y-89098102D01*
X157015000Y-89298061D01*
X155615650Y-89298061D01*
X155703937Y-89209774D01*
X155817205Y-89040256D01*
X155895226Y-88851898D01*
X155935000Y-88651939D01*
X155935000Y-88448061D01*
X155895226Y-88248102D01*
X155817205Y-88059744D01*
X155703937Y-87890226D01*
X155559774Y-87746063D01*
X155390256Y-87632795D01*
X155201898Y-87554774D01*
X155001939Y-87515000D01*
X154798061Y-87515000D01*
X154598102Y-87554774D01*
X154409744Y-87632795D01*
X154240226Y-87746063D01*
X154096063Y-87890226D01*
X153982795Y-88059744D01*
X153904774Y-88248102D01*
X153886816Y-88338382D01*
X152710199Y-89515000D01*
X152648061Y-89515000D01*
X152448102Y-89554774D01*
X152259744Y-89632795D01*
X152090226Y-89746063D01*
X151946063Y-89890226D01*
X151832795Y-90059744D01*
X151754774Y-90248102D01*
X151715000Y-90448061D01*
X110735001Y-90448061D01*
X110735001Y-84998061D01*
X129665000Y-84998061D01*
X129665000Y-85201939D01*
X129704774Y-85401898D01*
X129782795Y-85590256D01*
X129896063Y-85759774D01*
X130040226Y-85903937D01*
X130209744Y-86017205D01*
X130340000Y-86071159D01*
X130340001Y-86868178D01*
X130296063Y-86912116D01*
X130182795Y-87081634D01*
X130104774Y-87269992D01*
X130065000Y-87469951D01*
X130065000Y-87673829D01*
X130104774Y-87873788D01*
X130182795Y-88062146D01*
X130296063Y-88231664D01*
X130440226Y-88375827D01*
X130609744Y-88489095D01*
X130798102Y-88567116D01*
X130998061Y-88606890D01*
X131201939Y-88606890D01*
X131401898Y-88567116D01*
X131590256Y-88489095D01*
X131600000Y-88482584D01*
X131609744Y-88489095D01*
X131798102Y-88567116D01*
X131998061Y-88606890D01*
X132201939Y-88606890D01*
X132401898Y-88567116D01*
X132590256Y-88489095D01*
X132759774Y-88375827D01*
X132903937Y-88231664D01*
X133017205Y-88062146D01*
X133095226Y-87873788D01*
X133135000Y-87673829D01*
X133135000Y-87469951D01*
X133095226Y-87269992D01*
X133017205Y-87081634D01*
X132903937Y-86912116D01*
X132760000Y-86768179D01*
X132760000Y-86744951D01*
X135365000Y-86744951D01*
X135365000Y-86948829D01*
X135404774Y-87148788D01*
X135482795Y-87337146D01*
X135596063Y-87506664D01*
X135740226Y-87650827D01*
X135909744Y-87764095D01*
X136098102Y-87842116D01*
X136298061Y-87881890D01*
X136342390Y-87881890D01*
X136415254Y-88057797D01*
X136528522Y-88227315D01*
X136672685Y-88371478D01*
X136842203Y-88484746D01*
X137030561Y-88562767D01*
X137230520Y-88602541D01*
X137434398Y-88602541D01*
X137634357Y-88562767D01*
X137822715Y-88484746D01*
X137992233Y-88371478D01*
X138136396Y-88227315D01*
X138249664Y-88057797D01*
X138327685Y-87869439D01*
X138367459Y-87669480D01*
X138367459Y-87660000D01*
X138396289Y-87660000D01*
X138440226Y-87703937D01*
X138609744Y-87817205D01*
X138798102Y-87895226D01*
X138998061Y-87935000D01*
X139201939Y-87935000D01*
X139401898Y-87895226D01*
X139590256Y-87817205D01*
X139759774Y-87703937D01*
X139903937Y-87559774D01*
X140017205Y-87390256D01*
X140095226Y-87201898D01*
X140135000Y-87001939D01*
X140135000Y-86798061D01*
X140095226Y-86598102D01*
X140017205Y-86409744D01*
X139903937Y-86240226D01*
X139759774Y-86096063D01*
X139590256Y-85982795D01*
X139452552Y-85925756D01*
X139415226Y-85738102D01*
X139337205Y-85549744D01*
X139223937Y-85380226D01*
X139079774Y-85236063D01*
X138910256Y-85122795D01*
X138721898Y-85044774D01*
X138521939Y-85005000D01*
X138318061Y-85005000D01*
X138118102Y-85044774D01*
X137929744Y-85122795D01*
X137760226Y-85236063D01*
X137716289Y-85280000D01*
X137244215Y-85280000D01*
X137206890Y-85276324D01*
X137169565Y-85280000D01*
X137169557Y-85280000D01*
X137057904Y-85290997D01*
X136914643Y-85334454D01*
X136782614Y-85405026D01*
X136666889Y-85499999D01*
X136643091Y-85528998D01*
X136360198Y-85811890D01*
X136298061Y-85811890D01*
X136098102Y-85851664D01*
X135909744Y-85929685D01*
X135740226Y-86042953D01*
X135596063Y-86187116D01*
X135482795Y-86356634D01*
X135404774Y-86544992D01*
X135365000Y-86744951D01*
X132760000Y-86744951D01*
X132760000Y-85850601D01*
X132803937Y-85806664D01*
X132917205Y-85637146D01*
X132995226Y-85448788D01*
X133035000Y-85248829D01*
X133035000Y-85044951D01*
X132995226Y-84844992D01*
X132917205Y-84656634D01*
X132803937Y-84487116D01*
X132659774Y-84342953D01*
X132490256Y-84229685D01*
X132301898Y-84151664D01*
X132101939Y-84111890D01*
X131898061Y-84111890D01*
X131698102Y-84151664D01*
X131509744Y-84229685D01*
X131380053Y-84316342D01*
X131359774Y-84296063D01*
X131190256Y-84182795D01*
X131001898Y-84104774D01*
X130801939Y-84065000D01*
X130598061Y-84065000D01*
X130398102Y-84104774D01*
X130209744Y-84182795D01*
X130040226Y-84296063D01*
X129896063Y-84440226D01*
X129782795Y-84609744D01*
X129704774Y-84798102D01*
X129665000Y-84998061D01*
X110735001Y-84998061D01*
X110735001Y-81898061D01*
X160115000Y-81898061D01*
X160115000Y-82101939D01*
X160154774Y-82301898D01*
X160232795Y-82490256D01*
X160346063Y-82659774D01*
X160490226Y-82803937D01*
X160659744Y-82917205D01*
X160848102Y-82995226D01*
X161048061Y-83035000D01*
X161251939Y-83035000D01*
X161451898Y-82995226D01*
X161640256Y-82917205D01*
X161809774Y-82803937D01*
X161953937Y-82659774D01*
X162067205Y-82490256D01*
X162145226Y-82301898D01*
X162185000Y-82101939D01*
X162185000Y-81898061D01*
X162145226Y-81698102D01*
X162067205Y-81509744D01*
X161966209Y-81358592D01*
X162190843Y-81133959D01*
X162252980Y-81133959D01*
X162452939Y-81094185D01*
X162641297Y-81016164D01*
X162810815Y-80902896D01*
X162954978Y-80758733D01*
X163068246Y-80589215D01*
X163146267Y-80400857D01*
X163158372Y-80340000D01*
X170857815Y-80340000D01*
X170886487Y-80631111D01*
X170971401Y-80911034D01*
X171109294Y-81169014D01*
X171294866Y-81395134D01*
X171324687Y-81419607D01*
X171255820Y-81440498D01*
X171145506Y-81499463D01*
X171048815Y-81578815D01*
X170969463Y-81675506D01*
X170910498Y-81785820D01*
X170874188Y-81905518D01*
X170861928Y-82030000D01*
X170861928Y-83730000D01*
X170874188Y-83854482D01*
X170910498Y-83974180D01*
X170969463Y-84084494D01*
X171048815Y-84181185D01*
X171145506Y-84260537D01*
X171255820Y-84319502D01*
X171375518Y-84355812D01*
X171500000Y-84368072D01*
X173200000Y-84368072D01*
X173324482Y-84355812D01*
X173444180Y-84319502D01*
X173554494Y-84260537D01*
X173651185Y-84181185D01*
X173730537Y-84084494D01*
X173789502Y-83974180D01*
X173825812Y-83854482D01*
X173838072Y-83730000D01*
X173838072Y-82030000D01*
X173825812Y-81905518D01*
X173789502Y-81785820D01*
X173730537Y-81675506D01*
X173651185Y-81578815D01*
X173554494Y-81499463D01*
X173444180Y-81440498D01*
X173375313Y-81419607D01*
X173405134Y-81395134D01*
X173590706Y-81169014D01*
X173728599Y-80911034D01*
X173813513Y-80631111D01*
X173842185Y-80340000D01*
X173813513Y-80048889D01*
X173728599Y-79768966D01*
X173590706Y-79510986D01*
X173405134Y-79284866D01*
X173179014Y-79099294D01*
X173114477Y-79064799D01*
X173231355Y-78995178D01*
X173447588Y-78800269D01*
X173621641Y-78566920D01*
X173746825Y-78304099D01*
X173791476Y-78156890D01*
X173670155Y-77927000D01*
X172477000Y-77927000D01*
X172477000Y-77947000D01*
X172223000Y-77947000D01*
X172223000Y-77927000D01*
X171029845Y-77927000D01*
X170908524Y-78156890D01*
X170953175Y-78304099D01*
X171078359Y-78566920D01*
X171252412Y-78800269D01*
X171468645Y-78995178D01*
X171585523Y-79064799D01*
X171520986Y-79099294D01*
X171294866Y-79284866D01*
X171109294Y-79510986D01*
X170971401Y-79768966D01*
X170886487Y-80048889D01*
X170857815Y-80340000D01*
X163158372Y-80340000D01*
X163186041Y-80200898D01*
X163186041Y-79997020D01*
X163146267Y-79797061D01*
X163068246Y-79608703D01*
X162954978Y-79439185D01*
X162810815Y-79295022D01*
X162641297Y-79181754D01*
X162452939Y-79103733D01*
X162252980Y-79063959D01*
X162049102Y-79063959D01*
X161849143Y-79103733D01*
X161660785Y-79181754D01*
X161491267Y-79295022D01*
X161347104Y-79439185D01*
X161233836Y-79608703D01*
X161155815Y-79797061D01*
X161116041Y-79997020D01*
X161116041Y-80059157D01*
X160638998Y-80536201D01*
X160610000Y-80559999D01*
X160586202Y-80588997D01*
X160586201Y-80588998D01*
X160515026Y-80675724D01*
X160444454Y-80807754D01*
X160435614Y-80836898D01*
X160400998Y-80951014D01*
X160390000Y-81062667D01*
X160390000Y-81062678D01*
X160386324Y-81100000D01*
X160390000Y-81137322D01*
X160390000Y-81296289D01*
X160346063Y-81340226D01*
X160232795Y-81509744D01*
X160154774Y-81698102D01*
X160115000Y-81898061D01*
X110735001Y-81898061D01*
X110735001Y-79502410D01*
X141119349Y-79502410D01*
X141119349Y-79706288D01*
X141159123Y-79906247D01*
X141237144Y-80094605D01*
X141350412Y-80264123D01*
X141494575Y-80408286D01*
X141664093Y-80521554D01*
X141852451Y-80599575D01*
X142052410Y-80639349D01*
X142256288Y-80639349D01*
X142456247Y-80599575D01*
X142644605Y-80521554D01*
X142814123Y-80408286D01*
X142858060Y-80364349D01*
X145454548Y-80364349D01*
X145665000Y-80574801D01*
X145665000Y-80636939D01*
X145704774Y-80836898D01*
X145782795Y-81025256D01*
X145896063Y-81194774D01*
X146040226Y-81338937D01*
X146209744Y-81452205D01*
X146398102Y-81530226D01*
X146598061Y-81570000D01*
X146801939Y-81570000D01*
X147001898Y-81530226D01*
X147190256Y-81452205D01*
X147359774Y-81338937D01*
X147503937Y-81194774D01*
X147617205Y-81025256D01*
X147695226Y-80836898D01*
X147735000Y-80636939D01*
X147735000Y-80433061D01*
X147695226Y-80233102D01*
X147617205Y-80044744D01*
X147503937Y-79875226D01*
X147359774Y-79731063D01*
X147190256Y-79617795D01*
X147001898Y-79539774D01*
X146801939Y-79500000D01*
X146739801Y-79500000D01*
X146333152Y-79093351D01*
X146309350Y-79064348D01*
X146193625Y-78969375D01*
X146061596Y-78898803D01*
X145918335Y-78855346D01*
X145806682Y-78844349D01*
X145806671Y-78844349D01*
X145769349Y-78840673D01*
X145732027Y-78844349D01*
X142858060Y-78844349D01*
X142814123Y-78800412D01*
X142644605Y-78687144D01*
X142456247Y-78609123D01*
X142256288Y-78569349D01*
X142052410Y-78569349D01*
X141852451Y-78609123D01*
X141664093Y-78687144D01*
X141494575Y-78800412D01*
X141350412Y-78944575D01*
X141237144Y-79114093D01*
X141159123Y-79302451D01*
X141119349Y-79502410D01*
X110735001Y-79502410D01*
X110735001Y-76168061D01*
X146555000Y-76168061D01*
X146555000Y-76371939D01*
X146594774Y-76571898D01*
X146672795Y-76760256D01*
X146786063Y-76929774D01*
X146830001Y-76973712D01*
X146830000Y-77826289D01*
X146786063Y-77870226D01*
X146672795Y-78039744D01*
X146594774Y-78228102D01*
X146555000Y-78428061D01*
X146555000Y-78631939D01*
X146594774Y-78831898D01*
X146672795Y-79020256D01*
X146786063Y-79189774D01*
X146930226Y-79333937D01*
X147099744Y-79447205D01*
X147288102Y-79525226D01*
X147488061Y-79565000D01*
X147691939Y-79565000D01*
X147891898Y-79525226D01*
X148080256Y-79447205D01*
X148249774Y-79333937D01*
X148393937Y-79189774D01*
X148507205Y-79020256D01*
X148585226Y-78831898D01*
X148625000Y-78631939D01*
X148625000Y-78428061D01*
X148585226Y-78228102D01*
X148507205Y-78039744D01*
X148393937Y-77870226D01*
X148350000Y-77826289D01*
X148350000Y-76973711D01*
X148393937Y-76929774D01*
X148507205Y-76760256D01*
X148585226Y-76571898D01*
X148613836Y-76428061D01*
X156135000Y-76428061D01*
X156135000Y-76631939D01*
X156174774Y-76831898D01*
X156252795Y-77020256D01*
X156366063Y-77189774D01*
X156420001Y-77243712D01*
X156420000Y-77886289D01*
X156376063Y-77930226D01*
X156262795Y-78099744D01*
X156184774Y-78288102D01*
X156145000Y-78488061D01*
X156145000Y-78691939D01*
X156184774Y-78891898D01*
X156262795Y-79080256D01*
X156376063Y-79249774D01*
X156520226Y-79393937D01*
X156689744Y-79507205D01*
X156878102Y-79585226D01*
X157078061Y-79625000D01*
X157281939Y-79625000D01*
X157481898Y-79585226D01*
X157670256Y-79507205D01*
X157839774Y-79393937D01*
X157983937Y-79249774D01*
X158097205Y-79080256D01*
X158175226Y-78891898D01*
X158215000Y-78691939D01*
X158215000Y-78488061D01*
X158175226Y-78288102D01*
X158097205Y-78099744D01*
X157983937Y-77930226D01*
X157940000Y-77886289D01*
X157940000Y-77223711D01*
X157973937Y-77189774D01*
X158087205Y-77020256D01*
X158165226Y-76831898D01*
X158205000Y-76631939D01*
X158205000Y-76428061D01*
X158165226Y-76228102D01*
X158087205Y-76039744D01*
X157973937Y-75870226D01*
X157829774Y-75726063D01*
X157660256Y-75612795D01*
X157471898Y-75534774D01*
X157271939Y-75495000D01*
X157068061Y-75495000D01*
X156868102Y-75534774D01*
X156679744Y-75612795D01*
X156510226Y-75726063D01*
X156366063Y-75870226D01*
X156252795Y-76039744D01*
X156174774Y-76228102D01*
X156135000Y-76428061D01*
X148613836Y-76428061D01*
X148625000Y-76371939D01*
X148625000Y-76168061D01*
X148585226Y-75968102D01*
X148507205Y-75779744D01*
X148393937Y-75610226D01*
X148249774Y-75466063D01*
X148080256Y-75352795D01*
X147891898Y-75274774D01*
X147817624Y-75260000D01*
X170857815Y-75260000D01*
X170886487Y-75551111D01*
X170971401Y-75831034D01*
X171109294Y-76089014D01*
X171294866Y-76315134D01*
X171520986Y-76500706D01*
X171585523Y-76535201D01*
X171468645Y-76604822D01*
X171252412Y-76799731D01*
X171078359Y-77033080D01*
X170953175Y-77295901D01*
X170908524Y-77443110D01*
X171029845Y-77673000D01*
X172223000Y-77673000D01*
X172223000Y-77653000D01*
X172477000Y-77653000D01*
X172477000Y-77673000D01*
X173670155Y-77673000D01*
X173791476Y-77443110D01*
X173746825Y-77295901D01*
X173621641Y-77033080D01*
X173447588Y-76799731D01*
X173231355Y-76604822D01*
X173114477Y-76535201D01*
X173179014Y-76500706D01*
X173405134Y-76315134D01*
X173590706Y-76089014D01*
X173728599Y-75831034D01*
X173813513Y-75551111D01*
X173842185Y-75260000D01*
X173813513Y-74968889D01*
X173728599Y-74688966D01*
X173590706Y-74430986D01*
X173405134Y-74204866D01*
X173179014Y-74019294D01*
X172921034Y-73881401D01*
X172641111Y-73796487D01*
X172422950Y-73775000D01*
X172277050Y-73775000D01*
X172058889Y-73796487D01*
X171778966Y-73881401D01*
X171520986Y-74019294D01*
X171294866Y-74204866D01*
X171109294Y-74430986D01*
X170971401Y-74688966D01*
X170886487Y-74968889D01*
X170857815Y-75260000D01*
X147817624Y-75260000D01*
X147691939Y-75235000D01*
X147488061Y-75235000D01*
X147288102Y-75274774D01*
X147099744Y-75352795D01*
X146930226Y-75466063D01*
X146786063Y-75610226D01*
X146672795Y-75779744D01*
X146594774Y-75968102D01*
X146555000Y-76168061D01*
X110735001Y-76168061D01*
X110735001Y-69729963D01*
X112258267Y-69729963D01*
X112258267Y-70270037D01*
X112363630Y-70799734D01*
X112570308Y-71298698D01*
X112870357Y-71747753D01*
X113252248Y-72129644D01*
X113701303Y-72429693D01*
X114200267Y-72636371D01*
X114729964Y-72741734D01*
X115270038Y-72741734D01*
X115799735Y-72636371D01*
X116298699Y-72429693D01*
X116747754Y-72129644D01*
X117129645Y-71747753D01*
X117429694Y-71298698D01*
X117636372Y-70799734D01*
X117741735Y-70270037D01*
X117741735Y-69729963D01*
X117726309Y-69652408D01*
X126703000Y-69652408D01*
X126703000Y-69927592D01*
X126756686Y-70197490D01*
X126861995Y-70451727D01*
X127014880Y-70680535D01*
X127209465Y-70875120D01*
X127438273Y-71028005D01*
X127692510Y-71133314D01*
X127962408Y-71187000D01*
X128237592Y-71187000D01*
X128507490Y-71133314D01*
X128761727Y-71028005D01*
X128990535Y-70875120D01*
X129185120Y-70680535D01*
X129338005Y-70451727D01*
X129370000Y-70374485D01*
X129401995Y-70451727D01*
X129554880Y-70680535D01*
X129749465Y-70875120D01*
X129978273Y-71028005D01*
X130232510Y-71133314D01*
X130502408Y-71187000D01*
X130777592Y-71187000D01*
X131047490Y-71133314D01*
X131301727Y-71028005D01*
X131530535Y-70875120D01*
X131725120Y-70680535D01*
X131878005Y-70451727D01*
X131983314Y-70197490D01*
X132037000Y-69927592D01*
X132037000Y-69652408D01*
X132015369Y-69543664D01*
X132082629Y-69706043D01*
X132234201Y-69932886D01*
X132427114Y-70125799D01*
X132653957Y-70277371D01*
X132906011Y-70381775D01*
X133173589Y-70435000D01*
X133446411Y-70435000D01*
X133713989Y-70381775D01*
X133966043Y-70277371D01*
X134192886Y-70125799D01*
X134385799Y-69932886D01*
X134521388Y-69729963D01*
X167258266Y-69729963D01*
X167258266Y-70270037D01*
X167363629Y-70799734D01*
X167570307Y-71298698D01*
X167870356Y-71747753D01*
X168252247Y-72129644D01*
X168701302Y-72429693D01*
X169200266Y-72636371D01*
X169729963Y-72741734D01*
X170270037Y-72741734D01*
X170799734Y-72636371D01*
X171298698Y-72429693D01*
X171747753Y-72129644D01*
X172129644Y-71747753D01*
X172429693Y-71298698D01*
X172636371Y-70799734D01*
X172741734Y-70270037D01*
X172741734Y-69729963D01*
X172636371Y-69200266D01*
X172429693Y-68701302D01*
X172129644Y-68252247D01*
X171747753Y-67870356D01*
X171298698Y-67570307D01*
X170799734Y-67363629D01*
X170270037Y-67258266D01*
X169729963Y-67258266D01*
X169200266Y-67363629D01*
X168701302Y-67570307D01*
X168252247Y-67870356D01*
X167870356Y-68252247D01*
X167570307Y-68701302D01*
X167363629Y-69200266D01*
X167258266Y-69729963D01*
X134521388Y-69729963D01*
X134537371Y-69706043D01*
X134641775Y-69453989D01*
X134695000Y-69186411D01*
X134695000Y-68913589D01*
X134641775Y-68646011D01*
X134601343Y-68548397D01*
X138181208Y-68548397D01*
X138258843Y-68797472D01*
X138522883Y-68923371D01*
X138806411Y-68995339D01*
X139098531Y-69010611D01*
X139388019Y-68968599D01*
X139663747Y-68870919D01*
X139801157Y-68797472D01*
X139878792Y-68548397D01*
X139030000Y-67699605D01*
X138181208Y-68548397D01*
X134601343Y-68548397D01*
X134537371Y-68393957D01*
X134385799Y-68167114D01*
X134192886Y-67974201D01*
X133966043Y-67822629D01*
X133713989Y-67718225D01*
X133446411Y-67665000D01*
X133250203Y-67665000D01*
X133253314Y-67657490D01*
X133267030Y-67588531D01*
X137539389Y-67588531D01*
X137581401Y-67878019D01*
X137679081Y-68153747D01*
X137752528Y-68291157D01*
X138001603Y-68368792D01*
X138850395Y-67520000D01*
X139209605Y-67520000D01*
X140058397Y-68368792D01*
X140300689Y-68293271D01*
X140416525Y-68466632D01*
X140623368Y-68673475D01*
X140866589Y-68835990D01*
X141136842Y-68947932D01*
X141423740Y-69005000D01*
X141716260Y-69005000D01*
X142003158Y-68947932D01*
X142273411Y-68835990D01*
X142516632Y-68673475D01*
X142723475Y-68466632D01*
X142839415Y-68293115D01*
X142869294Y-68349014D01*
X143054866Y-68575134D01*
X143280986Y-68760706D01*
X143538966Y-68898599D01*
X143818889Y-68983513D01*
X144037050Y-69005000D01*
X144182950Y-69005000D01*
X144401111Y-68983513D01*
X144681034Y-68898599D01*
X144939014Y-68760706D01*
X145165134Y-68575134D01*
X145350706Y-68349014D01*
X145385201Y-68284477D01*
X145454822Y-68401355D01*
X145649731Y-68617588D01*
X145883080Y-68791641D01*
X146145901Y-68916825D01*
X146293110Y-68961476D01*
X146523000Y-68840155D01*
X146523000Y-67647000D01*
X146503000Y-67647000D01*
X146503000Y-67393000D01*
X146523000Y-67393000D01*
X146523000Y-66199845D01*
X146777000Y-66199845D01*
X146777000Y-67393000D01*
X146797000Y-67393000D01*
X146797000Y-67647000D01*
X146777000Y-67647000D01*
X146777000Y-68840155D01*
X147006890Y-68961476D01*
X147154099Y-68916825D01*
X147416920Y-68791641D01*
X147650269Y-68617588D01*
X147845178Y-68401355D01*
X147914799Y-68284477D01*
X147949294Y-68349014D01*
X148134866Y-68575134D01*
X148360986Y-68760706D01*
X148618966Y-68898599D01*
X148898889Y-68983513D01*
X149117050Y-69005000D01*
X149262950Y-69005000D01*
X149481111Y-68983513D01*
X149761034Y-68898599D01*
X150019014Y-68760706D01*
X150245134Y-68575134D01*
X150269607Y-68545313D01*
X150290498Y-68614180D01*
X150349463Y-68724494D01*
X150428815Y-68821185D01*
X150525506Y-68900537D01*
X150635820Y-68959502D01*
X150755518Y-68995812D01*
X150880000Y-69008072D01*
X152580000Y-69008072D01*
X152704482Y-68995812D01*
X152824180Y-68959502D01*
X152934494Y-68900537D01*
X153031185Y-68821185D01*
X153110537Y-68724494D01*
X153169502Y-68614180D01*
X153205812Y-68494482D01*
X153218072Y-68370000D01*
X153218072Y-67650000D01*
X155607815Y-67650000D01*
X155636487Y-67941111D01*
X155721401Y-68221034D01*
X155859294Y-68479014D01*
X156044866Y-68705134D01*
X156270986Y-68890706D01*
X156528966Y-69028599D01*
X156808889Y-69113513D01*
X157027050Y-69135000D01*
X157172950Y-69135000D01*
X157391111Y-69113513D01*
X157671034Y-69028599D01*
X157929014Y-68890706D01*
X158155134Y-68705134D01*
X158340706Y-68479014D01*
X158375201Y-68414477D01*
X158444822Y-68531355D01*
X158639731Y-68747588D01*
X158873080Y-68921641D01*
X159135901Y-69046825D01*
X159283110Y-69091476D01*
X159513000Y-68970155D01*
X159513000Y-67777000D01*
X159493000Y-67777000D01*
X159493000Y-67523000D01*
X159513000Y-67523000D01*
X159513000Y-66329845D01*
X159767000Y-66329845D01*
X159767000Y-67523000D01*
X159787000Y-67523000D01*
X159787000Y-67777000D01*
X159767000Y-67777000D01*
X159767000Y-68970155D01*
X159996890Y-69091476D01*
X160144099Y-69046825D01*
X160406920Y-68921641D01*
X160640269Y-68747588D01*
X160835178Y-68531355D01*
X160904799Y-68414477D01*
X160939294Y-68479014D01*
X161124866Y-68705134D01*
X161350986Y-68890706D01*
X161608966Y-69028599D01*
X161888889Y-69113513D01*
X162107050Y-69135000D01*
X162252950Y-69135000D01*
X162471111Y-69113513D01*
X162751034Y-69028599D01*
X163009014Y-68890706D01*
X163235134Y-68705134D01*
X163259607Y-68675313D01*
X163280498Y-68744180D01*
X163339463Y-68854494D01*
X163418815Y-68951185D01*
X163515506Y-69030537D01*
X163625820Y-69089502D01*
X163745518Y-69125812D01*
X163870000Y-69138072D01*
X165570000Y-69138072D01*
X165694482Y-69125812D01*
X165814180Y-69089502D01*
X165924494Y-69030537D01*
X166021185Y-68951185D01*
X166100537Y-68854494D01*
X166159502Y-68744180D01*
X166195812Y-68624482D01*
X166208072Y-68500000D01*
X166208072Y-66800000D01*
X166195812Y-66675518D01*
X166159502Y-66555820D01*
X166100537Y-66445506D01*
X166021185Y-66348815D01*
X165924494Y-66269463D01*
X165814180Y-66210498D01*
X165694482Y-66174188D01*
X165570000Y-66161928D01*
X163870000Y-66161928D01*
X163745518Y-66174188D01*
X163625820Y-66210498D01*
X163515506Y-66269463D01*
X163418815Y-66348815D01*
X163339463Y-66445506D01*
X163280498Y-66555820D01*
X163259607Y-66624687D01*
X163235134Y-66594866D01*
X163009014Y-66409294D01*
X162751034Y-66271401D01*
X162471111Y-66186487D01*
X162252950Y-66165000D01*
X162107050Y-66165000D01*
X161888889Y-66186487D01*
X161608966Y-66271401D01*
X161350986Y-66409294D01*
X161124866Y-66594866D01*
X160939294Y-66820986D01*
X160904799Y-66885523D01*
X160835178Y-66768645D01*
X160640269Y-66552412D01*
X160406920Y-66378359D01*
X160144099Y-66253175D01*
X159996890Y-66208524D01*
X159767000Y-66329845D01*
X159513000Y-66329845D01*
X159283110Y-66208524D01*
X159135901Y-66253175D01*
X158873080Y-66378359D01*
X158639731Y-66552412D01*
X158444822Y-66768645D01*
X158375201Y-66885523D01*
X158340706Y-66820986D01*
X158155134Y-66594866D01*
X157929014Y-66409294D01*
X157671034Y-66271401D01*
X157391111Y-66186487D01*
X157172950Y-66165000D01*
X157027050Y-66165000D01*
X156808889Y-66186487D01*
X156528966Y-66271401D01*
X156270986Y-66409294D01*
X156044866Y-66594866D01*
X155859294Y-66820986D01*
X155721401Y-67078966D01*
X155636487Y-67358889D01*
X155607815Y-67650000D01*
X153218072Y-67650000D01*
X153218072Y-66670000D01*
X153205812Y-66545518D01*
X153169502Y-66425820D01*
X153110537Y-66315506D01*
X153031185Y-66218815D01*
X152934494Y-66139463D01*
X152824180Y-66080498D01*
X152704482Y-66044188D01*
X152580000Y-66031928D01*
X150880000Y-66031928D01*
X150755518Y-66044188D01*
X150635820Y-66080498D01*
X150525506Y-66139463D01*
X150428815Y-66218815D01*
X150349463Y-66315506D01*
X150290498Y-66425820D01*
X150269607Y-66494687D01*
X150245134Y-66464866D01*
X150019014Y-66279294D01*
X149761034Y-66141401D01*
X149481111Y-66056487D01*
X149262950Y-66035000D01*
X149117050Y-66035000D01*
X148898889Y-66056487D01*
X148618966Y-66141401D01*
X148360986Y-66279294D01*
X148134866Y-66464866D01*
X147949294Y-66690986D01*
X147914799Y-66755523D01*
X147845178Y-66638645D01*
X147650269Y-66422412D01*
X147416920Y-66248359D01*
X147154099Y-66123175D01*
X147006890Y-66078524D01*
X146777000Y-66199845D01*
X146523000Y-66199845D01*
X146293110Y-66078524D01*
X146145901Y-66123175D01*
X145883080Y-66248359D01*
X145649731Y-66422412D01*
X145454822Y-66638645D01*
X145385201Y-66755523D01*
X145350706Y-66690986D01*
X145165134Y-66464866D01*
X144939014Y-66279294D01*
X144681034Y-66141401D01*
X144401111Y-66056487D01*
X144182950Y-66035000D01*
X144037050Y-66035000D01*
X143818889Y-66056487D01*
X143538966Y-66141401D01*
X143280986Y-66279294D01*
X143054866Y-66464866D01*
X142869294Y-66690986D01*
X142839415Y-66746885D01*
X142723475Y-66573368D01*
X142516632Y-66366525D01*
X142273411Y-66204010D01*
X142003158Y-66092068D01*
X141716260Y-66035000D01*
X141423740Y-66035000D01*
X141136842Y-66092068D01*
X140866589Y-66204010D01*
X140623368Y-66366525D01*
X140416525Y-66573368D01*
X140300689Y-66746729D01*
X140058397Y-66671208D01*
X139209605Y-67520000D01*
X138850395Y-67520000D01*
X138001603Y-66671208D01*
X137752528Y-66748843D01*
X137626629Y-67012883D01*
X137554661Y-67296411D01*
X137539389Y-67588531D01*
X133267030Y-67588531D01*
X133307000Y-67387592D01*
X133307000Y-67112408D01*
X133253314Y-66842510D01*
X133148005Y-66588273D01*
X133083413Y-66491603D01*
X138181208Y-66491603D01*
X139030000Y-67340395D01*
X139878792Y-66491603D01*
X139801157Y-66242528D01*
X139537117Y-66116629D01*
X139253589Y-66044661D01*
X138961469Y-66029389D01*
X138671981Y-66071401D01*
X138396253Y-66169081D01*
X138258843Y-66242528D01*
X138181208Y-66491603D01*
X133083413Y-66491603D01*
X132995120Y-66359465D01*
X132800535Y-66164880D01*
X132571727Y-66011995D01*
X132317490Y-65906686D01*
X132047592Y-65853000D01*
X131772408Y-65853000D01*
X131502510Y-65906686D01*
X131248273Y-66011995D01*
X131019465Y-66164880D01*
X130824880Y-66359465D01*
X130671995Y-66588273D01*
X130640000Y-66665515D01*
X130608005Y-66588273D01*
X130455120Y-66359465D01*
X130260535Y-66164880D01*
X130031727Y-66011995D01*
X129777490Y-65906686D01*
X129507592Y-65853000D01*
X129232408Y-65853000D01*
X128962510Y-65906686D01*
X128708273Y-66011995D01*
X128479465Y-66164880D01*
X128284880Y-66359465D01*
X128131995Y-66588273D01*
X128026686Y-66842510D01*
X127973000Y-67112408D01*
X127973000Y-67387592D01*
X128026686Y-67657490D01*
X128131995Y-67911727D01*
X128284880Y-68140535D01*
X128479465Y-68335120D01*
X128708273Y-68488005D01*
X128962510Y-68593314D01*
X129232408Y-68647000D01*
X129507592Y-68647000D01*
X129777490Y-68593314D01*
X130031727Y-68488005D01*
X130260535Y-68335120D01*
X130455120Y-68140535D01*
X130608005Y-67911727D01*
X130640000Y-67834485D01*
X130671995Y-67911727D01*
X130824880Y-68140535D01*
X131019465Y-68335120D01*
X131248273Y-68488005D01*
X131502510Y-68593314D01*
X131772408Y-68647000D01*
X131978028Y-68647000D01*
X131925000Y-68913589D01*
X131925000Y-69186411D01*
X131946169Y-69292835D01*
X131878005Y-69128273D01*
X131725120Y-68899465D01*
X131530535Y-68704880D01*
X131301727Y-68551995D01*
X131047490Y-68446686D01*
X130777592Y-68393000D01*
X130502408Y-68393000D01*
X130232510Y-68446686D01*
X129978273Y-68551995D01*
X129749465Y-68704880D01*
X129554880Y-68899465D01*
X129401995Y-69128273D01*
X129370000Y-69205515D01*
X129338005Y-69128273D01*
X129185120Y-68899465D01*
X128990535Y-68704880D01*
X128761727Y-68551995D01*
X128507490Y-68446686D01*
X128237592Y-68393000D01*
X127962408Y-68393000D01*
X127692510Y-68446686D01*
X127438273Y-68551995D01*
X127209465Y-68704880D01*
X127014880Y-68899465D01*
X126861995Y-69128273D01*
X126756686Y-69382510D01*
X126703000Y-69652408D01*
X117726309Y-69652408D01*
X117636372Y-69200266D01*
X117429694Y-68701302D01*
X117129645Y-68252247D01*
X116747754Y-67870356D01*
X116298699Y-67570307D01*
X115799735Y-67363629D01*
X115270038Y-67258266D01*
X114729964Y-67258266D01*
X114200267Y-67363629D01*
X113701303Y-67570307D01*
X113252248Y-67870356D01*
X112870357Y-68252247D01*
X112570308Y-68701302D01*
X112363630Y-69200266D01*
X112258267Y-69729963D01*
X110735001Y-69729963D01*
X110735001Y-69035945D01*
X110800639Y-68366512D01*
X110984618Y-67757146D01*
X111283450Y-67195125D01*
X111685754Y-66701853D01*
X112176206Y-66296116D01*
X112736129Y-65993366D01*
X113344189Y-65805140D01*
X114011523Y-65735000D01*
X170964056Y-65735000D01*
X171633489Y-65800638D01*
X171633489Y-65800638D01*
G37*
X171633489Y-65800638D02*
X172242855Y-65984617D01*
X172804876Y-66283449D01*
X173298148Y-66685753D01*
X173703885Y-67176205D01*
X174006635Y-67736128D01*
X174194861Y-68344188D01*
X174265001Y-69011522D01*
X174265002Y-130964035D01*
X174199362Y-131633488D01*
X174015383Y-132242853D01*
X173716552Y-132804874D01*
X173314248Y-133298147D01*
X172823793Y-133703886D01*
X172263877Y-134006633D01*
X171655812Y-134194860D01*
X170988479Y-134265000D01*
X114035946Y-134265000D01*
X113366512Y-134199362D01*
X112757146Y-134015383D01*
X112195130Y-133716553D01*
X111701856Y-133314250D01*
X111296117Y-132823795D01*
X110993367Y-132263873D01*
X110805141Y-131655811D01*
X110735001Y-130988478D01*
X110735001Y-129729963D01*
X112258267Y-129729963D01*
X112258267Y-130270037D01*
X112363630Y-130799734D01*
X112570308Y-131298698D01*
X112870357Y-131747753D01*
X113252248Y-132129644D01*
X113701303Y-132429693D01*
X114200267Y-132636371D01*
X114729964Y-132741734D01*
X115270038Y-132741734D01*
X115799735Y-132636371D01*
X116298699Y-132429693D01*
X116747754Y-132129644D01*
X117129645Y-131747753D01*
X117429694Y-131298698D01*
X117630633Y-130813589D01*
X133865000Y-130813589D01*
X133865000Y-131086411D01*
X133918225Y-131353989D01*
X134022629Y-131606043D01*
X134174201Y-131832886D01*
X134367114Y-132025799D01*
X134593957Y-132177371D01*
X134846011Y-132281775D01*
X135113589Y-132335000D01*
X135309797Y-132335000D01*
X135306686Y-132342510D01*
X135253000Y-132612408D01*
X135253000Y-132887592D01*
X135306686Y-133157490D01*
X135411995Y-133411727D01*
X135564880Y-133640535D01*
X135759465Y-133835120D01*
X135988273Y-133988005D01*
X136242510Y-134093314D01*
X136512408Y-134147000D01*
X136787592Y-134147000D01*
X137057490Y-134093314D01*
X137311727Y-133988005D01*
X137540535Y-133835120D01*
X137735120Y-133640535D01*
X137888005Y-133411727D01*
X137920000Y-133334485D01*
X137951995Y-133411727D01*
X138104880Y-133640535D01*
X138299465Y-133835120D01*
X138528273Y-133988005D01*
X138782510Y-134093314D01*
X139052408Y-134147000D01*
X139327592Y-134147000D01*
X139597490Y-134093314D01*
X139851727Y-133988005D01*
X140080535Y-133835120D01*
X140275120Y-133640535D01*
X140428005Y-133411727D01*
X140460000Y-133334485D01*
X140491995Y-133411727D01*
X140644880Y-133640535D01*
X140839465Y-133835120D01*
X141068273Y-133988005D01*
X141322510Y-134093314D01*
X141592408Y-134147000D01*
X141867592Y-134147000D01*
X142137490Y-134093314D01*
X142391727Y-133988005D01*
X142620535Y-133835120D01*
X142815120Y-133640535D01*
X142968005Y-133411727D01*
X143000000Y-133334485D01*
X143031995Y-133411727D01*
X143184880Y-133640535D01*
X143379465Y-133835120D01*
X143608273Y-133988005D01*
X143862510Y-134093314D01*
X144132408Y-134147000D01*
X144407592Y-134147000D01*
X144677490Y-134093314D01*
X144931727Y-133988005D01*
X145160535Y-133835120D01*
X145280090Y-133715565D01*
X146024040Y-133715565D01*
X146091020Y-133955656D01*
X146340048Y-134072756D01*
X146607135Y-134139023D01*
X146882017Y-134151910D01*
X147154133Y-134110922D01*
X147413023Y-134017636D01*
X147528980Y-133955656D01*
X147595960Y-133715565D01*
X146810000Y-132929605D01*
X146024040Y-133715565D01*
X145280090Y-133715565D01*
X145355120Y-133640535D01*
X145508005Y-133411727D01*
X145537692Y-133340057D01*
X145542364Y-133353023D01*
X145604344Y-133468980D01*
X145844435Y-133535960D01*
X146630395Y-132750000D01*
X146989605Y-132750000D01*
X147775565Y-133535960D01*
X148015656Y-133468980D01*
X148132756Y-133219952D01*
X148199023Y-132952865D01*
X148211910Y-132677983D01*
X148170922Y-132405867D01*
X148077636Y-132146977D01*
X148015656Y-132031020D01*
X147775565Y-131964040D01*
X146989605Y-132750000D01*
X146630395Y-132750000D01*
X145844435Y-131964040D01*
X145604344Y-132031020D01*
X145540515Y-132166760D01*
X145508005Y-132088273D01*
X145355120Y-131859465D01*
X145280090Y-131784435D01*
X146024040Y-131784435D01*
X146810000Y-132570395D01*
X147595960Y-131784435D01*
X147528980Y-131544344D01*
X147279952Y-131427244D01*
X147012865Y-131360977D01*
X146737983Y-131348090D01*
X146465867Y-131389078D01*
X146206977Y-131482364D01*
X146091020Y-131544344D01*
X146024040Y-131784435D01*
X145280090Y-131784435D01*
X145160535Y-131664880D01*
X144931727Y-131511995D01*
X144677490Y-131406686D01*
X144407592Y-131353000D01*
X144132408Y-131353000D01*
X143862510Y-131406686D01*
X143608273Y-131511995D01*
X143379465Y-131664880D01*
X143184880Y-131859465D01*
X143031995Y-132088273D01*
X143000000Y-132165515D01*
X142968005Y-132088273D01*
X142815120Y-131859465D01*
X142620535Y-131664880D01*
X142391727Y-131511995D01*
X142137490Y-131406686D01*
X141867592Y-131353000D01*
X141592408Y-131353000D01*
X141322510Y-131406686D01*
X141068273Y-131511995D01*
X140839465Y-131664880D01*
X140644880Y-131859465D01*
X140491995Y-132088273D01*
X140460000Y-132165515D01*
X140428005Y-132088273D01*
X140275120Y-131859465D01*
X140080535Y-131664880D01*
X139851727Y-131511995D01*
X139597490Y-131406686D01*
X139327592Y-131353000D01*
X139052408Y-131353000D01*
X138782510Y-131406686D01*
X138528273Y-131511995D01*
X138299465Y-131664880D01*
X138104880Y-131859465D01*
X137951995Y-132088273D01*
X137920000Y-132165515D01*
X137888005Y-132088273D01*
X137735120Y-131859465D01*
X137540535Y-131664880D01*
X137311727Y-131511995D01*
X137057490Y-131406686D01*
X136787592Y-131353000D01*
X136581972Y-131353000D01*
X136635000Y-131086411D01*
X136635000Y-130813589D01*
X136613831Y-130707165D01*
X136681995Y-130871727D01*
X136834880Y-131100535D01*
X137029465Y-131295120D01*
X137258273Y-131448005D01*
X137512510Y-131553314D01*
X137782408Y-131607000D01*
X138057592Y-131607000D01*
X138327490Y-131553314D01*
X138581727Y-131448005D01*
X138810535Y-131295120D01*
X139005120Y-131100535D01*
X139158005Y-130871727D01*
X139190000Y-130794485D01*
X139221995Y-130871727D01*
X139374880Y-131100535D01*
X139569465Y-131295120D01*
X139798273Y-131448005D01*
X140052510Y-131553314D01*
X140322408Y-131607000D01*
X140597592Y-131607000D01*
X140867490Y-131553314D01*
X141121727Y-131448005D01*
X141350535Y-131295120D01*
X141470090Y-131175565D01*
X142214040Y-131175565D01*
X142281020Y-131415656D01*
X142530048Y-131532756D01*
X142797135Y-131599023D01*
X143072017Y-131611910D01*
X143344133Y-131570922D01*
X143603023Y-131477636D01*
X143718980Y-131415656D01*
X143785960Y-131175565D01*
X143000000Y-130389605D01*
X142214040Y-131175565D01*
X141470090Y-131175565D01*
X141545120Y-131100535D01*
X141698005Y-130871727D01*
X141727692Y-130800057D01*
X141732364Y-130813023D01*
X141794344Y-130928980D01*
X142034435Y-130995960D01*
X142820395Y-130210000D01*
X143179605Y-130210000D01*
X143965565Y-130995960D01*
X144205656Y-130928980D01*
X144269485Y-130793240D01*
X144301995Y-130871727D01*
X144454880Y-131100535D01*
X144649465Y-131295120D01*
X144878273Y-131448005D01*
X145132510Y-131553314D01*
X145402408Y-131607000D01*
X145677592Y-131607000D01*
X145947490Y-131553314D01*
X146201727Y-131448005D01*
X146430535Y-131295120D01*
X146550090Y-131175565D01*
X147294040Y-131175565D01*
X147361020Y-131415656D01*
X147610048Y-131532756D01*
X147877135Y-131599023D01*
X148152017Y-131611910D01*
X148424133Y-131570922D01*
X148683023Y-131477636D01*
X148798980Y-131415656D01*
X148865960Y-131175565D01*
X148080000Y-130389605D01*
X147294040Y-131175565D01*
X146550090Y-131175565D01*
X146625120Y-131100535D01*
X146778005Y-130871727D01*
X146807692Y-130800057D01*
X146812364Y-130813023D01*
X146874344Y-130928980D01*
X147114435Y-130995960D01*
X147900395Y-130210000D01*
X148259605Y-130210000D01*
X149045565Y-130995960D01*
X149285656Y-130928980D01*
X149402756Y-130679952D01*
X149469023Y-130412865D01*
X149481910Y-130137983D01*
X149440922Y-129865867D01*
X149391952Y-129729963D01*
X167258266Y-129729963D01*
X167258266Y-130270037D01*
X167363629Y-130799734D01*
X167570307Y-131298698D01*
X167870356Y-131747753D01*
X168252247Y-132129644D01*
X168701302Y-132429693D01*
X169200266Y-132636371D01*
X169729963Y-132741734D01*
X170270037Y-132741734D01*
X170799734Y-132636371D01*
X171298698Y-132429693D01*
X171747753Y-132129644D01*
X172129644Y-131747753D01*
X172429693Y-131298698D01*
X172636371Y-130799734D01*
X172741734Y-130270037D01*
X172741734Y-129729963D01*
X172636371Y-129200266D01*
X172429693Y-128701302D01*
X172129644Y-128252247D01*
X171747753Y-127870356D01*
X171298698Y-127570307D01*
X170799734Y-127363629D01*
X170270037Y-127258266D01*
X169729963Y-127258266D01*
X169200266Y-127363629D01*
X168701302Y-127570307D01*
X168252247Y-127870356D01*
X167870356Y-128252247D01*
X167570307Y-128701302D01*
X167363629Y-129200266D01*
X167258266Y-129729963D01*
X149391952Y-129729963D01*
X149347636Y-129606977D01*
X149285656Y-129491020D01*
X149045565Y-129424040D01*
X148259605Y-130210000D01*
X147900395Y-130210000D01*
X147114435Y-129424040D01*
X146874344Y-129491020D01*
X146810515Y-129626760D01*
X146778005Y-129548273D01*
X146625120Y-129319465D01*
X146550090Y-129244435D01*
X147294040Y-129244435D01*
X148080000Y-130030395D01*
X148865960Y-129244435D01*
X148798980Y-129004344D01*
X148549952Y-128887244D01*
X148282865Y-128820977D01*
X148007983Y-128808090D01*
X147735867Y-128849078D01*
X147476977Y-128942364D01*
X147361020Y-129004344D01*
X147294040Y-129244435D01*
X146550090Y-129244435D01*
X146430535Y-129124880D01*
X146201727Y-128971995D01*
X145947490Y-128866686D01*
X145677592Y-128813000D01*
X145402408Y-128813000D01*
X145132510Y-128866686D01*
X144878273Y-128971995D01*
X144649465Y-129124880D01*
X144454880Y-129319465D01*
X144301995Y-129548273D01*
X144272308Y-129619943D01*
X144267636Y-129606977D01*
X144205656Y-129491020D01*
X143965565Y-129424040D01*
X143179605Y-130210000D01*
X142820395Y-130210000D01*
X142034435Y-129424040D01*
X141794344Y-129491020D01*
X141730515Y-129626760D01*
X141698005Y-129548273D01*
X141545120Y-129319465D01*
X141470090Y-129244435D01*
X142214040Y-129244435D01*
X143000000Y-130030395D01*
X143785960Y-129244435D01*
X143718980Y-129004344D01*
X143469952Y-128887244D01*
X143202865Y-128820977D01*
X142927983Y-128808090D01*
X142655867Y-128849078D01*
X142396977Y-128942364D01*
X142281020Y-129004344D01*
X142214040Y-129244435D01*
X141470090Y-129244435D01*
X141350535Y-129124880D01*
X141121727Y-128971995D01*
X140867490Y-128866686D01*
X140597592Y-128813000D01*
X140322408Y-128813000D01*
X140052510Y-128866686D01*
X139798273Y-128971995D01*
X139569465Y-129124880D01*
X139374880Y-129319465D01*
X139221995Y-129548273D01*
X139190000Y-129625515D01*
X139158005Y-129548273D01*
X139005120Y-129319465D01*
X138810535Y-129124880D01*
X138581727Y-128971995D01*
X138327490Y-128866686D01*
X138057592Y-128813000D01*
X137782408Y-128813000D01*
X137512510Y-128866686D01*
X137258273Y-128971995D01*
X137029465Y-129124880D01*
X136834880Y-129319465D01*
X136681995Y-129548273D01*
X136576686Y-129802510D01*
X136523000Y-130072408D01*
X136523000Y-130347592D01*
X136544631Y-130456336D01*
X136477371Y-130293957D01*
X136325799Y-130067114D01*
X136132886Y-129874201D01*
X135906043Y-129722629D01*
X135653989Y-129618225D01*
X135386411Y-129565000D01*
X135113589Y-129565000D01*
X134846011Y-129618225D01*
X134593957Y-129722629D01*
X134367114Y-129874201D01*
X134174201Y-130067114D01*
X134022629Y-130293957D01*
X133918225Y-130546011D01*
X133865000Y-130813589D01*
X117630633Y-130813589D01*
X117636372Y-130799734D01*
X117741735Y-130270037D01*
X117741735Y-129729963D01*
X117636372Y-129200266D01*
X117429694Y-128701302D01*
X117129645Y-128252247D01*
X116747754Y-127870356D01*
X116298699Y-127570307D01*
X115799735Y-127363629D01*
X115270038Y-127258266D01*
X114729964Y-127258266D01*
X114200267Y-127363629D01*
X113701303Y-127570307D01*
X113252248Y-127870356D01*
X112870357Y-128252247D01*
X112570308Y-128701302D01*
X112363630Y-129200266D01*
X112258267Y-129729963D01*
X110735001Y-129729963D01*
X110735001Y-125788061D01*
X131355000Y-125788061D01*
X131355000Y-125991939D01*
X131394774Y-126191898D01*
X131472795Y-126380256D01*
X131586063Y-126549774D01*
X131730226Y-126693937D01*
X131884362Y-126796927D01*
X131861063Y-126820226D01*
X131747795Y-126989744D01*
X131669774Y-127178102D01*
X131630000Y-127378061D01*
X131630000Y-127581939D01*
X131669774Y-127781898D01*
X131747795Y-127970256D01*
X131861063Y-128139774D01*
X132005226Y-128283937D01*
X132174744Y-128397205D01*
X132363102Y-128475226D01*
X132563061Y-128515000D01*
X132766939Y-128515000D01*
X132966898Y-128475226D01*
X133155256Y-128397205D01*
X133324774Y-128283937D01*
X133358711Y-128250000D01*
X134146289Y-128250000D01*
X134190226Y-128293937D01*
X134359744Y-128407205D01*
X134548102Y-128485226D01*
X134748061Y-128525000D01*
X134951939Y-128525000D01*
X135151898Y-128485226D01*
X135340256Y-128407205D01*
X135509774Y-128293937D01*
X135653937Y-128149774D01*
X135767205Y-127980256D01*
X135845226Y-127791898D01*
X135885000Y-127591939D01*
X135885000Y-127388061D01*
X135845226Y-127188102D01*
X135767205Y-126999744D01*
X135653937Y-126830226D01*
X135518711Y-126695000D01*
X135653937Y-126559774D01*
X135767205Y-126390256D01*
X135845226Y-126201898D01*
X135885000Y-126001939D01*
X135885000Y-125798061D01*
X135845226Y-125598102D01*
X135767205Y-125409744D01*
X135653937Y-125240226D01*
X135509774Y-125096063D01*
X135340256Y-124982795D01*
X135151898Y-124904774D01*
X134951939Y-124865000D01*
X134748061Y-124865000D01*
X134548102Y-124904774D01*
X134359744Y-124982795D01*
X134190226Y-125096063D01*
X134156289Y-125130000D01*
X133093711Y-125130000D01*
X133049774Y-125086063D01*
X132880256Y-124972795D01*
X132691898Y-124894774D01*
X132491939Y-124855000D01*
X132288061Y-124855000D01*
X132088102Y-124894774D01*
X131899744Y-124972795D01*
X131730226Y-125086063D01*
X131586063Y-125230226D01*
X131472795Y-125399744D01*
X131394774Y-125588102D01*
X131355000Y-125788061D01*
X110735001Y-125788061D01*
X110735001Y-124262408D01*
X161488000Y-124262408D01*
X161488000Y-124537592D01*
X161541686Y-124807490D01*
X161646995Y-125061727D01*
X161799880Y-125290535D01*
X161994465Y-125485120D01*
X162223273Y-125638005D01*
X162477510Y-125743314D01*
X162747408Y-125797000D01*
X163022592Y-125797000D01*
X163292490Y-125743314D01*
X163546727Y-125638005D01*
X163775535Y-125485120D01*
X163895090Y-125365565D01*
X164639040Y-125365565D01*
X164706020Y-125605656D01*
X164955048Y-125722756D01*
X165222135Y-125789023D01*
X165497017Y-125801910D01*
X165769133Y-125760922D01*
X166028023Y-125667636D01*
X166143980Y-125605656D01*
X166210960Y-125365565D01*
X165425000Y-124579605D01*
X164639040Y-125365565D01*
X163895090Y-125365565D01*
X163970120Y-125290535D01*
X164123005Y-125061727D01*
X164152692Y-124990057D01*
X164157364Y-125003023D01*
X164219344Y-125118980D01*
X164459435Y-125185960D01*
X165245395Y-124400000D01*
X165604605Y-124400000D01*
X166390565Y-125185960D01*
X166630656Y-125118980D01*
X166694485Y-124983240D01*
X166726995Y-125061727D01*
X166879880Y-125290535D01*
X167074465Y-125485120D01*
X167303273Y-125638005D01*
X167557510Y-125743314D01*
X167827408Y-125797000D01*
X168102592Y-125797000D01*
X168372490Y-125743314D01*
X168626727Y-125638005D01*
X168855535Y-125485120D01*
X169050120Y-125290535D01*
X169203005Y-125061727D01*
X169308314Y-124807490D01*
X169362000Y-124537592D01*
X169362000Y-124262408D01*
X169308314Y-123992510D01*
X169203005Y-123738273D01*
X169050120Y-123509465D01*
X168855535Y-123314880D01*
X168626727Y-123161995D01*
X168372490Y-123056686D01*
X168102592Y-123003000D01*
X167827408Y-123003000D01*
X167557510Y-123056686D01*
X167303273Y-123161995D01*
X167074465Y-123314880D01*
X166879880Y-123509465D01*
X166726995Y-123738273D01*
X166697308Y-123809943D01*
X166692636Y-123796977D01*
X166630656Y-123681020D01*
X166390565Y-123614040D01*
X165604605Y-124400000D01*
X165245395Y-124400000D01*
X164459435Y-123614040D01*
X164219344Y-123681020D01*
X164155515Y-123816760D01*
X164123005Y-123738273D01*
X163970120Y-123509465D01*
X163895090Y-123434435D01*
X164639040Y-123434435D01*
X165425000Y-124220395D01*
X166210960Y-123434435D01*
X166143980Y-123194344D01*
X165894952Y-123077244D01*
X165627865Y-123010977D01*
X165352983Y-122998090D01*
X165080867Y-123039078D01*
X164821977Y-123132364D01*
X164706020Y-123194344D01*
X164639040Y-123434435D01*
X163895090Y-123434435D01*
X163775535Y-123314880D01*
X163546727Y-123161995D01*
X163292490Y-123056686D01*
X163022592Y-123003000D01*
X162747408Y-123003000D01*
X162477510Y-123056686D01*
X162223273Y-123161995D01*
X161994465Y-123314880D01*
X161799880Y-123509465D01*
X161646995Y-123738273D01*
X161541686Y-123992510D01*
X161488000Y-124262408D01*
X110735001Y-124262408D01*
X110735001Y-121269102D01*
X136533959Y-121269102D01*
X136533959Y-121472980D01*
X136573733Y-121672939D01*
X136651754Y-121861297D01*
X136765022Y-122030815D01*
X136909185Y-122174978D01*
X137078703Y-122288246D01*
X137267061Y-122366267D01*
X137278554Y-122368553D01*
X137280840Y-122380047D01*
X137358861Y-122568405D01*
X137472129Y-122737923D01*
X137616292Y-122882086D01*
X137785810Y-122995354D01*
X137974168Y-123073375D01*
X138174127Y-123113149D01*
X138378005Y-123113149D01*
X138577964Y-123073375D01*
X138766322Y-122995354D01*
X138935840Y-122882086D01*
X139080003Y-122737923D01*
X139193271Y-122568405D01*
X139254702Y-122420100D01*
X139640843Y-122033959D01*
X139702980Y-122033959D01*
X139902939Y-121994185D01*
X140091297Y-121916164D01*
X140260815Y-121802896D01*
X140404978Y-121658733D01*
X140518246Y-121489215D01*
X140596267Y-121300857D01*
X140636041Y-121100898D01*
X140636041Y-120897020D01*
X140596267Y-120697061D01*
X140518246Y-120508703D01*
X140404978Y-120339185D01*
X140260815Y-120195022D01*
X140091297Y-120081754D01*
X139902939Y-120003733D01*
X139806198Y-119984490D01*
X139786955Y-119887748D01*
X139708934Y-119699390D01*
X139595666Y-119529872D01*
X139451503Y-119385709D01*
X139281985Y-119272441D01*
X139093627Y-119194420D01*
X138893668Y-119154646D01*
X138689790Y-119154646D01*
X138489831Y-119194420D01*
X138301473Y-119272441D01*
X138131955Y-119385709D01*
X137987792Y-119529872D01*
X137874524Y-119699390D01*
X137796503Y-119887748D01*
X137756729Y-120087707D01*
X137756729Y-120149844D01*
X137570533Y-120336041D01*
X137467020Y-120336041D01*
X137267061Y-120375815D01*
X137078703Y-120453836D01*
X136909185Y-120567104D01*
X136765022Y-120711267D01*
X136651754Y-120880785D01*
X136573733Y-121069143D01*
X136533959Y-121269102D01*
X110735001Y-121269102D01*
X110735001Y-115098061D01*
X125925000Y-115098061D01*
X125925000Y-115301939D01*
X125964774Y-115501898D01*
X126042795Y-115690256D01*
X126156063Y-115859774D01*
X126200000Y-115903711D01*
X126200001Y-116724265D01*
X126102795Y-116869744D01*
X126024774Y-117058102D01*
X125985000Y-117258061D01*
X125985000Y-117461939D01*
X126024774Y-117661898D01*
X126102795Y-117850256D01*
X126216063Y-118019774D01*
X126360226Y-118163937D01*
X126529744Y-118277205D01*
X126718102Y-118355226D01*
X126918061Y-118395000D01*
X127121939Y-118395000D01*
X127321898Y-118355226D01*
X127510256Y-118277205D01*
X127679774Y-118163937D01*
X127823937Y-118019774D01*
X127937205Y-117850256D01*
X128015226Y-117661898D01*
X128055000Y-117461939D01*
X128055000Y-117258061D01*
X128015226Y-117058102D01*
X127937205Y-116869744D01*
X127823937Y-116700226D01*
X127720000Y-116596289D01*
X127720000Y-115903711D01*
X127763937Y-115859774D01*
X127877205Y-115690256D01*
X127955226Y-115501898D01*
X127995000Y-115301939D01*
X127995000Y-115098061D01*
X127962817Y-114936260D01*
X138353199Y-114936260D01*
X138353199Y-115140138D01*
X138392973Y-115340097D01*
X138470994Y-115528455D01*
X138584262Y-115697973D01*
X138728425Y-115842136D01*
X138897943Y-115955404D01*
X139086301Y-116033425D01*
X139286260Y-116073199D01*
X139490138Y-116073199D01*
X139690097Y-116033425D01*
X139878455Y-115955404D01*
X140047973Y-115842136D01*
X140091910Y-115798199D01*
X141084488Y-115798199D01*
X141140226Y-115853937D01*
X141309744Y-115967205D01*
X141498102Y-116045226D01*
X141698061Y-116085000D01*
X141901939Y-116085000D01*
X142101898Y-116045226D01*
X142290256Y-115967205D01*
X142459774Y-115853937D01*
X142603937Y-115709774D01*
X142717205Y-115540256D01*
X142795226Y-115351898D01*
X142835000Y-115151939D01*
X142835000Y-114948061D01*
X142795226Y-114748102D01*
X142717205Y-114559744D01*
X142603937Y-114390226D01*
X142459774Y-114246063D01*
X142290256Y-114132795D01*
X142101898Y-114054774D01*
X141901939Y-114015000D01*
X141698061Y-114015000D01*
X141498102Y-114054774D01*
X141309744Y-114132795D01*
X141140226Y-114246063D01*
X141108090Y-114278199D01*
X140091910Y-114278199D01*
X140047973Y-114234262D01*
X139878455Y-114120994D01*
X139690097Y-114042973D01*
X139490138Y-114003199D01*
X139286260Y-114003199D01*
X139086301Y-114042973D01*
X138897943Y-114120994D01*
X138728425Y-114234262D01*
X138584262Y-114378425D01*
X138470994Y-114547943D01*
X138392973Y-114736301D01*
X138353199Y-114936260D01*
X127962817Y-114936260D01*
X127955226Y-114898102D01*
X127877205Y-114709744D01*
X127763937Y-114540226D01*
X127619774Y-114396063D01*
X127450256Y-114282795D01*
X127261898Y-114204774D01*
X127061939Y-114165000D01*
X126858061Y-114165000D01*
X126658102Y-114204774D01*
X126469744Y-114282795D01*
X126300226Y-114396063D01*
X126156063Y-114540226D01*
X126042795Y-114709744D01*
X125964774Y-114898102D01*
X125925000Y-115098061D01*
X110735001Y-115098061D01*
X110735001Y-109450212D01*
X164883000Y-109450212D01*
X164883000Y-109673788D01*
X164926617Y-109893067D01*
X165012176Y-110099624D01*
X165077241Y-110197000D01*
X165012176Y-110294376D01*
X164926617Y-110500933D01*
X164883000Y-110720212D01*
X164883000Y-110943788D01*
X164926617Y-111163067D01*
X165012176Y-111369624D01*
X165136388Y-111555520D01*
X165294480Y-111713612D01*
X165480376Y-111837824D01*
X165686933Y-111923383D01*
X165906212Y-111967000D01*
X166129788Y-111967000D01*
X166349067Y-111923383D01*
X166555624Y-111837824D01*
X166709930Y-111734720D01*
X166724550Y-111823588D01*
X166928826Y-111914458D01*
X167146905Y-111963731D01*
X167370406Y-111969511D01*
X167590740Y-111931577D01*
X167799440Y-111851387D01*
X167851450Y-111823588D01*
X167872210Y-111697398D01*
X167923000Y-111646608D01*
X167973790Y-111697398D01*
X167994550Y-111823588D01*
X168198826Y-111914458D01*
X168416905Y-111963731D01*
X168640406Y-111969511D01*
X168860740Y-111931577D01*
X169069440Y-111851387D01*
X169121450Y-111823588D01*
X169136070Y-111734720D01*
X169290376Y-111837824D01*
X169496933Y-111923383D01*
X169716212Y-111967000D01*
X169939788Y-111967000D01*
X170159067Y-111923383D01*
X170365624Y-111837824D01*
X170519930Y-111734720D01*
X170534550Y-111823588D01*
X170738826Y-111914458D01*
X170956905Y-111963731D01*
X171180406Y-111969511D01*
X171400740Y-111931577D01*
X171609440Y-111851387D01*
X171661450Y-111823588D01*
X171696561Y-111610166D01*
X171098000Y-111011605D01*
X171083858Y-111025748D01*
X170963000Y-110904890D01*
X170963000Y-110759110D01*
X171025110Y-110697000D01*
X171170890Y-110697000D01*
X171291748Y-110817858D01*
X171277605Y-110832000D01*
X171876166Y-111430561D01*
X172089588Y-111395450D01*
X172180458Y-111191174D01*
X172229731Y-110973095D01*
X172235511Y-110749594D01*
X172197577Y-110529260D01*
X172117387Y-110320560D01*
X172089588Y-110268550D01*
X172000720Y-110253930D01*
X172103824Y-110099624D01*
X172189383Y-109893067D01*
X172233000Y-109673788D01*
X172233000Y-109450212D01*
X172189383Y-109230933D01*
X172103824Y-109024376D01*
X172101094Y-109020290D01*
X172138002Y-108990001D01*
X172161805Y-108960998D01*
X172687803Y-108435000D01*
X172749940Y-108435000D01*
X172949899Y-108395226D01*
X173138257Y-108317205D01*
X173307775Y-108203937D01*
X173451938Y-108059774D01*
X173565206Y-107890256D01*
X173643227Y-107701898D01*
X173683001Y-107501939D01*
X173683001Y-107298061D01*
X173643227Y-107098102D01*
X173565206Y-106909744D01*
X173451938Y-106740226D01*
X173383708Y-106671996D01*
X173423610Y-106632093D01*
X173536878Y-106462575D01*
X173614899Y-106274217D01*
X173654673Y-106074258D01*
X173654673Y-105870380D01*
X173614899Y-105670421D01*
X173536878Y-105482063D01*
X173423610Y-105312545D01*
X173279447Y-105168382D01*
X173109929Y-105055114D01*
X172921571Y-104977093D01*
X172721612Y-104937319D01*
X172517734Y-104937319D01*
X172317775Y-104977093D01*
X172129417Y-105055114D01*
X171959899Y-105168382D01*
X171915962Y-105212319D01*
X171665003Y-105212319D01*
X171627680Y-105208643D01*
X171590357Y-105212319D01*
X171590348Y-105212319D01*
X171478695Y-105223316D01*
X171335434Y-105266773D01*
X171203405Y-105337345D01*
X171087680Y-105432318D01*
X171063882Y-105461317D01*
X170860198Y-105665000D01*
X170798061Y-105665000D01*
X170598102Y-105704774D01*
X170409744Y-105782795D01*
X170240226Y-105896063D01*
X170096063Y-106040226D01*
X169982795Y-106209744D01*
X169904774Y-106398102D01*
X169865000Y-106598061D01*
X169865000Y-106801939D01*
X169904774Y-107001898D01*
X169982795Y-107190256D01*
X170096063Y-107359774D01*
X170240226Y-107503937D01*
X170409744Y-107617205D01*
X170521001Y-107663289D01*
X170394064Y-107790226D01*
X170280796Y-107959744D01*
X170202775Y-108148102D01*
X170163001Y-108348061D01*
X170163001Y-108472247D01*
X170159067Y-108470617D01*
X169939788Y-108427000D01*
X169716212Y-108427000D01*
X169496933Y-108470617D01*
X169290376Y-108556176D01*
X169193000Y-108621241D01*
X169095624Y-108556176D01*
X168889067Y-108470617D01*
X168669788Y-108427000D01*
X168446212Y-108427000D01*
X168226933Y-108470617D01*
X168020376Y-108556176D01*
X167923000Y-108621241D01*
X167825624Y-108556176D01*
X167619067Y-108470617D01*
X167399788Y-108427000D01*
X167176212Y-108427000D01*
X166956933Y-108470617D01*
X166750376Y-108556176D01*
X166653000Y-108621241D01*
X166555624Y-108556176D01*
X166349067Y-108470617D01*
X166129788Y-108427000D01*
X165906212Y-108427000D01*
X165686933Y-108470617D01*
X165480376Y-108556176D01*
X165294480Y-108680388D01*
X165136388Y-108838480D01*
X165012176Y-109024376D01*
X164926617Y-109230933D01*
X164883000Y-109450212D01*
X110735001Y-109450212D01*
X110735001Y-102148061D01*
X130015000Y-102148061D01*
X130015000Y-102351939D01*
X130054774Y-102551898D01*
X130132795Y-102740256D01*
X130246063Y-102909774D01*
X130390226Y-103053937D01*
X130559744Y-103167205D01*
X130748102Y-103245226D01*
X130948061Y-103285000D01*
X131151939Y-103285000D01*
X131351898Y-103245226D01*
X131540256Y-103167205D01*
X131601191Y-103126490D01*
X131609744Y-103132205D01*
X131798102Y-103210226D01*
X131998061Y-103250000D01*
X132201939Y-103250000D01*
X132401898Y-103210226D01*
X132590256Y-103132205D01*
X132759774Y-103018937D01*
X132903937Y-102874774D01*
X133017205Y-102705256D01*
X133095226Y-102516898D01*
X133135000Y-102316939D01*
X133135000Y-102113061D01*
X133095226Y-101913102D01*
X133017205Y-101724744D01*
X132903937Y-101555226D01*
X132860000Y-101511289D01*
X132860000Y-98903711D01*
X132903937Y-98859774D01*
X133017205Y-98690256D01*
X133095226Y-98501898D01*
X133135000Y-98301939D01*
X133135000Y-98098061D01*
X161765000Y-98098061D01*
X161765000Y-98301939D01*
X161804774Y-98501898D01*
X161882795Y-98690256D01*
X161996063Y-98859774D01*
X162040001Y-98903712D01*
X162040000Y-99046289D01*
X161996063Y-99090226D01*
X161882795Y-99259744D01*
X161804774Y-99448102D01*
X161765000Y-99648061D01*
X161765000Y-99851939D01*
X161804774Y-100051898D01*
X161882795Y-100240256D01*
X161996063Y-100409774D01*
X162140226Y-100553937D01*
X162309744Y-100667205D01*
X162498102Y-100745226D01*
X162698061Y-100785000D01*
X162901939Y-100785000D01*
X163101898Y-100745226D01*
X163290256Y-100667205D01*
X163459774Y-100553937D01*
X163534500Y-100479211D01*
X163540226Y-100484937D01*
X163709744Y-100598205D01*
X163898102Y-100676226D01*
X164098061Y-100716000D01*
X164301939Y-100716000D01*
X164501898Y-100676226D01*
X164690256Y-100598205D01*
X164859774Y-100484937D01*
X165003937Y-100340774D01*
X165117205Y-100171256D01*
X165195226Y-99982898D01*
X165235000Y-99782939D01*
X165235000Y-99579061D01*
X165195226Y-99379102D01*
X165117205Y-99190744D01*
X165003937Y-99021226D01*
X164960000Y-98977289D01*
X164960000Y-98853711D01*
X165003937Y-98809774D01*
X165117205Y-98640256D01*
X165195226Y-98451898D01*
X165235000Y-98251939D01*
X165235000Y-98048061D01*
X165195226Y-97848102D01*
X165117205Y-97659744D01*
X165003937Y-97490226D01*
X164859774Y-97346063D01*
X164690256Y-97232795D01*
X164501898Y-97154774D01*
X164301939Y-97115000D01*
X164098061Y-97115000D01*
X163898102Y-97154774D01*
X163709744Y-97232795D01*
X163540226Y-97346063D01*
X163475000Y-97411289D01*
X163459774Y-97396063D01*
X163290256Y-97282795D01*
X163101898Y-97204774D01*
X162901939Y-97165000D01*
X162698061Y-97165000D01*
X162498102Y-97204774D01*
X162309744Y-97282795D01*
X162140226Y-97396063D01*
X161996063Y-97540226D01*
X161882795Y-97709744D01*
X161804774Y-97898102D01*
X161765000Y-98098061D01*
X133135000Y-98098061D01*
X133095226Y-97898102D01*
X133017205Y-97709744D01*
X132903937Y-97540226D01*
X132759774Y-97396063D01*
X132590256Y-97282795D01*
X132401898Y-97204774D01*
X132201939Y-97165000D01*
X131998061Y-97165000D01*
X131798102Y-97204774D01*
X131647123Y-97267312D01*
X131591636Y-97230237D01*
X131403278Y-97152216D01*
X131203319Y-97112442D01*
X130999441Y-97112442D01*
X130799482Y-97152216D01*
X130611124Y-97230237D01*
X130441606Y-97343505D01*
X130297443Y-97487668D01*
X130184175Y-97657186D01*
X130106154Y-97845544D01*
X130066380Y-98045503D01*
X130066380Y-98249381D01*
X130106154Y-98449340D01*
X130184175Y-98637698D01*
X130297443Y-98807216D01*
X130341380Y-98851153D01*
X130341381Y-101494908D01*
X130246063Y-101590226D01*
X130132795Y-101759744D01*
X130054774Y-101948102D01*
X130015000Y-102148061D01*
X110735001Y-102148061D01*
X110735001Y-90448061D01*
X151715000Y-90448061D01*
X151715000Y-90651939D01*
X151754774Y-90851898D01*
X151832795Y-91040256D01*
X151946063Y-91209774D01*
X152090226Y-91353937D01*
X152259744Y-91467205D01*
X152448102Y-91545226D01*
X152648061Y-91585000D01*
X152851939Y-91585000D01*
X153051898Y-91545226D01*
X153240256Y-91467205D01*
X153409774Y-91353937D01*
X153553937Y-91209774D01*
X153667205Y-91040256D01*
X153745226Y-90851898D01*
X153785000Y-90651939D01*
X153785000Y-90589801D01*
X154791172Y-89583630D01*
X154798061Y-89585000D01*
X155001939Y-89585000D01*
X155201898Y-89545226D01*
X155390256Y-89467205D01*
X155559774Y-89353937D01*
X155615650Y-89298061D01*
X157015000Y-89298061D01*
X157015000Y-89501939D01*
X157054774Y-89701898D01*
X157132795Y-89890256D01*
X157246063Y-90059774D01*
X157390226Y-90203937D01*
X157559744Y-90317205D01*
X157748102Y-90395226D01*
X157948061Y-90435000D01*
X158151939Y-90435000D01*
X158200533Y-90425334D01*
X158415000Y-90639802D01*
X158415000Y-90701939D01*
X158454774Y-90901898D01*
X158532795Y-91090256D01*
X158646063Y-91259774D01*
X158790226Y-91403937D01*
X158959744Y-91517205D01*
X159148102Y-91595226D01*
X159348061Y-91635000D01*
X159551939Y-91635000D01*
X159751898Y-91595226D01*
X159940256Y-91517205D01*
X160109774Y-91403937D01*
X160253937Y-91259774D01*
X160367205Y-91090256D01*
X160445226Y-90901898D01*
X160485000Y-90701939D01*
X160485000Y-90498061D01*
X160445226Y-90298102D01*
X160367205Y-90109744D01*
X160253937Y-89940226D01*
X160109774Y-89796063D01*
X159940256Y-89682795D01*
X159751898Y-89604774D01*
X159551939Y-89565000D01*
X159489802Y-89565000D01*
X159050769Y-89125968D01*
X159045226Y-89098102D01*
X158967205Y-88909744D01*
X158853937Y-88740226D01*
X158709774Y-88596063D01*
X158540256Y-88482795D01*
X158351898Y-88404774D01*
X158151939Y-88365000D01*
X157948061Y-88365000D01*
X157748102Y-88404774D01*
X157559744Y-88482795D01*
X157390226Y-88596063D01*
X157246063Y-88740226D01*
X157132795Y-88909744D01*
X157054774Y-89098102D01*
X157015000Y-89298061D01*
X155615650Y-89298061D01*
X155703937Y-89209774D01*
X155817205Y-89040256D01*
X155895226Y-88851898D01*
X155935000Y-88651939D01*
X155935000Y-88448061D01*
X155895226Y-88248102D01*
X155817205Y-88059744D01*
X155703937Y-87890226D01*
X155559774Y-87746063D01*
X155390256Y-87632795D01*
X155201898Y-87554774D01*
X155001939Y-87515000D01*
X154798061Y-87515000D01*
X154598102Y-87554774D01*
X154409744Y-87632795D01*
X154240226Y-87746063D01*
X154096063Y-87890226D01*
X153982795Y-88059744D01*
X153904774Y-88248102D01*
X153886816Y-88338382D01*
X152710199Y-89515000D01*
X152648061Y-89515000D01*
X152448102Y-89554774D01*
X152259744Y-89632795D01*
X152090226Y-89746063D01*
X151946063Y-89890226D01*
X151832795Y-90059744D01*
X151754774Y-90248102D01*
X151715000Y-90448061D01*
X110735001Y-90448061D01*
X110735001Y-84998061D01*
X129665000Y-84998061D01*
X129665000Y-85201939D01*
X129704774Y-85401898D01*
X129782795Y-85590256D01*
X129896063Y-85759774D01*
X130040226Y-85903937D01*
X130209744Y-86017205D01*
X130340000Y-86071159D01*
X130340001Y-86868178D01*
X130296063Y-86912116D01*
X130182795Y-87081634D01*
X130104774Y-87269992D01*
X130065000Y-87469951D01*
X130065000Y-87673829D01*
X130104774Y-87873788D01*
X130182795Y-88062146D01*
X130296063Y-88231664D01*
X130440226Y-88375827D01*
X130609744Y-88489095D01*
X130798102Y-88567116D01*
X130998061Y-88606890D01*
X131201939Y-88606890D01*
X131401898Y-88567116D01*
X131590256Y-88489095D01*
X131600000Y-88482584D01*
X131609744Y-88489095D01*
X131798102Y-88567116D01*
X131998061Y-88606890D01*
X132201939Y-88606890D01*
X132401898Y-88567116D01*
X132590256Y-88489095D01*
X132759774Y-88375827D01*
X132903937Y-88231664D01*
X133017205Y-88062146D01*
X133095226Y-87873788D01*
X133135000Y-87673829D01*
X133135000Y-87469951D01*
X133095226Y-87269992D01*
X133017205Y-87081634D01*
X132903937Y-86912116D01*
X132760000Y-86768179D01*
X132760000Y-86744951D01*
X135365000Y-86744951D01*
X135365000Y-86948829D01*
X135404774Y-87148788D01*
X135482795Y-87337146D01*
X135596063Y-87506664D01*
X135740226Y-87650827D01*
X135909744Y-87764095D01*
X136098102Y-87842116D01*
X136298061Y-87881890D01*
X136342390Y-87881890D01*
X136415254Y-88057797D01*
X136528522Y-88227315D01*
X136672685Y-88371478D01*
X136842203Y-88484746D01*
X137030561Y-88562767D01*
X137230520Y-88602541D01*
X137434398Y-88602541D01*
X137634357Y-88562767D01*
X137822715Y-88484746D01*
X137992233Y-88371478D01*
X138136396Y-88227315D01*
X138249664Y-88057797D01*
X138327685Y-87869439D01*
X138367459Y-87669480D01*
X138367459Y-87660000D01*
X138396289Y-87660000D01*
X138440226Y-87703937D01*
X138609744Y-87817205D01*
X138798102Y-87895226D01*
X138998061Y-87935000D01*
X139201939Y-87935000D01*
X139401898Y-87895226D01*
X139590256Y-87817205D01*
X139759774Y-87703937D01*
X139903937Y-87559774D01*
X140017205Y-87390256D01*
X140095226Y-87201898D01*
X140135000Y-87001939D01*
X140135000Y-86798061D01*
X140095226Y-86598102D01*
X140017205Y-86409744D01*
X139903937Y-86240226D01*
X139759774Y-86096063D01*
X139590256Y-85982795D01*
X139452552Y-85925756D01*
X139415226Y-85738102D01*
X139337205Y-85549744D01*
X139223937Y-85380226D01*
X139079774Y-85236063D01*
X138910256Y-85122795D01*
X138721898Y-85044774D01*
X138521939Y-85005000D01*
X138318061Y-85005000D01*
X138118102Y-85044774D01*
X137929744Y-85122795D01*
X137760226Y-85236063D01*
X137716289Y-85280000D01*
X137244215Y-85280000D01*
X137206890Y-85276324D01*
X137169565Y-85280000D01*
X137169557Y-85280000D01*
X137057904Y-85290997D01*
X136914643Y-85334454D01*
X136782614Y-85405026D01*
X136666889Y-85499999D01*
X136643091Y-85528998D01*
X136360198Y-85811890D01*
X136298061Y-85811890D01*
X136098102Y-85851664D01*
X135909744Y-85929685D01*
X135740226Y-86042953D01*
X135596063Y-86187116D01*
X135482795Y-86356634D01*
X135404774Y-86544992D01*
X135365000Y-86744951D01*
X132760000Y-86744951D01*
X132760000Y-85850601D01*
X132803937Y-85806664D01*
X132917205Y-85637146D01*
X132995226Y-85448788D01*
X133035000Y-85248829D01*
X133035000Y-85044951D01*
X132995226Y-84844992D01*
X132917205Y-84656634D01*
X132803937Y-84487116D01*
X132659774Y-84342953D01*
X132490256Y-84229685D01*
X132301898Y-84151664D01*
X132101939Y-84111890D01*
X131898061Y-84111890D01*
X131698102Y-84151664D01*
X131509744Y-84229685D01*
X131380053Y-84316342D01*
X131359774Y-84296063D01*
X131190256Y-84182795D01*
X131001898Y-84104774D01*
X130801939Y-84065000D01*
X130598061Y-84065000D01*
X130398102Y-84104774D01*
X130209744Y-84182795D01*
X130040226Y-84296063D01*
X129896063Y-84440226D01*
X129782795Y-84609744D01*
X129704774Y-84798102D01*
X129665000Y-84998061D01*
X110735001Y-84998061D01*
X110735001Y-81898061D01*
X160115000Y-81898061D01*
X160115000Y-82101939D01*
X160154774Y-82301898D01*
X160232795Y-82490256D01*
X160346063Y-82659774D01*
X160490226Y-82803937D01*
X160659744Y-82917205D01*
X160848102Y-82995226D01*
X161048061Y-83035000D01*
X161251939Y-83035000D01*
X161451898Y-82995226D01*
X161640256Y-82917205D01*
X161809774Y-82803937D01*
X161953937Y-82659774D01*
X162067205Y-82490256D01*
X162145226Y-82301898D01*
X162185000Y-82101939D01*
X162185000Y-81898061D01*
X162145226Y-81698102D01*
X162067205Y-81509744D01*
X161966209Y-81358592D01*
X162190843Y-81133959D01*
X162252980Y-81133959D01*
X162452939Y-81094185D01*
X162641297Y-81016164D01*
X162810815Y-80902896D01*
X162954978Y-80758733D01*
X163068246Y-80589215D01*
X163146267Y-80400857D01*
X163158372Y-80340000D01*
X170857815Y-80340000D01*
X170886487Y-80631111D01*
X170971401Y-80911034D01*
X171109294Y-81169014D01*
X171294866Y-81395134D01*
X171324687Y-81419607D01*
X171255820Y-81440498D01*
X171145506Y-81499463D01*
X171048815Y-81578815D01*
X170969463Y-81675506D01*
X170910498Y-81785820D01*
X170874188Y-81905518D01*
X170861928Y-82030000D01*
X170861928Y-83730000D01*
X170874188Y-83854482D01*
X170910498Y-83974180D01*
X170969463Y-84084494D01*
X171048815Y-84181185D01*
X171145506Y-84260537D01*
X171255820Y-84319502D01*
X171375518Y-84355812D01*
X171500000Y-84368072D01*
X173200000Y-84368072D01*
X173324482Y-84355812D01*
X173444180Y-84319502D01*
X173554494Y-84260537D01*
X173651185Y-84181185D01*
X173730537Y-84084494D01*
X173789502Y-83974180D01*
X173825812Y-83854482D01*
X173838072Y-83730000D01*
X173838072Y-82030000D01*
X173825812Y-81905518D01*
X173789502Y-81785820D01*
X173730537Y-81675506D01*
X173651185Y-81578815D01*
X173554494Y-81499463D01*
X173444180Y-81440498D01*
X173375313Y-81419607D01*
X173405134Y-81395134D01*
X173590706Y-81169014D01*
X173728599Y-80911034D01*
X173813513Y-80631111D01*
X173842185Y-80340000D01*
X173813513Y-80048889D01*
X173728599Y-79768966D01*
X173590706Y-79510986D01*
X173405134Y-79284866D01*
X173179014Y-79099294D01*
X173114477Y-79064799D01*
X173231355Y-78995178D01*
X173447588Y-78800269D01*
X173621641Y-78566920D01*
X173746825Y-78304099D01*
X173791476Y-78156890D01*
X173670155Y-77927000D01*
X172477000Y-77927000D01*
X172477000Y-77947000D01*
X172223000Y-77947000D01*
X172223000Y-77927000D01*
X171029845Y-77927000D01*
X170908524Y-78156890D01*
X170953175Y-78304099D01*
X171078359Y-78566920D01*
X171252412Y-78800269D01*
X171468645Y-78995178D01*
X171585523Y-79064799D01*
X171520986Y-79099294D01*
X171294866Y-79284866D01*
X171109294Y-79510986D01*
X170971401Y-79768966D01*
X170886487Y-80048889D01*
X170857815Y-80340000D01*
X163158372Y-80340000D01*
X163186041Y-80200898D01*
X163186041Y-79997020D01*
X163146267Y-79797061D01*
X163068246Y-79608703D01*
X162954978Y-79439185D01*
X162810815Y-79295022D01*
X162641297Y-79181754D01*
X162452939Y-79103733D01*
X162252980Y-79063959D01*
X162049102Y-79063959D01*
X161849143Y-79103733D01*
X161660785Y-79181754D01*
X161491267Y-79295022D01*
X161347104Y-79439185D01*
X161233836Y-79608703D01*
X161155815Y-79797061D01*
X161116041Y-79997020D01*
X161116041Y-80059157D01*
X160638998Y-80536201D01*
X160610000Y-80559999D01*
X160586202Y-80588997D01*
X160586201Y-80588998D01*
X160515026Y-80675724D01*
X160444454Y-80807754D01*
X160435614Y-80836898D01*
X160400998Y-80951014D01*
X160390000Y-81062667D01*
X160390000Y-81062678D01*
X160386324Y-81100000D01*
X160390000Y-81137322D01*
X160390000Y-81296289D01*
X160346063Y-81340226D01*
X160232795Y-81509744D01*
X160154774Y-81698102D01*
X160115000Y-81898061D01*
X110735001Y-81898061D01*
X110735001Y-79502410D01*
X141119349Y-79502410D01*
X141119349Y-79706288D01*
X141159123Y-79906247D01*
X141237144Y-80094605D01*
X141350412Y-80264123D01*
X141494575Y-80408286D01*
X141664093Y-80521554D01*
X141852451Y-80599575D01*
X142052410Y-80639349D01*
X142256288Y-80639349D01*
X142456247Y-80599575D01*
X142644605Y-80521554D01*
X142814123Y-80408286D01*
X142858060Y-80364349D01*
X145454548Y-80364349D01*
X145665000Y-80574801D01*
X145665000Y-80636939D01*
X145704774Y-80836898D01*
X145782795Y-81025256D01*
X145896063Y-81194774D01*
X146040226Y-81338937D01*
X146209744Y-81452205D01*
X146398102Y-81530226D01*
X146598061Y-81570000D01*
X146801939Y-81570000D01*
X147001898Y-81530226D01*
X147190256Y-81452205D01*
X147359774Y-81338937D01*
X147503937Y-81194774D01*
X147617205Y-81025256D01*
X147695226Y-80836898D01*
X147735000Y-80636939D01*
X147735000Y-80433061D01*
X147695226Y-80233102D01*
X147617205Y-80044744D01*
X147503937Y-79875226D01*
X147359774Y-79731063D01*
X147190256Y-79617795D01*
X147001898Y-79539774D01*
X146801939Y-79500000D01*
X146739801Y-79500000D01*
X146333152Y-79093351D01*
X146309350Y-79064348D01*
X146193625Y-78969375D01*
X146061596Y-78898803D01*
X145918335Y-78855346D01*
X145806682Y-78844349D01*
X145806671Y-78844349D01*
X145769349Y-78840673D01*
X145732027Y-78844349D01*
X142858060Y-78844349D01*
X142814123Y-78800412D01*
X142644605Y-78687144D01*
X142456247Y-78609123D01*
X142256288Y-78569349D01*
X142052410Y-78569349D01*
X141852451Y-78609123D01*
X141664093Y-78687144D01*
X141494575Y-78800412D01*
X141350412Y-78944575D01*
X141237144Y-79114093D01*
X141159123Y-79302451D01*
X141119349Y-79502410D01*
X110735001Y-79502410D01*
X110735001Y-76168061D01*
X146555000Y-76168061D01*
X146555000Y-76371939D01*
X146594774Y-76571898D01*
X146672795Y-76760256D01*
X146786063Y-76929774D01*
X146830001Y-76973712D01*
X146830000Y-77826289D01*
X146786063Y-77870226D01*
X146672795Y-78039744D01*
X146594774Y-78228102D01*
X146555000Y-78428061D01*
X146555000Y-78631939D01*
X146594774Y-78831898D01*
X146672795Y-79020256D01*
X146786063Y-79189774D01*
X146930226Y-79333937D01*
X147099744Y-79447205D01*
X147288102Y-79525226D01*
X147488061Y-79565000D01*
X147691939Y-79565000D01*
X147891898Y-79525226D01*
X148080256Y-79447205D01*
X148249774Y-79333937D01*
X148393937Y-79189774D01*
X148507205Y-79020256D01*
X148585226Y-78831898D01*
X148625000Y-78631939D01*
X148625000Y-78428061D01*
X148585226Y-78228102D01*
X148507205Y-78039744D01*
X148393937Y-77870226D01*
X148350000Y-77826289D01*
X148350000Y-76973711D01*
X148393937Y-76929774D01*
X148507205Y-76760256D01*
X148585226Y-76571898D01*
X148613836Y-76428061D01*
X156135000Y-76428061D01*
X156135000Y-76631939D01*
X156174774Y-76831898D01*
X156252795Y-77020256D01*
X156366063Y-77189774D01*
X156420001Y-77243712D01*
X156420000Y-77886289D01*
X156376063Y-77930226D01*
X156262795Y-78099744D01*
X156184774Y-78288102D01*
X156145000Y-78488061D01*
X156145000Y-78691939D01*
X156184774Y-78891898D01*
X156262795Y-79080256D01*
X156376063Y-79249774D01*
X156520226Y-79393937D01*
X156689744Y-79507205D01*
X156878102Y-79585226D01*
X157078061Y-79625000D01*
X157281939Y-79625000D01*
X157481898Y-79585226D01*
X157670256Y-79507205D01*
X157839774Y-79393937D01*
X157983937Y-79249774D01*
X158097205Y-79080256D01*
X158175226Y-78891898D01*
X158215000Y-78691939D01*
X158215000Y-78488061D01*
X158175226Y-78288102D01*
X158097205Y-78099744D01*
X157983937Y-77930226D01*
X157940000Y-77886289D01*
X157940000Y-77223711D01*
X157973937Y-77189774D01*
X158087205Y-77020256D01*
X158165226Y-76831898D01*
X158205000Y-76631939D01*
X158205000Y-76428061D01*
X158165226Y-76228102D01*
X158087205Y-76039744D01*
X157973937Y-75870226D01*
X157829774Y-75726063D01*
X157660256Y-75612795D01*
X157471898Y-75534774D01*
X157271939Y-75495000D01*
X157068061Y-75495000D01*
X156868102Y-75534774D01*
X156679744Y-75612795D01*
X156510226Y-75726063D01*
X156366063Y-75870226D01*
X156252795Y-76039744D01*
X156174774Y-76228102D01*
X156135000Y-76428061D01*
X148613836Y-76428061D01*
X148625000Y-76371939D01*
X148625000Y-76168061D01*
X148585226Y-75968102D01*
X148507205Y-75779744D01*
X148393937Y-75610226D01*
X148249774Y-75466063D01*
X148080256Y-75352795D01*
X147891898Y-75274774D01*
X147817624Y-75260000D01*
X170857815Y-75260000D01*
X170886487Y-75551111D01*
X170971401Y-75831034D01*
X171109294Y-76089014D01*
X171294866Y-76315134D01*
X171520986Y-76500706D01*
X171585523Y-76535201D01*
X171468645Y-76604822D01*
X171252412Y-76799731D01*
X171078359Y-77033080D01*
X170953175Y-77295901D01*
X170908524Y-77443110D01*
X171029845Y-77673000D01*
X172223000Y-77673000D01*
X172223000Y-77653000D01*
X172477000Y-77653000D01*
X172477000Y-77673000D01*
X173670155Y-77673000D01*
X173791476Y-77443110D01*
X173746825Y-77295901D01*
X173621641Y-77033080D01*
X173447588Y-76799731D01*
X173231355Y-76604822D01*
X173114477Y-76535201D01*
X173179014Y-76500706D01*
X173405134Y-76315134D01*
X173590706Y-76089014D01*
X173728599Y-75831034D01*
X173813513Y-75551111D01*
X173842185Y-75260000D01*
X173813513Y-74968889D01*
X173728599Y-74688966D01*
X173590706Y-74430986D01*
X173405134Y-74204866D01*
X173179014Y-74019294D01*
X172921034Y-73881401D01*
X172641111Y-73796487D01*
X172422950Y-73775000D01*
X172277050Y-73775000D01*
X172058889Y-73796487D01*
X171778966Y-73881401D01*
X171520986Y-74019294D01*
X171294866Y-74204866D01*
X171109294Y-74430986D01*
X170971401Y-74688966D01*
X170886487Y-74968889D01*
X170857815Y-75260000D01*
X147817624Y-75260000D01*
X147691939Y-75235000D01*
X147488061Y-75235000D01*
X147288102Y-75274774D01*
X147099744Y-75352795D01*
X146930226Y-75466063D01*
X146786063Y-75610226D01*
X146672795Y-75779744D01*
X146594774Y-75968102D01*
X146555000Y-76168061D01*
X110735001Y-76168061D01*
X110735001Y-69729963D01*
X112258267Y-69729963D01*
X112258267Y-70270037D01*
X112363630Y-70799734D01*
X112570308Y-71298698D01*
X112870357Y-71747753D01*
X113252248Y-72129644D01*
X113701303Y-72429693D01*
X114200267Y-72636371D01*
X114729964Y-72741734D01*
X115270038Y-72741734D01*
X115799735Y-72636371D01*
X116298699Y-72429693D01*
X116747754Y-72129644D01*
X117129645Y-71747753D01*
X117429694Y-71298698D01*
X117636372Y-70799734D01*
X117741735Y-70270037D01*
X117741735Y-69729963D01*
X117726309Y-69652408D01*
X126703000Y-69652408D01*
X126703000Y-69927592D01*
X126756686Y-70197490D01*
X126861995Y-70451727D01*
X127014880Y-70680535D01*
X127209465Y-70875120D01*
X127438273Y-71028005D01*
X127692510Y-71133314D01*
X127962408Y-71187000D01*
X128237592Y-71187000D01*
X128507490Y-71133314D01*
X128761727Y-71028005D01*
X128990535Y-70875120D01*
X129185120Y-70680535D01*
X129338005Y-70451727D01*
X129370000Y-70374485D01*
X129401995Y-70451727D01*
X129554880Y-70680535D01*
X129749465Y-70875120D01*
X129978273Y-71028005D01*
X130232510Y-71133314D01*
X130502408Y-71187000D01*
X130777592Y-71187000D01*
X131047490Y-71133314D01*
X131301727Y-71028005D01*
X131530535Y-70875120D01*
X131725120Y-70680535D01*
X131878005Y-70451727D01*
X131983314Y-70197490D01*
X132037000Y-69927592D01*
X132037000Y-69652408D01*
X132015369Y-69543664D01*
X132082629Y-69706043D01*
X132234201Y-69932886D01*
X132427114Y-70125799D01*
X132653957Y-70277371D01*
X132906011Y-70381775D01*
X133173589Y-70435000D01*
X133446411Y-70435000D01*
X133713989Y-70381775D01*
X133966043Y-70277371D01*
X134192886Y-70125799D01*
X134385799Y-69932886D01*
X134521388Y-69729963D01*
X167258266Y-69729963D01*
X167258266Y-70270037D01*
X167363629Y-70799734D01*
X167570307Y-71298698D01*
X167870356Y-71747753D01*
X168252247Y-72129644D01*
X168701302Y-72429693D01*
X169200266Y-72636371D01*
X169729963Y-72741734D01*
X170270037Y-72741734D01*
X170799734Y-72636371D01*
X171298698Y-72429693D01*
X171747753Y-72129644D01*
X172129644Y-71747753D01*
X172429693Y-71298698D01*
X172636371Y-70799734D01*
X172741734Y-70270037D01*
X172741734Y-69729963D01*
X172636371Y-69200266D01*
X172429693Y-68701302D01*
X172129644Y-68252247D01*
X171747753Y-67870356D01*
X171298698Y-67570307D01*
X170799734Y-67363629D01*
X170270037Y-67258266D01*
X169729963Y-67258266D01*
X169200266Y-67363629D01*
X168701302Y-67570307D01*
X168252247Y-67870356D01*
X167870356Y-68252247D01*
X167570307Y-68701302D01*
X167363629Y-69200266D01*
X167258266Y-69729963D01*
X134521388Y-69729963D01*
X134537371Y-69706043D01*
X134641775Y-69453989D01*
X134695000Y-69186411D01*
X134695000Y-68913589D01*
X134641775Y-68646011D01*
X134601343Y-68548397D01*
X138181208Y-68548397D01*
X138258843Y-68797472D01*
X138522883Y-68923371D01*
X138806411Y-68995339D01*
X139098531Y-69010611D01*
X139388019Y-68968599D01*
X139663747Y-68870919D01*
X139801157Y-68797472D01*
X139878792Y-68548397D01*
X139030000Y-67699605D01*
X138181208Y-68548397D01*
X134601343Y-68548397D01*
X134537371Y-68393957D01*
X134385799Y-68167114D01*
X134192886Y-67974201D01*
X133966043Y-67822629D01*
X133713989Y-67718225D01*
X133446411Y-67665000D01*
X133250203Y-67665000D01*
X133253314Y-67657490D01*
X133267030Y-67588531D01*
X137539389Y-67588531D01*
X137581401Y-67878019D01*
X137679081Y-68153747D01*
X137752528Y-68291157D01*
X138001603Y-68368792D01*
X138850395Y-67520000D01*
X139209605Y-67520000D01*
X140058397Y-68368792D01*
X140300689Y-68293271D01*
X140416525Y-68466632D01*
X140623368Y-68673475D01*
X140866589Y-68835990D01*
X141136842Y-68947932D01*
X141423740Y-69005000D01*
X141716260Y-69005000D01*
X142003158Y-68947932D01*
X142273411Y-68835990D01*
X142516632Y-68673475D01*
X142723475Y-68466632D01*
X142839415Y-68293115D01*
X142869294Y-68349014D01*
X143054866Y-68575134D01*
X143280986Y-68760706D01*
X143538966Y-68898599D01*
X143818889Y-68983513D01*
X144037050Y-69005000D01*
X144182950Y-69005000D01*
X144401111Y-68983513D01*
X144681034Y-68898599D01*
X144939014Y-68760706D01*
X145165134Y-68575134D01*
X145350706Y-68349014D01*
X145385201Y-68284477D01*
X145454822Y-68401355D01*
X145649731Y-68617588D01*
X145883080Y-68791641D01*
X146145901Y-68916825D01*
X146293110Y-68961476D01*
X146523000Y-68840155D01*
X146523000Y-67647000D01*
X146503000Y-67647000D01*
X146503000Y-67393000D01*
X146523000Y-67393000D01*
X146523000Y-66199845D01*
X146777000Y-66199845D01*
X146777000Y-67393000D01*
X146797000Y-67393000D01*
X146797000Y-67647000D01*
X146777000Y-67647000D01*
X146777000Y-68840155D01*
X147006890Y-68961476D01*
X147154099Y-68916825D01*
X147416920Y-68791641D01*
X147650269Y-68617588D01*
X147845178Y-68401355D01*
X147914799Y-68284477D01*
X147949294Y-68349014D01*
X148134866Y-68575134D01*
X148360986Y-68760706D01*
X148618966Y-68898599D01*
X148898889Y-68983513D01*
X149117050Y-69005000D01*
X149262950Y-69005000D01*
X149481111Y-68983513D01*
X149761034Y-68898599D01*
X150019014Y-68760706D01*
X150245134Y-68575134D01*
X150269607Y-68545313D01*
X150290498Y-68614180D01*
X150349463Y-68724494D01*
X150428815Y-68821185D01*
X150525506Y-68900537D01*
X150635820Y-68959502D01*
X150755518Y-68995812D01*
X150880000Y-69008072D01*
X152580000Y-69008072D01*
X152704482Y-68995812D01*
X152824180Y-68959502D01*
X152934494Y-68900537D01*
X153031185Y-68821185D01*
X153110537Y-68724494D01*
X153169502Y-68614180D01*
X153205812Y-68494482D01*
X153218072Y-68370000D01*
X153218072Y-67650000D01*
X155607815Y-67650000D01*
X155636487Y-67941111D01*
X155721401Y-68221034D01*
X155859294Y-68479014D01*
X156044866Y-68705134D01*
X156270986Y-68890706D01*
X156528966Y-69028599D01*
X156808889Y-69113513D01*
X157027050Y-69135000D01*
X157172950Y-69135000D01*
X157391111Y-69113513D01*
X157671034Y-69028599D01*
X157929014Y-68890706D01*
X158155134Y-68705134D01*
X158340706Y-68479014D01*
X158375201Y-68414477D01*
X158444822Y-68531355D01*
X158639731Y-68747588D01*
X158873080Y-68921641D01*
X159135901Y-69046825D01*
X159283110Y-69091476D01*
X159513000Y-68970155D01*
X159513000Y-67777000D01*
X159493000Y-67777000D01*
X159493000Y-67523000D01*
X159513000Y-67523000D01*
X159513000Y-66329845D01*
X159767000Y-66329845D01*
X159767000Y-67523000D01*
X159787000Y-67523000D01*
X159787000Y-67777000D01*
X159767000Y-67777000D01*
X159767000Y-68970155D01*
X159996890Y-69091476D01*
X160144099Y-69046825D01*
X160406920Y-68921641D01*
X160640269Y-68747588D01*
X160835178Y-68531355D01*
X160904799Y-68414477D01*
X160939294Y-68479014D01*
X161124866Y-68705134D01*
X161350986Y-68890706D01*
X161608966Y-69028599D01*
X161888889Y-69113513D01*
X162107050Y-69135000D01*
X162252950Y-69135000D01*
X162471111Y-69113513D01*
X162751034Y-69028599D01*
X163009014Y-68890706D01*
X163235134Y-68705134D01*
X163259607Y-68675313D01*
X163280498Y-68744180D01*
X163339463Y-68854494D01*
X163418815Y-68951185D01*
X163515506Y-69030537D01*
X163625820Y-69089502D01*
X163745518Y-69125812D01*
X163870000Y-69138072D01*
X165570000Y-69138072D01*
X165694482Y-69125812D01*
X165814180Y-69089502D01*
X165924494Y-69030537D01*
X166021185Y-68951185D01*
X166100537Y-68854494D01*
X166159502Y-68744180D01*
X166195812Y-68624482D01*
X166208072Y-68500000D01*
X166208072Y-66800000D01*
X166195812Y-66675518D01*
X166159502Y-66555820D01*
X166100537Y-66445506D01*
X166021185Y-66348815D01*
X165924494Y-66269463D01*
X165814180Y-66210498D01*
X165694482Y-66174188D01*
X165570000Y-66161928D01*
X163870000Y-66161928D01*
X163745518Y-66174188D01*
X163625820Y-66210498D01*
X163515506Y-66269463D01*
X163418815Y-66348815D01*
X163339463Y-66445506D01*
X163280498Y-66555820D01*
X163259607Y-66624687D01*
X163235134Y-66594866D01*
X163009014Y-66409294D01*
X162751034Y-66271401D01*
X162471111Y-66186487D01*
X162252950Y-66165000D01*
X162107050Y-66165000D01*
X161888889Y-66186487D01*
X161608966Y-66271401D01*
X161350986Y-66409294D01*
X161124866Y-66594866D01*
X160939294Y-66820986D01*
X160904799Y-66885523D01*
X160835178Y-66768645D01*
X160640269Y-66552412D01*
X160406920Y-66378359D01*
X160144099Y-66253175D01*
X159996890Y-66208524D01*
X159767000Y-66329845D01*
X159513000Y-66329845D01*
X159283110Y-66208524D01*
X159135901Y-66253175D01*
X158873080Y-66378359D01*
X158639731Y-66552412D01*
X158444822Y-66768645D01*
X158375201Y-66885523D01*
X158340706Y-66820986D01*
X158155134Y-66594866D01*
X157929014Y-66409294D01*
X157671034Y-66271401D01*
X157391111Y-66186487D01*
X157172950Y-66165000D01*
X157027050Y-66165000D01*
X156808889Y-66186487D01*
X156528966Y-66271401D01*
X156270986Y-66409294D01*
X156044866Y-66594866D01*
X155859294Y-66820986D01*
X155721401Y-67078966D01*
X155636487Y-67358889D01*
X155607815Y-67650000D01*
X153218072Y-67650000D01*
X153218072Y-66670000D01*
X153205812Y-66545518D01*
X153169502Y-66425820D01*
X153110537Y-66315506D01*
X153031185Y-66218815D01*
X152934494Y-66139463D01*
X152824180Y-66080498D01*
X152704482Y-66044188D01*
X152580000Y-66031928D01*
X150880000Y-66031928D01*
X150755518Y-66044188D01*
X150635820Y-66080498D01*
X150525506Y-66139463D01*
X150428815Y-66218815D01*
X150349463Y-66315506D01*
X150290498Y-66425820D01*
X150269607Y-66494687D01*
X150245134Y-66464866D01*
X150019014Y-66279294D01*
X149761034Y-66141401D01*
X149481111Y-66056487D01*
X149262950Y-66035000D01*
X149117050Y-66035000D01*
X148898889Y-66056487D01*
X148618966Y-66141401D01*
X148360986Y-66279294D01*
X148134866Y-66464866D01*
X147949294Y-66690986D01*
X147914799Y-66755523D01*
X147845178Y-66638645D01*
X147650269Y-66422412D01*
X147416920Y-66248359D01*
X147154099Y-66123175D01*
X147006890Y-66078524D01*
X146777000Y-66199845D01*
X146523000Y-66199845D01*
X146293110Y-66078524D01*
X146145901Y-66123175D01*
X145883080Y-66248359D01*
X145649731Y-66422412D01*
X145454822Y-66638645D01*
X145385201Y-66755523D01*
X145350706Y-66690986D01*
X145165134Y-66464866D01*
X144939014Y-66279294D01*
X144681034Y-66141401D01*
X144401111Y-66056487D01*
X144182950Y-66035000D01*
X144037050Y-66035000D01*
X143818889Y-66056487D01*
X143538966Y-66141401D01*
X143280986Y-66279294D01*
X143054866Y-66464866D01*
X142869294Y-66690986D01*
X142839415Y-66746885D01*
X142723475Y-66573368D01*
X142516632Y-66366525D01*
X142273411Y-66204010D01*
X142003158Y-66092068D01*
X141716260Y-66035000D01*
X141423740Y-66035000D01*
X141136842Y-66092068D01*
X140866589Y-66204010D01*
X140623368Y-66366525D01*
X140416525Y-66573368D01*
X140300689Y-66746729D01*
X140058397Y-66671208D01*
X139209605Y-67520000D01*
X138850395Y-67520000D01*
X138001603Y-66671208D01*
X137752528Y-66748843D01*
X137626629Y-67012883D01*
X137554661Y-67296411D01*
X137539389Y-67588531D01*
X133267030Y-67588531D01*
X133307000Y-67387592D01*
X133307000Y-67112408D01*
X133253314Y-66842510D01*
X133148005Y-66588273D01*
X133083413Y-66491603D01*
X138181208Y-66491603D01*
X139030000Y-67340395D01*
X139878792Y-66491603D01*
X139801157Y-66242528D01*
X139537117Y-66116629D01*
X139253589Y-66044661D01*
X138961469Y-66029389D01*
X138671981Y-66071401D01*
X138396253Y-66169081D01*
X138258843Y-66242528D01*
X138181208Y-66491603D01*
X133083413Y-66491603D01*
X132995120Y-66359465D01*
X132800535Y-66164880D01*
X132571727Y-66011995D01*
X132317490Y-65906686D01*
X132047592Y-65853000D01*
X131772408Y-65853000D01*
X131502510Y-65906686D01*
X131248273Y-66011995D01*
X131019465Y-66164880D01*
X130824880Y-66359465D01*
X130671995Y-66588273D01*
X130640000Y-66665515D01*
X130608005Y-66588273D01*
X130455120Y-66359465D01*
X130260535Y-66164880D01*
X130031727Y-66011995D01*
X129777490Y-65906686D01*
X129507592Y-65853000D01*
X129232408Y-65853000D01*
X128962510Y-65906686D01*
X128708273Y-66011995D01*
X128479465Y-66164880D01*
X128284880Y-66359465D01*
X128131995Y-66588273D01*
X128026686Y-66842510D01*
X127973000Y-67112408D01*
X127973000Y-67387592D01*
X128026686Y-67657490D01*
X128131995Y-67911727D01*
X128284880Y-68140535D01*
X128479465Y-68335120D01*
X128708273Y-68488005D01*
X128962510Y-68593314D01*
X129232408Y-68647000D01*
X129507592Y-68647000D01*
X129777490Y-68593314D01*
X130031727Y-68488005D01*
X130260535Y-68335120D01*
X130455120Y-68140535D01*
X130608005Y-67911727D01*
X130640000Y-67834485D01*
X130671995Y-67911727D01*
X130824880Y-68140535D01*
X131019465Y-68335120D01*
X131248273Y-68488005D01*
X131502510Y-68593314D01*
X131772408Y-68647000D01*
X131978028Y-68647000D01*
X131925000Y-68913589D01*
X131925000Y-69186411D01*
X131946169Y-69292835D01*
X131878005Y-69128273D01*
X131725120Y-68899465D01*
X131530535Y-68704880D01*
X131301727Y-68551995D01*
X131047490Y-68446686D01*
X130777592Y-68393000D01*
X130502408Y-68393000D01*
X130232510Y-68446686D01*
X129978273Y-68551995D01*
X129749465Y-68704880D01*
X129554880Y-68899465D01*
X129401995Y-69128273D01*
X129370000Y-69205515D01*
X129338005Y-69128273D01*
X129185120Y-68899465D01*
X128990535Y-68704880D01*
X128761727Y-68551995D01*
X128507490Y-68446686D01*
X128237592Y-68393000D01*
X127962408Y-68393000D01*
X127692510Y-68446686D01*
X127438273Y-68551995D01*
X127209465Y-68704880D01*
X127014880Y-68899465D01*
X126861995Y-69128273D01*
X126756686Y-69382510D01*
X126703000Y-69652408D01*
X117726309Y-69652408D01*
X117636372Y-69200266D01*
X117429694Y-68701302D01*
X117129645Y-68252247D01*
X116747754Y-67870356D01*
X116298699Y-67570307D01*
X115799735Y-67363629D01*
X115270038Y-67258266D01*
X114729964Y-67258266D01*
X114200267Y-67363629D01*
X113701303Y-67570307D01*
X113252248Y-67870356D01*
X112870357Y-68252247D01*
X112570308Y-68701302D01*
X112363630Y-69200266D01*
X112258267Y-69729963D01*
X110735001Y-69729963D01*
X110735001Y-69035945D01*
X110800639Y-68366512D01*
X110984618Y-67757146D01*
X111283450Y-67195125D01*
X111685754Y-66701853D01*
X112176206Y-66296116D01*
X112736129Y-65993366D01*
X113344189Y-65805140D01*
X114011523Y-65735000D01*
X170964056Y-65735000D01*
X171633489Y-65800638D01*
G36*
X168693000Y-110759110D02*
G01*
X168693000Y-110904890D01*
X168572143Y-111025748D01*
X168558000Y-111011605D01*
X168543858Y-111025748D01*
X168421533Y-110903423D01*
X168425325Y-110756785D01*
X168485110Y-110697000D01*
X168630890Y-110697000D01*
X168693000Y-110759110D01*
X168693000Y-110759110D01*
G37*
X168693000Y-110759110D02*
X168693000Y-110904890D01*
X168572143Y-111025748D01*
X168558000Y-111011605D01*
X168543858Y-111025748D01*
X168421533Y-110903423D01*
X168425325Y-110756785D01*
X168485110Y-110697000D01*
X168630890Y-110697000D01*
X168693000Y-110759110D01*
G36*
X167424467Y-110760577D02*
G01*
X167420675Y-110907215D01*
X167302143Y-111025748D01*
X167288000Y-111011605D01*
X167273858Y-111025748D01*
X167153000Y-110904890D01*
X167153000Y-110759110D01*
X167215110Y-110697000D01*
X167360890Y-110697000D01*
X167424467Y-110760577D01*
X167424467Y-110760577D01*
G37*
X167424467Y-110760577D02*
X167420675Y-110907215D01*
X167302143Y-111025748D01*
X167288000Y-111011605D01*
X167273858Y-111025748D01*
X167153000Y-110904890D01*
X167153000Y-110759110D01*
X167215110Y-110697000D01*
X167360890Y-110697000D01*
X167424467Y-110760577D01*
M02*
