G04 #@! TF.GenerationSoftware,KiCad,Pcbnew,(5.1.4-0)*
G04 #@! TF.CreationDate,2021-02-17T15:57:59+01:00*
G04 #@! TF.ProjectId,DCU,4443552e-6b69-4636-9164-5f7063625858,rev?*
G04 #@! TF.SameCoordinates,Original*
G04 #@! TF.FileFunction,Soldermask,Bot*
G04 #@! TF.FilePolarity,Negative*
%FSLAX46Y46*%
G04 Gerber Fmt 4.6, Leading zero omitted, Abs format (unit mm)*
G04 Created by KiCad (PCBNEW (5.1.4-0)) date 2021-02-17 15:57:59*
%MOMM*%
%LPD*%
G04 APERTURE LIST*
%ADD10C,1.500000*%
%ADD11C,1.524000*%
%ADD12O,1.700000X1.700000*%
%ADD13R,1.700000X1.700000*%
%ADD14C,1.700000*%
%ADD15C,1.000000*%
G04 APERTURE END LIST*
D10*
X133310000Y-69050000D03*
D11*
X128100000Y-69790000D03*
X129370000Y-67250000D03*
X130640000Y-69790000D03*
X131910000Y-67250000D03*
D12*
X172350000Y-75260000D03*
X172350000Y-77800000D03*
X172350000Y-80340000D03*
D13*
X172350000Y-82880000D03*
D12*
X157100000Y-67650000D03*
X159640000Y-67650000D03*
X162180000Y-67650000D03*
D13*
X164720000Y-67650000D03*
X151730000Y-67520000D03*
D12*
X149190000Y-67520000D03*
X146650000Y-67520000D03*
X144110000Y-67520000D03*
D14*
X141570000Y-67520000D03*
X139030000Y-67520000D03*
D11*
X148080000Y-130210000D03*
X146810000Y-132750000D03*
X145540000Y-130210000D03*
X144270000Y-132750000D03*
D10*
X135250000Y-130950000D03*
D11*
X143000000Y-130210000D03*
X141730000Y-132750000D03*
X140460000Y-130210000D03*
X139190000Y-132750000D03*
X137920000Y-130210000D03*
X136650000Y-132750000D03*
D15*
X166018000Y-110832000D03*
X166018000Y-109562000D03*
X167288000Y-110832000D03*
X167288000Y-109562000D03*
X168558000Y-110832000D03*
X168558000Y-109562000D03*
X169828000Y-110832000D03*
X169828000Y-109562000D03*
X171098000Y-110832000D03*
X171098000Y-109562000D03*
D11*
X162885000Y-124400000D03*
X165425000Y-124400000D03*
X167965000Y-124400000D03*
M02*
