M48
; DRILL file {KiCad (5.1.4-0)} date 2021 February 17, Wednesday 15:58:01
; FORMAT={-:-/ absolute / inch / decimal}
; #@! TF.CreationDate,2021-02-17T15:58:01+01:00
; #@! TF.GenerationSoftware,Kicad,Pcbnew,(5.1.4-0)
; #@! TF.FileFunction,Plated,1,2,PTH
FMAT,2
INCH
T1C0.0157
T2C0.0276
T3C0.0300
T4C0.0315
T5C0.0354
T6C0.0394
%
G90
G05
T1
X4.4358Y-4.5996
X4.4626Y-3.6988
X4.4626Y-3.7461
X4.4626Y-4.1831
X4.4626Y-4.2165
X4.6425Y-3.3106
X4.6516Y-4.2894
X4.6713Y-3.6181
X4.7461Y-4.4587
X4.7539Y-3.8228
X4.7874Y-3.6969
X4.7972Y-4.2854
X4.8366Y-4.3268
X4.8386Y-3.502
X4.8469Y-4.5894
X4.8476Y-3.2953
X4.9055Y-4.4685
X4.9252Y-4.5079
X4.9984Y-4.5354
X5.0008Y-4.6205
X5.0394Y-3.7087
X5.0394Y-3.7441
X5.0421Y-3.4571
X5.0472Y-4.1772
X5.0472Y-4.2244
X5.1331Y-4.4827
X5.1417Y-4.6181
X5.1457Y-3.3504
X5.1594Y-4.0256
X5.1614Y-3.4477
X5.1615Y-3.8641
X5.1969Y-3.3522
X5.2008Y-3.4477
X5.2008Y-3.8661
X5.2008Y-4.0242
X5.2122Y-4.9563
X5.223Y-5.0189
X5.2638Y-4.7067
X5.2815Y-3.7067
X5.2815Y-3.7441
X5.2874Y-3.0846
X5.2874Y-4.1772
X5.2874Y-4.2244
X5.3091Y-4.9567
X5.3091Y-5.0193
X5.3173Y-3.2276
X5.3661Y-4.9055
X5.3701Y-3.4192
X5.3736Y-2.7051
X5.3811Y-4.5157
X5.4068Y-3.4475
X5.4161Y-4.7784
X5.439Y-3.6319
X5.4439Y-4.8062
X5.4496Y-3.3874
X5.4642Y-4.7319
X5.4646Y-4.2854
X5.4705Y-3.0098
X5.4764Y-3.4213
X5.4783Y-2.7224
X5.4862Y-3.6181
X5.4877Y-4.5291
X5.4902Y-4.4213
X5.4961Y-4.7637
X5.5177Y-2.9862
X5.5728Y-3.4035
X5.5827Y-4.5295
X5.5846Y-3.752
X5.5925Y-3.687
X5.5966Y-3.134
X5.6299Y-5.0669
X5.6529Y-4.2859
X5.6555Y-3.5138
X5.6921Y-4.8992
X5.7029Y-4.3059
X5.7106Y-4.5807
X5.7264Y-4.439
X5.7421Y-3.3504
X5.7756Y-3.1707
X5.7854Y-5.0787
X5.8106Y-3.0028
X5.8106Y-3.0917
X5.815Y-2.7165
X5.8169Y-3.4705
X5.8425Y-5.2224
X5.8681Y-3.7106
X5.8681Y-3.7461
X5.8681Y-4.1752
X5.8681Y-4.2165
X5.8744Y-2.902
X5.9055Y-4.7283
X5.9469Y-3.3209
X5.9783Y-4.0079
X5.9921Y-4.6831
X6.0079Y-4.0295
X6.0138Y-3.565
X6.0669Y-3.0984
X6.0689Y-4.437
X6.0984Y-3.4862
X6.1378Y-3.5748
X6.1398Y-3.876
X6.1398Y-4.435
X6.1417Y-2.8976
X6.1594Y-4.9961
X6.1614Y-4.7598
X6.1791Y-3.5374
X6.1878Y-3.013
X6.1882Y-3.0941
X6.189Y-3.8681
X6.2224Y-3.5197
X6.2323Y-3.1969
X6.2591Y-3.948
X6.2776Y-3.5669
X6.2795Y-3.7913
X6.2835Y-2.7283
X6.3031Y-4.6299
X6.315Y-4.4508
X6.3268Y-3.7598
X6.3406Y-4.0079
X6.3445Y-3.2283
X6.3504Y-4.4508
X6.3563Y-3.3583
X6.3839Y-3.1535
X6.3957Y-4.2854
X6.4094Y-3.8661
X6.4094Y-3.9272
X6.4449Y-3.4862
X6.4646Y-3.8642
X6.4646Y-3.9244
X6.4705Y-4.2579
X6.4829Y-4.0059
X6.4921Y-4.5512
X6.5157Y-4.9646
X6.5197Y-3.7874
X6.5295Y-3.5748
X6.5669Y-3.9272
X6.5787Y-3.8425
X6.5866Y-4.4114
X6.6004Y-3.6299
X6.6142Y-4.5886
X6.6189Y-2.9496
X6.6378Y-4.4114
X6.6449Y-4.1894
X6.685Y-4.1831
X6.7185Y-3.0669
X6.7283Y-4.2008
X6.7362Y-4.4094
X6.7401Y-4.2697
X6.7402Y-3.8169
X6.7579Y-3.5906
X6.7657Y-3.9685
X6.7961Y-4.1721
X6.7972Y-4.2283
T2
X6.5361Y-4.3135
X6.5361Y-4.3635
X6.5861Y-4.3135
X6.5861Y-4.3635
X6.6361Y-4.3135
X6.6361Y-4.3635
X6.6861Y-4.3135
X6.6861Y-4.3635
X6.7361Y-4.3135
X6.7361Y-4.3635
T3
X5.6799Y-5.2264
X5.7299Y-5.1264
X5.7799Y-5.2264
X5.8299Y-5.1264
T4
X5.3799Y-5.2264
X5.4299Y-5.1264
X5.4799Y-5.2264
X5.5299Y-5.1264
X5.5799Y-5.2264
X5.6299Y-5.1264
X5.0433Y-2.7476
X5.0933Y-2.6476
X5.1433Y-2.7476
X5.1933Y-2.6476
T5
X6.4128Y-4.8976
X6.5128Y-4.8976
X6.6128Y-4.8976
T6
X5.4736Y-2.6583
X5.5736Y-2.6583
X5.6736Y-2.6583
X5.7736Y-2.6583
X5.8736Y-2.6583
X5.9736Y-2.6583
X6.185Y-2.6634
X6.285Y-2.6634
X6.385Y-2.6634
X6.485Y-2.6634
X6.7854Y-2.963
X6.7854Y-3.063
X6.7854Y-3.163
X6.7854Y-3.263
T0
M30
