M48
; DRILL file {KiCad (5.1.4-0)} date 2021 February 17, Wednesday 16:05:57
; FORMAT={-:-/ absolute / inch / decimal}
; #@! TF.CreationDate,2021-02-17T16:05:57+01:00
; #@! TF.GenerationSoftware,Kicad,Pcbnew,(5.1.4-0)
; #@! TF.FileFunction,Plated,1,2,PTH
FMAT,2
INCH
T1C0.0300
T2C0.0315
T3C0.0354
%
G90
G05
T1
X4.4976Y-5.5102
X4.5476Y-5.6102
X4.5976Y-5.5102
X4.6476Y-5.6102
X4.6976Y-5.5102
X4.7476Y-5.6102
X4.7976Y-5.5102
X4.8476Y-5.6102
T2
X4.8976Y-5.5102
X4.9476Y-5.6102
X4.9976Y-5.5102
X5.0476Y-5.6102
X5.0976Y-5.5102
X5.1476Y-5.6102
T3
X3.6446Y-5.0334
X3.7446Y-5.0334
X3.6446Y-3.1437
X3.7446Y-3.1437
X7.4349Y-5.2252
X7.4349Y-5.3252
X5.0715Y-5.2252
X5.0715Y-5.3252
X3.6446Y-4.0886
X3.7446Y-4.0886
X6.0164Y-5.2252
X6.0164Y-5.3252
X3.6446Y-4.561
X6.9613Y-5.3252
X6.9613Y-5.2252
X3.7446Y-4.561
X4.6003Y-5.2252
X4.6003Y-5.3252
X3.6446Y-3.6161
X6.4888Y-5.2252
X6.4888Y-5.3252
X5.5439Y-5.2252
X5.5439Y-5.3252
X3.7446Y-3.6161
T0
M30
