%TF.GenerationSoftware,KiCad,Pcbnew,(5.1.4-0)*%
%TF.CreationDate,2021-02-17T16:05:53+01:00*%
%TF.ProjectId,Indicators,496e6469-6361-4746-9f72-732e6b696361,rev?*%
%TF.SameCoordinates,Original*%
%TF.FileFunction,Legend,Bot*%
%TF.FilePolarity,Positive*%
%FSLAX46Y46*%
G04 Gerber Fmt 4.6, Leading zero omitted, Abs format (unit mm)*
G04 Created by KiCad (PCBNEW (5.1.4-0)) date 2021-02-17 16:05:53*
%MOMM*%
%LPD*%
G04 APERTURE LIST*
%ADD10C,0.300000*%
%ADD11C,0.150000*%
G04 APERTURE END LIST*
D10*
X167900857Y-126432571D02*
X167043714Y-126432571D01*
X167472285Y-127932571D02*
X167472285Y-126432571D01*
X166329428Y-127932571D02*
X166472285Y-127861142D01*
X166543714Y-127789714D01*
X166615142Y-127646857D01*
X166615142Y-127218285D01*
X166543714Y-127075428D01*
X166472285Y-127004000D01*
X166329428Y-126932571D01*
X166115142Y-126932571D01*
X165972285Y-127004000D01*
X165900857Y-127075428D01*
X165829428Y-127218285D01*
X165829428Y-127646857D01*
X165900857Y-127789714D01*
X165972285Y-127861142D01*
X166115142Y-127932571D01*
X166329428Y-127932571D01*
X165186571Y-127932571D02*
X165186571Y-126932571D01*
X165186571Y-127218285D02*
X165115142Y-127075428D01*
X165043714Y-127004000D01*
X164900857Y-126932571D01*
X164758000Y-126932571D01*
X163686571Y-127861142D02*
X163829428Y-127932571D01*
X164115142Y-127932571D01*
X164258000Y-127861142D01*
X164329428Y-127718285D01*
X164329428Y-127146857D01*
X164258000Y-127004000D01*
X164115142Y-126932571D01*
X163829428Y-126932571D01*
X163686571Y-127004000D01*
X163615142Y-127146857D01*
X163615142Y-127289714D01*
X164329428Y-127432571D01*
X161400857Y-126432571D02*
X161400857Y-127504000D01*
X161472285Y-127718285D01*
X161615142Y-127861142D01*
X161829428Y-127932571D01*
X161972285Y-127932571D01*
X160472285Y-127932571D02*
X160615142Y-127861142D01*
X160686571Y-127789714D01*
X160758000Y-127646857D01*
X160758000Y-127218285D01*
X160686571Y-127075428D01*
X160615142Y-127004000D01*
X160472285Y-126932571D01*
X160258000Y-126932571D01*
X160115142Y-127004000D01*
X160043714Y-127075428D01*
X159972285Y-127218285D01*
X159972285Y-127646857D01*
X160043714Y-127789714D01*
X160115142Y-127861142D01*
X160258000Y-127932571D01*
X160472285Y-127932571D01*
X159329428Y-127932571D02*
X159329428Y-126432571D01*
X158686571Y-127932571D02*
X158686571Y-127146857D01*
X158758000Y-127004000D01*
X158900857Y-126932571D01*
X159115142Y-126932571D01*
X159258000Y-127004000D01*
X159329428Y-127075428D01*
X157329428Y-127932571D02*
X157329428Y-127146857D01*
X157400857Y-127004000D01*
X157543714Y-126932571D01*
X157829428Y-126932571D01*
X157972285Y-127004000D01*
X157329428Y-127861142D02*
X157472285Y-127932571D01*
X157829428Y-127932571D01*
X157972285Y-127861142D01*
X158043714Y-127718285D01*
X158043714Y-127575428D01*
X157972285Y-127432571D01*
X157829428Y-127361142D01*
X157472285Y-127361142D01*
X157329428Y-127289714D01*
X156615142Y-126932571D02*
X156615142Y-127932571D01*
X156615142Y-127075428D02*
X156543714Y-127004000D01*
X156400857Y-126932571D01*
X156186571Y-126932571D01*
X156043714Y-127004000D01*
X155972285Y-127146857D01*
X155972285Y-127932571D01*
X155329428Y-127861142D02*
X155186571Y-127932571D01*
X154900857Y-127932571D01*
X154758000Y-127861142D01*
X154686571Y-127718285D01*
X154686571Y-127646857D01*
X154758000Y-127504000D01*
X154900857Y-127432571D01*
X155115142Y-127432571D01*
X155258000Y-127361142D01*
X155329428Y-127218285D01*
X155329428Y-127146857D01*
X155258000Y-127004000D01*
X155115142Y-126932571D01*
X154900857Y-126932571D01*
X154758000Y-127004000D01*
X154115142Y-127861142D02*
X153972285Y-127932571D01*
X153686571Y-127932571D01*
X153543714Y-127861142D01*
X153472285Y-127718285D01*
X153472285Y-127646857D01*
X153543714Y-127504000D01*
X153686571Y-127432571D01*
X153900857Y-127432571D01*
X154043714Y-127361142D01*
X154115142Y-127218285D01*
X154115142Y-127146857D01*
X154043714Y-127004000D01*
X153900857Y-126932571D01*
X153686571Y-126932571D01*
X153543714Y-127004000D01*
X152615142Y-127932571D02*
X152758000Y-127861142D01*
X152829428Y-127789714D01*
X152900857Y-127646857D01*
X152900857Y-127218285D01*
X152829428Y-127075428D01*
X152758000Y-127004000D01*
X152615142Y-126932571D01*
X152400857Y-126932571D01*
X152258000Y-127004000D01*
X152186571Y-127075428D01*
X152115142Y-127218285D01*
X152115142Y-127646857D01*
X152186571Y-127789714D01*
X152258000Y-127861142D01*
X152400857Y-127932571D01*
X152615142Y-127932571D01*
X151472285Y-126932571D02*
X151472285Y-127932571D01*
X151472285Y-127075428D02*
X151400857Y-127004000D01*
X151258000Y-126932571D01*
X151043714Y-126932571D01*
X150900857Y-127004000D01*
X150829428Y-127146857D01*
X150829428Y-127932571D01*
X195789857Y-128181571D02*
X195789857Y-126681571D01*
X195789857Y-127395857D02*
X194932714Y-127395857D01*
X194932714Y-128181571D02*
X194932714Y-126681571D01*
X194004142Y-128181571D02*
X194147000Y-128110142D01*
X194218428Y-128038714D01*
X194289857Y-127895857D01*
X194289857Y-127467285D01*
X194218428Y-127324428D01*
X194147000Y-127253000D01*
X194004142Y-127181571D01*
X193789857Y-127181571D01*
X193647000Y-127253000D01*
X193575571Y-127324428D01*
X193504142Y-127467285D01*
X193504142Y-127895857D01*
X193575571Y-128038714D01*
X193647000Y-128110142D01*
X193789857Y-128181571D01*
X194004142Y-128181571D01*
X192647000Y-128181571D02*
X192789857Y-128110142D01*
X192861285Y-127967285D01*
X192861285Y-126681571D01*
X191432714Y-127181571D02*
X191432714Y-128395857D01*
X191504142Y-128538714D01*
X191575571Y-128610142D01*
X191718428Y-128681571D01*
X191932714Y-128681571D01*
X192075571Y-128610142D01*
X191432714Y-128110142D02*
X191575571Y-128181571D01*
X191861285Y-128181571D01*
X192004142Y-128110142D01*
X192075571Y-128038714D01*
X192147000Y-127895857D01*
X192147000Y-127467285D01*
X192075571Y-127324428D01*
X192004142Y-127253000D01*
X191861285Y-127181571D01*
X191575571Y-127181571D01*
X191432714Y-127253000D01*
X190147000Y-128110142D02*
X190289857Y-128181571D01*
X190575571Y-128181571D01*
X190718428Y-128110142D01*
X190789857Y-127967285D01*
X190789857Y-127395857D01*
X190718428Y-127253000D01*
X190575571Y-127181571D01*
X190289857Y-127181571D01*
X190147000Y-127253000D01*
X190075571Y-127395857D01*
X190075571Y-127538714D01*
X190789857Y-127681571D01*
X189432714Y-128181571D02*
X189432714Y-127181571D01*
X189432714Y-127467285D02*
X189361285Y-127324428D01*
X189289857Y-127253000D01*
X189147000Y-127181571D01*
X189004142Y-127181571D01*
X187432714Y-128110142D02*
X187218428Y-128181571D01*
X186861285Y-128181571D01*
X186718428Y-128110142D01*
X186647000Y-128038714D01*
X186575571Y-127895857D01*
X186575571Y-127753000D01*
X186647000Y-127610142D01*
X186718428Y-127538714D01*
X186861285Y-127467285D01*
X187147000Y-127395857D01*
X187289857Y-127324428D01*
X187361285Y-127253000D01*
X187432714Y-127110142D01*
X187432714Y-126967285D01*
X187361285Y-126824428D01*
X187289857Y-126753000D01*
X187147000Y-126681571D01*
X186789857Y-126681571D01*
X186575571Y-126753000D01*
X186147000Y-127181571D02*
X185575571Y-127181571D01*
X185932714Y-126681571D02*
X185932714Y-127967285D01*
X185861285Y-128110142D01*
X185718428Y-128181571D01*
X185575571Y-128181571D01*
X184504142Y-128110142D02*
X184647000Y-128181571D01*
X184932714Y-128181571D01*
X185075571Y-128110142D01*
X185147000Y-127967285D01*
X185147000Y-127395857D01*
X185075571Y-127253000D01*
X184932714Y-127181571D01*
X184647000Y-127181571D01*
X184504142Y-127253000D01*
X184432714Y-127395857D01*
X184432714Y-127538714D01*
X185147000Y-127681571D01*
X183789857Y-127181571D02*
X183789857Y-128181571D01*
X183789857Y-127324428D02*
X183718428Y-127253000D01*
X183575571Y-127181571D01*
X183361285Y-127181571D01*
X183218428Y-127253000D01*
X183147000Y-127395857D01*
X183147000Y-128181571D01*
X182432714Y-128181571D02*
X182432714Y-126681571D01*
X182432714Y-127253000D02*
X182289857Y-127181571D01*
X182004142Y-127181571D01*
X181861285Y-127253000D01*
X181789857Y-127324428D01*
X181718428Y-127467285D01*
X181718428Y-127895857D01*
X181789857Y-128038714D01*
X181861285Y-128110142D01*
X182004142Y-128181571D01*
X182289857Y-128181571D01*
X182432714Y-128110142D01*
X180504142Y-128110142D02*
X180647000Y-128181571D01*
X180932714Y-128181571D01*
X181075571Y-128110142D01*
X181147000Y-127967285D01*
X181147000Y-127395857D01*
X181075571Y-127253000D01*
X180932714Y-127181571D01*
X180647000Y-127181571D01*
X180504142Y-127253000D01*
X180432714Y-127395857D01*
X180432714Y-127538714D01*
X181147000Y-127681571D01*
X179789857Y-128181571D02*
X179789857Y-127181571D01*
X179789857Y-127467285D02*
X179718428Y-127324428D01*
X179647000Y-127253000D01*
X179504142Y-127181571D01*
X179361285Y-127181571D01*
X178218428Y-127181571D02*
X178218428Y-128395857D01*
X178289857Y-128538714D01*
X178361285Y-128610142D01*
X178504142Y-128681571D01*
X178718428Y-128681571D01*
X178861285Y-128610142D01*
X178218428Y-128110142D02*
X178361285Y-128181571D01*
X178647000Y-128181571D01*
X178789857Y-128110142D01*
X178861285Y-128038714D01*
X178932714Y-127895857D01*
X178932714Y-127467285D01*
X178861285Y-127324428D01*
X178789857Y-127253000D01*
X178647000Y-127181571D01*
X178361285Y-127181571D01*
X178218428Y-127253000D01*
X195789857Y-130731571D02*
X195789857Y-129231571D01*
X195789857Y-129945857D02*
X194932714Y-129945857D01*
X194932714Y-130731571D02*
X194932714Y-129231571D01*
X194004142Y-130731571D02*
X194147000Y-130660142D01*
X194218428Y-130588714D01*
X194289857Y-130445857D01*
X194289857Y-130017285D01*
X194218428Y-129874428D01*
X194147000Y-129803000D01*
X194004142Y-129731571D01*
X193789857Y-129731571D01*
X193647000Y-129803000D01*
X193575571Y-129874428D01*
X193504142Y-130017285D01*
X193504142Y-130445857D01*
X193575571Y-130588714D01*
X193647000Y-130660142D01*
X193789857Y-130731571D01*
X194004142Y-130731571D01*
X192647000Y-130731571D02*
X192789857Y-130660142D01*
X192861285Y-130517285D01*
X192861285Y-129231571D01*
X191432714Y-129731571D02*
X191432714Y-130945857D01*
X191504142Y-131088714D01*
X191575571Y-131160142D01*
X191718428Y-131231571D01*
X191932714Y-131231571D01*
X192075571Y-131160142D01*
X191432714Y-130660142D02*
X191575571Y-130731571D01*
X191861285Y-130731571D01*
X192004142Y-130660142D01*
X192075571Y-130588714D01*
X192147000Y-130445857D01*
X192147000Y-130017285D01*
X192075571Y-129874428D01*
X192004142Y-129803000D01*
X191861285Y-129731571D01*
X191575571Y-129731571D01*
X191432714Y-129803000D01*
X190147000Y-130660142D02*
X190289857Y-130731571D01*
X190575571Y-130731571D01*
X190718428Y-130660142D01*
X190789857Y-130517285D01*
X190789857Y-129945857D01*
X190718428Y-129803000D01*
X190575571Y-129731571D01*
X190289857Y-129731571D01*
X190147000Y-129803000D01*
X190075571Y-129945857D01*
X190075571Y-130088714D01*
X190789857Y-130231571D01*
X189432714Y-130731571D02*
X189432714Y-129731571D01*
X189432714Y-130017285D02*
X189361285Y-129874428D01*
X189289857Y-129803000D01*
X189147000Y-129731571D01*
X189004142Y-129731571D01*
X188504142Y-130588714D02*
X188432714Y-130660142D01*
X188504142Y-130731571D01*
X188575571Y-130660142D01*
X188504142Y-130588714D01*
X188504142Y-130731571D01*
X187718428Y-130731571D02*
X187432714Y-130731571D01*
X187289857Y-130660142D01*
X187218428Y-130588714D01*
X187075571Y-130374428D01*
X187004142Y-130088714D01*
X187004142Y-129517285D01*
X187075571Y-129374428D01*
X187147000Y-129303000D01*
X187289857Y-129231571D01*
X187575571Y-129231571D01*
X187718428Y-129303000D01*
X187789857Y-129374428D01*
X187861285Y-129517285D01*
X187861285Y-129874428D01*
X187789857Y-130017285D01*
X187718428Y-130088714D01*
X187575571Y-130160142D01*
X187289857Y-130160142D01*
X187147000Y-130088714D01*
X187075571Y-130017285D01*
X187004142Y-129874428D01*
X186147000Y-129874428D02*
X186289857Y-129803000D01*
X186361285Y-129731571D01*
X186432714Y-129588714D01*
X186432714Y-129517285D01*
X186361285Y-129374428D01*
X186289857Y-129303000D01*
X186147000Y-129231571D01*
X185861285Y-129231571D01*
X185718428Y-129303000D01*
X185647000Y-129374428D01*
X185575571Y-129517285D01*
X185575571Y-129588714D01*
X185647000Y-129731571D01*
X185718428Y-129803000D01*
X185861285Y-129874428D01*
X186147000Y-129874428D01*
X186289857Y-129945857D01*
X186361285Y-130017285D01*
X186432714Y-130160142D01*
X186432714Y-130445857D01*
X186361285Y-130588714D01*
X186289857Y-130660142D01*
X186147000Y-130731571D01*
X185861285Y-130731571D01*
X185718428Y-130660142D01*
X185647000Y-130588714D01*
X185575571Y-130445857D01*
X185575571Y-130160142D01*
X185647000Y-130017285D01*
X185718428Y-129945857D01*
X185861285Y-129874428D01*
X184004142Y-130017285D02*
X184075571Y-129945857D01*
X184218428Y-129874428D01*
X184361285Y-129874428D01*
X184504142Y-129945857D01*
X184575571Y-130017285D01*
X184647000Y-130160142D01*
X184647000Y-130303000D01*
X184575571Y-130445857D01*
X184504142Y-130517285D01*
X184361285Y-130588714D01*
X184218428Y-130588714D01*
X184075571Y-130517285D01*
X184004142Y-130445857D01*
X184004142Y-129874428D02*
X184004142Y-130445857D01*
X183932714Y-130517285D01*
X183861285Y-130517285D01*
X183718428Y-130445857D01*
X183647000Y-130303000D01*
X183647000Y-129945857D01*
X183789857Y-129731571D01*
X184004142Y-129588714D01*
X184289857Y-129517285D01*
X184575571Y-129588714D01*
X184789857Y-129731571D01*
X184932714Y-129945857D01*
X185004142Y-130231571D01*
X184932714Y-130517285D01*
X184789857Y-130731571D01*
X184575571Y-130874428D01*
X184289857Y-130945857D01*
X184004142Y-130874428D01*
X183789857Y-130731571D01*
X183004142Y-130731571D02*
X183004142Y-129231571D01*
X182361285Y-130731571D02*
X182361285Y-129945857D01*
X182432714Y-129803000D01*
X182575571Y-129731571D01*
X182789857Y-129731571D01*
X182932714Y-129803000D01*
X183004142Y-129874428D01*
X181432714Y-130731571D02*
X181575571Y-130660142D01*
X181647000Y-130588714D01*
X181718428Y-130445857D01*
X181718428Y-130017285D01*
X181647000Y-129874428D01*
X181575571Y-129803000D01*
X181432714Y-129731571D01*
X181218428Y-129731571D01*
X181075571Y-129803000D01*
X181004142Y-129874428D01*
X180932714Y-130017285D01*
X180932714Y-130445857D01*
X181004142Y-130588714D01*
X181075571Y-130660142D01*
X181218428Y-130731571D01*
X181432714Y-130731571D01*
X180504142Y-129731571D02*
X179932714Y-129731571D01*
X180289857Y-129231571D02*
X180289857Y-130517285D01*
X180218428Y-130660142D01*
X180075571Y-130731571D01*
X179932714Y-130731571D01*
X179432714Y-130731571D02*
X179432714Y-129731571D01*
X179432714Y-129874428D02*
X179361285Y-129803000D01*
X179218428Y-129731571D01*
X179004142Y-129731571D01*
X178861285Y-129803000D01*
X178789857Y-129945857D01*
X178789857Y-130731571D01*
X178789857Y-129945857D02*
X178718428Y-129803000D01*
X178575571Y-129731571D01*
X178361285Y-129731571D01*
X178218428Y-129803000D01*
X178147000Y-129945857D01*
X178147000Y-130731571D01*
X176789857Y-130731571D02*
X176789857Y-129945857D01*
X176861285Y-129803000D01*
X177004142Y-129731571D01*
X177289857Y-129731571D01*
X177432714Y-129803000D01*
X176789857Y-130660142D02*
X176932714Y-130731571D01*
X177289857Y-130731571D01*
X177432714Y-130660142D01*
X177504142Y-130517285D01*
X177504142Y-130374428D01*
X177432714Y-130231571D01*
X177289857Y-130160142D01*
X176932714Y-130160142D01*
X176789857Y-130088714D01*
X176075571Y-130731571D02*
X176075571Y-129731571D01*
X176075571Y-129231571D02*
X176147000Y-129303000D01*
X176075571Y-129374428D01*
X176004142Y-129303000D01*
X176075571Y-129231571D01*
X176075571Y-129374428D01*
X175147000Y-130731571D02*
X175289857Y-130660142D01*
X175361285Y-130517285D01*
X175361285Y-129231571D01*
X174575571Y-130588714D02*
X174504142Y-130660142D01*
X174575571Y-130731571D01*
X174647000Y-130660142D01*
X174575571Y-130588714D01*
X174575571Y-130731571D01*
X173218428Y-130660142D02*
X173361285Y-130731571D01*
X173647000Y-130731571D01*
X173789857Y-130660142D01*
X173861285Y-130588714D01*
X173932714Y-130445857D01*
X173932714Y-130017285D01*
X173861285Y-129874428D01*
X173789857Y-129803000D01*
X173647000Y-129731571D01*
X173361285Y-129731571D01*
X173218428Y-129803000D01*
X172361285Y-130731571D02*
X172504142Y-130660142D01*
X172575571Y-130588714D01*
X172647000Y-130445857D01*
X172647000Y-130017285D01*
X172575571Y-129874428D01*
X172504142Y-129803000D01*
X172361285Y-129731571D01*
X172147000Y-129731571D01*
X172004142Y-129803000D01*
X171932714Y-129874428D01*
X171861285Y-130017285D01*
X171861285Y-130445857D01*
X171932714Y-130588714D01*
X172004142Y-130660142D01*
X172147000Y-130731571D01*
X172361285Y-130731571D01*
X171218428Y-130731571D02*
X171218428Y-129731571D01*
X171218428Y-129874428D02*
X171147000Y-129803000D01*
X171004142Y-129731571D01*
X170789857Y-129731571D01*
X170647000Y-129803000D01*
X170575571Y-129945857D01*
X170575571Y-130731571D01*
X170575571Y-129945857D02*
X170504142Y-129803000D01*
X170361285Y-129731571D01*
X170147000Y-129731571D01*
X170004142Y-129803000D01*
X169932714Y-129945857D01*
X169932714Y-130731571D01*
D11*
%TO.C,J1*%
X133690000Y-143730000D02*
X133690000Y-138740000D01*
X133670000Y-138600000D02*
X121450000Y-138600000D01*
X133690000Y-143860000D02*
X111192000Y-143860000D01*
X111192000Y-143860000D02*
X111192000Y-138600000D01*
X121470000Y-138600000D02*
X111192000Y-138600000D01*
X133690000Y-143630000D02*
X133690000Y-143850000D01*
X133050000Y-144200000D02*
X134050000Y-144200000D01*
X134050000Y-144200000D02*
X134050000Y-143200000D01*
X133690000Y-138600000D02*
X133690000Y-138730000D01*
X133690000Y-138600000D02*
X133670000Y-138600000D01*
X112333333Y-137202380D02*
X112333333Y-137916666D01*
X112380952Y-138059523D01*
X112476190Y-138154761D01*
X112619047Y-138202380D01*
X112714285Y-138202380D01*
X111333333Y-138202380D02*
X111904761Y-138202380D01*
X111619047Y-138202380D02*
X111619047Y-137202380D01*
X111714285Y-137345238D01*
X111809523Y-137440476D01*
X111904761Y-137488095D01*
%TD*%
M02*
