%TF.GenerationSoftware,KiCad,Pcbnew,(5.1.4-0)*%
%TF.CreationDate,2021-02-17T16:05:53+01:00*%
%TF.ProjectId,Indicators,496e6469-6361-4746-9f72-732e6b696361,rev?*%
%TF.SameCoordinates,Original*%
%TF.FileFunction,Profile,NP*%
%FSLAX46Y46*%
G04 Gerber Fmt 4.6, Leading zero omitted, Abs format (unit mm)*
G04 Created by KiCad (PCBNEW (5.1.4-0)) date 2021-02-17 16:05:53*
%MOMM*%
%LPD*%
G04 APERTURE LIST*
%ADD10C,0.200000*%
G04 APERTURE END LIST*
D10*
X198404079Y-142542160D02*
G75*
G02X194404079Y-146542160I-4000000J0D01*
G01*
X198404079Y-127394660D02*
X198404079Y-142542160D01*
X196908376Y-125781208D02*
G75*
G02X198404079Y-127394660I0J-1500000D01*
G01*
X101908377Y-125781209D02*
X196908375Y-125781209D01*
X194404079Y-146542160D02*
X177032388Y-146542160D01*
X101908377Y-125781209D02*
G75*
G02X100408377Y-124281209I0J1500000D01*
G01*
X100408377Y-71650000D02*
X100408377Y-124281209D01*
X97908376Y-69149999D02*
G75*
G02X100408377Y-71650000I0J-2500001D01*
G01*
X95850000Y-69150001D02*
X97908377Y-69150000D01*
X93706094Y-69823288D02*
G75*
G02X95850000Y-69150001I2143906J-3076712D01*
G01*
X89440136Y-137493765D02*
G75*
G02X88277424Y-136246815I87289J1246950D01*
G01*
X88277424Y-136246815D02*
X88277425Y-75240869D01*
X153784364Y-146542160D02*
X101238036Y-146542160D01*
X101238036Y-146542160D02*
G75*
G02X96948683Y-143402840I0J4500000D01*
G01*
X89440135Y-137493763D02*
G75*
G02X96948683Y-143402840I-593564J-8479251D01*
G01*
X177032388Y-146542160D02*
G75*
G02X173008691Y-144057071I0J4500000D01*
G01*
X157808061Y-144057071D02*
G75*
G02X153784364Y-146542160I-4023697J2014911D01*
G01*
X157808061Y-144057073D02*
G75*
G02X173008691Y-144057071I7600315J-3805941D01*
G01*
X93706094Y-69823287D02*
G75*
G02X91416745Y-70951515I-4859523J6973884D01*
G01*
X98377425Y-138034694D02*
G75*
G03X98377425Y-138034694I-1600000J0D01*
G01*
X195004080Y-142696155D02*
G75*
G03X195004080Y-142696155I-1600001J0D01*
G01*
X88277425Y-75240868D02*
G75*
G02X91416745Y-70951515I4500000J0D01*
G01*
X98808377Y-71693856D02*
G75*
G03X98808377Y-71693856I-1600000J0D01*
G01*
M02*
